# MagicaVoxel @ Ephtracy

# group
o 

# material
mtllib untitled-113.mtl
usemtl palette

# normals
vn 0 0 1
vn 0 0 -1
vn 1 0 0
vn -1 0 0
vn 0 -1 0
vn 0 1 0

# texcoords
vt 0.970703 0.5
vt 0.974609 0.5
vt 0.978516 0.5

# verts
v -21.2 5.4 -12.6
v -22.2 5.4 -12.6
v -21.5 6.7 -12.6
v -21.7 6.7 -12.6
v -21.4 7.3 -12.6
v -21.5 7.3 -12.6
v -21.6 7.8 -12.6
v -21.7 7.8 -12.6
v -21.4 8 -12.6
v -21.6 8 -12.6
v -21.4 8.9 -12.6
v -21.7 8.9 -12.6
v -21.7 9.3 -12.6
v -21.8 9.3 -12.6
v -21.4 10 -12.6
v -21.5 10 -12.6
v -21.8 10.4 -12.6
v -21.9 10.4 -12.6
v -21.5 10.7 -12.6
v -21.9 10.7 -12.6
v -21.5 11.3 -12.6
v -21.7 11.3 -12.6
v -21.4 11.4 -12.6
v -21.5 11.4 -12.6
v -21.7 11.4 -12.6
v -21.8 11.4 -12.6
v -21.3 11.5 -12.6
v -21.4 11.5 -12.6
v -21.8 11.5 -12.6
v -22 11.5 -12.6
v -21.2 11.6 -12.6
v -21.3 11.6 -12.6
v -21.4 11.6 -12.6
v -21.9 11.6 -12.6
v -22 11.6 -12.6
v -22.1 11.6 -12.6
v -21.4 11.7 -12.6
v -21.5 11.7 -12.6
v -21.3 11.8 -12.6
v -21.4 11.8 -12.6
v -22 11.9 -12.6
v -22.1 11.9 -12.6
v -21.4 12 -12.6
v -21.5 12 -12.6
v -21.9 12 -12.6
v -22 12 -12.6
v -21.4 12.1 -12.6
v -21.9 12.1 -12.6
v -22 12.1 -12.6
v -22.1 12.1 -12.6
v -21.3 12.2 -12.6
v -21.9 12.2 -12.6
v -22 12.2 -12.6
v -21.2 12.3 -12.6
v -21.3 12.3 -12.6
v -21.5 12.3 -12.6
v -21.9 12.3 -12.6
v -22 12.3 -12.6
v -22.1 12.3 -12.6
v -21.2 12.4 -12.6
v -21.3 12.4 -12.6
v -21.5 12.4 -12.6
v -22.2 12.4 -12.6
v -21.2 5.4 -13.6
v -22.2 5.4 -13.6
v -21.6 11.2 -13.6
v -21.8 11.2 -13.6
v -21.4 11.3 -13.6
v -21.6 11.3 -13.6
v -21.8 11.3 -13.6
v -22 11.3 -13.6
v -21.2 11.4 -13.6
v -21.4 11.4 -13.6
v -21.6 11.4 -13.6
v -21.8 11.4 -13.6
v -22 11.4 -13.6
v -22.1 11.4 -13.6
v -21.3 11.5 -13.6
v -21.6 11.5 -13.6
v -21.8 11.5 -13.6
v -22 11.5 -13.6
v -21.4 11.6 -13.6
v -21.9 11.6 -13.6
v -22 11.8 -13.6
v -22.1 11.8 -13.6
v -21.2 12 -13.6
v -21.3 12 -13.6
v -22.1 12 -13.6
v -22.2 12 -13.6
v -21.4 12.1 -13.6
v -21.9 12.1 -13.6
v -21.3 12.3 -13.6
v -21.4 12.3 -13.6
v -21.7 12.3 -13.6
v -22 12.3 -13.6
v -21.2 12.4 -13.6
v -21.4 12.4 -13.6
v -21.7 12.4 -13.6
v -22 12.4 -13.6
v -22.2 12.4 -13.6
v -21.2 5.4 -12.6
v -21.2 11.6 -12.6
v -21.2 12.3 -12.6
v -21.2 12.4 -12.6
v -21.2 11.9 -12.7
v -21.2 12.2 -12.7
v -21.2 12.3 -12.7
v -21.2 11.4 -12.8
v -21.2 11.6 -12.8
v -21.2 11.7 -12.8
v -21.2 11.9 -12.8
v -21.2 9.7 -12.9
v -21.2 11.1 -12.9
v -21.2 11.3 -12.9
v -21.2 11.4 -12.9
v -21.2 11.5 -12.9
v -21.2 11.7 -12.9
v -21.2 12.1 -12.9
v -21.2 12.2 -12.9
v -21.2 12.3 -12.9
v -21.2 6.2 -13
v -21.2 7.2 -13
v -21.2 11.6 -13
v -21.2 11.7 -13
v -21.2 9.7 -13.1
v -21.2 10.5 -13.1
v -21.2 11.1 -13.1
v -21.2 11.2 -13.1
v -21.2 11.3 -13.1
v -21.2 11.4 -13.1
v -21.2 6.2 -13.2
v -21.2 7.2 -13.2
v -21.2 8.8 -13.2
v -21.2 9.8 -13.2
v -21.2 10.5 -13.2
v -21.2 10.6 -13.2
v -21.2 11.3 -13.2
v -21.2 11.4 -13.2
v -21.2 12.2 -13.2
v -21.2 12.3 -13.2
v -21.2 8.7 -13.3
v -21.2 8.8 -13.3
v -21.2 10.6 -13.3
v -21.2 10.7 -13.3
v -21.2 11.5 -13.3
v -21.2 11.6 -13.3
v -21.2 8.7 -13.4
v -21.2 9.8 -13.4
v -21.2 10.7 -13.4
v -21.2 11.2 -13.4
v -21.2 11.6 -13.4
v -21.2 12.1 -13.4
v -21.2 11.3 -13.5
v -21.2 11.4 -13.5
v -21.2 11.6 -13.5
v -21.2 12 -13.5
v -21.2 12.2 -13.5
v -21.2 5.4 -13.6
v -21.2 11.4 -13.6
v -21.2 12 -13.6
v -21.2 12.4 -13.6
v -22.2 5.4 -12.6
v -22.2 12.4 -12.6
v -22.2 11.4 -12.7
v -22.2 12.2 -12.7
v -22.2 11.1 -12.8
v -22.2 11.4 -12.8
v -22.2 12.2 -12.8
v -22.2 12.3 -12.8
v -22.2 11.1 -12.9
v -22.2 11.2 -12.9
v -22.2 12 -12.9
v -22.2 12.1 -12.9
v -22.2 11.2 -13
v -22.2 11.3 -13
v -22.2 11.6 -13
v -22.2 12 -13
v -22.2 11.3 -13.1
v -22.2 11.4 -13.1
v -22.2 12.2 -13.1
v -22.2 12.3 -13.1
v -22.2 11.4 -13.2
v -22.2 11.5 -13.2
v -22.2 11.5 -13.3
v -22.2 11.6 -13.3
v -22.2 12 -13.3
v -22.2 12.1 -13.3
v -22.2 11.7 -13.4
v -22.2 12 -13.4
v -22.2 11.7 -13.5
v -22.2 12 -13.5
v -22.2 12.2 -13.5
v -22.2 12.4 -13.5
v -22.2 5.4 -13.6
v -22.2 12 -13.6
v -22.2 12.4 -13.6
v -21.2 5.4 -12.6
v -21.2 5.4 -13.6
v -22.2 5.4 -12.6
v -22.2 5.4 -13.6
v -21.2 12.4 -12.6
v -21.2 12.4 -13.6
v -21.3 12.4 -12.6
v -21.3 12.4 -12.7
v -21.4 12.4 -13.5
v -21.4 12.4 -13.6
v -21.5 12.4 -12.6
v -21.5 12.4 -12.7
v -21.7 12.4 -13.5
v -21.7 12.4 -13.6
v -22 12.4 -13.5
v -22 12.4 -13.6
v -22.2 12.4 -12.6
v -22.2 12.4 -13.5
v -22.2 12.4 -13.6

# faces
f 3/3/1 2/3/1 1/3/1
f 4/3/1 2/3/1 3/3/1
f 5/3/1 3/3/1 1/3/1
f 6/2/1 4/2/1 3/2/1
f 6/3/1 3/3/1 5/3/1
f 7/2/1 6/2/1 5/2/1
f 7/2/1 4/2/1 6/2/1
f 8/3/1 2/3/1 4/3/1
f 8/2/1 4/2/1 7/2/1
f 9/2/1 7/2/1 5/2/1
f 9/3/1 5/3/1 1/3/1
f 10/3/1 8/3/1 7/3/1
f 10/2/1 7/2/1 9/2/1
f 11/3/1 9/3/1 1/3/1
f 11/3/1 10/3/1 9/3/1
f 12/3/1 2/3/1 8/3/1
f 12/3/1 10/3/1 11/3/1
f 12/3/1 8/3/1 10/3/1
f 13/2/1 12/2/1 11/2/1
f 13/3/1 2/3/1 12/3/1
f 14/3/1 2/3/1 13/3/1
f 15/3/1 11/3/1 1/3/1
f 15/2/1 13/2/1 11/2/1
f 15/2/1 14/2/1 13/2/1
f 16/2/1 14/2/1 15/2/1
f 17/3/1 2/3/1 14/3/1
f 17/2/1 14/2/1 16/2/1
f 18/3/1 2/3/1 17/3/1
f 19/3/1 16/3/1 15/3/1
f 19/2/1 17/2/1 16/2/1
f 19/2/1 18/2/1 17/2/1
f 20/3/1 2/3/1 18/3/1
f 20/2/1 18/2/1 19/2/1
f 21/3/1 19/3/1 15/3/1
f 21/3/1 20/3/1 19/3/1
f 22/3/1 20/3/1 21/3/1
f 23/3/1 15/3/1 1/3/1
f 23/3/1 21/3/1 15/3/1
f 24/2/1 22/2/1 21/2/1
f 24/3/1 21/3/1 23/3/1
f 25/3/1 20/3/1 22/3/1
f 25/2/1 22/2/1 24/2/1
f 26/3/1 20/3/1 25/3/1
f 27/3/1 23/3/1 1/3/1
f 28/2/1 24/2/1 23/2/1
f 28/3/1 23/3/1 27/3/1
f 28/2/1 25/2/1 24/2/1
f 28/2/1 26/2/1 25/2/1
f 29/3/1 20/3/1 26/3/1
f 29/2/1 26/2/1 28/2/1
f 30/3/1 2/3/1 20/3/1
f 30/3/1 20/3/1 29/3/1
f 31/3/1 27/3/1 1/3/1
f 32/2/1 29/2/1 28/2/1
f 32/3/1 27/3/1 31/3/1
f 32/2/1 28/2/1 27/2/1
f 32/2/1 30/2/1 29/2/1
f 33/2/1 30/2/1 32/2/1
f 34/2/1 30/2/1 33/2/1
f 35/3/1 2/3/1 30/3/1
f 35/2/1 30/2/1 34/2/1
f 36/3/1 2/3/1 35/3/1
f 37/3/1 34/3/1 33/3/1
f 37/2/1 32/2/1 31/2/1
f 37/2/1 33/2/1 32/2/1
f 38/3/1 34/3/1 37/3/1
f 39/2/1 37/2/1 31/2/1
f 40/1/1 38/1/1 37/1/1
f 40/2/1 37/2/1 39/2/1
f 41/2/1 36/2/1 35/2/1
f 41/2/1 35/2/1 34/2/1
f 42/3/1 2/3/1 36/3/1
f 42/2/1 36/2/1 41/2/1
f 43/1/1 38/1/1 40/1/1
f 43/1/1 40/1/1 39/1/1
f 44/3/1 34/3/1 38/3/1
f 44/1/1 38/1/1 43/1/1
f 45/2/1 41/2/1 34/2/1
f 45/3/1 34/3/1 44/3/1
f 46/3/1 42/3/1 41/3/1
f 46/2/1 41/2/1 45/2/1
f 47/3/1 44/3/1 43/3/1
f 47/3/1 45/3/1 44/3/1
f 47/1/1 43/1/1 39/1/1
f 48/1/1 46/1/1 45/1/1
f 48/3/1 45/3/1 47/3/1
f 49/3/1 42/3/1 46/3/1
f 49/1/1 46/1/1 48/1/1
f 50/3/1 2/3/1 42/3/1
f 50/3/1 42/3/1 49/3/1
f 51/1/1 48/1/1 47/1/1
f 51/1/1 49/1/1 48/1/1
f 51/1/1 50/1/1 49/1/1
f 51/2/1 39/2/1 31/2/1
f 51/1/1 47/1/1 39/1/1
f 52/1/1 50/1/1 51/1/1
f 53/1/1 50/1/1 52/1/1
f 54/2/1 51/2/1 31/2/1
f 54/2/1 52/2/1 51/2/1
f 55/2/1 52/2/1 54/2/1
f 56/2/1 52/2/1 55/2/1
f 57/3/1 53/3/1 52/3/1
f 57/2/1 52/2/1 56/2/1
f 58/1/1 50/1/1 53/1/1
f 58/3/1 53/3/1 57/3/1
f 59/3/1 2/3/1 50/3/1
f 59/1/1 50/1/1 58/1/1
f 60/3/1 55/3/1 54/3/1
f 61/2/1 56/2/1 55/2/1
f 61/3/1 55/3/1 60/3/1
f 62/3/1 58/3/1 57/3/1
f 62/2/1 56/2/1 61/2/1
f 62/3/1 57/3/1 56/3/1
f 62/3/1 59/3/1 58/3/1
f 63/3/1 2/3/1 59/3/1
f 63/3/1 59/3/1 62/3/1
f 64/3/2 65/3/2 66/3/2
f 66/3/2 65/3/2 67/3/2
f 64/3/2 66/3/2 68/3/2
f 66/2/2 67/2/2 69/2/2
f 68/3/2 66/3/2 69/3/2
f 67/3/2 65/3/2 70/3/2
f 69/2/2 67/2/2 70/2/2
f 70/3/2 65/3/2 71/3/2
f 64/3/2 68/3/2 72/3/2
f 68/2/2 69/2/2 73/2/2
f 72/3/2 68/3/2 73/3/2
f 69/2/2 70/2/2 73/2/2
f 70/2/2 71/2/2 73/2/2
f 73/2/2 71/2/2 74/2/2
f 74/2/2 71/2/2 75/2/2
f 71/3/2 65/3/2 76/3/2
f 75/2/2 71/2/2 76/2/2
f 76/3/2 65/3/2 77/3/2
f 72/2/2 73/2/2 78/2/2
f 73/2/2 74/2/2 78/2/2
f 74/1/2 75/1/2 79/1/2
f 78/2/2 74/2/2 79/2/2
f 76/2/2 77/2/2 80/2/2
f 79/1/2 75/1/2 80/1/2
f 75/2/2 76/2/2 80/2/2
f 80/2/2 77/2/2 81/2/2
f 78/1/2 79/1/2 82/1/2
f 79/1/2 80/1/2 82/1/2
f 80/1/2 81/1/2 82/1/2
f 82/1/2 81/1/2 83/1/2
f 81/2/2 77/2/2 84/2/2
f 83/1/2 81/1/2 84/1/2
f 77/3/2 65/3/2 85/3/2
f 84/2/2 77/2/2 85/2/2
f 72/2/2 78/2/2 86/2/2
f 78/1/2 82/1/2 87/1/2
f 86/2/2 78/2/2 87/2/2
f 85/3/2 65/3/2 88/3/2
f 84/1/2 85/1/2 88/1/2
f 88/3/2 65/3/2 89/3/2
f 87/1/2 82/1/2 90/1/2
f 82/3/2 83/3/2 90/3/2
f 83/1/2 84/1/2 91/1/2
f 90/3/2 83/3/2 91/3/2
f 88/1/2 89/1/2 91/1/2
f 84/1/2 88/1/2 91/1/2
f 87/1/2 90/1/2 92/1/2
f 86/3/2 87/3/2 92/3/2
f 90/1/2 91/1/2 92/1/2
f 92/1/2 91/1/2 93/1/2
f 93/1/2 91/1/2 94/1/2
f 91/1/2 89/1/2 95/1/2
f 94/1/2 91/1/2 95/1/2
f 86/3/2 92/3/2 96/3/2
f 92/3/2 93/3/2 96/3/2
f 93/1/2 94/1/2 97/1/2
f 96/3/2 93/3/2 97/3/2
f 94/3/2 95/3/2 98/3/2
f 97/1/2 94/1/2 98/1/2
f 95/1/2 89/1/2 99/1/2
f 98/3/2 95/3/2 99/3/2
f 99/1/2 89/1/2 100/1/2
f 105/2/3 103/2/3 102/2/3
f 106/2/3 103/2/3 105/2/3
f 107/3/3 104/3/3 103/3/3
f 107/2/3 103/2/3 106/2/3
f 108/3/3 102/3/3 101/3/3
f 109/2/3 105/2/3 102/2/3
f 109/3/3 102/3/3 108/3/3
f 110/2/3 105/2/3 109/2/3
f 111/1/3 106/1/3 105/1/3
f 111/2/3 105/2/3 110/2/3
f 112/3/3 108/3/3 101/3/3
f 113/3/3 108/3/3 112/3/3
f 114/3/3 108/3/3 113/3/3
f 115/2/3 110/2/3 109/2/3
f 115/3/3 108/3/3 114/3/3
f 115/2/3 109/2/3 108/2/3
f 116/2/3 110/2/3 115/2/3
f 117/1/3 111/1/3 110/1/3
f 117/2/3 110/2/3 116/2/3
f 118/1/3 106/1/3 111/1/3
f 118/1/3 111/1/3 117/1/3
f 119/3/3 107/3/3 106/3/3
f 119/1/3 106/1/3 118/1/3
f 120/3/3 104/3/3 107/3/3
f 120/3/3 107/3/3 119/3/3
f 121/3/3 112/3/3 101/3/3
f 122/3/3 112/3/3 121/3/3
f 123/1/3 117/1/3 116/1/3
f 124/3/3 118/3/3 117/3/3
f 124/1/3 117/1/3 123/1/3
f 125/3/3 112/3/3 122/3/3
f 125/2/3 113/2/3 112/2/3
f 126/2/3 113/2/3 125/2/3
f 127/3/3 114/3/3 113/3/3
f 127/2/3 113/2/3 126/2/3
f 128/3/3 114/3/3 127/3/3
f 129/2/3 116/2/3 115/2/3
f 129/3/3 114/3/3 128/3/3
f 129/2/3 115/2/3 114/2/3
f 130/2/3 116/2/3 129/2/3
f 131/3/3 121/3/3 101/3/3
f 131/2/3 122/2/3 121/2/3
f 132/3/3 126/3/3 125/3/3
f 132/2/3 122/2/3 131/2/3
f 132/3/3 125/3/3 122/3/3
f 133/3/3 126/3/3 132/3/3
f 134/3/3 126/3/3 133/3/3
f 135/2/3 128/2/3 127/2/3
f 135/3/3 126/3/3 134/3/3
f 135/2/3 127/2/3 126/2/3
f 136/2/3 128/2/3 135/2/3
f 137/3/3 130/3/3 129/3/3
f 137/3/3 129/3/3 128/3/3
f 138/2/3 116/2/3 130/2/3
f 138/3/3 130/3/3 137/3/3
f 139/1/3 119/1/3 118/1/3
f 139/1/3 120/1/3 119/1/3
f 140/3/3 104/3/3 120/3/3
f 140/1/3 120/1/3 139/1/3
f 141/3/3 133/3/3 132/3/3
f 141/3/3 132/3/3 131/3/3
f 142/2/3 134/2/3 133/2/3
f 142/3/3 133/3/3 141/3/3
f 143/2/3 128/2/3 136/2/3
f 143/3/3 136/3/3 135/3/3
f 143/3/3 135/3/3 134/3/3
f 144/2/3 128/2/3 143/2/3
f 145/2/3 116/2/3 138/2/3
f 145/1/3 123/1/3 116/1/3
f 145/2/3 138/2/3 137/2/3
f 146/3/3 124/3/3 123/3/3
f 146/1/3 123/1/3 145/1/3
f 147/3/3 141/3/3 131/3/3
f 147/2/3 142/2/3 141/2/3
f 148/3/3 144/3/3 143/3/3
f 148/2/3 142/2/3 147/2/3
f 148/3/3 143/3/3 134/3/3
f 148/2/3 134/2/3 142/2/3
f 149/2/3 128/2/3 144/2/3
f 149/3/3 144/3/3 148/3/3
f 150/3/3 137/3/3 128/3/3
f 150/2/3 128/2/3 149/2/3
f 151/3/3 124/3/3 146/3/3
f 151/2/3 146/2/3 145/2/3
f 152/3/3 118/3/3 124/3/3
f 152/3/3 124/3/3 151/3/3
f 152/1/3 139/1/3 118/1/3
f 153/3/3 148/3/3 147/3/3
f 153/2/3 151/2/3 145/2/3
f 153/2/3 145/2/3 137/2/3
f 153/3/3 149/3/3 148/3/3
f 153/3/3 137/3/3 150/3/3
f 153/3/3 150/3/3 149/3/3
f 154/2/3 151/2/3 153/2/3
f 155/1/3 152/1/3 151/1/3
f 155/2/3 151/2/3 154/2/3
f 156/1/3 152/1/3 155/1/3
f 157/1/3 139/1/3 152/1/3
f 157/1/3 152/1/3 156/1/3
f 157/3/3 140/3/3 139/3/3
f 158/3/3 131/3/3 101/3/3
f 158/3/3 154/3/3 153/3/3
f 158/3/3 147/3/3 131/3/3
f 158/3/3 153/3/3 147/3/3
f 159/2/3 156/2/3 155/2/3
f 159/3/3 154/3/3 158/3/3
f 159/2/3 155/2/3 154/2/3
f 160/3/3 157/3/3 156/3/3
f 160/2/3 156/2/3 159/2/3
f 161/3/3 140/3/3 157/3/3
f 161/3/3 157/3/3 160/3/3
f 161/3/3 104/3/3 140/3/3
f 162/3/4 163/3/4 164/3/4
f 164/3/4 163/3/4 165/3/4
f 162/3/4 164/3/4 166/3/4
f 164/1/4 165/1/4 167/1/4
f 166/3/4 164/3/4 167/3/4
f 165/3/4 163/3/4 168/3/4
f 167/1/4 165/1/4 168/1/4
f 168/3/4 163/3/4 169/3/4
f 166/1/4 167/1/4 170/1/4
f 162/3/4 166/3/4 170/3/4
f 168/1/4 169/1/4 170/1/4
f 167/1/4 168/1/4 170/1/4
f 170/1/4 169/1/4 171/1/4
f 171/1/4 169/1/4 172/1/4
f 172/1/4 169/1/4 173/1/4
f 170/3/4 171/3/4 174/3/4
f 171/1/4 172/1/4 174/1/4
f 174/1/4 172/1/4 175/1/4
f 175/1/4 172/1/4 176/1/4
f 172/3/4 173/3/4 177/3/4
f 176/1/4 172/1/4 177/1/4
f 175/1/4 176/1/4 178/1/4
f 174/3/4 175/3/4 178/3/4
f 178/1/4 176/1/4 179/1/4
f 173/1/4 169/1/4 180/1/4
f 169/3/4 163/3/4 181/3/4
f 180/1/4 169/1/4 181/1/4
f 179/1/4 176/1/4 182/1/4
f 178/3/4 179/3/4 182/3/4
f 182/1/4 176/1/4 183/1/4
f 182/3/4 183/3/4 184/3/4
f 183/1/4 176/1/4 184/1/4
f 176/3/4 177/3/4 185/3/4
f 184/1/4 176/1/4 185/1/4
f 177/3/4 173/3/4 186/3/4
f 185/3/4 177/3/4 186/3/4
f 173/1/4 180/1/4 187/1/4
f 186/3/4 173/3/4 187/3/4
f 185/3/4 186/3/4 188/3/4
f 184/3/4 185/3/4 188/3/4
f 186/1/4 187/1/4 189/1/4
f 188/3/4 186/3/4 189/3/4
f 184/3/4 188/3/4 190/3/4
f 188/1/4 189/1/4 190/1/4
f 189/1/4 187/1/4 191/1/4
f 190/1/4 189/1/4 191/1/4
f 187/1/4 180/1/4 192/1/4
f 191/1/4 187/1/4 192/1/4
f 180/3/4 181/3/4 192/3/4
f 181/3/4 163/3/4 193/3/4
f 192/3/4 181/3/4 193/3/4
f 190/3/4 191/3/4 194/3/4
f 162/3/4 170/3/4 194/3/4
f 184/3/4 190/3/4 194/3/4
f 178/3/4 182/3/4 194/3/4
f 174/3/4 178/3/4 194/3/4
f 182/3/4 184/3/4 194/3/4
f 170/3/4 174/3/4 194/3/4
f 192/1/4 193/1/4 195/1/4
f 194/3/4 191/3/4 195/3/4
f 191/1/4 192/1/4 195/1/4
f 195/1/4 193/1/4 196/1/4
f 199/3/5 198/3/5 197/3/5
f 200/3/5 198/3/5 199/3/5
f 201/3/6 202/3/6 203/3/6
f 203/3/6 202/3/6 204/3/6
f 204/3/6 202/3/6 205/3/6
f 205/3/6 202/3/6 206/3/6
f 203/2/6 204/2/6 207/2/6
f 204/3/6 205/3/6 208/3/6
f 207/2/6 204/2/6 208/2/6
f 205/1/6 206/1/6 209/1/6
f 208/3/6 205/3/6 209/3/6
f 207/3/6 208/3/6 209/3/6
f 209/1/6 206/1/6 210/1/6
f 207/3/6 209/3/6 211/3/6
f 209/3/6 210/3/6 211/3/6
f 211/3/6 210/3/6 212/3/6
f 207/3/6 211/3/6 213/3/6
f 211/1/6 212/1/6 214/1/6
f 213/3/6 211/3/6 214/3/6
f 214/1/6 212/1/6 215/1/6
