# MagicaVoxel @ Ephtracy

# group
o 

# material
mtllib untitled-55.mtl
usemtl palette

# normals
vn 1 0 0
vn -1 0 0
vn 0 0 -1
vn 0 0 1
vn 0 -1 0
vn 0 1 0

# texcoords
vt 0.978516 0.5
vt 0.982422 0.5
vt 0.994141 0.5

# verts
v 12.8 0.4 -11.8
v 12.8 0.4 -10.3
v 12.8 0.7 -11.8
v 12.8 0.7 -10.3
v 12.8 0.8 -11.8
v 12.8 0.8 -10.3
v 9.6 0.4 -11.8
v 9.6 0.4 -10.3
v 9.6 0.7 -11.8
v 9.6 0.7 -11.7
v 9.6 0.7 -10.4
v 9.6 0.7 -10.3
v 9.6 0.8 -11.8
v 9.6 0.8 -11.7
v 9.6 0.8 -10.4
v 9.6 0.8 -10.3
v 12.8 0.4 -11.8
v 12.8 0.7 -11.8
v 12.8 0.8 -11.8
v 11.6 0.7 -11.8
v 11.6 0.8 -11.8
v 9.6 0.4 -11.8
v 9.6 0.7 -11.8
v 9.6 0.8 -11.8
v 12.8 0.4 -10.3
v 12.8 0.7 -10.3
v 12.8 0.8 -10.3
v 11.4 0.7 -10.3
v 11.4 0.8 -10.3
v 9.6 0.4 -10.3
v 9.6 0.7 -10.3
v 9.6 0.8 -10.3
v 12.8 0.4 -11.8
v 9.6 0.4 -11.8
v 12.8 0.4 -10.3
v 9.6 0.4 -10.3
v 12.8 0.8 -11.8
v 11.6 0.8 -11.8
v 9.6 0.8 -11.8
v 12.1 0.8 -11.7
v 11.6 0.8 -11.7
v 11.5 0.8 -11.7
v 9.6 0.8 -11.7
v 12.4 0.8 -11.6
v 12.1 0.8 -11.6
v 12 0.8 -11.6
v 11.5 0.8 -11.6
v 12.5 0.8 -11.5
v 12.4 0.8 -11.5
v 12.2 0.8 -11.5
v 12 0.8 -11.5
v 12.6 0.8 -11.4
v 12.5 0.8 -11.4
v 12.3 0.8 -11.4
v 12.2 0.8 -11.4
v 11.1 0.8 -11.4
v 10.3 0.8 -11.4
v 12.4 0.8 -11.3
v 12.3 0.8 -11.3
v 11.1 0.8 -11.3
v 10.4 0.8 -11.3
v 10.3 0.8 -11.3
v 10.2 0.8 -11.3
v 12.6 0.8 -11.2
v 12.5 0.8 -11.2
v 12.4 0.8 -11.2
v 12.3 0.8 -11.2
v 10.4 0.8 -11.2
v 10.3 0.8 -11.2
v 10.2 0.8 -11.2
v 10.1 0.8 -11.2
v 12.5 0.8 -11.1
v 12.4 0.8 -11.1
v 12.3 0.8 -11.1
v 12.1 0.8 -11.1
v 12.4 0.8 -11
v 12.2 0.8 -11
v 12.1 0.8 -11
v 11.7 0.8 -11
v 10.4 0.8 -11
v 10.3 0.8 -11
v 12.5 0.8 -10.9
v 12.2 0.8 -10.9
v 12.1 0.8 -10.9
v 11.7 0.8 -10.9
v 10.6 0.8 -10.9
v 10.5 0.8 -10.9
v 10.4 0.8 -10.9
v 10.3 0.8 -10.9
v 10.2 0.8 -10.9
v 10.1 0.8 -10.9
v 12.6 0.8 -10.8
v 12.5 0.8 -10.8
v 12.4 0.8 -10.8
v 12.1 0.8 -10.8
v 11.1 0.8 -10.8
v 10.8 0.8 -10.8
v 10.6 0.8 -10.8
v 10.5 0.8 -10.8
v 10.4 0.8 -10.8
v 10.3 0.8 -10.8
v 10.2 0.8 -10.8
v 11.1 0.8 -10.7
v 10.9 0.8 -10.7
v 10.8 0.8 -10.7
v 10.7 0.8 -10.7
v 10.4 0.8 -10.7
v 10.3 0.8 -10.7
v 12.6 0.8 -10.6
v 12.5 0.8 -10.6
v 12.4 0.8 -10.6
v 12.3 0.8 -10.6
v 10.9 0.8 -10.6
v 10.7 0.8 -10.6
v 12.5 0.8 -10.5
v 12.4 0.8 -10.5
v 12.3 0.8 -10.5
v 11.3 0.8 -10.5
v 12.4 0.8 -10.4
v 11.4 0.8 -10.4
v 11.3 0.8 -10.4
v 9.6 0.8 -10.4
v 12.8 0.8 -10.3
v 11.4 0.8 -10.3
v 9.6 0.8 -10.3

# faces
f 3/3/1 2/3/1 1/3/1
f 4/3/1 2/3/1 3/3/1
f 5/1/1 4/1/1 3/1/1
f 6/1/1 4/1/1 5/1/1
f 7/3/2 8/3/2 9/3/2
f 9/3/2 8/3/2 10/3/2
f 10/3/2 8/3/2 11/3/2
f 11/3/2 8/3/2 12/3/2
f 9/2/2 10/2/2 13/2/2
f 10/3/2 11/3/2 14/3/2
f 13/2/2 10/2/2 14/2/2
f 11/2/2 12/2/2 15/2/2
f 14/3/2 11/3/2 15/3/2
f 15/2/2 12/2/2 16/2/2
f 20/3/3 18/3/3 17/3/3
f 20/1/3 19/1/3 18/1/3
f 21/1/3 19/1/3 20/1/3
f 22/3/3 20/3/3 17/3/3
f 23/2/3 21/2/3 20/2/3
f 23/3/3 20/3/3 22/3/3
f 24/2/3 21/2/3 23/2/3
f 25/3/4 26/3/4 28/3/4
f 26/1/4 27/1/4 28/1/4
f 28/1/4 27/1/4 29/1/4
f 25/3/4 28/3/4 30/3/4
f 28/2/4 29/2/4 31/2/4
f 30/3/4 28/3/4 31/3/4
f 31/2/4 29/2/4 32/2/4
f 35/3/5 34/3/5 33/3/5
f 36/3/5 34/3/5 35/3/5
f 37/1/6 38/1/6 40/1/6
f 38/2/6 39/2/6 41/2/6
f 40/1/6 38/1/6 41/1/6
f 41/2/6 39/2/6 42/2/6
f 42/2/6 39/2/6 43/2/6
f 37/1/6 40/1/6 44/1/6
f 40/2/6 41/2/6 45/2/6
f 44/1/6 40/1/6 45/1/6
f 41/2/6 42/2/6 45/2/6
f 45/2/6 42/2/6 46/2/6
f 42/3/6 43/3/6 47/3/6
f 46/2/6 42/2/6 47/2/6
f 37/1/6 44/1/6 48/1/6
f 45/2/6 46/2/6 49/2/6
f 48/1/6 44/1/6 49/1/6
f 44/2/6 45/2/6 49/2/6
f 49/2/6 46/2/6 50/2/6
f 46/3/6 47/3/6 51/3/6
f 50/2/6 46/2/6 51/2/6
f 37/1/6 48/1/6 52/1/6
f 49/2/6 50/2/6 53/2/6
f 52/1/6 48/1/6 53/1/6
f 48/2/6 49/2/6 53/2/6
f 53/2/6 50/2/6 54/2/6
f 50/3/6 51/3/6 55/3/6
f 54/2/6 50/2/6 55/2/6
f 47/3/6 43/3/6 56/3/6
f 55/3/6 51/3/6 56/3/6
f 51/3/6 47/3/6 56/3/6
f 56/3/6 43/3/6 57/3/6
f 52/2/6 53/2/6 58/2/6
f 53/2/6 54/2/6 58/2/6
f 54/3/6 55/3/6 59/3/6
f 58/2/6 54/2/6 59/2/6
f 55/3/6 56/3/6 59/3/6
f 56/2/6 57/2/6 60/2/6
f 59/3/6 56/3/6 60/3/6
f 60/2/6 57/2/6 61/2/6
f 57/3/6 43/3/6 62/3/6
f 61/2/6 57/2/6 62/2/6
f 62/3/6 43/3/6 63/3/6
f 52/2/6 58/2/6 64/2/6
f 37/1/6 52/1/6 64/1/6
f 64/2/6 58/2/6 65/2/6
f 60/3/6 61/3/6 66/3/6
f 65/2/6 58/2/6 66/2/6
f 58/3/6 59/3/6 66/3/6
f 59/3/6 60/3/6 66/3/6
f 66/3/6 61/3/6 67/3/6
f 61/1/6 62/1/6 68/1/6
f 67/3/6 61/3/6 68/3/6
f 62/2/6 63/2/6 69/2/6
f 68/1/6 62/1/6 69/1/6
f 63/3/6 43/3/6 70/3/6
f 69/2/6 63/2/6 70/2/6
f 70/3/6 43/3/6 71/3/6
f 64/1/6 65/1/6 72/1/6
f 66/2/6 67/2/6 72/2/6
f 65/2/6 66/2/6 72/2/6
f 72/2/6 67/2/6 73/2/6
f 68/3/6 69/3/6 74/3/6
f 73/2/6 67/2/6 74/2/6
f 67/3/6 68/3/6 74/3/6
f 74/3/6 69/3/6 75/3/6
f 72/1/6 73/1/6 76/1/6
f 73/2/6 74/2/6 76/2/6
f 74/2/6 75/2/6 76/2/6
f 76/2/6 75/2/6 77/2/6
f 75/3/6 69/3/6 78/3/6
f 77/2/6 75/2/6 78/2/6
f 78/3/6 69/3/6 79/3/6
f 79/3/6 69/3/6 80/3/6
f 69/1/6 70/1/6 81/1/6
f 80/3/6 69/3/6 81/3/6
f 76/1/6 77/1/6 82/1/6
f 64/1/6 72/1/6 82/1/6
f 72/1/6 76/1/6 82/1/6
f 78/2/6 79/2/6 83/2/6
f 82/1/6 77/1/6 83/1/6
f 77/2/6 78/2/6 83/2/6
f 83/2/6 79/2/6 84/2/6
f 79/3/6 80/3/6 85/3/6
f 84/2/6 79/2/6 85/2/6
f 85/3/6 80/3/6 86/3/6
f 86/3/6 80/3/6 87/3/6
f 80/1/6 81/1/6 88/1/6
f 87/3/6 80/3/6 88/3/6
f 81/1/6 70/1/6 89/1/6
f 88/1/6 81/1/6 89/1/6
f 70/2/6 71/2/6 90/2/6
f 89/1/6 70/1/6 90/1/6
f 71/3/6 43/3/6 91/3/6
f 90/2/6 71/2/6 91/2/6
f 37/1/6 64/1/6 92/1/6
f 64/1/6 82/1/6 92/1/6
f 83/2/6 84/2/6 93/2/6
f 92/1/6 82/1/6 93/1/6
f 82/2/6 83/2/6 93/2/6
f 93/2/6 84/2/6 94/2/6
f 85/3/6 86/3/6 95/3/6
f 94/2/6 84/2/6 95/2/6
f 84/3/6 85/3/6 95/3/6
f 95/3/6 86/3/6 96/3/6
f 96/3/6 86/3/6 97/3/6
f 86/2/6 87/2/6 98/2/6
f 97/3/6 86/3/6 98/3/6
f 87/1/6 88/1/6 99/1/6
f 98/2/6 87/2/6 99/2/6
f 88/1/6 89/1/6 99/1/6
f 99/1/6 89/1/6 100/1/6
f 89/2/6 90/2/6 101/2/6
f 100/1/6 89/1/6 101/1/6
f 90/3/6 91/3/6 102/3/6
f 101/2/6 90/2/6 102/2/6
f 96/2/6 97/2/6 103/2/6
f 95/3/6 96/3/6 103/3/6
f 94/3/6 95/3/6 103/3/6
f 103/2/6 97/2/6 104/2/6
f 97/1/6 98/1/6 105/1/6
f 104/2/6 97/2/6 105/2/6
f 99/1/6 100/1/6 105/1/6
f 98/1/6 99/1/6 105/1/6
f 105/1/6 100/1/6 106/1/6
f 100/2/6 101/2/6 107/2/6
f 106/1/6 100/1/6 107/1/6
f 101/3/6 102/3/6 108/3/6
f 107/2/6 101/2/6 108/2/6
f 37/1/6 92/1/6 109/1/6
f 93/2/6 94/2/6 109/2/6
f 92/2/6 93/2/6 109/2/6
f 109/2/6 94/2/6 110/2/6
f 103/3/6 104/3/6 111/3/6
f 110/2/6 94/2/6 111/2/6
f 94/3/6 103/3/6 111/3/6
f 111/3/6 104/3/6 112/3/6
f 105/2/6 106/2/6 113/2/6
f 112/3/6 104/3/6 113/3/6
f 104/2/6 105/2/6 113/2/6
f 106/3/6 107/3/6 114/3/6
f 113/2/6 106/2/6 114/2/6
f 107/3/6 108/3/6 114/3/6
f 109/1/6 110/1/6 115/1/6
f 111/2/6 112/2/6 115/2/6
f 110/2/6 111/2/6 115/2/6
f 115/2/6 112/2/6 116/2/6
f 112/3/6 113/3/6 117/3/6
f 116/2/6 112/2/6 117/2/6
f 113/3/6 114/3/6 117/3/6
f 117/3/6 114/3/6 118/3/6
f 115/1/6 116/1/6 119/1/6
f 116/2/6 117/2/6 119/2/6
f 117/2/6 118/2/6 119/2/6
f 119/2/6 118/2/6 120/2/6
f 118/3/6 114/3/6 121/3/6
f 120/2/6 118/2/6 121/2/6
f 114/3/6 108/3/6 122/3/6
f 121/3/6 114/3/6 122/3/6
f 102/3/6 91/3/6 122/3/6
f 91/3/6 43/3/6 122/3/6
f 108/3/6 102/3/6 122/3/6
f 37/1/6 109/1/6 123/1/6
f 115/1/6 119/1/6 123/1/6
f 109/1/6 115/1/6 123/1/6
f 119/1/6 120/1/6 123/1/6
f 120/2/6 121/2/6 124/2/6
f 123/1/6 120/1/6 124/1/6
f 121/2/6 122/2/6 124/2/6
f 124/2/6 122/2/6 125/2/6
