# MagicaVoxel @ Ephtracy

# group
o 

# material
mtllib untitled-16.mtl
usemtl palette

# normals
vn 0 0 -1
vn 0 0 1
vn -1 0 0
vn 1 0 0
vn 0 -1 0
vn 0 1 0

# texcoords
vt 0.306641 0.5
vt 0.978516 0.5
vt 0.994141 0.5

# verts
v -18.5 2.5 2.2
v -17 2.5 2.2
v -18.4 2.6 2.2
v -17.1 2.6 2.2
v -18.4 3.9 2.2
v -17.1 3.9 2.2
v -18.5 4 2.2
v -17 4 2.2
v -18.4 2.6 2.3
v -17.1 2.6 2.3
v -18.4 3.9 2.3
v -17.1 3.9 2.3
v -18.5 2.6 3.6
v -18.4 2.6 3.6
v -17.1 2.6 3.6
v -17 2.6 3.6
v -18.5 3.9 3.6
v -18.4 3.9 3.6
v -17.1 3.9 3.6
v -17 3.9 3.6
v -18.4 4 3.6
v -17.1 4 3.6
v -18.5 2.6 2.3
v -18.4 2.6 2.3
v -17.1 2.6 2.3
v -17 2.6 2.3
v -18.5 3.9 2.3
v -18.4 3.9 2.3
v -17.1 3.9 2.3
v -17 3.9 2.3
v -18.4 4 2.3
v -17.1 4 2.3
v -18.4 2.6 3.6
v -17.1 2.6 3.6
v -18.4 3.9 3.6
v -17.1 3.9 3.6
v -18.5 2.5 3.7
v -17 2.5 3.7
v -18.4 2.6 3.7
v -17.1 2.6 3.7
v -18.4 3.9 3.7
v -17.1 3.9 3.7
v -18.5 4 3.7
v -17 4 3.7
v -18.5 2.5 2.2
v -18.5 4 2.2
v -18.5 2.6 2.3
v -18.5 3.9 2.3
v -18.5 2.6 3.6
v -18.5 3.9 3.6
v -18.5 2.5 3.7
v -18.5 4 3.7
v -18.4 2.6 2.3
v -18.4 3.9 2.3
v -18.4 2.6 3.6
v -18.4 3.9 3.6
v -17.1 2.6 2.2
v -17.1 3.9 2.2
v -17.1 2.6 2.3
v -17.1 3.9 2.3
v -17.1 4 2.3
v -17.1 2.6 3.6
v -17.1 3.9 3.6
v -17.1 4 3.6
v -17.1 2.6 3.7
v -17.1 3.9 3.7
v -18.4 2.6 2.2
v -18.4 3.9 2.2
v -18.4 2.6 2.3
v -18.4 3.9 2.3
v -18.4 4 2.3
v -18.4 2.6 3.6
v -18.4 3.9 3.6
v -18.4 4 3.6
v -18.4 2.6 3.7
v -18.4 3.9 3.7
v -17.1 2.6 2.3
v -17.1 3.9 2.3
v -17.1 2.6 3.6
v -17.1 3.9 3.6
v -17 2.5 2.2
v -17 4 2.2
v -17 2.6 2.3
v -17 3.9 2.3
v -17 2.6 3.6
v -17 3.9 3.6
v -17 2.5 3.7
v -17 4 3.7
v -18.5 2.5 2.2
v -18.5 2.5 3.7
v -18.4 2.5 2.3
v -18.4 2.5 3.6
v -18.3 2.5 2.4
v -18.3 2.5 3.5
v -17.2 2.5 2.4
v -17.2 2.5 3.5
v -17.1 2.5 2.3
v -17.1 2.5 3.6
v -17 2.5 2.2
v -17 2.5 3.7
v -18.5 3.9 2.3
v -18.5 3.9 3.6
v -18.4 3.9 2.2
v -18.4 3.9 2.3
v -18.4 3.9 3.6
v -18.4 3.9 3.7
v -17.1 3.9 2.2
v -17.1 3.9 2.3
v -17.1 3.9 3.6
v -17.1 3.9 3.7
v -17 3.9 2.3
v -17 3.9 3.6
v -18.5 2.6 2.3
v -18.5 2.6 3.6
v -18.4 2.6 2.2
v -18.4 2.6 2.3
v -18.4 2.6 3.6
v -18.4 2.6 3.7
v -17.1 2.6 2.2
v -17.1 2.6 2.3
v -17.1 2.6 3.6
v -17.1 2.6 3.7
v -17 2.6 2.3
v -17 2.6 3.6
v -18.4 3.9 2.3
v -18.4 3.9 3.6
v -17.1 3.9 2.3
v -17.1 3.9 3.6
v -18.5 4 2.2
v -18.5 4 3.7
v -18.4 4 2.3
v -18.4 4 3.6
v -17.1 4 2.3
v -17.1 4 3.6
v -17 4 2.2
v -17 4 3.7

# faces
f 3/3/1 2/3/1 1/3/1
f 4/3/1 2/3/1 3/3/1
f 5/3/1 3/3/1 1/3/1
f 6/3/1 2/3/1 4/3/1
f 7/3/1 5/3/1 1/3/1
f 7/3/1 6/3/1 5/3/1
f 8/3/1 2/3/1 6/3/1
f 8/3/1 6/3/1 7/3/1
f 11/2/1 10/2/1 9/2/1
f 12/2/1 10/2/1 11/2/1
f 17/3/1 14/3/1 13/3/1
f 18/3/1 14/3/1 17/3/1
f 19/3/1 16/3/1 15/3/1
f 20/3/1 16/3/1 19/3/1
f 21/3/1 19/3/1 18/3/1
f 22/3/1 19/3/1 21/3/1
f 23/3/2 24/3/2 27/3/2
f 27/3/2 24/3/2 28/3/2
f 25/3/2 26/3/2 29/3/2
f 29/3/2 26/3/2 30/3/2
f 28/3/2 29/3/2 31/3/2
f 31/3/2 29/3/2 32/3/2
f 33/2/2 34/2/2 35/2/2
f 35/2/2 34/2/2 36/2/2
f 37/3/2 38/3/2 39/3/2
f 39/3/2 38/3/2 40/3/2
f 37/3/2 39/3/2 41/3/2
f 40/3/2 38/3/2 42/3/2
f 37/3/2 41/3/2 43/3/2
f 41/3/2 42/3/2 43/3/2
f 42/3/2 38/3/2 44/3/2
f 43/3/2 42/3/2 44/3/2
f 47/3/3 46/3/3 45/3/3
f 48/3/3 46/3/3 47/3/3
f 49/3/3 47/3/3 45/3/3
f 50/3/3 46/3/3 48/3/3
f 51/3/3 49/3/3 45/3/3
f 51/3/3 50/3/3 49/3/3
f 52/3/3 46/3/3 50/3/3
f 52/3/3 50/3/3 51/3/3
f 55/2/3 54/2/3 53/2/3
f 56/2/3 54/2/3 55/2/3
f 59/3/3 58/3/3 57/3/3
f 60/3/3 58/3/3 59/3/3
f 63/3/3 61/3/3 60/3/3
f 64/3/3 61/3/3 63/3/3
f 65/3/3 63/3/3 62/3/3
f 66/3/3 63/3/3 65/3/3
f 67/3/4 68/3/4 69/3/4
f 69/3/4 68/3/4 70/3/4
f 70/3/4 71/3/4 73/3/4
f 73/3/4 71/3/4 74/3/4
f 72/3/4 73/3/4 75/3/4
f 75/3/4 73/3/4 76/3/4
f 77/2/4 78/2/4 79/2/4
f 79/2/4 78/2/4 80/2/4
f 81/3/4 82/3/4 83/3/4
f 83/3/4 82/3/4 84/3/4
f 81/3/4 83/3/4 85/3/4
f 84/3/4 82/3/4 86/3/4
f 81/3/4 85/3/4 87/3/4
f 85/3/4 86/3/4 87/3/4
f 86/3/4 82/3/4 88/3/4
f 87/3/4 86/3/4 88/3/4
f 91/3/5 90/3/5 89/3/5
f 92/3/5 90/3/5 91/3/5
f 93/2/5 92/2/5 91/2/5
f 94/2/5 92/2/5 93/2/5
f 95/2/5 93/2/5 91/2/5
f 95/1/5 94/1/5 93/1/5
f 96/2/5 92/2/5 94/2/5
f 96/1/5 94/1/5 95/1/5
f 97/3/5 91/3/5 89/3/5
f 97/2/5 95/2/5 91/2/5
f 97/2/5 96/2/5 95/2/5
f 98/2/5 92/2/5 96/2/5
f 98/2/5 96/2/5 97/2/5
f 98/3/5 90/3/5 92/3/5
f 99/3/5 97/3/5 89/3/5
f 99/3/5 98/3/5 97/3/5
f 100/3/5 90/3/5 98/3/5
f 100/3/5 98/3/5 99/3/5
f 104/3/5 102/3/5 101/3/5
f 105/3/5 102/3/5 104/3/5
f 107/3/5 104/3/5 103/3/5
f 108/3/5 104/3/5 107/3/5
f 109/3/5 106/3/5 105/3/5
f 110/3/5 106/3/5 109/3/5
f 111/3/5 109/3/5 108/3/5
f 112/3/5 109/3/5 111/3/5
f 113/3/6 114/3/6 116/3/6
f 116/3/6 114/3/6 117/3/6
f 115/3/6 116/3/6 119/3/6
f 119/3/6 116/3/6 120/3/6
f 117/3/6 118/3/6 121/3/6
f 121/3/6 118/3/6 122/3/6
f 120/3/6 121/3/6 123/3/6
f 123/3/6 121/3/6 124/3/6
f 125/2/6 126/2/6 127/2/6
f 127/2/6 126/2/6 128/2/6
f 129/3/6 130/3/6 131/3/6
f 131/3/6 130/3/6 132/3/6
f 129/3/6 131/3/6 133/3/6
f 132/3/6 130/3/6 134/3/6
f 129/3/6 133/3/6 135/3/6
f 133/3/6 134/3/6 135/3/6
f 134/3/6 130/3/6 136/3/6
f 135/3/6 134/3/6 136/3/6
