# MagicaVoxel @ Ephtracy

# group
o 

# material
mtllib untitled-104.mtl
usemtl palette

# normals
vn 0 1 0
vn 0 -1 0
vn 0 0 1
vn 0 0 -1
vn -1 0 0
vn 1 0 0

# texcoords
vt 0.974609 0.5
vt 0.978516 0.5

# verts
v -32.8 13.3 -18.8
v -32.8 13.3 -19.8
v -32.7 13.3 -18.8
v -32.7 13.3 -18.9
v -32.6 13.3 -18.9
v -32.6 13.3 -19.3
v -32.5 13.3 -19.1
v -32.5 13.3 -19.2
v -32.5 13.3 -19.3
v -32.5 13.3 -19.6
v -32.4 13.3 -19
v -32.4 13.3 -19.1
v -32.4 13.3 -19.2
v -32.4 13.3 -19.6
v -32.4 13.3 -19.7
v -32.3 13.3 -18.9
v -32.3 13.3 -19
v -32.2 13.3 -19
v -32.2 13.3 -19.1
v -32.1 13.3 -18.9
v -32.1 13.3 -19
v -32.1 13.3 -19.1
v -32.1 13.3 -19.4
v -32.1 13.3 -19.5
v -32.1 13.3 -19.7
v -32 13.3 -19.1
v -32 13.3 -19.3
v -32 13.3 -19.4
v -32 13.3 -19.5
v -32 13.3 -19.6
v -32 13.3 -19.7
v -31.9 13.3 -19.3
v -31.9 13.3 -19.6
v -31.9 13.3 -19.7
v -31.9 13.3 -19.8
v -31.8 13.3 -18.8
v -31.8 13.3 -19.8
v -32.8 2.4 -18.8
v -32.8 2.4 -18.9
v -32.8 2.4 -19.8
v -31.9 2.4 -18.9
v -31.9 2.4 -19
v -31.8 2.4 -18.8
v -31.8 2.4 -19
v -31.8 2.4 -19.8
v -32.8 13.3 -18.8
v -32.7 13.3 -18.8
v -31.8 13.3 -18.8
v -32.8 13.2 -18.8
v -32.7 13.2 -18.8
v -32.2 13.1 -18.8
v -32.1 13.1 -18.8
v -32.2 13 -18.8
v -32.1 13 -18.8
v -32 13 -18.8
v -32.6 12.9 -18.8
v -32.5 12.9 -18.8
v -31.9 12.8 -18.8
v -31.8 12.8 -18.8
v -32.1 12.7 -18.8
v -32 12.7 -18.8
v -32.7 12.5 -18.8
v -32.6 12.5 -18.8
v -32.5 12.5 -18.8
v -31.9 12.5 -18.8
v -32.7 12.4 -18.8
v -32.6 12.4 -18.8
v -32.5 12.4 -18.8
v -31.8 12.4 -18.8
v -32.6 12.3 -18.8
v -32.5 12.3 -18.8
v -32.4 11.3 -18.8
v -32.3 11.3 -18.8
v -32.3 11.1 -18.8
v -32.2 11.1 -18.8
v -32.4 11 -18.8
v -32.3 11 -18.8
v -32.3 10 -18.8
v -32.2 10 -18.8
v -32.4 9.6 -18.8
v -32.2 9.6 -18.8
v -32.5 9.5 -18.8
v -32.4 9.5 -18.8
v -32.2 9.5 -18.8
v -32.1 9.5 -18.8
v -32.6 9.4 -18.8
v -32.5 9.4 -18.8
v -32.7 9.3 -18.8
v -32.6 9.3 -18.8
v -32.3 9.1 -18.8
v -32.2 9.1 -18.8
v -32.4 9 -18.8
v -32.3 9 -18.8
v -32.5 8.8 -18.8
v -32.4 8.8 -18.8
v -32.6 8.7 -18.8
v -32.5 8.7 -18.8
v -32.7 8.4 -18.8
v -32.6 8.4 -18.8
v -32.2 8.1 -18.8
v -32.1 8.1 -18.8
v -32.6 7.9 -18.8
v -32.5 7.9 -18.8
v -32.6 6.6 -18.8
v -32.5 6.6 -18.8
v -32.4 6.4 -18.8
v -32.3 6.4 -18.8
v -32 6 -18.8
v -31.9 6 -18.8
v -32.1 5.6 -18.8
v -32 5.6 -18.8
v -31.9 5.6 -18.8
v -32.4 5.4 -18.8
v -32.3 5.4 -18.8
v -32.7 5.3 -18.8
v -32.6 5.3 -18.8
v -32.4 4.9 -18.8
v -32.3 4.9 -18.8
v -32.5 4.8 -18.8
v -32.4 4.8 -18.8
v -32.3 4.8 -18.8
v -32.7 4.2 -18.8
v -32.6 4.2 -18.8
v -32.5 4.1 -18.8
v -32.4 4.1 -18.8
v -32.1 4.1 -18.8
v -32 4.1 -18.8
v -32.4 3.8 -18.8
v -32.3 3.8 -18.8
v -32.5 3.7 -18.8
v -32.4 3.7 -18.8
v -32.3 3.7 -18.8
v -32.8 3.3 -18.8
v -32.7 3.3 -18.8
v -32.2 3.3 -18.8
v -32.1 3.3 -18.8
v -32.7 3.1 -18.8
v -32.6 3.1 -18.8
v -31.9 3.1 -18.8
v -31.8 3.1 -18.8
v -32.6 3 -18.8
v -32.5 3 -18.8
v -32.4 3 -18.8
v -32.1 3 -18.8
v -32 3 -18.8
v -32.4 2.9 -18.8
v -32.3 2.9 -18.8
v -32.5 2.8 -18.8
v -32.4 2.8 -18.8
v -32.3 2.7 -18.8
v -32.2 2.7 -18.8
v -32 2.6 -18.8
v -31.9 2.6 -18.8
v -32.8 2.4 -18.8
v -31.8 2.4 -18.8
v -32.8 13.3 -19.8
v -31.9 13.3 -19.8
v -31.8 13.3 -19.8
v -32.8 13.2 -19.8
v -31.9 13.2 -19.8
v -31.9 12.5 -19.8
v -31.8 12.5 -19.8
v -31.9 12.4 -19.8
v -31.8 12.4 -19.8
v -32.8 2.4 -19.8
v -31.8 2.4 -19.8
v -32.8 13.3 -18.8
v -32.8 13.2 -18.8
v -32.8 3.3 -18.8
v -32.8 2.4 -18.8
v -32.8 3.3 -18.9
v -32.8 2.4 -18.9
v -32.8 13.3 -19.8
v -32.8 13.2 -19.8
v -32.8 2.4 -19.8
v -31.8 13.3 -18.8
v -31.8 12.8 -18.8
v -31.8 12.4 -18.8
v -31.8 3.1 -18.8
v -31.8 2.4 -18.8
v -31.8 12.8 -18.9
v -31.8 12.6 -18.9
v -31.8 3.1 -18.9
v -31.8 2.8 -18.9
v -31.8 12.6 -19
v -31.8 12.5 -19
v -31.8 2.8 -19
v -31.8 2.4 -19
v -31.8 13.2 -19.1
v -31.8 12.7 -19.1
v -31.8 11 -19.1
v -31.8 9.8 -19.1
v -31.8 13.2 -19.2
v -31.8 12.7 -19.2
v -31.8 11 -19.2
v -31.8 9.8 -19.2
v -31.8 12.7 -19.3
v -31.8 12.5 -19.3
v -31.8 12.7 -19.4
v -31.8 12.5 -19.4
v -31.8 12.8 -19.5
v -31.8 12.5 -19.5
v -31.8 12.8 -19.6
v -31.8 12.5 -19.6
v -31.8 12.4 -19.6
v -31.8 12.2 -19.6
v -31.8 12.4 -19.7
v -31.8 12.2 -19.7
v -31.8 13.3 -19.8
v -31.8 12.5 -19.8
v -31.8 12.4 -19.8
v -31.8 2.4 -19.8

# faces
f 3/1/1 2/1/1 1/1/1
f 4/1/1 2/1/1 3/1/1
f 5/2/1 4/2/1 3/2/1
f 5/1/1 2/1/1 4/1/1
f 6/1/1 2/1/1 5/1/1
f 7/2/1 6/2/1 5/2/1
f 8/2/1 6/2/1 7/2/1
f 9/1/1 2/1/1 6/1/1
f 9/2/1 6/2/1 8/2/1
f 10/1/1 2/1/1 9/1/1
f 11/2/1 7/2/1 5/2/1
f 12/1/1 8/1/1 7/1/1
f 12/2/1 7/2/1 11/2/1
f 13/2/1 9/2/1 8/2/1
f 13/1/1 8/1/1 12/1/1
f 13/2/1 10/2/1 9/2/1
f 14/1/1 2/1/1 10/1/1
f 14/2/1 10/2/1 13/2/1
f 15/1/1 2/1/1 14/1/1
f 16/2/1 5/2/1 3/2/1
f 16/2/1 11/2/1 5/2/1
f 17/1/1 12/1/1 11/1/1
f 17/2/1 11/2/1 16/2/1
f 18/1/1 17/1/1 16/1/1
f 18/1/1 12/1/1 17/1/1
f 19/2/1 15/2/1 14/2/1
f 19/1/1 12/1/1 18/1/1
f 19/2/1 13/2/1 12/2/1
f 19/2/1 14/2/1 13/2/1
f 20/1/1 18/1/1 16/1/1
f 20/2/1 16/2/1 3/2/1
f 21/2/1 19/2/1 18/2/1
f 21/1/1 18/1/1 20/1/1
f 22/2/1 15/2/1 19/2/1
f 22/2/1 19/2/1 21/2/1
f 23/2/1 15/2/1 22/2/1
f 24/2/1 15/2/1 23/2/1
f 25/1/1 2/1/1 15/1/1
f 25/2/1 15/2/1 24/2/1
f 26/2/1 21/2/1 20/2/1
f 26/2/1 22/2/1 21/2/1
f 26/1/1 23/1/1 22/1/1
f 27/1/1 23/1/1 26/1/1
f 28/2/1 24/2/1 23/2/1
f 28/1/1 23/1/1 27/1/1
f 29/1/1 25/1/1 24/1/1
f 29/2/1 24/2/1 28/2/1
f 30/1/1 25/1/1 29/1/1
f 31/1/1 2/1/1 25/1/1
f 31/1/1 25/1/1 30/1/1
f 32/2/1 27/2/1 26/2/1
f 32/1/1 30/1/1 29/1/1
f 32/1/1 28/1/1 27/1/1
f 32/1/1 29/1/1 28/1/1
f 33/2/1 31/2/1 30/2/1
f 33/1/1 30/1/1 32/1/1
f 34/1/1 2/1/1 31/1/1
f 34/2/1 31/2/1 33/2/1
f 35/1/1 2/1/1 34/1/1
f 36/2/1 33/2/1 32/2/1
f 36/2/1 32/2/1 26/2/1
f 36/2/1 35/2/1 34/2/1
f 36/2/1 34/2/1 33/2/1
f 36/2/1 26/2/1 20/2/1
f 36/2/1 20/2/1 3/2/1
f 37/2/1 35/2/1 36/2/1
f 38/1/2 39/1/2 41/1/2
f 39/2/2 40/2/2 41/2/2
f 41/2/2 40/2/2 42/2/2
f 38/1/2 41/1/2 43/1/2
f 41/1/2 42/1/2 43/1/2
f 42/2/2 40/2/2 44/2/2
f 43/1/2 42/1/2 44/1/2
f 44/2/2 40/2/2 45/2/2
f 49/1/3 47/1/3 46/1/3
f 50/2/3 48/2/3 47/2/3
f 50/1/3 47/1/3 49/1/3
f 51/2/3 50/2/3 49/2/3
f 51/2/3 48/2/3 50/2/3
f 52/2/3 48/2/3 51/2/3
f 53/2/3 51/2/3 49/2/3
f 53/1/3 52/1/3 51/1/3
f 54/2/3 48/2/3 52/2/3
f 54/1/3 52/1/3 53/1/3
f 55/2/3 48/2/3 54/2/3
f 56/2/3 53/2/3 49/2/3
f 56/2/3 54/2/3 53/2/3
f 57/2/3 54/2/3 56/2/3
f 58/2/3 48/2/3 55/2/3
f 59/2/3 48/2/3 58/2/3
f 60/2/3 54/2/3 57/2/3
f 60/1/3 55/1/3 54/1/3
f 61/2/3 58/2/3 55/2/3
f 61/1/3 55/1/3 60/1/3
f 62/2/3 56/2/3 49/2/3
f 63/1/3 57/1/3 56/1/3
f 63/2/3 56/2/3 62/2/3
f 64/2/3 60/2/3 57/2/3
f 64/1/3 57/1/3 63/1/3
f 64/2/3 61/2/3 60/2/3
f 65/1/3 59/1/3 58/1/3
f 65/2/3 61/2/3 64/2/3
f 65/2/3 58/2/3 61/2/3
f 66/1/3 64/1/3 63/1/3
f 66/1/3 63/1/3 62/1/3
f 66/1/3 65/1/3 64/1/3
f 66/2/3 62/2/3 49/2/3
f 67/1/3 65/1/3 66/1/3
f 68/1/3 65/1/3 67/1/3
f 69/1/3 59/1/3 65/1/3
f 69/1/3 65/1/3 68/1/3
f 70/1/3 68/1/3 67/1/3
f 70/2/3 67/2/3 66/2/3
f 71/2/3 69/2/3 68/2/3
f 71/1/3 68/1/3 70/1/3
f 72/2/3 71/2/3 70/2/3
f 72/2/3 69/2/3 71/2/3
f 73/2/3 69/2/3 72/2/3
f 74/1/3 73/1/3 72/1/3
f 74/2/3 69/2/3 73/2/3
f 75/2/3 69/2/3 74/2/3
f 76/2/3 72/2/3 70/2/3
f 76/1/3 74/1/3 72/1/3
f 76/1/3 75/1/3 74/1/3
f 77/1/3 75/1/3 76/1/3
f 78/2/3 77/2/3 76/2/3
f 78/1/3 75/1/3 77/1/3
f 79/2/3 69/2/3 75/2/3
f 79/1/3 75/1/3 78/1/3
f 80/2/3 78/2/3 76/2/3
f 80/2/3 76/2/3 70/2/3
f 80/2/3 79/2/3 78/2/3
f 81/2/3 69/2/3 79/2/3
f 81/2/3 79/2/3 80/2/3
f 82/2/3 80/2/3 70/2/3
f 83/1/3 81/1/3 80/1/3
f 83/2/3 80/2/3 82/2/3
f 84/2/3 69/2/3 81/2/3
f 84/1/3 81/1/3 83/1/3
f 85/2/3 69/2/3 84/2/3
f 86/2/3 70/2/3 66/2/3
f 86/2/3 82/2/3 70/2/3
f 87/1/3 83/1/3 82/1/3
f 87/2/3 82/2/3 86/2/3
f 87/1/3 85/1/3 84/1/3
f 87/1/3 84/1/3 83/1/3
f 88/2/3 66/2/3 49/2/3
f 88/2/3 86/2/3 66/2/3
f 89/1/3 87/1/3 86/1/3
f 89/2/3 86/2/3 88/2/3
f 90/1/3 85/1/3 87/1/3
f 90/1/3 87/1/3 89/1/3
f 90/1/3 89/1/3 88/1/3
f 91/1/3 85/1/3 90/1/3
f 92/1/3 90/1/3 88/1/3
f 93/2/3 91/2/3 90/2/3
f 93/1/3 90/1/3 92/1/3
f 94/1/3 92/1/3 88/1/3
f 95/2/3 93/2/3 92/2/3
f 95/1/3 92/1/3 94/1/3
f 96/1/3 94/1/3 88/1/3
f 97/2/3 95/2/3 94/2/3
f 97/1/3 94/1/3 96/1/3
f 98/2/3 88/2/3 49/2/3
f 98/1/3 96/1/3 88/1/3
f 99/2/3 97/2/3 96/2/3
f 99/1/3 96/1/3 98/1/3
f 100/2/3 95/2/3 97/2/3
f 100/2/3 97/2/3 99/2/3
f 100/2/3 99/2/3 98/2/3
f 100/1/3 85/1/3 91/1/3
f 100/2/3 93/2/3 95/2/3
f 100/2/3 91/2/3 93/2/3
f 101/2/3 69/2/3 85/2/3
f 101/1/3 85/1/3 100/1/3
f 102/2/3 100/2/3 98/2/3
f 102/2/3 101/2/3 100/2/3
f 103/2/3 101/2/3 102/2/3
f 104/2/3 102/2/3 98/2/3
f 104/1/3 103/1/3 102/1/3
f 105/2/3 101/2/3 103/2/3
f 105/1/3 103/1/3 104/1/3
f 106/2/3 105/2/3 104/2/3
f 106/2/3 101/2/3 105/2/3
f 107/2/3 101/2/3 106/2/3
f 108/2/3 69/2/3 101/2/3
f 108/2/3 101/2/3 107/2/3
f 109/2/3 69/2/3 108/2/3
f 110/2/3 108/2/3 107/2/3
f 111/1/3 109/1/3 108/1/3
f 111/2/3 108/2/3 110/2/3
f 112/2/3 69/2/3 109/2/3
f 112/1/3 109/1/3 111/1/3
f 113/1/3 107/1/3 106/1/3
f 113/2/3 106/2/3 104/2/3
f 114/2/3 110/2/3 107/2/3
f 114/1/3 107/1/3 113/1/3
f 115/2/3 98/2/3 49/2/3
f 115/2/3 104/2/3 98/2/3
f 115/2/3 114/2/3 113/2/3
f 115/2/3 113/2/3 104/2/3
f 116/2/3 114/2/3 115/2/3
f 117/2/3 114/2/3 116/2/3
f 118/2/3 110/2/3 114/2/3
f 118/2/3 114/2/3 117/2/3
f 119/2/3 117/2/3 116/2/3
f 120/1/3 118/1/3 117/1/3
f 120/2/3 117/2/3 119/2/3
f 121/2/3 110/2/3 118/2/3
f 121/1/3 118/1/3 120/1/3
f 122/2/3 115/2/3 49/2/3
f 122/1/3 116/1/3 115/1/3
f 123/2/3 119/2/3 116/2/3
f 123/1/3 116/1/3 122/1/3
f 124/1/3 120/1/3 119/1/3
f 124/2/3 119/2/3 123/2/3
f 124/2/3 123/2/3 122/2/3
f 125/2/3 121/2/3 120/2/3
f 125/1/3 120/1/3 124/1/3
f 126/1/3 111/1/3 110/1/3
f 126/2/3 121/2/3 125/2/3
f 126/2/3 110/2/3 121/2/3
f 127/2/3 112/2/3 111/2/3
f 127/1/3 111/1/3 126/1/3
f 128/2/3 125/2/3 124/2/3
f 128/2/3 126/2/3 125/2/3
f 128/2/3 127/2/3 126/2/3
f 129/2/3 127/2/3 128/2/3
f 130/2/3 124/2/3 122/2/3
f 130/2/3 128/2/3 124/2/3
f 131/1/3 129/1/3 128/1/3
f 131/2/3 128/2/3 130/2/3
f 132/2/3 127/2/3 129/2/3
f 132/1/3 129/1/3 131/1/3
f 133/2/3 122/2/3 49/2/3
f 133/2/3 130/2/3 122/2/3
f 134/2/3 130/2/3 133/2/3
f 135/2/3 127/2/3 132/2/3
f 135/2/3 132/2/3 131/2/3
f 136/2/3 127/2/3 135/2/3
f 137/2/3 130/2/3 134/2/3
f 137/1/3 134/1/3 133/1/3
f 138/2/3 130/2/3 137/2/3
f 139/2/3 127/2/3 136/2/3
f 139/2/3 69/2/3 112/2/3
f 139/2/3 112/2/3 127/2/3
f 140/2/3 69/2/3 139/2/3
f 141/2/3 130/2/3 138/2/3
f 141/1/3 138/1/3 137/1/3
f 142/1/3 131/1/3 130/1/3
f 142/2/3 130/2/3 141/2/3
f 143/2/3 135/2/3 131/2/3
f 143/1/3 131/1/3 142/1/3
f 144/1/3 136/1/3 135/1/3
f 144/2/3 139/2/3 136/2/3
f 145/2/3 139/2/3 144/2/3
f 146/2/3 135/2/3 143/2/3
f 146/2/3 143/2/3 142/2/3
f 147/2/3 135/2/3 146/2/3
f 148/1/3 142/1/3 141/1/3
f 148/2/3 146/2/3 142/2/3
f 149/1/3 147/1/3 146/1/3
f 149/2/3 146/2/3 148/2/3
f 150/2/3 135/2/3 147/2/3
f 150/1/3 147/1/3 149/1/3
f 150/1/3 149/1/3 148/1/3
f 151/1/3 145/1/3 144/1/3
f 151/2/3 135/2/3 150/2/3
f 151/1/3 144/1/3 135/1/3
f 152/2/3 139/2/3 145/2/3
f 152/1/3 145/1/3 151/1/3
f 152/1/3 151/1/3 150/1/3
f 153/1/3 140/1/3 139/1/3
f 153/2/3 139/2/3 152/2/3
f 154/1/3 152/1/3 150/1/3
f 154/1/3 137/1/3 133/1/3
f 154/1/3 153/1/3 152/1/3
f 154/1/3 148/1/3 141/1/3
f 154/1/3 141/1/3 137/1/3
f 154/1/3 150/1/3 148/1/3
f 155/1/3 140/1/3 153/1/3
f 155/1/3 153/1/3 154/1/3
f 156/1/4 157/1/4 159/1/4
f 157/2/4 158/2/4 160/2/4
f 159/1/4 157/1/4 160/1/4
f 159/2/4 160/2/4 161/2/4
f 160/2/4 158/2/4 161/2/4
f 161/2/4 158/2/4 162/2/4
f 159/2/4 161/2/4 163/2/4
f 161/1/4 162/1/4 163/1/4
f 163/1/4 162/1/4 164/1/4
f 159/2/4 163/2/4 165/2/4
f 163/2/4 164/2/4 165/2/4
f 165/2/4 164/2/4 166/2/4
f 171/2/5 169/2/5 168/2/5
f 171/1/5 170/1/5 169/1/5
f 172/1/5 170/1/5 171/1/5
f 173/1/5 168/1/5 167/1/5
f 174/2/5 171/2/5 168/2/5
f 174/1/5 168/1/5 173/1/5
f 174/2/5 172/2/5 171/2/5
f 175/2/5 172/2/5 174/2/5
f 176/2/6 177/2/6 181/2/6
f 177/1/6 178/1/6 181/1/6
f 181/1/6 178/1/6 182/1/6
f 179/1/6 180/1/6 183/1/6
f 178/2/6 179/2/6 183/2/6
f 183/1/6 180/1/6 184/1/6
f 182/1/6 178/1/6 185/1/6
f 181/2/6 182/2/6 185/2/6
f 185/1/6 178/1/6 186/1/6
f 184/1/6 180/1/6 187/1/6
f 183/2/6 184/2/6 187/2/6
f 187/1/6 180/1/6 188/1/6
f 185/2/6 186/2/6 189/2/6
f 176/2/6 181/2/6 189/2/6
f 181/2/6 185/2/6 189/2/6
f 189/2/6 186/2/6 190/2/6
f 187/2/6 188/2/6 191/2/6
f 178/2/6 183/2/6 191/2/6
f 183/2/6 187/2/6 191/2/6
f 191/2/6 188/2/6 192/2/6
f 189/1/6 190/1/6 193/1/6
f 176/2/6 189/2/6 193/2/6
f 190/2/6 186/2/6 194/2/6
f 193/1/6 190/1/6 194/1/6
f 191/1/6 192/1/6 195/1/6
f 178/2/6 191/2/6 195/2/6
f 192/2/6 188/2/6 196/2/6
f 195/1/6 192/1/6 196/1/6
f 194/2/6 186/2/6 197/2/6
f 193/2/6 194/2/6 197/2/6
f 186/1/6 178/1/6 198/1/6
f 197/2/6 186/2/6 198/2/6
f 193/2/6 197/2/6 199/2/6
f 197/1/6 198/1/6 199/1/6
f 198/1/6 178/1/6 200/1/6
f 199/1/6 198/1/6 200/1/6
f 193/2/6 199/2/6 201/2/6
f 199/2/6 200/2/6 201/2/6
f 200/1/6 178/1/6 202/1/6
f 201/2/6 200/2/6 202/2/6
f 193/2/6 201/2/6 203/2/6
f 201/1/6 202/1/6 203/1/6
f 202/1/6 178/1/6 204/1/6
f 203/1/6 202/1/6 204/1/6
f 178/2/6 195/2/6 205/2/6
f 204/1/6 178/1/6 205/1/6
f 195/2/6 196/2/6 205/2/6
f 205/2/6 196/2/6 206/2/6
f 204/1/6 205/1/6 207/1/6
f 205/1/6 206/1/6 207/1/6
f 206/2/6 196/2/6 208/2/6
f 207/1/6 206/1/6 208/1/6
f 193/2/6 203/2/6 209/2/6
f 176/2/6 193/2/6 209/2/6
f 203/2/6 204/2/6 209/2/6
f 204/1/6 207/1/6 210/1/6
f 209/2/6 204/2/6 210/2/6
f 207/2/6 208/2/6 211/2/6
f 210/1/6 207/1/6 211/1/6
f 208/2/6 196/2/6 212/2/6
f 211/2/6 208/2/6 212/2/6
f 196/2/6 188/2/6 212/2/6
