# MagicaVoxel @ Ephtracy

# group
o 

# material
mtllib untitled-96.mtl
usemtl palette

# normals
vn 1 0 0
vn -1 0 0
vn 0 0 -1
vn 0 0 1
vn 0 -1 0
vn 0 1 0

# texcoords
vt 0.927734 0.5
vt 0.939453 0.5
vt 0.962891 0.5

# verts
v -3.1 0.8 -20.3
v -3.1 0.8 -19.9
v -3.1 0.8 -19.8
v -3.1 2 -19.9
v -3.1 2 -19.8
v -3.1 2.3 -19.9
v -3.1 2.3 -19.8
v -3.1 2.5 -19.9
v -3.1 2.5 -19.8
v -3.1 2.6 -19.9
v -3.1 2.6 -19.8
v -3.1 9.2 -19.9
v -3.1 9.2 -19.8
v -3.1 9.5 -19.9
v -3.1 9.5 -19.8
v -3.1 9.6 -19.9
v -3.1 9.6 -19.8
v -3.1 9.8 -19.9
v -3.1 9.8 -19.8
v -3.1 13.2 -19.9
v -3.1 13.2 -19.8
v -3.1 13.3 -20.3
v -3.1 13.3 -19.8
v -5.7 0.8 -20.3
v -5.7 0.8 -19.9
v -5.7 0.8 -19.8
v -5.7 5.9 -19.9
v -5.7 5.9 -19.8
v -5.7 6.1 -20.3
v -5.7 6.1 -19.9
v -5.7 6.1 -19.8
v -6.2 6.1 -20.3
v -6.2 6.1 -19.9
v -6.2 6.1 -19.8
v -6.2 13.3 -20.3
v -6.2 13.3 -19.9
v -6.2 13.3 -19.8
v -3.1 0.8 -20.3
v -3.1 13.3 -20.3
v -5.7 0.8 -20.3
v -5.7 6.1 -20.3
v -6.2 6.1 -20.3
v -6.2 13.3 -20.3
v -3.1 0.8 -19.8
v -3.1 2 -19.8
v -3.1 2.3 -19.8
v -3.1 2.5 -19.8
v -3.1 2.6 -19.8
v -3.1 9.2 -19.8
v -3.1 9.5 -19.8
v -3.1 9.6 -19.8
v -3.1 9.8 -19.8
v -3.1 13.2 -19.8
v -3.1 13.3 -19.8
v -3.2 2 -19.8
v -3.2 2.3 -19.8
v -3.2 2.5 -19.8
v -3.2 2.6 -19.8
v -3.2 2.7 -19.8
v -3.2 2.8 -19.8
v -3.2 3 -19.8
v -3.2 7.8 -19.8
v -3.2 7.9 -19.8
v -3.2 9.2 -19.8
v -3.2 9.3 -19.8
v -3.2 9.5 -19.8
v -3.2 9.6 -19.8
v -3.2 9.8 -19.8
v -3.2 9.9 -19.8
v -3.2 11.1 -19.8
v -3.2 11.4 -19.8
v -3.3 0.8 -19.8
v -3.3 1.7 -19.8
v -3.3 2.3 -19.8
v -3.3 2.5 -19.8
v -3.3 2.6 -19.8
v -3.3 2.7 -19.8
v -3.3 2.8 -19.8
v -3.3 2.9 -19.8
v -3.3 3 -19.8
v -3.3 7.6 -19.8
v -3.3 7.8 -19.8
v -3.3 7.9 -19.8
v -3.3 8.2 -19.8
v -3.3 9.3 -19.8
v -3.3 9.5 -19.8
v -3.3 9.9 -19.8
v -3.3 10.1 -19.8
v -3.3 10.9 -19.8
v -3.3 11.1 -19.8
v -3.3 11.4 -19.8
v -3.3 11.5 -19.8
v -3.3 13.2 -19.8
v -3.3 13.3 -19.8
v -3.4 1.7 -19.8
v -3.4 1.8 -19.8
v -3.4 2.5 -19.8
v -3.4 2.6 -19.8
v -3.4 2.9 -19.8
v -3.4 3 -19.8
v -3.4 7.6 -19.8
v -3.4 7.8 -19.8
v -3.4 8.1 -19.8
v -3.4 8.2 -19.8
v -3.4 9.3 -19.8
v -3.4 9.4 -19.8
v -3.4 9.9 -19.8
v -3.4 10.1 -19.8
v -3.4 10.9 -19.8
v -3.4 11 -19.8
v -3.5 1.5 -19.8
v -3.5 1.8 -19.8
v -3.5 2.5 -19.8
v -3.5 2.6 -19.8
v -3.5 7.7 -19.8
v -3.5 7.8 -19.8
v -3.5 8 -19.8
v -3.5 8.1 -19.8
v -3.5 9.3 -19.8
v -3.5 9.4 -19.8
v -3.5 9.5 -19.8
v -3.5 9.8 -19.8
v -3.5 9.9 -19.8
v -3.5 11.5 -19.8
v -3.5 11.6 -19.8
v -3.6 1.1 -19.8
v -3.6 1.5 -19.8
v -3.6 2.5 -19.8
v -3.6 2.6 -19.8
v -3.6 2.7 -19.8
v -3.6 3 -19.8
v -3.6 7.7 -19.8
v -3.6 7.8 -19.8
v -3.6 8 -19.8
v -3.6 8.3 -19.8
v -3.6 9.4 -19.8
v -3.6 9.5 -19.8
v -3.6 9.8 -19.8
v -3.6 9.9 -19.8
v -3.6 10.7 -19.8
v -3.6 11 -19.8
v -3.6 11.1 -19.8
v -3.6 11.3 -19.8
v -3.7 2.6 -19.8
v -3.7 2.7 -19.8
v -3.7 7.8 -19.8
v -3.7 7.9 -19.8
v -3.7 8 -19.8
v -3.7 8.3 -19.8
v -3.7 9.5 -19.8
v -3.7 9.8 -19.8
v -3.7 9.9 -19.8
v -3.7 10.1 -19.8
v -3.7 10.7 -19.8
v -3.7 11.1 -19.8
v -3.7 11.5 -19.8
v -3.7 11.6 -19.8
v -3.8 1.1 -19.8
v -3.8 1.2 -19.8
v -3.8 7.8 -19.8
v -3.8 7.9 -19.8
v -3.8 8 -19.8
v -3.8 8.2 -19.8
v -3.8 9.9 -19.8
v -3.8 10.1 -19.8
v -3.9 0.8 -19.8
v -3.9 1.2 -19.8
v -3.9 7.8 -19.8
v -3.9 8.2 -19.8
v -3.9 9.8 -19.8
v -3.9 9.9 -19.8
v -4 10.9 -19.8
v -4 11.2 -19.8
v -4 11.4 -19.8
v -4 11.5 -19.8
v -4.1 10.9 -19.8
v -4.1 11.1 -19.8
v -4.1 11.2 -19.8
v -4.1 11.3 -19.8
v -4.2 11.1 -19.8
v -4.2 11.3 -19.8
v -4.3 11.1 -19.8
v -4.3 11.3 -19.8
v -4.4 11.1 -19.8
v -4.4 11.4 -19.8
v -5.3 6 -19.8
v -5.3 6.6 -19.8
v -5.4 5.8 -19.8
v -5.4 6 -19.8
v -5.4 6.2 -19.8
v -5.4 6.6 -19.8
v -5.5 5.7 -19.8
v -5.5 5.8 -19.8
v -5.5 6.2 -19.8
v -5.5 6.4 -19.8
v -5.5 8.7 -19.8
v -5.5 9.2 -19.8
v -5.6 5.7 -19.8
v -5.6 5.9 -19.8
v -5.6 6.3 -19.8
v -5.6 6.4 -19.8
v -5.6 8.7 -19.8
v -5.6 8.8 -19.8
v -5.6 9 -19.8
v -5.6 9.2 -19.8
v -5.7 0.8 -19.8
v -5.7 5.9 -19.8
v -5.7 6.1 -19.8
v -5.7 6.3 -19.8
v -5.7 6.4 -19.8
v -5.7 6.5 -19.8
v -5.7 6.7 -19.8
v -5.7 9 -19.8
v -5.7 9.4 -19.8
v -5.8 6.4 -19.8
v -5.8 6.5 -19.8
v -5.8 6.6 -19.8
v -5.8 6.7 -19.8
v -5.8 8.5 -19.8
v -5.8 8.8 -19.8
v -5.8 9.1 -19.8
v -5.8 9.4 -19.8
v -5.9 6.3 -19.8
v -5.9 6.6 -19.8
v -5.9 8.5 -19.8
v -5.9 8.7 -19.8
v -6 6.1 -19.8
v -6 6.3 -19.8
v -6 8.7 -19.8
v -6 8.8 -19.8
v -6 9.1 -19.8
v -6 9.2 -19.8
v -6.1 8.8 -19.8
v -6.1 9.2 -19.8
v -6.2 6.1 -19.8
v -6.2 13.3 -19.8
v -3.1 0.8 -20.3
v -5.7 0.8 -20.3
v -3.1 0.8 -19.9
v -3.3 0.8 -19.9
v -3.9 0.8 -19.9
v -5.7 0.8 -19.9
v -3.1 0.8 -19.8
v -3.3 0.8 -19.8
v -3.9 0.8 -19.8
v -5.7 0.8 -19.8
v -5.7 6.1 -20.3
v -6.2 6.1 -20.3
v -5.7 6.1 -19.9
v -6 6.1 -19.9
v -6.2 6.1 -19.9
v -5.7 6.1 -19.8
v -6 6.1 -19.8
v -6.2 6.1 -19.8
v -3.1 13.3 -20.3
v -6.2 13.3 -20.3
v -3.3 13.3 -19.9
v -6.2 13.3 -19.9
v -3.1 13.3 -19.8
v -3.3 13.3 -19.8
v -6.2 13.3 -19.8

# faces
f 4/1/1 2/1/1 1/1/1
f 4/2/1 3/2/1 2/2/1
f 5/2/1 3/2/1 4/2/1
f 6/1/1 4/1/1 1/1/1
f 6/3/1 5/3/1 4/3/1
f 7/3/1 5/3/1 6/3/1
f 8/1/1 6/1/1 1/1/1
f 8/2/1 7/2/1 6/2/1
f 9/2/1 7/2/1 8/2/1
f 10/1/1 8/1/1 1/1/1
f 10/3/1 9/3/1 8/3/1
f 11/3/1 9/3/1 10/3/1
f 12/1/1 10/1/1 1/1/1
f 12/2/1 11/2/1 10/2/1
f 13/2/1 11/2/1 12/2/1
f 14/1/1 12/1/1 1/1/1
f 14/3/1 13/3/1 12/3/1
f 15/3/1 13/3/1 14/3/1
f 16/1/1 14/1/1 1/1/1
f 16/2/1 15/2/1 14/2/1
f 17/2/1 15/2/1 16/2/1
f 18/1/1 16/1/1 1/1/1
f 18/3/1 17/3/1 16/3/1
f 19/3/1 17/3/1 18/3/1
f 20/1/1 18/1/1 1/1/1
f 20/2/1 19/2/1 18/2/1
f 21/2/1 19/2/1 20/2/1
f 22/1/1 20/1/1 1/1/1
f 22/1/1 21/1/1 20/1/1
f 23/1/1 21/1/1 22/1/1
f 24/1/2 25/1/2 27/1/2
f 25/2/2 26/2/2 27/2/2
f 27/2/2 26/2/2 28/2/2
f 24/1/2 27/1/2 29/1/2
f 27/3/2 28/3/2 30/3/2
f 29/1/2 27/1/2 30/1/2
f 30/3/2 28/3/2 31/3/2
f 32/1/2 33/1/2 35/1/2
f 33/2/2 34/2/2 36/2/2
f 35/1/2 33/1/2 36/1/2
f 36/2/2 34/2/2 37/2/2
f 40/1/3 39/1/3 38/1/3
f 41/1/3 39/1/3 40/1/3
f 42/1/3 39/1/3 41/1/3
f 43/1/3 39/1/3 42/1/3
f 44/2/4 45/2/4 55/2/4
f 45/3/4 46/3/4 55/3/4
f 46/2/4 47/2/4 56/2/4
f 55/3/4 46/3/4 56/3/4
f 47/3/4 48/3/4 57/3/4
f 56/2/4 47/2/4 57/2/4
f 48/2/4 49/2/4 58/2/4
f 57/3/4 48/3/4 58/3/4
f 58/2/4 49/2/4 59/2/4
f 59/2/4 49/2/4 60/2/4
f 60/2/4 49/2/4 61/2/4
f 61/2/4 49/2/4 62/2/4
f 62/2/4 49/2/4 63/2/4
f 49/3/4 50/3/4 64/3/4
f 63/2/4 49/2/4 64/2/4
f 64/3/4 50/3/4 65/3/4
f 50/2/4 51/2/4 66/2/4
f 65/3/4 50/3/4 66/3/4
f 51/3/4 52/3/4 67/3/4
f 66/2/4 51/2/4 67/2/4
f 52/2/4 53/2/4 68/2/4
f 67/3/4 52/3/4 68/3/4
f 68/2/4 53/2/4 69/2/4
f 69/2/4 53/2/4 70/2/4
f 70/2/4 53/2/4 71/2/4
f 44/2/4 55/2/4 72/2/4
f 55/2/4 56/2/4 72/2/4
f 72/2/4 56/2/4 73/2/4
f 56/3/4 57/3/4 74/3/4
f 73/2/4 56/2/4 74/2/4
f 57/2/4 58/2/4 75/2/4
f 74/3/4 57/3/4 75/3/4
f 58/3/4 59/3/4 76/3/4
f 75/2/4 58/2/4 76/2/4
f 59/2/4 60/2/4 77/2/4
f 76/3/4 59/3/4 77/3/4
f 60/3/4 61/3/4 78/3/4
f 77/2/4 60/2/4 78/2/4
f 78/3/4 61/3/4 79/3/4
f 61/2/4 62/2/4 80/2/4
f 79/3/4 61/3/4 80/3/4
f 80/2/4 62/2/4 81/2/4
f 62/3/4 63/3/4 82/3/4
f 81/2/4 62/2/4 82/2/4
f 64/2/4 65/2/4 83/2/4
f 82/3/4 63/3/4 83/3/4
f 63/2/4 64/2/4 83/2/4
f 83/2/4 65/2/4 84/2/4
f 66/3/4 67/3/4 85/3/4
f 84/2/4 65/2/4 85/2/4
f 65/3/4 66/3/4 85/3/4
f 67/3/4 68/3/4 85/3/4
f 68/3/4 69/3/4 85/3/4
f 85/3/4 69/3/4 86/3/4
f 69/2/4 70/2/4 87/2/4
f 86/3/4 69/3/4 87/3/4
f 87/2/4 70/2/4 88/2/4
f 88/2/4 70/2/4 89/2/4
f 70/3/4 71/3/4 90/3/4
f 89/2/4 70/2/4 90/2/4
f 71/2/4 53/2/4 91/2/4
f 90/3/4 71/3/4 91/3/4
f 91/2/4 53/2/4 92/2/4
f 53/1/4 54/1/4 93/1/4
f 92/2/4 53/2/4 93/2/4
f 93/1/4 54/1/4 94/1/4
f 72/3/4 73/3/4 95/3/4
f 73/2/4 74/2/4 95/2/4
f 74/2/4 75/2/4 95/2/4
f 95/2/4 75/2/4 96/2/4
f 75/3/4 76/3/4 97/3/4
f 96/2/4 75/2/4 97/2/4
f 76/3/4 77/3/4 97/3/4
f 78/3/4 79/3/4 97/3/4
f 77/3/4 78/3/4 97/3/4
f 97/3/4 79/3/4 98/3/4
f 80/2/4 81/2/4 99/2/4
f 98/3/4 79/3/4 99/3/4
f 79/2/4 80/2/4 99/2/4
f 99/2/4 81/2/4 100/2/4
f 83/3/4 84/3/4 101/3/4
f 100/2/4 81/2/4 101/2/4
f 81/3/4 82/3/4 101/3/4
f 82/3/4 83/3/4 101/3/4
f 101/3/4 84/3/4 102/3/4
f 102/3/4 84/3/4 103/3/4
f 85/2/4 86/2/4 104/2/4
f 103/3/4 84/3/4 104/3/4
f 84/2/4 85/2/4 104/2/4
f 104/2/4 86/2/4 105/2/4
f 105/2/4 86/2/4 106/2/4
f 86/3/4 87/3/4 107/3/4
f 87/3/4 88/3/4 107/3/4
f 88/2/4 89/2/4 108/2/4
f 107/3/4 88/3/4 108/3/4
f 91/3/4 92/3/4 109/3/4
f 108/2/4 89/2/4 109/2/4
f 89/3/4 90/3/4 109/3/4
f 90/3/4 91/3/4 109/3/4
f 109/3/4 92/3/4 110/3/4
f 95/3/4 96/3/4 111/3/4
f 72/3/4 95/3/4 111/3/4
f 97/2/4 98/2/4 112/2/4
f 111/3/4 96/3/4 112/3/4
f 96/2/4 97/2/4 112/2/4
f 112/2/4 98/2/4 113/2/4
f 99/3/4 100/3/4 114/3/4
f 113/2/4 98/2/4 114/2/4
f 98/3/4 99/3/4 114/3/4
f 101/2/4 102/2/4 115/2/4
f 100/2/4 101/2/4 115/2/4
f 102/3/4 103/3/4 116/3/4
f 115/2/4 102/2/4 116/2/4
f 116/3/4 103/3/4 117/3/4
f 104/2/4 105/2/4 118/2/4
f 117/3/4 103/3/4 118/3/4
f 103/2/4 104/2/4 118/2/4
f 105/3/4 106/3/4 119/3/4
f 118/2/4 105/2/4 119/2/4
f 106/2/4 86/2/4 120/2/4
f 119/3/4 106/3/4 120/3/4
f 86/3/4 107/3/4 121/3/4
f 120/2/4 86/2/4 121/2/4
f 121/3/4 107/3/4 122/3/4
f 107/2/4 108/2/4 123/2/4
f 122/3/4 107/3/4 123/3/4
f 109/2/4 110/2/4 123/2/4
f 108/2/4 109/2/4 123/2/4
f 93/2/4 94/2/4 124/2/4
f 92/2/4 93/2/4 124/2/4
f 110/3/4 92/3/4 124/3/4
f 124/2/4 94/2/4 125/2/4
f 72/3/4 111/3/4 126/3/4
f 112/2/4 113/2/4 127/2/4
f 126/3/4 111/3/4 127/3/4
f 111/2/4 112/2/4 127/2/4
f 113/3/4 114/3/4 128/3/4
f 127/2/4 113/2/4 128/2/4
f 114/3/4 100/3/4 129/3/4
f 128/3/4 114/3/4 129/3/4
f 129/3/4 100/3/4 130/3/4
f 100/2/4 115/2/4 131/2/4
f 130/3/4 100/3/4 131/3/4
f 116/3/4 117/3/4 132/3/4
f 131/2/4 115/2/4 132/2/4
f 115/3/4 116/3/4 132/3/4
f 132/3/4 117/3/4 133/3/4
f 119/2/4 120/2/4 134/2/4
f 133/3/4 117/3/4 134/3/4
f 118/2/4 119/2/4 134/2/4
f 117/2/4 118/2/4 134/2/4
f 134/2/4 120/2/4 135/2/4
f 121/3/4 122/3/4 136/3/4
f 135/2/4 120/2/4 136/2/4
f 120/3/4 121/3/4 136/3/4
f 136/3/4 122/3/4 137/3/4
f 122/2/4 123/2/4 138/2/4
f 137/3/4 122/3/4 138/3/4
f 123/2/4 110/2/4 139/2/4
f 138/2/4 123/2/4 139/2/4
f 139/2/4 110/2/4 140/2/4
f 124/3/4 125/3/4 141/3/4
f 140/2/4 110/2/4 141/2/4
f 110/3/4 124/3/4 141/3/4
f 141/3/4 125/3/4 142/3/4
f 142/3/4 125/3/4 143/3/4
f 127/2/4 128/2/4 144/2/4
f 128/2/4 129/2/4 144/2/4
f 126/2/4 127/2/4 144/2/4
f 129/3/4 130/3/4 144/3/4
f 130/2/4 131/2/4 145/2/4
f 144/3/4 130/3/4 145/3/4
f 132/2/4 133/2/4 145/2/4
f 131/2/4 132/2/4 145/2/4
f 134/3/4 135/3/4 146/3/4
f 145/2/4 133/2/4 146/2/4
f 133/3/4 134/3/4 146/3/4
f 146/3/4 135/3/4 147/3/4
f 147/3/4 135/3/4 148/3/4
f 135/2/4 136/2/4 149/2/4
f 148/3/4 135/3/4 149/3/4
f 136/2/4 137/2/4 149/2/4
f 137/3/4 138/3/4 150/3/4
f 149/2/4 137/2/4 150/2/4
f 138/3/4 139/3/4 150/3/4
f 150/3/4 139/3/4 151/3/4
f 139/2/4 140/2/4 152/2/4
f 151/3/4 139/3/4 152/3/4
f 152/2/4 140/2/4 153/2/4
f 140/3/4 141/3/4 154/3/4
f 153/2/4 140/2/4 154/2/4
f 141/3/4 142/3/4 154/3/4
f 142/2/4 143/2/4 155/2/4
f 154/3/4 142/3/4 155/3/4
f 143/3/4 125/3/4 156/3/4
f 125/2/4 94/2/4 157/2/4
f 156/3/4 125/3/4 157/3/4
f 144/2/4 145/2/4 158/2/4
f 72/3/4 126/3/4 158/3/4
f 126/2/4 144/2/4 158/2/4
f 146/2/4 147/2/4 158/2/4
f 145/2/4 146/2/4 158/2/4
f 158/2/4 147/2/4 159/2/4
f 159/2/4 147/2/4 160/2/4
f 147/3/4 148/3/4 161/3/4
f 160/2/4 147/2/4 161/2/4
f 150/2/4 151/2/4 162/2/4
f 161/3/4 148/3/4 162/3/4
f 148/2/4 149/2/4 162/2/4
f 149/2/4 150/2/4 162/2/4
f 162/2/4 151/2/4 163/2/4
f 152/3/4 153/3/4 164/3/4
f 151/3/4 152/3/4 164/3/4
f 154/2/4 155/2/4 165/2/4
f 164/3/4 153/3/4 165/3/4
f 153/2/4 154/2/4 165/2/4
f 158/3/4 159/3/4 166/3/4
f 72/3/4 158/3/4 166/3/4
f 159/2/4 160/2/4 167/2/4
f 166/3/4 159/3/4 167/3/4
f 160/3/4 161/3/4 168/3/4
f 167/2/4 160/2/4 168/2/4
f 161/3/4 162/3/4 168/3/4
f 162/3/4 163/3/4 168/3/4
f 163/2/4 151/2/4 169/2/4
f 168/3/4 163/3/4 169/3/4
f 151/3/4 164/3/4 170/3/4
f 169/2/4 151/2/4 170/2/4
f 164/2/4 165/2/4 171/2/4
f 170/3/4 164/3/4 171/3/4
f 168/2/4 169/2/4 172/2/4
f 171/2/4 165/2/4 172/2/4
f 170/2/4 171/2/4 172/2/4
f 166/2/4 167/2/4 172/2/4
f 167/2/4 168/2/4 172/2/4
f 169/2/4 170/2/4 172/2/4
f 165/2/4 155/2/4 172/2/4
f 155/2/4 143/2/4 173/2/4
f 172/2/4 155/2/4 173/2/4
f 143/3/4 156/3/4 174/3/4
f 156/2/4 157/2/4 175/2/4
f 174/3/4 156/3/4 175/3/4
f 166/2/4 172/2/4 176/2/4
f 172/3/4 173/3/4 176/3/4
f 176/3/4 173/3/4 177/3/4
f 173/2/4 143/2/4 178/2/4
f 177/3/4 173/3/4 178/3/4
f 143/3/4 174/3/4 179/3/4
f 178/2/4 143/2/4 179/2/4
f 177/3/4 178/3/4 180/3/4
f 176/2/4 177/2/4 180/2/4
f 178/3/4 179/3/4 180/3/4
f 179/3/4 174/3/4 181/3/4
f 180/3/4 179/3/4 181/3/4
f 176/2/4 180/2/4 182/2/4
f 180/2/4 181/2/4 182/2/4
f 181/3/4 174/3/4 183/3/4
f 182/2/4 181/2/4 183/2/4
f 176/2/4 182/2/4 184/2/4
f 182/3/4 183/3/4 184/3/4
f 183/3/4 174/3/4 185/3/4
f 184/3/4 183/3/4 185/3/4
f 174/2/4 175/2/4 185/2/4
f 176/2/4 184/2/4 186/2/4
f 166/2/4 176/2/4 186/2/4
f 184/2/4 185/2/4 186/2/4
f 186/2/4 185/2/4 187/2/4
f 166/2/4 186/2/4 188/2/4
f 186/3/4 187/3/4 189/3/4
f 188/2/4 186/2/4 189/2/4
f 189/3/4 187/3/4 190/3/4
f 187/2/4 185/2/4 191/2/4
f 190/3/4 187/3/4 191/3/4
f 166/2/4 188/2/4 192/2/4
f 189/3/4 190/3/4 193/3/4
f 192/2/4 188/2/4 193/2/4
f 188/3/4 189/3/4 193/3/4
f 190/2/4 191/2/4 194/2/4
f 193/3/4 190/3/4 194/3/4
f 194/2/4 191/2/4 195/2/4
f 191/2/4 185/2/4 196/2/4
f 195/2/4 191/2/4 196/2/4
f 196/2/4 185/2/4 197/2/4
f 166/2/4 192/2/4 198/2/4
f 194/3/4 195/3/4 198/3/4
f 192/3/4 193/3/4 198/3/4
f 193/3/4 194/3/4 198/3/4
f 198/3/4 195/3/4 199/3/4
f 199/3/4 195/3/4 200/3/4
f 195/2/4 196/2/4 201/2/4
f 200/3/4 195/3/4 201/3/4
f 196/3/4 197/3/4 202/3/4
f 201/2/4 196/2/4 202/2/4
f 202/3/4 197/3/4 203/3/4
f 203/3/4 197/3/4 204/3/4
f 197/2/4 185/2/4 205/2/4
f 204/3/4 197/3/4 205/3/4
f 166/2/4 198/2/4 206/2/4
f 198/2/4 199/2/4 206/2/4
f 199/3/4 200/3/4 207/3/4
f 206/2/4 199/2/4 207/2/4
f 207/3/4 200/3/4 208/3/4
f 200/2/4 201/2/4 209/2/4
f 208/3/4 200/3/4 209/3/4
f 201/2/4 202/2/4 209/2/4
f 202/2/4 203/2/4 209/2/4
f 209/2/4 203/2/4 210/2/4
f 210/2/4 203/2/4 211/2/4
f 211/2/4 203/2/4 212/2/4
f 203/3/4 204/3/4 213/3/4
f 204/2/4 205/2/4 213/2/4
f 205/2/4 185/2/4 214/2/4
f 213/2/4 205/2/4 214/2/4
f 208/3/4 209/3/4 215/3/4
f 210/2/4 211/2/4 215/2/4
f 209/3/4 210/3/4 215/3/4
f 211/3/4 212/3/4 216/3/4
f 215/2/4 211/2/4 216/2/4
f 216/3/4 212/3/4 217/3/4
f 212/2/4 203/2/4 218/2/4
f 217/3/4 212/3/4 218/3/4
f 218/2/4 203/2/4 219/2/4
f 203/3/4 213/3/4 220/3/4
f 219/2/4 203/2/4 220/2/4
f 213/3/4 214/3/4 220/3/4
f 220/3/4 214/3/4 221/3/4
f 214/2/4 185/2/4 222/2/4
f 221/3/4 214/3/4 222/3/4
f 216/3/4 217/3/4 223/3/4
f 208/3/4 215/3/4 223/3/4
f 215/3/4 216/3/4 223/3/4
f 218/2/4 219/2/4 224/2/4
f 223/3/4 217/3/4 224/3/4
f 217/2/4 218/2/4 224/2/4
f 220/3/4 221/3/4 225/3/4
f 224/2/4 219/2/4 225/2/4
f 219/3/4 220/3/4 225/3/4
f 225/3/4 221/3/4 226/3/4
f 208/3/4 223/3/4 227/3/4
f 223/2/4 224/2/4 228/2/4
f 227/3/4 223/3/4 228/3/4
f 224/2/4 225/2/4 228/2/4
f 225/2/4 226/2/4 228/2/4
f 226/3/4 221/3/4 229/3/4
f 228/2/4 226/2/4 229/2/4
f 229/3/4 221/3/4 230/3/4
f 221/2/4 222/2/4 231/2/4
f 230/3/4 221/3/4 231/3/4
f 231/2/4 222/2/4 232/2/4
f 227/2/4 228/2/4 233/2/4
f 229/2/4 230/2/4 233/2/4
f 231/3/4 232/3/4 233/3/4
f 230/3/4 231/3/4 233/3/4
f 228/2/4 229/2/4 233/2/4
f 232/2/4 222/2/4 234/2/4
f 233/3/4 232/3/4 234/3/4
f 227/2/4 233/2/4 235/2/4
f 233/2/4 234/2/4 235/2/4
f 157/2/4 94/2/4 236/2/4
f 235/2/4 234/2/4 236/2/4
f 185/2/4 175/2/4 236/2/4
f 234/2/4 222/2/4 236/2/4
f 175/2/4 157/2/4 236/2/4
f 222/2/4 185/2/4 236/2/4
f 239/1/5 238/1/5 237/1/5
f 240/1/5 238/1/5 239/1/5
f 241/1/5 238/1/5 240/1/5
f 242/1/5 238/1/5 241/1/5
f 243/2/5 240/2/5 239/2/5
f 244/3/5 241/3/5 240/3/5
f 244/2/5 240/2/5 243/2/5
f 245/2/5 242/2/5 241/2/5
f 245/3/5 241/3/5 244/3/5
f 246/2/5 242/2/5 245/2/5
f 249/1/5 248/1/5 247/1/5
f 250/1/5 248/1/5 249/1/5
f 251/1/5 248/1/5 250/1/5
f 252/3/5 250/3/5 249/3/5
f 253/2/5 251/2/5 250/2/5
f 253/3/5 250/3/5 252/3/5
f 254/2/5 251/2/5 253/2/5
f 255/1/6 256/1/6 257/1/6
f 257/1/6 256/1/6 258/1/6
f 255/1/6 257/1/6 259/1/6
f 257/2/6 258/2/6 260/2/6
f 259/1/6 257/1/6 260/1/6
f 260/2/6 258/2/6 261/2/6
