# MagicaVoxel @ Ephtracy

# group
o 

# material
mtllib untitled-21.mtl
usemtl palette

# normals
vn 1 0 0
vn -1 0 0
vn 0 0 -1
vn 0 0 1
vn 0 -1 0
vn 0 1 0

# texcoords
vt 0.916016 0.5
vt 0.927734 0.5

# verts
v -5.9 12.4 -19.8
v -5.9 12.4 -19.4
v -5.9 12.8 -19.8
v -5.9 12.8 -19.4
v -6 12.4 -19.4
v -6 12.4 -19.3
v -6 12.4 -19.1
v -6 12.6 -19.3
v -6 12.6 -19.1
v -6 12.7 -19.3
v -6 12.7 -19.1
v -6 12.8 -19.8
v -6 12.8 -19.4
v -6 12.9 -19.8
v -6 12.9 -19.4
v -6 12.9 -19.3
v -6 12.9 -19.2
v -6 12.9 -19.1
v -6 13 -19.4
v -6 13 -19.2
v -6 13.2 -19.8
v -6 13.2 -19.2
v -6 13.3 -19.8
v -6 13.3 -19.2
v -6.1 12.9 -19.2
v -6.1 12.9 -19.1
v -6.1 13 -19.2
v -6.1 13 -19.1
v -6.1 13.2 -19.2
v -6.1 13.2 -19.1
v -6.1 13.3 -19.2
v -6.1 13.3 -19.1
v -14.2 12.4 -19.8
v -14.2 12.4 -19.2
v -14.2 12.4 -19.1
v -14.2 13 -19.2
v -14.2 13 -19.1
v -14.2 13.1 -19.2
v -14.2 13.1 -19.1
v -14.2 13.3 -19.8
v -14.2 13.3 -19.2
v -14.2 13.3 -19.1
v -5.9 12.4 -19.8
v -5.9 12.8 -19.8
v -6 12.8 -19.8
v -6 12.9 -19.8
v -6 13.2 -19.8
v -6 13.3 -19.8
v -6.1 12.4 -19.8
v -6.1 12.8 -19.8
v -6.1 12.9 -19.8
v -6.1 13.2 -19.8
v -14.2 12.4 -19.8
v -14.2 13.3 -19.8
v -5.9 12.4 -19.4
v -5.9 12.8 -19.4
v -6 12.4 -19.4
v -6 12.8 -19.4
v -6 12.9 -19.2
v -6 13 -19.2
v -6 13.2 -19.2
v -6 13.3 -19.2
v -6.1 12.9 -19.2
v -6.1 13 -19.2
v -6.1 13.2 -19.2
v -6.1 13.3 -19.2
v -6 12.4 -19.1
v -6 12.6 -19.1
v -6 12.7 -19.1
v -6 12.9 -19.1
v -6.1 12.7 -19.1
v -6.1 12.9 -19.1
v -6.1 13 -19.1
v -6.1 13.2 -19.1
v -6.1 13.3 -19.1
v -6.2 12.7 -19.1
v -6.2 12.9 -19.1
v -6.3 13 -19.1
v -6.3 13.2 -19.1
v -6.4 12.9 -19.1
v -6.4 13.1 -19.1
v -6.4 13.2 -19.1
v -6.4 13.3 -19.1
v -6.6 12.4 -19.1
v -6.6 12.6 -19.1
v -6.6 12.9 -19.1
v -6.6 13.1 -19.1
v -6.6 13.2 -19.1
v -6.6 13.3 -19.1
v -6.7 12.4 -19.1
v -6.7 12.6 -19.1
v -6.7 12.7 -19.1
v -6.7 12.9 -19.1
v -6.7 13 -19.1
v -6.7 13.3 -19.1
v -6.8 12.7 -19.1
v -6.8 12.9 -19.1
v -6.9 13 -19.1
v -6.9 13.3 -19.1
v -7 12.9 -19.1
v -7 13.1 -19.1
v -7 13.2 -19.1
v -7 13.3 -19.1
v -7.2 12.4 -19.1
v -7.2 12.6 -19.1
v -7.2 12.7 -19.1
v -7.2 13.1 -19.1
v -7.2 13.2 -19.1
v -7.2 13.3 -19.1
v -7.3 12.4 -19.1
v -7.3 12.9 -19.1
v -7.3 13 -19.1
v -7.3 13.2 -19.1
v -7.7 12.4 -19.1
v -7.7 12.9 -19.1
v -7.8 12.4 -19.1
v -7.8 12.9 -19.1
v -7.8 13 -19.1
v -7.8 13.2 -19.1
v -7.9 13 -19.1
v -7.9 13.2 -19.1
v -8.1 12.4 -19.1
v -8.1 12.9 -19.1
v -8.2 12.4 -19.1
v -8.2 12.6 -19.1
v -8.2 12.7 -19.1
v -8.2 12.8 -19.1
v -8.2 12.9 -19.1
v -8.2 13 -19.1
v -8.4 12.9 -19.1
v -8.4 13.2 -19.1
v -8.5 12.8 -19.1
v -8.5 13.1 -19.1
v -8.5 13.2 -19.1
v -8.5 13.3 -19.1
v -8.7 12.7 -19.1
v -8.7 13.1 -19.1
v -8.7 13.2 -19.1
v -8.7 13.3 -19.1
v -8.8 12.4 -19.1
v -8.8 12.6 -19.1
v -8.8 12.7 -19.1
v -8.8 13 -19.1
v -8.8 13.1 -19.1
v -8.8 13.3 -19.1
v -8.9 12.4 -19.1
v -8.9 12.7 -19.1
v -9.1 12.4 -19.1
v -9.1 12.7 -19.1
v -9.1 13.1 -19.1
v -9.1 13.3 -19.1
v -9.2 12.4 -19.1
v -9.2 12.6 -19.1
v -9.2 12.7 -19.1
v -9.2 13 -19.1
v -9.2 13.1 -19.1
v -9.2 13.3 -19.1
v -9.3 12.6 -19.1
v -9.3 12.8 -19.1
v -9.3 12.9 -19.1
v -9.3 13.1 -19.1
v -9.6 12.4 -19.1
v -9.6 12.6 -19.1
v -9.6 13.2 -19.1
v -9.6 13.3 -19.1
v -9.7 12.4 -19.1
v -9.7 12.5 -19.1
v -9.7 12.6 -19.1
v -9.7 12.8 -19.1
v -9.7 12.9 -19.1
v -9.7 13.2 -19.1
v -9.7 13.3 -19.1
v -9.8 12.5 -19.1
v -9.8 12.8 -19.1
v -9.8 12.9 -19.1
v -9.8 13.2 -19.1
v -10 12.7 -19.1
v -10 12.8 -19.1
v -10 12.9 -19.1
v -10 13.3 -19.1
v -10.1 12.8 -19.1
v -10.1 13.1 -19.1
v -10.1 13.2 -19.1
v -10.1 13.3 -19.1
v -10.3 12.4 -19.1
v -10.3 12.7 -19.1
v -10.4 12.4 -19.1
v -10.4 12.7 -19.1
v -10.5 12.8 -19.1
v -10.5 13.1 -19.1
v -10.6 12.7 -19.1
v -10.6 13 -19.1
v -10.6 13.1 -19.1
v -10.6 13.2 -19.1
v -10.8 13.1 -19.1
v -10.8 13.3 -19.1
v -10.9 12.7 -19.1
v -10.9 13 -19.1
v -11 12.8 -19.1
v -11 13.2 -19.1
v -11.1 12.6 -19.1
v -11.1 12.7 -19.1
v -11.2 12.4 -19.1
v -11.2 12.6 -19.1
v -11.3 12.4 -19.1
v -11.3 12.7 -19.1
v -11.3 13.1 -19.1
v -11.3 13.2 -19.1
v -11.3 13.3 -19.1
v -11.5 12.4 -19.1
v -11.5 12.5 -19.1
v -11.6 12.5 -19.1
v -11.6 12.7 -19.1
v -11.6 13 -19.1
v -11.6 13.1 -19.1
v -11.6 13.2 -19.1
v -11.7 12.4 -19.1
v -11.7 12.8 -19.1
v -11.7 13 -19.1
v -11.8 12.8 -19.1
v -11.8 13 -19.1
v -11.9 12.4 -19.1
v -11.9 12.7 -19.1
v -12 12.4 -19.1
v -12 12.6 -19.1
v -12 12.7 -19.1
v -12 13 -19.1
v -12 13.1 -19.1
v -12 13.3 -19.1
v -12.1 12.6 -19.1
v -12.1 12.7 -19.1
v -12.1 12.8 -19.1
v -12.1 13.2 -19.1
v -12.3 12.4 -19.1
v -12.3 12.7 -19.1
v -12.3 12.8 -19.1
v -12.4 12.4 -19.1
v -12.4 12.6 -19.1
v -12.4 13.1 -19.1
v -12.4 13.2 -19.1
v -12.4 13.3 -19.1
v -12.6 12.6 -19.1
v -12.6 12.7 -19.1
v -12.6 13.1 -19.1
v -12.7 12.8 -19.1
v -12.7 13.2 -19.1
v -12.7 13.3 -19.1
v -12.9 12.4 -19.1
v -12.9 12.7 -19.1
v -13 12.4 -19.1
v -13 12.8 -19.1
v -13 12.9 -19.1
v -13 13.1 -19.1
v -13 13.2 -19.1
v -13 13.3 -19.1
v -13.2 12.7 -19.1
v -13.2 12.8 -19.1
v -13.2 12.9 -19.1
v -13.2 13.1 -19.1
v -13.3 12.8 -19.1
v -13.3 13.1 -19.1
v -13.4 12.4 -19.1
v -13.4 12.7 -19.1
v -13.5 12.4 -19.1
v -13.5 12.7 -19.1
v -13.5 13 -19.1
v -13.5 13.1 -19.1
v -13.5 13.2 -19.1
v -13.5 13.3 -19.1
v -13.6 13.1 -19.1
v -13.6 13.3 -19.1
v -13.7 12.4 -19.1
v -13.7 12.7 -19.1
v -13.8 12.4 -19.1
v -13.8 12.8 -19.1
v -13.8 13 -19.1
v -13.9 12.8 -19.1
v -13.9 13 -19.1
v -14.2 12.4 -19.1
v -14.2 13 -19.1
v -14.2 13.1 -19.1
v -14.2 13.3 -19.1
v -5.9 12.4 -19.8
v -6.1 12.4 -19.8
v -14.2 12.4 -19.8
v -5.9 12.4 -19.4
v -6 12.4 -19.4
v -6.1 12.4 -19.4
v -6 12.4 -19.3
v -6.1 12.4 -19.3
v -6.1 12.4 -19.2
v -6.6 12.4 -19.2
v -6.7 12.4 -19.2
v -7.2 12.4 -19.2
v -7.3 12.4 -19.2
v -7.7 12.4 -19.2
v -7.8 12.4 -19.2
v -8.1 12.4 -19.2
v -8.2 12.4 -19.2
v -8.8 12.4 -19.2
v -8.9 12.4 -19.2
v -9.1 12.4 -19.2
v -9.2 12.4 -19.2
v -9.6 12.4 -19.2
v -9.7 12.4 -19.2
v -10.3 12.4 -19.2
v -10.4 12.4 -19.2
v -11.2 12.4 -19.2
v -11.3 12.4 -19.2
v -11.5 12.4 -19.2
v -11.7 12.4 -19.2
v -11.9 12.4 -19.2
v -12 12.4 -19.2
v -12.3 12.4 -19.2
v -12.4 12.4 -19.2
v -12.9 12.4 -19.2
v -13 12.4 -19.2
v -13.4 12.4 -19.2
v -13.5 12.4 -19.2
v -13.7 12.4 -19.2
v -13.8 12.4 -19.2
v -14.2 12.4 -19.2
v -6 12.4 -19.1
v -6.6 12.4 -19.1
v -6.7 12.4 -19.1
v -7.2 12.4 -19.1
v -7.3 12.4 -19.1
v -7.7 12.4 -19.1
v -7.8 12.4 -19.1
v -8.1 12.4 -19.1
v -8.2 12.4 -19.1
v -8.8 12.4 -19.1
v -8.9 12.4 -19.1
v -9.1 12.4 -19.1
v -9.2 12.4 -19.1
v -9.6 12.4 -19.1
v -9.7 12.4 -19.1
v -10.3 12.4 -19.1
v -10.4 12.4 -19.1
v -11.2 12.4 -19.1
v -11.3 12.4 -19.1
v -11.5 12.4 -19.1
v -11.7 12.4 -19.1
v -11.9 12.4 -19.1
v -12 12.4 -19.1
v -12.3 12.4 -19.1
v -12.4 12.4 -19.1
v -12.9 12.4 -19.1
v -13 12.4 -19.1
v -13.4 12.4 -19.1
v -13.5 12.4 -19.1
v -13.7 12.4 -19.1
v -13.8 12.4 -19.1
v -14.2 12.4 -19.1
v -5.9 12.8 -19.8
v -6 12.8 -19.8
v -5.9 12.8 -19.4
v -6 12.8 -19.4
v -6 12.9 -19.2
v -6.1 12.9 -19.2
v -6 12.9 -19.1
v -6.1 12.9 -19.1
v -6 13.3 -19.8
v -14.2 13.3 -19.8
v -9.3 13.3 -19.3
v -9.4 13.3 -19.3
v -6 13.3 -19.2
v -6.1 13.3 -19.2
v -6.4 13.3 -19.2
v -6.6 13.3 -19.2
v -6.7 13.3 -19.2
v -6.9 13.3 -19.2
v -7 13.3 -19.2
v -7.2 13.3 -19.2
v -8.5 13.3 -19.2
v -8.7 13.3 -19.2
v -8.8 13.3 -19.2
v -9.1 13.3 -19.2
v -9.2 13.3 -19.2
v -9.3 13.3 -19.2
v -9.4 13.3 -19.2
v -9.6 13.3 -19.2
v -9.7 13.3 -19.2
v -10 13.3 -19.2
v -10.1 13.3 -19.2
v -10.8 13.3 -19.2
v -11.3 13.3 -19.2
v -12 13.3 -19.2
v -12.4 13.3 -19.2
v -12.7 13.3 -19.2
v -13 13.3 -19.2
v -13.5 13.3 -19.2
v -13.6 13.3 -19.2
v -14.2 13.3 -19.2
v -6.1 13.3 -19.1
v -6.4 13.3 -19.1
v -6.6 13.3 -19.1
v -6.7 13.3 -19.1
v -6.9 13.3 -19.1
v -7 13.3 -19.1
v -7.2 13.3 -19.1
v -8.5 13.3 -19.1
v -8.7 13.3 -19.1
v -8.8 13.3 -19.1
v -9.1 13.3 -19.1
v -9.2 13.3 -19.1
v -9.6 13.3 -19.1
v -9.7 13.3 -19.1
v -10 13.3 -19.1
v -10.1 13.3 -19.1
v -10.8 13.3 -19.1
v -11.3 13.3 -19.1
v -12 13.3 -19.1
v -12.4 13.3 -19.1
v -12.7 13.3 -19.1
v -13 13.3 -19.1
v -13.5 13.3 -19.1
v -13.6 13.3 -19.1
v -14.2 13.3 -19.1

# faces
f 3/1/1 2/1/1 1/1/1
f 4/1/1 2/1/1 3/1/1
f 8/2/1 6/2/1 5/2/1
f 8/1/1 7/1/1 6/1/1
f 9/1/1 7/1/1 8/1/1
f 10/2/1 8/2/1 5/2/1
f 10/2/1 9/2/1 8/2/1
f 11/2/1 9/2/1 10/2/1
f 13/2/1 10/2/1 5/2/1
f 14/2/1 13/2/1 12/2/1
f 15/2/1 10/2/1 13/2/1
f 15/2/1 13/2/1 14/2/1
f 16/1/1 11/1/1 10/1/1
f 16/2/1 10/2/1 15/2/1
f 17/1/1 11/1/1 16/1/1
f 18/1/1 11/1/1 17/1/1
f 19/1/1 15/1/1 14/1/1
f 19/2/1 16/2/1 15/2/1
f 19/2/1 17/2/1 16/2/1
f 20/2/1 17/2/1 19/2/1
f 21/1/1 19/1/1 14/1/1
f 21/1/1 20/1/1 19/1/1
f 22/1/1 20/1/1 21/1/1
f 23/2/1 22/2/1 21/2/1
f 24/2/1 22/2/1 23/2/1
f 27/2/1 26/2/1 25/2/1
f 28/2/1 26/2/1 27/2/1
f 29/1/1 28/1/1 27/1/1
f 30/1/1 28/1/1 29/1/1
f 31/2/1 30/2/1 29/2/1
f 32/2/1 30/2/1 31/2/1
f 33/2/2 34/2/2 36/2/2
f 34/1/2 35/1/2 36/1/2
f 36/1/2 35/1/2 37/1/2
f 33/2/2 36/2/2 38/2/2
f 36/2/2 37/2/2 38/2/2
f 38/2/2 37/2/2 39/2/2
f 33/2/2 38/2/2 40/2/2
f 38/1/2 39/1/2 41/1/2
f 40/2/2 38/2/2 41/2/2
f 41/1/2 39/1/2 42/1/2
f 45/1/3 44/1/3 43/1/3
f 49/1/3 45/1/3 43/1/3
f 50/2/3 46/2/3 45/2/3
f 50/1/3 45/1/3 49/1/3
f 51/1/3 47/1/3 46/1/3
f 51/2/3 46/2/3 50/2/3
f 52/2/3 48/2/3 47/2/3
f 52/1/3 47/1/3 51/1/3
f 53/2/3 51/2/3 50/2/3
f 53/2/3 50/2/3 49/2/3
f 53/2/3 52/2/3 51/2/3
f 54/2/3 48/2/3 52/2/3
f 54/2/3 52/2/3 53/2/3
f 55/1/4 56/1/4 57/1/4
f 57/1/4 56/1/4 58/1/4
f 59/2/4 60/2/4 63/2/4
f 60/1/4 61/1/4 64/1/4
f 63/2/4 60/2/4 64/2/4
f 61/2/4 62/2/4 65/2/4
f 64/1/4 61/1/4 65/1/4
f 65/2/4 62/2/4 66/2/4
f 68/2/4 69/2/4 71/2/4
f 69/1/4 70/1/4 71/1/4
f 71/1/4 70/1/4 72/1/4
f 68/2/4 71/2/4 76/2/4
f 71/2/4 72/2/4 76/2/4
f 72/2/4 73/2/4 76/2/4
f 76/2/4 73/2/4 77/2/4
f 73/1/4 74/1/4 78/1/4
f 77/2/4 73/2/4 78/2/4
f 74/2/4 75/2/4 79/2/4
f 78/1/4 74/1/4 79/1/4
f 77/2/4 78/2/4 80/2/4
f 76/1/4 77/1/4 80/1/4
f 78/2/4 79/2/4 80/2/4
f 80/2/4 79/2/4 81/2/4
f 79/2/4 75/2/4 82/2/4
f 81/2/4 79/2/4 82/2/4
f 82/2/4 75/2/4 83/2/4
f 67/1/4 68/1/4 84/1/4
f 68/2/4 76/2/4 85/2/4
f 84/1/4 68/1/4 85/1/4
f 80/1/4 81/1/4 86/1/4
f 76/1/4 80/1/4 86/1/4
f 81/2/4 82/2/4 87/2/4
f 86/1/4 81/1/4 87/1/4
f 82/1/4 83/1/4 88/1/4
f 87/2/4 82/2/4 88/2/4
f 88/1/4 83/1/4 89/1/4
f 84/2/4 85/2/4 90/2/4
f 85/2/4 76/2/4 91/2/4
f 90/2/4 85/2/4 91/2/4
f 76/1/4 86/1/4 92/1/4
f 91/2/4 76/2/4 92/2/4
f 86/2/4 87/2/4 93/2/4
f 92/1/4 86/1/4 93/1/4
f 87/2/4 88/2/4 93/2/4
f 88/2/4 89/2/4 93/2/4
f 93/2/4 89/2/4 94/2/4
f 94/2/4 89/2/4 95/2/4
f 91/2/4 92/2/4 96/2/4
f 92/2/4 93/2/4 96/2/4
f 93/2/4 94/2/4 96/2/4
f 96/2/4 94/2/4 97/2/4
f 94/1/4 95/1/4 98/1/4
f 97/2/4 94/2/4 98/2/4
f 98/1/4 95/1/4 99/1/4
f 96/1/4 97/1/4 100/1/4
f 97/2/4 98/2/4 100/2/4
f 98/2/4 99/2/4 100/2/4
f 100/2/4 99/2/4 101/2/4
f 101/2/4 99/2/4 102/2/4
f 102/2/4 99/2/4 103/2/4
f 90/1/4 91/1/4 104/1/4
f 91/2/4 96/2/4 105/2/4
f 104/1/4 91/1/4 105/1/4
f 96/1/4 100/1/4 106/1/4
f 105/2/4 96/2/4 106/2/4
f 100/1/4 101/1/4 106/1/4
f 101/2/4 102/2/4 107/2/4
f 106/1/4 101/1/4 107/1/4
f 102/1/4 103/1/4 108/1/4
f 107/2/4 102/2/4 108/2/4
f 108/1/4 103/1/4 109/1/4
f 104/2/4 105/2/4 110/2/4
f 106/2/4 107/2/4 110/2/4
f 108/2/4 109/2/4 110/2/4
f 107/2/4 108/2/4 110/2/4
f 105/2/4 106/2/4 110/2/4
f 110/2/4 109/2/4 111/2/4
f 111/2/4 109/2/4 112/2/4
f 112/2/4 109/2/4 113/2/4
f 110/1/4 111/1/4 114/1/4
f 111/2/4 112/2/4 115/2/4
f 114/1/4 111/1/4 115/1/4
f 114/2/4 115/2/4 116/2/4
f 115/2/4 112/2/4 117/2/4
f 116/2/4 115/2/4 117/2/4
f 112/1/4 113/1/4 118/1/4
f 117/2/4 112/2/4 118/2/4
f 113/2/4 109/2/4 119/2/4
f 118/1/4 113/1/4 119/1/4
f 117/2/4 118/2/4 120/2/4
f 118/2/4 119/2/4 120/2/4
f 119/2/4 109/2/4 121/2/4
f 120/2/4 119/2/4 121/2/4
f 116/1/4 117/1/4 122/1/4
f 117/2/4 120/2/4 123/2/4
f 122/1/4 117/1/4 123/1/4
f 122/2/4 123/2/4 124/2/4
f 124/2/4 123/2/4 125/2/4
f 125/2/4 123/2/4 126/2/4
f 126/2/4 123/2/4 127/2/4
f 123/2/4 120/2/4 128/2/4
f 127/2/4 123/2/4 128/2/4
f 120/1/4 121/1/4 129/1/4
f 128/2/4 120/2/4 129/2/4
f 127/2/4 128/2/4 130/2/4
f 128/1/4 129/1/4 130/1/4
f 121/2/4 109/2/4 131/2/4
f 130/1/4 129/1/4 131/1/4
f 129/1/4 121/1/4 131/1/4
f 127/2/4 130/2/4 132/2/4
f 126/1/4 127/1/4 132/1/4
f 130/2/4 131/2/4 132/2/4
f 132/2/4 131/2/4 133/2/4
f 131/2/4 109/2/4 134/2/4
f 133/2/4 131/2/4 134/2/4
f 134/2/4 109/2/4 135/2/4
f 132/1/4 133/1/4 136/1/4
f 125/2/4 126/2/4 136/2/4
f 126/1/4 132/1/4 136/1/4
f 133/2/4 134/2/4 137/2/4
f 136/1/4 133/1/4 137/1/4
f 134/1/4 135/1/4 138/1/4
f 137/2/4 134/2/4 138/2/4
f 138/1/4 135/1/4 139/1/4
f 124/1/4 125/1/4 140/1/4
f 136/2/4 137/2/4 141/2/4
f 140/1/4 125/1/4 141/1/4
f 125/2/4 136/2/4 141/2/4
f 138/2/4 139/2/4 141/2/4
f 137/2/4 138/2/4 141/2/4
f 141/2/4 139/2/4 142/2/4
f 142/2/4 139/2/4 143/2/4
f 143/2/4 139/2/4 144/2/4
f 144/2/4 139/2/4 145/2/4
f 140/2/4 141/2/4 146/2/4
f 141/2/4 142/2/4 146/2/4
f 142/1/4 143/1/4 147/1/4
f 146/2/4 142/2/4 147/2/4
f 146/1/4 147/1/4 148/1/4
f 147/1/4 143/1/4 149/1/4
f 148/1/4 147/1/4 149/1/4
f 144/1/4 145/1/4 150/1/4
f 143/2/4 144/2/4 150/2/4
f 150/1/4 145/1/4 151/1/4
f 148/2/4 149/2/4 152/2/4
f 152/2/4 149/2/4 153/2/4
f 149/1/4 143/1/4 154/1/4
f 153/2/4 149/2/4 154/2/4
f 143/2/4 150/2/4 155/2/4
f 154/1/4 143/1/4 155/1/4
f 150/2/4 151/2/4 155/2/4
f 155/2/4 151/2/4 156/2/4
f 156/2/4 151/2/4 157/2/4
f 152/1/4 153/1/4 158/1/4
f 153/2/4 154/2/4 158/2/4
f 154/2/4 155/2/4 158/2/4
f 155/2/4 156/2/4 158/2/4
f 158/2/4 156/2/4 159/2/4
f 159/2/4 156/2/4 160/2/4
f 156/1/4 157/1/4 161/1/4
f 160/2/4 156/2/4 161/2/4
f 152/1/4 158/1/4 162/1/4
f 158/1/4 159/1/4 162/1/4
f 162/1/4 159/1/4 163/1/4
f 161/1/4 157/1/4 164/1/4
f 160/1/4 161/1/4 164/1/4
f 164/1/4 157/1/4 165/1/4
f 162/2/4 163/2/4 166/2/4
f 166/2/4 163/2/4 167/2/4
f 163/1/4 159/1/4 168/1/4
f 167/2/4 163/2/4 168/2/4
f 159/2/4 160/2/4 169/2/4
f 168/1/4 159/1/4 169/1/4
f 160/1/4 164/1/4 170/1/4
f 169/2/4 160/2/4 170/2/4
f 164/2/4 165/2/4 171/2/4
f 170/1/4 164/1/4 171/1/4
f 171/2/4 165/2/4 172/2/4
f 167/2/4 168/2/4 173/2/4
f 166/1/4 167/1/4 173/1/4
f 168/2/4 169/2/4 173/2/4
f 170/2/4 171/2/4 173/2/4
f 169/2/4 170/2/4 173/2/4
f 173/2/4 171/2/4 174/2/4
f 174/2/4 171/2/4 175/2/4
f 171/1/4 172/1/4 176/1/4
f 175/2/4 171/2/4 176/2/4
f 173/1/4 174/1/4 177/1/4
f 174/2/4 175/2/4 178/2/4
f 177/1/4 174/1/4 178/1/4
f 175/1/4 176/1/4 179/1/4
f 178/2/4 175/2/4 179/2/4
f 176/1/4 172/1/4 180/1/4
f 179/1/4 176/1/4 180/1/4
f 178/2/4 179/2/4 181/2/4
f 177/2/4 178/2/4 181/2/4
f 179/2/4 180/2/4 181/2/4
f 181/2/4 180/2/4 182/2/4
f 182/2/4 180/2/4 183/2/4
f 183/2/4 180/2/4 184/2/4
f 173/1/4 177/1/4 185/1/4
f 166/1/4 173/1/4 185/1/4
f 177/2/4 181/2/4 186/2/4
f 185/1/4 177/1/4 186/1/4
f 185/2/4 186/2/4 187/2/4
f 186/2/4 181/2/4 188/2/4
f 187/2/4 186/2/4 188/2/4
f 181/1/4 182/1/4 189/1/4
f 188/2/4 181/2/4 189/2/4
f 182/2/4 183/2/4 190/2/4
f 189/1/4 182/1/4 190/1/4
f 187/1/4 188/1/4 191/1/4
f 188/2/4 189/2/4 191/2/4
f 189/2/4 190/2/4 191/2/4
f 191/2/4 190/2/4 192/2/4
f 190/2/4 183/2/4 193/2/4
f 192/2/4 190/2/4 193/2/4
f 183/1/4 184/1/4 194/1/4
f 193/2/4 183/2/4 194/2/4
f 192/2/4 193/2/4 195/2/4
f 193/1/4 194/1/4 195/1/4
f 194/1/4 184/1/4 196/1/4
f 195/1/4 194/1/4 196/1/4
f 191/1/4 192/1/4 197/1/4
f 187/1/4 191/1/4 197/1/4
f 192/2/4 195/2/4 198/2/4
f 197/1/4 192/1/4 198/1/4
f 195/2/4 196/2/4 198/2/4
f 197/2/4 198/2/4 199/2/4
f 198/2/4 196/2/4 200/2/4
f 199/2/4 198/2/4 200/2/4
f 187/1/4 197/1/4 201/1/4
f 197/2/4 199/2/4 202/2/4
f 201/1/4 197/1/4 202/1/4
f 187/1/4 201/1/4 203/1/4
f 201/2/4 202/2/4 204/2/4
f 203/1/4 201/1/4 204/1/4
f 203/2/4 204/2/4 205/2/4
f 202/2/4 199/2/4 206/2/4
f 205/2/4 204/2/4 206/2/4
f 204/2/4 202/2/4 206/2/4
f 199/1/4 200/1/4 207/1/4
f 200/2/4 196/2/4 208/2/4
f 207/1/4 200/1/4 208/1/4
f 208/2/4 196/2/4 209/2/4
f 205/1/4 206/1/4 210/1/4
f 210/1/4 206/1/4 211/1/4
f 210/2/4 211/2/4 212/2/4
f 211/1/4 206/1/4 212/1/4
f 206/2/4 199/2/4 213/2/4
f 212/1/4 206/1/4 213/1/4
f 199/1/4 207/1/4 214/1/4
f 207/2/4 208/2/4 215/2/4
f 214/1/4 207/1/4 215/1/4
f 208/1/4 209/1/4 216/1/4
f 215/2/4 208/2/4 216/2/4
f 210/2/4 212/2/4 217/2/4
f 212/2/4 213/2/4 217/2/4
f 213/2/4 199/2/4 218/2/4
f 217/2/4 213/2/4 218/2/4
f 199/1/4 214/1/4 218/1/4
f 214/2/4 215/2/4 219/2/4
f 218/1/4 214/1/4 219/1/4
f 217/1/4 218/1/4 220/1/4
f 218/2/4 219/2/4 220/2/4
f 219/2/4 215/2/4 221/2/4
f 220/2/4 219/2/4 221/2/4
f 217/1/4 220/1/4 222/1/4
f 220/1/4 221/1/4 222/1/4
f 222/1/4 221/1/4 223/1/4
f 222/2/4 223/2/4 224/2/4
f 224/2/4 223/2/4 225/2/4
f 223/1/4 221/1/4 226/1/4
f 225/2/4 223/2/4 226/2/4
f 221/2/4 215/2/4 227/2/4
f 226/1/4 221/1/4 227/1/4
f 215/1/4 216/1/4 228/1/4
f 227/2/4 215/2/4 228/2/4
f 216/1/4 209/1/4 229/1/4
f 228/1/4 216/1/4 229/1/4
f 227/2/4 228/2/4 230/2/4
f 226/2/4 227/2/4 230/2/4
f 228/2/4 229/2/4 230/2/4
f 225/2/4 226/2/4 230/2/4
f 224/1/4 225/1/4 230/1/4
f 230/2/4 229/2/4 231/2/4
f 231/2/4 229/2/4 232/2/4
f 232/2/4 229/2/4 233/2/4
f 224/1/4 230/1/4 234/1/4
f 230/1/4 231/1/4 234/1/4
f 231/2/4 232/2/4 235/2/4
f 234/1/4 231/1/4 235/1/4
f 232/1/4 233/1/4 236/1/4
f 235/2/4 232/2/4 236/2/4
f 234/2/4 235/2/4 237/2/4
f 237/2/4 235/2/4 238/2/4
f 236/1/4 233/1/4 239/1/4
f 235/1/4 236/1/4 239/1/4
f 233/2/4 229/2/4 240/2/4
f 239/1/4 233/1/4 240/1/4
f 240/2/4 229/2/4 241/2/4
f 238/2/4 235/2/4 242/2/4
f 237/1/4 238/1/4 242/1/4
f 235/1/4 239/1/4 243/1/4
f 242/2/4 235/2/4 243/2/4
f 239/2/4 240/2/4 244/2/4
f 243/1/4 239/1/4 244/1/4
f 243/2/4 244/2/4 245/2/4
f 240/1/4 241/1/4 246/1/4
f 245/2/4 244/2/4 246/2/4
f 244/2/4 240/2/4 246/2/4
f 246/1/4 241/1/4 247/1/4
f 237/1/4 242/1/4 248/1/4
f 242/1/4 243/1/4 248/1/4
f 243/2/4 245/2/4 249/2/4
f 248/1/4 243/1/4 249/1/4
f 248/2/4 249/2/4 250/2/4
f 245/1/4 246/1/4 251/1/4
f 250/2/4 249/2/4 251/2/4
f 249/2/4 245/2/4 251/2/4
f 251/1/4 246/1/4 252/1/4
f 252/1/4 246/1/4 253/1/4
f 246/2/4 247/2/4 254/2/4
f 253/1/4 246/1/4 254/1/4
f 254/2/4 247/2/4 255/2/4
f 250/1/4 251/1/4 256/1/4
f 251/2/4 252/2/4 257/2/4
f 256/1/4 251/1/4 257/1/4
f 252/1/4 253/1/4 258/1/4
f 257/2/4 252/2/4 258/2/4
f 253/2/4 254/2/4 259/2/4
f 258/1/4 253/1/4 259/1/4
f 256/2/4 257/2/4 260/2/4
f 257/2/4 258/2/4 260/2/4
f 258/2/4 259/2/4 260/2/4
f 259/2/4 254/2/4 261/2/4
f 260/2/4 259/2/4 261/2/4
f 250/1/4 256/1/4 262/1/4
f 256/2/4 260/2/4 263/2/4
f 262/1/4 256/1/4 263/1/4
f 262/2/4 263/2/4 264/2/4
f 263/2/4 260/2/4 265/2/4
f 264/2/4 263/2/4 265/2/4
f 260/1/4 261/1/4 266/1/4
f 261/2/4 254/2/4 267/2/4
f 266/1/4 261/1/4 267/1/4
f 254/1/4 255/1/4 268/1/4
f 267/2/4 254/2/4 268/2/4
f 268/1/4 255/1/4 269/1/4
f 266/2/4 267/2/4 270/2/4
f 267/2/4 268/2/4 270/2/4
f 268/2/4 269/2/4 270/2/4
f 270/2/4 269/2/4 271/2/4
f 264/1/4 265/1/4 272/1/4
f 265/2/4 260/2/4 273/2/4
f 272/1/4 265/1/4 273/1/4
f 272/2/4 273/2/4 274/2/4
f 260/1/4 266/1/4 275/1/4
f 274/2/4 273/2/4 275/2/4
f 273/2/4 260/2/4 275/2/4
f 266/2/4 270/2/4 276/2/4
f 275/1/4 266/1/4 276/1/4
f 274/1/4 275/1/4 277/1/4
f 275/2/4 276/2/4 277/2/4
f 276/2/4 270/2/4 278/2/4
f 277/2/4 276/2/4 278/2/4
f 274/1/4 277/1/4 279/1/4
f 277/1/4 278/1/4 279/1/4
f 278/2/4 270/2/4 280/2/4
f 279/1/4 278/1/4 280/1/4
f 270/1/4 271/1/4 281/1/4
f 280/2/4 270/2/4 281/2/4
f 281/1/4 271/1/4 282/1/4
f 286/1/5 284/1/5 283/1/5
f 287/1/5 284/1/5 286/1/5
f 288/2/5 285/2/5 284/2/5
f 288/1/5 284/1/5 287/1/5
f 289/2/5 288/2/5 287/2/5
f 290/2/5 285/2/5 288/2/5
f 290/2/5 288/2/5 289/2/5
f 291/1/5 290/1/5 289/1/5
f 291/2/5 285/2/5 290/2/5
f 292/2/5 285/2/5 291/2/5
f 293/2/5 285/2/5 292/2/5
f 294/2/5 285/2/5 293/2/5
f 295/2/5 285/2/5 294/2/5
f 296/2/5 285/2/5 295/2/5
f 297/2/5 285/2/5 296/2/5
f 298/2/5 285/2/5 297/2/5
f 299/2/5 285/2/5 298/2/5
f 300/2/5 285/2/5 299/2/5
f 301/2/5 285/2/5 300/2/5
f 302/2/5 285/2/5 301/2/5
f 303/2/5 285/2/5 302/2/5
f 304/2/5 285/2/5 303/2/5
f 305/2/5 285/2/5 304/2/5
f 306/2/5 285/2/5 305/2/5
f 307/2/5 285/2/5 306/2/5
f 308/2/5 285/2/5 307/2/5
f 309/2/5 285/2/5 308/2/5
f 310/2/5 285/2/5 309/2/5
f 311/2/5 285/2/5 310/2/5
f 312/2/5 285/2/5 311/2/5
f 313/2/5 285/2/5 312/2/5
f 314/2/5 285/2/5 313/2/5
f 315/2/5 285/2/5 314/2/5
f 316/2/5 285/2/5 315/2/5
f 317/2/5 285/2/5 316/2/5
f 318/2/5 285/2/5 317/2/5
f 319/2/5 285/2/5 318/2/5
f 320/2/5 285/2/5 319/2/5
f 321/2/5 285/2/5 320/2/5
f 322/2/5 285/2/5 321/2/5
f 323/1/5 291/1/5 289/1/5
f 323/1/5 292/1/5 291/1/5
f 324/2/5 293/2/5 292/2/5
f 324/1/5 292/1/5 323/1/5
f 325/1/5 294/1/5 293/1/5
f 325/2/5 293/2/5 324/2/5
f 326/2/5 295/2/5 294/2/5
f 326/1/5 294/1/5 325/1/5
f 327/1/5 296/1/5 295/1/5
f 327/2/5 295/2/5 326/2/5
f 328/2/5 297/2/5 296/2/5
f 328/1/5 296/1/5 327/1/5
f 329/1/5 298/1/5 297/1/5
f 329/2/5 297/2/5 328/2/5
f 330/2/5 299/2/5 298/2/5
f 330/1/5 298/1/5 329/1/5
f 331/1/5 300/1/5 299/1/5
f 331/2/5 299/2/5 330/2/5
f 332/2/5 301/2/5 300/2/5
f 332/1/5 300/1/5 331/1/5
f 333/1/5 302/1/5 301/1/5
f 333/2/5 301/2/5 332/2/5
f 334/2/5 303/2/5 302/2/5
f 334/1/5 302/1/5 333/1/5
f 335/1/5 304/1/5 303/1/5
f 335/2/5 303/2/5 334/2/5
f 336/2/5 305/2/5 304/2/5
f 336/1/5 304/1/5 335/1/5
f 337/1/5 306/1/5 305/1/5
f 337/2/5 305/2/5 336/2/5
f 338/2/5 307/2/5 306/2/5
f 338/1/5 306/1/5 337/1/5
f 339/1/5 308/1/5 307/1/5
f 339/2/5 307/2/5 338/2/5
f 340/2/5 309/2/5 308/2/5
f 340/1/5 308/1/5 339/1/5
f 341/1/5 310/1/5 309/1/5
f 341/2/5 309/2/5 340/2/5
f 342/2/5 311/2/5 310/2/5
f 342/1/5 310/1/5 341/1/5
f 343/1/5 312/1/5 311/1/5
f 343/2/5 311/2/5 342/2/5
f 344/2/5 313/2/5 312/2/5
f 344/1/5 312/1/5 343/1/5
f 345/1/5 314/1/5 313/1/5
f 345/2/5 313/2/5 344/2/5
f 346/2/5 315/2/5 314/2/5
f 346/1/5 314/1/5 345/1/5
f 347/1/5 316/1/5 315/1/5
f 347/2/5 315/2/5 346/2/5
f 348/2/5 317/2/5 316/2/5
f 348/1/5 316/1/5 347/1/5
f 349/1/5 318/1/5 317/1/5
f 349/2/5 317/2/5 348/2/5
f 350/2/5 319/2/5 318/2/5
f 350/1/5 318/1/5 349/1/5
f 351/1/5 320/1/5 319/1/5
f 351/2/5 319/2/5 350/2/5
f 352/2/5 321/2/5 320/2/5
f 352/1/5 320/1/5 351/1/5
f 353/1/5 322/1/5 321/1/5
f 353/2/5 321/2/5 352/2/5
f 354/1/5 322/1/5 353/1/5
f 355/1/6 356/1/6 357/1/6
f 357/1/6 356/1/6 358/1/6
f 359/1/6 360/1/6 361/1/6
f 361/1/6 360/1/6 362/1/6
f 363/2/6 364/2/6 365/2/6
f 365/2/6 364/2/6 366/2/6
f 363/2/6 365/2/6 367/2/6
f 367/2/6 365/2/6 368/2/6
f 368/2/6 365/2/6 369/2/6
f 369/2/6 365/2/6 370/2/6
f 370/2/6 365/2/6 371/2/6
f 371/2/6 365/2/6 372/2/6
f 372/2/6 365/2/6 373/2/6
f 373/2/6 365/2/6 374/2/6
f 374/2/6 365/2/6 375/2/6
f 375/2/6 365/2/6 376/2/6
f 376/2/6 365/2/6 377/2/6
f 377/2/6 365/2/6 378/2/6
f 378/2/6 365/2/6 379/2/6
f 365/1/6 366/1/6 380/1/6
f 379/2/6 365/2/6 380/2/6
f 366/2/6 364/2/6 381/2/6
f 380/1/6 366/1/6 381/1/6
f 381/2/6 364/2/6 382/2/6
f 382/2/6 364/2/6 383/2/6
f 383/2/6 364/2/6 384/2/6
f 384/2/6 364/2/6 385/2/6
f 385/2/6 364/2/6 386/2/6
f 386/2/6 364/2/6 387/2/6
f 387/2/6 364/2/6 388/2/6
f 388/2/6 364/2/6 389/2/6
f 389/2/6 364/2/6 390/2/6
f 390/2/6 364/2/6 391/2/6
f 391/2/6 364/2/6 392/2/6
f 392/2/6 364/2/6 393/2/6
f 393/2/6 364/2/6 394/2/6
f 368/2/6 369/2/6 395/2/6
f 369/1/6 370/1/6 396/1/6
f 395/2/6 369/2/6 396/2/6
f 370/2/6 371/2/6 397/2/6
f 396/1/6 370/1/6 397/1/6
f 371/1/6 372/1/6 398/1/6
f 397/2/6 371/2/6 398/2/6
f 372/2/6 373/2/6 399/2/6
f 398/1/6 372/1/6 399/1/6
f 373/1/6 374/1/6 400/1/6
f 399/2/6 373/2/6 400/2/6
f 374/2/6 375/2/6 401/2/6
f 400/1/6 374/1/6 401/1/6
f 375/1/6 376/1/6 402/1/6
f 401/2/6 375/2/6 402/2/6
f 376/2/6 377/2/6 403/2/6
f 402/1/6 376/1/6 403/1/6
f 377/1/6 378/1/6 404/1/6
f 403/2/6 377/2/6 404/2/6
f 378/2/6 379/2/6 405/2/6
f 404/1/6 378/1/6 405/1/6
f 379/1/6 380/1/6 406/1/6
f 405/2/6 379/2/6 406/2/6
f 380/1/6 381/1/6 406/1/6
f 381/1/6 382/1/6 406/1/6
f 382/2/6 383/2/6 407/2/6
f 406/1/6 382/1/6 407/1/6
f 383/1/6 384/1/6 408/1/6
f 407/2/6 383/2/6 408/2/6
f 384/2/6 385/2/6 409/2/6
f 408/1/6 384/1/6 409/1/6
f 385/1/6 386/1/6 410/1/6
f 409/2/6 385/2/6 410/2/6
f 386/2/6 387/2/6 411/2/6
f 410/1/6 386/1/6 411/1/6
f 387/1/6 388/1/6 412/1/6
f 411/2/6 387/2/6 412/2/6
f 388/2/6 389/2/6 413/2/6
f 412/1/6 388/1/6 413/1/6
f 389/1/6 390/1/6 414/1/6
f 413/2/6 389/2/6 414/2/6
f 390/2/6 391/2/6 415/2/6
f 414/1/6 390/1/6 415/1/6
f 391/1/6 392/1/6 416/1/6
f 415/2/6 391/2/6 416/2/6
f 392/2/6 393/2/6 417/2/6
f 416/1/6 392/1/6 417/1/6
f 393/1/6 394/1/6 418/1/6
f 417/2/6 393/2/6 418/2/6
f 418/1/6 394/1/6 419/1/6
