# MagicaVoxel @ Ephtracy

# group
o 

# material
mtllib untitled-67.mtl
usemtl palette

# normals
vn -1 0 0
vn 1 0 0
vn 0 0 1
vn 0 0 -1
vn 0 -1 0
vn 0 1 0

# texcoords
vt 0.978516 0.5
vt 0.982422 0.5
vt 0.994141 0.5

# verts
v -16 0.4 5
v -16 0.4 4.9
v -16 0.4 3.5
v -16 0.7 4.9
v -16 0.7 3.5
v -16 0.8 5
v -16 0.8 3.5
v -12.8 0.4 5
v -12.8 0.4 4.9
v -12.8 0.4 3.5
v -12.8 0.5 5
v -12.8 0.5 4.9
v -12.8 0.7 5
v -12.8 0.7 4.9
v -12.8 0.7 3.6
v -12.8 0.7 3.5
v -12.8 0.8 5
v -12.8 0.8 4.9
v -12.8 0.8 3.6
v -12.8 0.8 3.5
v -16 0.4 5
v -16 0.8 5
v -15.9 0.5 5
v -15.9 0.6 5
v -15.8 0.6 5
v -15.8 0.7 5
v -15.5 0.4 5
v -15.5 0.5 5
v -14.8 0.7 5
v -14.8 0.8 5
v -14.7 0.4 5
v -14.7 0.5 5
v -14 0.4 5
v -14 0.5 5
v -13.3 0.4 5
v -13.3 0.5 5
v -13.2 0.4 5
v -13.2 0.5 5
v -12.8 0.4 5
v -12.8 0.5 5
v -12.8 0.7 5
v -12.8 0.8 5
v -16 0.4 3.5
v -16 0.7 3.5
v -16 0.8 3.5
v -14.6 0.7 3.5
v -14.6 0.8 3.5
v -12.8 0.4 3.5
v -12.8 0.7 3.5
v -12.8 0.8 3.5
v -16 0.4 5
v -15.5 0.4 5
v -14.7 0.4 5
v -14 0.4 5
v -13.3 0.4 5
v -13.2 0.4 5
v -12.8 0.4 5
v -16 0.4 4.9
v -15.5 0.4 4.9
v -14.7 0.4 4.9
v -14 0.4 4.9
v -13.3 0.4 4.9
v -13.2 0.4 4.9
v -12.8 0.4 4.9
v -16 0.4 3.5
v -12.8 0.4 3.5
v -16 0.8 5
v -14.8 0.8 5
v -12.8 0.8 5
v -15.3 0.8 4.9
v -14.8 0.8 4.9
v -14.7 0.8 4.9
v -12.8 0.8 4.9
v -15.6 0.8 4.8
v -15.3 0.8 4.8
v -15.2 0.8 4.8
v -14.7 0.8 4.8
v -15.7 0.8 4.7
v -15.6 0.8 4.7
v -15.4 0.8 4.7
v -15.2 0.8 4.7
v -15.8 0.8 4.6
v -15.7 0.8 4.6
v -15.5 0.8 4.6
v -15.4 0.8 4.6
v -14.3 0.8 4.6
v -13.5 0.8 4.6
v -15.6 0.8 4.5
v -15.5 0.8 4.5
v -14.3 0.8 4.5
v -13.6 0.8 4.5
v -13.5 0.8 4.5
v -13.4 0.8 4.5
v -15.8 0.8 4.4
v -15.7 0.8 4.4
v -15.6 0.8 4.4
v -15.5 0.8 4.4
v -13.6 0.8 4.4
v -13.5 0.8 4.4
v -13.4 0.8 4.4
v -13.3 0.8 4.4
v -15.7 0.8 4.3
v -15.6 0.8 4.3
v -15.5 0.8 4.3
v -15.3 0.8 4.3
v -15.6 0.8 4.2
v -15.4 0.8 4.2
v -15.3 0.8 4.2
v -14.9 0.8 4.2
v -13.6 0.8 4.2
v -13.5 0.8 4.2
v -15.7 0.8 4.1
v -15.4 0.8 4.1
v -15.3 0.8 4.1
v -14.9 0.8 4.1
v -13.8 0.8 4.1
v -13.7 0.8 4.1
v -13.6 0.8 4.1
v -13.5 0.8 4.1
v -13.4 0.8 4.1
v -13.3 0.8 4.1
v -15.8 0.8 4
v -15.7 0.8 4
v -15.6 0.8 4
v -15.3 0.8 4
v -14.3 0.8 4
v -14 0.8 4
v -13.8 0.8 4
v -13.7 0.8 4
v -13.6 0.8 4
v -13.5 0.8 4
v -13.4 0.8 4
v -14.3 0.8 3.9
v -14.1 0.8 3.9
v -14 0.8 3.9
v -13.9 0.8 3.9
v -13.6 0.8 3.9
v -13.5 0.8 3.9
v -15.8 0.8 3.8
v -15.7 0.8 3.8
v -15.6 0.8 3.8
v -15.5 0.8 3.8
v -14.1 0.8 3.8
v -13.9 0.8 3.8
v -15.7 0.8 3.7
v -15.6 0.8 3.7
v -15.5 0.8 3.7
v -14.5 0.8 3.7
v -15.6 0.8 3.6
v -14.6 0.8 3.6
v -14.5 0.8 3.6
v -12.8 0.8 3.6
v -16 0.8 3.5
v -14.6 0.8 3.5
v -12.8 0.8 3.5

# faces
f 4/1/1 2/1/1 1/1/1
f 4/3/1 3/3/1 2/3/1
f 5/3/1 3/3/1 4/3/1
f 6/1/1 4/1/1 1/1/1
f 6/1/1 5/1/1 4/1/1
f 7/1/1 5/1/1 6/1/1
f 8/2/2 9/2/2 11/2/2
f 9/3/2 10/3/2 12/3/2
f 11/2/2 9/2/2 12/2/2
f 11/3/2 12/3/2 13/3/2
f 12/3/2 10/3/2 14/3/2
f 13/3/2 12/3/2 14/3/2
f 14/3/2 10/3/2 15/3/2
f 15/3/2 10/3/2 16/3/2
f 13/2/2 14/2/2 17/2/2
f 14/3/2 15/3/2 18/3/2
f 17/2/2 14/2/2 18/2/2
f 15/2/2 16/2/2 19/2/2
f 18/3/2 15/3/2 19/3/2
f 19/2/2 16/2/2 20/2/2
f 23/1/3 22/1/3 21/1/3
f 24/1/3 22/1/3 23/1/3
f 25/3/3 24/3/3 23/3/3
f 25/1/3 22/1/3 24/1/3
f 26/1/3 22/1/3 25/1/3
f 27/1/3 23/1/3 21/1/3
f 28/3/3 25/3/3 23/3/3
f 28/1/3 23/1/3 27/1/3
f 28/3/3 26/3/3 25/3/3
f 29/1/3 22/1/3 26/1/3
f 29/3/3 26/3/3 28/3/3
f 30/1/3 22/1/3 29/1/3
f 31/2/3 28/2/3 27/2/3
f 32/3/3 29/3/3 28/3/3
f 32/2/3 28/2/3 31/2/3
f 33/3/3 32/3/3 31/3/3
f 34/3/3 29/3/3 32/3/3
f 34/3/3 32/3/3 33/3/3
f 35/2/3 34/2/3 33/2/3
f 36/3/3 29/3/3 34/3/3
f 36/2/3 34/2/3 35/2/3
f 37/3/3 36/3/3 35/3/3
f 38/3/3 29/3/3 36/3/3
f 38/3/3 36/3/3 37/3/3
f 39/2/3 38/2/3 37/2/3
f 40/3/3 29/3/3 38/3/3
f 40/2/3 38/2/3 39/2/3
f 41/2/3 30/2/3 29/2/3
f 41/3/3 29/3/3 40/3/3
f 42/2/3 30/2/3 41/2/3
f 43/3/4 44/3/4 46/3/4
f 44/1/4 45/1/4 46/1/4
f 46/1/4 45/1/4 47/1/4
f 43/3/4 46/3/4 48/3/4
f 46/2/4 47/2/4 49/2/4
f 48/3/4 46/3/4 49/3/4
f 49/2/4 47/2/4 50/2/4
f 58/1/5 52/1/5 51/1/5
f 59/2/5 53/2/5 52/2/5
f 59/1/5 52/1/5 58/1/5
f 60/3/5 54/3/5 53/3/5
f 60/2/5 53/2/5 59/2/5
f 61/2/5 55/2/5 54/2/5
f 61/3/5 54/3/5 60/3/5
f 62/3/5 56/3/5 55/3/5
f 62/2/5 55/2/5 61/2/5
f 63/2/5 57/2/5 56/2/5
f 63/3/5 56/3/5 62/3/5
f 64/2/5 57/2/5 63/2/5
f 65/3/5 62/3/5 61/3/5
f 65/3/5 59/3/5 58/3/5
f 65/3/5 64/3/5 63/3/5
f 65/3/5 63/3/5 62/3/5
f 65/3/5 61/3/5 60/3/5
f 65/3/5 60/3/5 59/3/5
f 66/3/5 64/3/5 65/3/5
f 67/1/6 68/1/6 70/1/6
f 68/2/6 69/2/6 71/2/6
f 70/1/6 68/1/6 71/1/6
f 71/2/6 69/2/6 72/2/6
f 72/2/6 69/2/6 73/2/6
f 67/1/6 70/1/6 74/1/6
f 70/2/6 71/2/6 75/2/6
f 74/1/6 70/1/6 75/1/6
f 71/2/6 72/2/6 75/2/6
f 75/2/6 72/2/6 76/2/6
f 72/3/6 73/3/6 77/3/6
f 76/2/6 72/2/6 77/2/6
f 67/1/6 74/1/6 78/1/6
f 75/2/6 76/2/6 79/2/6
f 78/1/6 74/1/6 79/1/6
f 74/2/6 75/2/6 79/2/6
f 79/2/6 76/2/6 80/2/6
f 76/3/6 77/3/6 81/3/6
f 80/2/6 76/2/6 81/2/6
f 67/1/6 78/1/6 82/1/6
f 79/2/6 80/2/6 83/2/6
f 82/1/6 78/1/6 83/1/6
f 78/2/6 79/2/6 83/2/6
f 83/2/6 80/2/6 84/2/6
f 80/3/6 81/3/6 85/3/6
f 84/2/6 80/2/6 85/2/6
f 77/3/6 73/3/6 86/3/6
f 85/3/6 81/3/6 86/3/6
f 81/3/6 77/3/6 86/3/6
f 86/3/6 73/3/6 87/3/6
f 82/2/6 83/2/6 88/2/6
f 83/2/6 84/2/6 88/2/6
f 84/3/6 85/3/6 89/3/6
f 88/2/6 84/2/6 89/2/6
f 85/3/6 86/3/6 89/3/6
f 86/2/6 87/2/6 90/2/6
f 89/3/6 86/3/6 90/3/6
f 90/2/6 87/2/6 91/2/6
f 87/3/6 73/3/6 92/3/6
f 91/2/6 87/2/6 92/2/6
f 92/3/6 73/3/6 93/3/6
f 82/2/6 88/2/6 94/2/6
f 67/1/6 82/1/6 94/1/6
f 94/2/6 88/2/6 95/2/6
f 90/3/6 91/3/6 96/3/6
f 95/2/6 88/2/6 96/2/6
f 88/3/6 89/3/6 96/3/6
f 89/3/6 90/3/6 96/3/6
f 96/3/6 91/3/6 97/3/6
f 91/1/6 92/1/6 98/1/6
f 97/3/6 91/3/6 98/3/6
f 92/2/6 93/2/6 99/2/6
f 98/1/6 92/1/6 99/1/6
f 93/3/6 73/3/6 100/3/6
f 99/2/6 93/2/6 100/2/6
f 100/3/6 73/3/6 101/3/6
f 94/1/6 95/1/6 102/1/6
f 96/2/6 97/2/6 102/2/6
f 95/2/6 96/2/6 102/2/6
f 102/2/6 97/2/6 103/2/6
f 98/3/6 99/3/6 104/3/6
f 103/2/6 97/2/6 104/2/6
f 97/3/6 98/3/6 104/3/6
f 104/3/6 99/3/6 105/3/6
f 102/1/6 103/1/6 106/1/6
f 103/2/6 104/2/6 106/2/6
f 104/2/6 105/2/6 106/2/6
f 106/2/6 105/2/6 107/2/6
f 105/3/6 99/3/6 108/3/6
f 107/2/6 105/2/6 108/2/6
f 108/3/6 99/3/6 109/3/6
f 109/3/6 99/3/6 110/3/6
f 99/1/6 100/1/6 111/1/6
f 110/3/6 99/3/6 111/3/6
f 106/1/6 107/1/6 112/1/6
f 94/1/6 102/1/6 112/1/6
f 102/1/6 106/1/6 112/1/6
f 108/2/6 109/2/6 113/2/6
f 112/1/6 107/1/6 113/1/6
f 107/2/6 108/2/6 113/2/6
f 113/2/6 109/2/6 114/2/6
f 109/3/6 110/3/6 115/3/6
f 114/2/6 109/2/6 115/2/6
f 115/3/6 110/3/6 116/3/6
f 116/3/6 110/3/6 117/3/6
f 110/1/6 111/1/6 118/1/6
f 117/3/6 110/3/6 118/3/6
f 111/1/6 100/1/6 119/1/6
f 118/1/6 111/1/6 119/1/6
f 100/2/6 101/2/6 120/2/6
f 119/1/6 100/1/6 120/1/6
f 101/3/6 73/3/6 121/3/6
f 120/2/6 101/2/6 121/2/6
f 67/1/6 94/1/6 122/1/6
f 94/1/6 112/1/6 122/1/6
f 113/2/6 114/2/6 123/2/6
f 122/1/6 112/1/6 123/1/6
f 112/2/6 113/2/6 123/2/6
f 123/2/6 114/2/6 124/2/6
f 115/3/6 116/3/6 125/3/6
f 124/2/6 114/2/6 125/2/6
f 114/3/6 115/3/6 125/3/6
f 125/3/6 116/3/6 126/3/6
f 126/3/6 116/3/6 127/3/6
f 116/2/6 117/2/6 128/2/6
f 127/3/6 116/3/6 128/3/6
f 117/1/6 118/1/6 129/1/6
f 128/2/6 117/2/6 129/2/6
f 118/1/6 119/1/6 129/1/6
f 129/1/6 119/1/6 130/1/6
f 119/2/6 120/2/6 131/2/6
f 130/1/6 119/1/6 131/1/6
f 120/3/6 121/3/6 132/3/6
f 131/2/6 120/2/6 132/2/6
f 126/2/6 127/2/6 133/2/6
f 125/3/6 126/3/6 133/3/6
f 124/3/6 125/3/6 133/3/6
f 133/2/6 127/2/6 134/2/6
f 127/1/6 128/1/6 135/1/6
f 134/2/6 127/2/6 135/2/6
f 129/1/6 130/1/6 135/1/6
f 128/1/6 129/1/6 135/1/6
f 135/1/6 130/1/6 136/1/6
f 130/2/6 131/2/6 137/2/6
f 136/1/6 130/1/6 137/1/6
f 131/3/6 132/3/6 138/3/6
f 137/2/6 131/2/6 138/2/6
f 67/1/6 122/1/6 139/1/6
f 123/2/6 124/2/6 139/2/6
f 122/2/6 123/2/6 139/2/6
f 139/2/6 124/2/6 140/2/6
f 133/3/6 134/3/6 141/3/6
f 140/2/6 124/2/6 141/2/6
f 124/3/6 133/3/6 141/3/6
f 141/3/6 134/3/6 142/3/6
f 135/2/6 136/2/6 143/2/6
f 142/3/6 134/3/6 143/3/6
f 134/2/6 135/2/6 143/2/6
f 136/3/6 137/3/6 144/3/6
f 143/2/6 136/2/6 144/2/6
f 137/3/6 138/3/6 144/3/6
f 139/1/6 140/1/6 145/1/6
f 141/2/6 142/2/6 145/2/6
f 140/2/6 141/2/6 145/2/6
f 145/2/6 142/2/6 146/2/6
f 142/3/6 143/3/6 147/3/6
f 146/2/6 142/2/6 147/2/6
f 143/3/6 144/3/6 147/3/6
f 147/3/6 144/3/6 148/3/6
f 145/1/6 146/1/6 149/1/6
f 146/2/6 147/2/6 149/2/6
f 147/2/6 148/2/6 149/2/6
f 149/2/6 148/2/6 150/2/6
f 148/3/6 144/3/6 151/3/6
f 150/2/6 148/2/6 151/2/6
f 144/3/6 138/3/6 152/3/6
f 151/3/6 144/3/6 152/3/6
f 132/3/6 121/3/6 152/3/6
f 121/3/6 73/3/6 152/3/6
f 138/3/6 132/3/6 152/3/6
f 67/1/6 139/1/6 153/1/6
f 145/1/6 149/1/6 153/1/6
f 139/1/6 145/1/6 153/1/6
f 149/1/6 150/1/6 153/1/6
f 150/2/6 151/2/6 154/2/6
f 153/1/6 150/1/6 154/1/6
f 151/2/6 152/2/6 154/2/6
f 154/2/6 152/2/6 155/2/6
