# MagicaVoxel @ Ephtracy

# group
o 

# material
mtllib untitled-17.mtl
usemtl palette

# normals
vn 0 -1 0
vn 0 1 0
vn 1 0 0
vn -1 0 0
vn 0 0 1
vn 0 0 -1

# texcoords
vt 0.876953 0.5
vt 0.880859 0.5
vt 0.970703 0.5
vt 0.990234 0.5

# verts
v -2.6 2.6 -14.2
v -3.1 2.6 -14.2
v -2.6 2.6 -17
v -3.1 2.6 -17
v -2.5 2.7 -14.2
v -2.6 2.7 -14.2
v -3.1 2.7 -14.2
v -3.2 2.7 -14.2
v -2.5 2.7 -16.7
v -2.6 2.7 -16.7
v -2.5 2.7 -17
v -2.6 2.7 -17
v -3.1 2.7 -17
v -3.2 2.7 -17
v -2.4 2.8 -14.2
v -2.5 2.8 -14.2
v -3.2 2.8 -14.2
v -3.3 2.8 -14.2
v -3.2 2.8 -14.4
v -3.3 2.8 -14.4
v -3.2 2.8 -14.8
v -3.3 2.8 -14.8
v -2.4 2.8 -16.1
v -2.5 2.8 -16.1
v -2.4 2.8 -16.7
v -2.5 2.8 -16.7
v -2.4 2.8 -17
v -2.5 2.8 -17
v -3.2 2.8 -17
v -3.3 2.8 -17
v -2.4 3.3 -14.2
v -2.5 3.3 -14.2
v -3.2 3.3 -14.2
v -3.3 3.3 -14.2
v -3.2 3.3 -14.4
v -3.3 3.3 -14.4
v -2.5 3.3 -14.6
v -3.2 3.3 -14.6
v -3.3 3.3 -14.6
v -3.2 3.3 -14.7
v -3.2 3.3 -14.9
v -2.4 3.3 -15
v -2.5 3.3 -15
v -3.2 3.3 -15.1
v -3.3 3.3 -15.1
v -2.4 3.3 -15.3
v -2.5 3.3 -15.3
v -2.5 3.3 -15.6
v -2.4 3.3 -15.7
v -2.5 3.3 -15.7
v -3.2 3.3 -15.7
v -2.5 3.3 -15.9
v -2.4 3.3 -16.1
v -2.5 3.3 -16.1
v -3.2 3.3 -16.5
v -3.3 3.3 -16.5
v -3.2 3.3 -16.6
v -3.2 3.3 -16.7
v -3.3 3.3 -16.7
v -2.4 3.3 -17
v -2.5 3.3 -17
v -3.2 3.3 -17
v -3.3 3.3 -17
v -2.5 3.4 -14.2
v -2.6 3.4 -14.2
v -3.1 3.4 -14.2
v -3.2 3.4 -14.2
v -2.6 3.4 -14.5
v -2.5 3.4 -14.6
v -2.6 3.4 -14.6
v -3.1 3.4 -14.6
v -3.1 3.4 -14.7
v -3.2 3.4 -14.7
v -3.1 3.4 -14.9
v -3.2 3.4 -14.9
v -2.6 3.4 -15
v -3.1 3.4 -15.2
v -2.5 3.4 -15.3
v -2.6 3.4 -15.3
v -2.6 3.4 -15.4
v -2.5 3.4 -15.6
v -2.6 3.4 -15.6
v -3.1 3.4 -15.7
v -3.2 3.4 -15.7
v -2.6 3.4 -15.8
v -2.5 3.4 -15.9
v -2.6 3.4 -15.9
v -2.6 3.4 -16.6
v -3.1 3.4 -16.6
v -3.2 3.4 -16.6
v -2.6 3.4 -16.7
v -2.5 3.4 -17
v -2.6 3.4 -17
v -3.1 3.4 -17
v -3.2 3.4 -17
v -2.6 3.5 -14.2
v -3.1 3.5 -14.2
v -2.7 3.5 -14.4
v -2.9 3.5 -14.4
v -2.6 3.5 -14.5
v -2.7 3.5 -14.5
v -2.9 3.5 -14.5
v -3 3.5 -14.5
v -2.7 3.5 -14.6
v -2.8 3.5 -14.6
v -3 3.5 -14.6
v -3.1 3.5 -14.6
v -2.8 3.5 -14.7
v -2.9 3.5 -14.7
v -2.9 3.5 -14.9
v -3 3.5 -14.9
v -2.6 3.5 -15
v -2.7 3.5 -15
v -3 3.5 -15.2
v -3.1 3.5 -15.2
v -2.7 3.5 -15.3
v -2.8 3.5 -15.3
v -2.6 3.5 -15.4
v -2.7 3.5 -15.4
v -2.6 3.5 -15.8
v -2.7 3.5 -15.8
v -2.8 3.5 -15.8
v -2.9 3.5 -15.8
v -2.7 3.5 -15.9
v -2.8 3.5 -15.9
v -2.8 3.5 -16.1
v -2.9 3.5 -16.1
v -2.7 3.5 -16.4
v -2.9 3.5 -16.4
v -2.6 3.5 -16.6
v -2.7 3.5 -16.6
v -2.6 3.5 -16.7
v -2.7 3.5 -16.7
v -2.9 3.5 -16.7
v -3 3.5 -16.7
v -2.8 3.5 -16.8
v -2.9 3.5 -16.8
v -2.7 3.5 -16.9
v -2.8 3.5 -16.9
v -2.9 3.5 -16.9
v -3 3.5 -16.9
v -2.6 3.5 -17
v -3.1 3.5 -17
v -2.4 2.8 -14.2
v -2.4 2.8 -16.1
v -2.4 2.8 -16.7
v -2.4 2.8 -17
v -2.4 2.9 -15.4
v -2.4 2.9 -15.6
v -2.4 2.9 -16
v -2.4 2.9 -16.1
v -2.4 2.9 -16.2
v -2.4 2.9 -16.7
v -2.4 3 -15.3
v -2.4 3 -15.4
v -2.4 3 -15.5
v -2.4 3 -15.6
v -2.4 3 -16
v -2.4 3 -16.1
v -2.4 3 -16.2
v -2.4 3 -16.3
v -2.4 3.1 -15.2
v -2.4 3.1 -15.3
v -2.4 3.1 -15.4
v -2.4 3.1 -15.5
v -2.4 3.1 -16
v -2.4 3.1 -16.1
v -2.4 3.1 -16.2
v -2.4 3.1 -16.3
v -2.4 3.2 -15
v -2.4 3.2 -15.2
v -2.4 3.2 -15.3
v -2.4 3.2 -15.4
v -2.4 3.2 -15.7
v -2.4 3.2 -16
v -2.4 3.2 -16.1
v -2.4 3.2 -16.2
v -2.4 3.3 -14.2
v -2.4 3.3 -15
v -2.4 3.3 -15.3
v -2.4 3.3 -15.7
v -2.4 3.3 -16.1
v -2.4 3.3 -17
v -2.5 2.7 -14.2
v -2.5 2.7 -16.7
v -2.5 2.7 -17
v -2.5 2.8 -14.2
v -2.5 2.8 -16.1
v -2.5 2.8 -16.7
v -2.5 2.8 -17
v -2.5 3.3 -14.2
v -2.5 3.3 -14.6
v -2.5 3.3 -15
v -2.5 3.3 -15.3
v -2.5 3.3 -15.6
v -2.5 3.3 -15.7
v -2.5 3.3 -15.9
v -2.5 3.3 -16.1
v -2.5 3.3 -17
v -2.5 3.4 -14.2
v -2.5 3.4 -14.6
v -2.5 3.4 -15.3
v -2.5 3.4 -15.6
v -2.5 3.4 -15.9
v -2.5 3.4 -17
v -2.6 2.6 -14.2
v -2.6 2.6 -17
v -2.6 2.7 -14.2
v -2.6 2.7 -16.7
v -2.6 2.7 -17
v -2.6 3.4 -14.2
v -2.6 3.4 -14.5
v -2.6 3.4 -14.6
v -2.6 3.4 -15
v -2.6 3.4 -15.3
v -2.6 3.4 -15.4
v -2.6 3.4 -15.6
v -2.6 3.4 -15.8
v -2.6 3.4 -15.9
v -2.6 3.4 -16.6
v -2.6 3.4 -16.7
v -2.6 3.4 -17
v -2.6 3.5 -14.2
v -2.6 3.5 -14.5
v -2.6 3.5 -15
v -2.6 3.5 -15.4
v -2.6 3.5 -15.8
v -2.6 3.5 -16.6
v -2.6 3.5 -16.7
v -2.6 3.5 -17
v -3.1 2.6 -14.2
v -3.1 2.6 -17
v -3.1 2.7 -14.2
v -3.1 2.7 -17
v -3.1 3.4 -14.2
v -3.1 3.4 -14.6
v -3.1 3.4 -14.7
v -3.1 3.4 -14.9
v -3.1 3.4 -15.2
v -3.1 3.4 -15.7
v -3.1 3.4 -16.6
v -3.1 3.4 -17
v -3.1 3.5 -14.2
v -3.1 3.5 -14.6
v -3.1 3.5 -15.2
v -3.1 3.5 -17
v -3.2 2.7 -14.2
v -3.2 2.7 -17
v -3.2 2.8 -14.2
v -3.2 2.8 -14.4
v -3.2 2.8 -14.8
v -3.2 2.8 -17
v -3.2 3.3 -14.2
v -3.2 3.3 -14.4
v -3.2 3.3 -14.6
v -3.2 3.3 -14.7
v -3.2 3.3 -14.9
v -3.2 3.3 -15.1
v -3.2 3.3 -15.7
v -3.2 3.3 -16.5
v -3.2 3.3 -16.6
v -3.2 3.3 -16.7
v -3.2 3.3 -17
v -3.2 3.4 -14.2
v -3.2 3.4 -14.7
v -3.2 3.4 -14.9
v -3.2 3.4 -15.7
v -3.2 3.4 -16.6
v -3.2 3.4 -17
v -3.3 2.8 -14.2
v -3.3 2.8 -14.4
v -3.3 2.8 -14.8
v -3.3 2.8 -17
v -3.3 3 -14.3
v -3.3 3 -14.4
v -3.3 3 -14.8
v -3.3 3 -14.9
v -3.3 3.1 -14.5
v -3.3 3.1 -14.6
v -3.3 3.2 -14.2
v -3.3 3.2 -14.3
v -3.3 3.2 -14.4
v -3.3 3.2 -14.5
v -3.3 3.2 -14.9
v -3.3 3.2 -15.1
v -3.3 3.2 -16.5
v -3.3 3.2 -16.7
v -3.3 3.3 -14.2
v -3.3 3.3 -14.4
v -3.3 3.3 -14.6
v -3.3 3.3 -15.1
v -3.3 3.3 -16.5
v -3.3 3.3 -16.7
v -3.3 3.3 -17
v -2.4 2.8 -14.2
v -2.4 3.3 -14.2
v -2.5 2.7 -14.2
v -2.5 2.8 -14.2
v -2.5 3.1 -14.2
v -2.5 3.3 -14.2
v -2.5 3.4 -14.2
v -2.6 2.6 -14.2
v -2.6 2.7 -14.2
v -2.6 2.8 -14.2
v -2.6 3 -14.2
v -2.6 3.1 -14.2
v -2.6 3.3 -14.2
v -2.6 3.4 -14.2
v -2.6 3.5 -14.2
v -2.7 2.9 -14.2
v -2.7 3 -14.2
v -2.8 3.3 -14.2
v -2.8 3.4 -14.2
v -2.9 2.9 -14.2
v -2.9 3 -14.2
v -2.9 3.2 -14.2
v -2.9 3.3 -14.2
v -3 3 -14.2
v -3 3.2 -14.2
v -3.1 2.6 -14.2
v -3.1 2.7 -14.2
v -3.1 2.8 -14.2
v -3.1 3.3 -14.2
v -3.1 3.4 -14.2
v -3.1 3.5 -14.2
v -3.2 2.7 -14.2
v -3.2 2.8 -14.2
v -3.2 3.2 -14.2
v -3.2 3.3 -14.2
v -3.2 3.4 -14.2
v -3.3 2.8 -14.2
v -3.3 3.2 -14.2
v -3.3 3.3 -14.2
v -2.4 2.8 -17
v -2.4 3.3 -17
v -2.5 2.7 -17
v -2.5 2.8 -17
v -2.5 3.3 -17
v -2.5 3.4 -17
v -2.6 2.6 -17
v -2.6 2.7 -17
v -2.6 2.8 -17
v -2.6 3.3 -17
v -2.6 3.4 -17
v -2.6 3.5 -17
v -3.1 2.6 -17
v -3.1 2.7 -17
v -3.1 2.8 -17
v -3.1 3.3 -17
v -3.1 3.4 -17
v -3.1 3.5 -17
v -3.2 2.7 -17
v -3.2 2.8 -17
v -3.2 3.3 -17
v -3.2 3.4 -17
v -3.3 2.8 -17
v -3.3 3.3 -17

# faces
f 1/3/1 2/3/1 3/3/1
f 3/3/1 2/3/1 4/3/1
f 5/3/1 6/3/1 9/3/1
f 9/3/1 6/3/1 10/3/1
f 9/4/1 10/4/1 11/4/1
f 11/4/1 10/4/1 12/4/1
f 7/3/1 8/3/1 13/3/1
f 13/3/1 8/3/1 14/3/1
f 17/3/1 18/3/1 19/3/1
f 19/3/1 18/3/1 20/3/1
f 19/4/1 20/4/1 21/4/1
f 21/4/1 20/4/1 22/4/1
f 15/3/1 16/3/1 23/3/1
f 23/3/1 16/3/1 24/3/1
f 23/4/1 24/4/1 25/4/1
f 25/4/1 24/4/1 26/4/1
f 25/3/1 26/3/1 27/3/1
f 27/3/1 26/3/1 28/3/1
f 21/3/1 22/3/1 29/3/1
f 29/3/1 22/3/1 30/3/1
f 35/4/2 34/4/2 33/4/2
f 36/4/2 34/4/2 35/4/2
f 37/3/2 32/3/2 31/3/2
f 38/3/2 36/3/2 35/3/2
f 39/3/2 36/3/2 38/3/2
f 40/4/2 39/4/2 38/4/2
f 41/4/2 39/4/2 40/4/2
f 42/3/2 37/3/2 31/3/2
f 43/3/2 37/3/2 42/3/2
f 44/4/2 39/4/2 41/4/2
f 45/4/2 39/4/2 44/4/2
f 46/4/2 43/4/2 42/4/2
f 47/4/2 43/4/2 46/4/2
f 48/3/2 47/3/2 46/3/2
f 49/3/2 48/3/2 46/3/2
f 50/3/2 48/3/2 49/3/2
f 51/3/2 45/3/2 44/3/2
f 52/4/2 50/4/2 49/4/2
f 53/4/2 52/4/2 49/4/2
f 54/4/2 52/4/2 53/4/2
f 55/3/2 45/3/2 51/3/2
f 56/3/2 45/3/2 55/3/2
f 57/4/2 56/4/2 55/4/2
f 58/4/2 56/4/2 57/4/2
f 59/4/2 56/4/2 58/4/2
f 60/3/2 54/3/2 53/3/2
f 61/3/2 54/3/2 60/3/2
f 62/3/2 59/3/2 58/3/2
f 63/3/2 59/3/2 62/3/2
f 68/3/2 65/3/2 64/3/2
f 69/3/2 68/3/2 64/3/2
f 70/3/2 68/3/2 69/3/2
f 71/3/2 67/3/2 66/3/2
f 72/3/2 67/3/2 71/3/2
f 73/3/2 67/3/2 72/3/2
f 74/4/2 73/4/2 72/4/2
f 75/4/2 73/4/2 74/4/2
f 76/4/2 70/4/2 69/4/2
f 77/3/2 75/3/2 74/3/2
f 78/4/2 76/4/2 69/4/2
f 79/4/2 76/4/2 78/4/2
f 80/3/2 79/3/2 78/3/2
f 81/3/2 80/3/2 78/3/2
f 82/3/2 80/3/2 81/3/2
f 83/3/2 75/3/2 77/3/2
f 84/3/2 75/3/2 83/3/2
f 85/4/2 82/4/2 81/4/2
f 86/4/2 85/4/2 81/4/2
f 87/4/2 85/4/2 86/4/2
f 88/3/2 87/3/2 86/3/2
f 89/4/2 84/4/2 83/4/2
f 90/4/2 84/4/2 89/4/2
f 91/3/2 88/3/2 86/3/2
f 92/3/2 91/3/2 86/3/2
f 93/3/2 91/3/2 92/3/2
f 94/3/2 90/3/2 89/3/2
f 95/3/2 90/3/2 94/3/2
f 98/3/2 97/3/2 96/3/2
f 99/3/2 97/3/2 98/3/2
f 100/3/2 98/3/2 96/3/2
f 101/4/2 99/4/2 98/4/2
f 101/3/2 98/3/2 100/3/2
f 102/3/2 97/3/2 99/3/2
f 102/4/2 99/4/2 101/4/2
f 103/3/2 97/3/2 102/3/2
f 104/4/2 101/4/2 100/4/2
f 104/4/2 102/4/2 101/4/2
f 104/4/2 103/4/2 102/4/2
f 105/4/2 103/4/2 104/4/2
f 106/3/2 97/3/2 103/3/2
f 106/4/2 103/4/2 105/4/2
f 107/3/2 97/3/2 106/3/2
f 108/3/2 105/3/2 104/3/2
f 108/4/2 106/4/2 105/4/2
f 108/4/2 107/4/2 106/4/2
f 109/4/2 107/4/2 108/4/2
f 110/3/2 109/3/2 108/3/2
f 110/4/2 107/4/2 109/4/2
f 111/4/2 107/4/2 110/4/2
f 112/4/2 104/4/2 100/4/2
f 113/3/2 108/3/2 104/3/2
f 113/4/2 104/4/2 112/4/2
f 113/3/2 110/3/2 108/3/2
f 113/3/2 111/3/2 110/3/2
f 114/4/2 107/4/2 111/4/2
f 114/3/2 111/3/2 113/3/2
f 114/3/2 113/3/2 112/3/2
f 115/4/2 107/4/2 114/4/2
f 116/3/2 114/3/2 112/3/2
f 116/3/2 115/3/2 114/3/2
f 117/3/2 115/3/2 116/3/2
f 118/3/2 116/3/2 112/3/2
f 119/4/2 117/4/2 116/4/2
f 119/3/2 116/3/2 118/3/2
f 120/4/2 119/4/2 118/4/2
f 121/4/2 117/4/2 119/4/2
f 121/4/2 119/4/2 120/4/2
f 122/3/2 115/3/2 117/3/2
f 122/4/2 117/4/2 121/4/2
f 123/3/2 115/3/2 122/3/2
f 124/3/2 121/3/2 120/3/2
f 124/4/2 122/4/2 121/4/2
f 124/4/2 123/4/2 122/4/2
f 125/4/2 123/4/2 124/4/2
f 126/3/2 125/3/2 124/3/2
f 126/4/2 123/4/2 125/4/2
f 127/3/2 115/3/2 123/3/2
f 127/4/2 123/4/2 126/4/2
f 128/3/2 126/3/2 124/3/2
f 128/3/2 124/3/2 120/3/2
f 128/3/2 127/3/2 126/3/2
f 129/3/2 115/3/2 127/3/2
f 129/3/2 127/3/2 128/3/2
f 130/3/2 128/3/2 120/3/2
f 131/4/2 129/4/2 128/4/2
f 131/3/2 128/3/2 130/3/2
f 132/4/2 131/4/2 130/4/2
f 133/4/2 129/4/2 131/4/2
f 133/4/2 131/4/2 132/4/2
f 134/3/2 115/3/2 129/3/2
f 134/4/2 129/4/2 133/4/2
f 135/3/2 115/3/2 134/3/2
f 136/4/2 134/4/2 133/4/2
f 136/4/2 135/4/2 134/4/2
f 137/4/2 135/4/2 136/4/2
f 138/3/2 133/3/2 132/3/2
f 138/4/2 136/4/2 133/4/2
f 139/3/2 137/3/2 136/3/2
f 139/4/2 136/4/2 138/4/2
f 140/4/2 135/4/2 137/4/2
f 140/3/2 137/3/2 139/3/2
f 141/3/2 115/3/2 135/3/2
f 141/4/2 135/4/2 140/4/2
f 142/3/2 139/3/2 138/3/2
f 142/3/2 140/3/2 139/3/2
f 142/3/2 141/3/2 140/3/2
f 142/3/2 138/3/2 132/3/2
f 143/3/2 115/3/2 141/3/2
f 143/3/2 141/3/2 142/3/2
f 144/3/3 145/3/3 148/3/3
f 148/3/3 145/3/3 149/3/3
f 149/3/3 145/3/3 150/3/3
f 145/4/3 146/4/3 151/4/3
f 150/3/3 145/3/3 151/3/3
f 151/4/3 146/4/3 152/4/3
f 146/3/3 147/3/3 153/3/3
f 152/4/3 146/4/3 153/4/3
f 144/3/3 148/3/3 154/3/3
f 148/4/3 149/4/3 155/4/3
f 154/3/3 148/3/3 155/3/3
f 155/4/3 149/4/3 156/4/3
f 149/3/3 150/3/3 157/3/3
f 156/4/3 149/4/3 157/4/3
f 151/4/3 152/4/3 158/4/3
f 157/3/3 150/3/3 158/3/3
f 150/4/3 151/4/3 158/4/3
f 158/4/3 152/4/3 159/4/3
f 152/3/3 153/3/3 160/3/3
f 159/4/3 152/4/3 160/4/3
f 160/3/3 153/3/3 161/3/3
f 144/3/3 154/3/3 162/3/3
f 155/4/3 156/4/3 163/4/3
f 162/3/3 154/3/3 163/3/3
f 154/4/3 155/4/3 163/4/3
f 163/4/3 156/4/3 164/4/3
f 156/3/3 157/3/3 165/3/3
f 164/4/3 156/4/3 165/4/3
f 158/3/3 159/3/3 165/3/3
f 157/3/3 158/3/3 165/3/3
f 165/3/3 159/3/3 166/3/3
f 160/4/3 161/4/3 167/4/3
f 166/3/3 159/3/3 167/3/3
f 159/4/3 160/4/3 167/4/3
f 167/4/3 161/4/3 168/4/3
f 161/3/3 153/3/3 169/3/3
f 168/4/3 161/4/3 169/4/3
f 144/3/3 162/3/3 170/3/3
f 163/4/3 164/4/3 171/4/3
f 170/3/3 162/3/3 171/3/3
f 162/4/3 163/4/3 171/4/3
f 171/4/3 164/4/3 172/4/3
f 165/3/3 166/3/3 173/3/3
f 172/4/3 164/4/3 173/4/3
f 164/3/3 165/3/3 173/3/3
f 173/3/3 166/3/3 174/3/3
f 167/4/3 168/4/3 175/4/3
f 174/3/3 166/3/3 175/3/3
f 166/4/3 167/4/3 175/4/3
f 175/4/3 168/4/3 176/4/3
f 168/3/3 169/3/3 177/3/3
f 176/4/3 168/4/3 177/4/3
f 144/3/3 170/3/3 178/3/3
f 171/4/3 172/4/3 179/4/3
f 178/3/3 170/3/3 179/3/3
f 170/4/3 171/4/3 179/4/3
f 173/3/3 174/3/3 180/3/3
f 179/4/3 172/4/3 180/4/3
f 172/3/3 173/3/3 180/3/3
f 175/4/3 176/4/3 181/4/3
f 180/3/3 174/3/3 181/3/3
f 174/4/3 175/4/3 181/4/3
f 176/3/3 177/3/3 182/3/3
f 181/4/3 176/4/3 182/4/3
f 177/3/3 169/3/3 183/3/3
f 182/3/3 177/3/3 183/3/3
f 169/3/3 153/3/3 183/3/3
f 153/3/3 147/3/3 183/3/3
f 184/3/3 185/3/3 187/3/3
f 187/3/3 185/3/3 188/3/3
f 185/4/3 186/4/3 189/4/3
f 188/3/3 185/3/3 189/3/3
f 189/4/3 186/4/3 190/4/3
f 191/3/3 192/3/3 200/3/3
f 192/4/3 193/4/3 201/4/3
f 200/3/3 192/3/3 201/3/3
f 193/4/3 194/4/3 201/4/3
f 194/3/3 195/3/3 202/3/3
f 201/4/3 194/4/3 202/4/3
f 195/4/3 196/4/3 203/4/3
f 202/3/3 195/3/3 203/3/3
f 196/4/3 197/4/3 203/4/3
f 198/3/3 199/3/3 204/3/3
f 203/4/3 197/4/3 204/4/3
f 197/3/3 198/3/3 204/3/3
f 204/3/3 199/3/3 205/3/3
f 206/3/3 207/3/3 208/3/3
f 208/3/3 207/3/3 209/3/3
f 209/3/3 207/3/3 210/3/3
f 211/3/3 212/3/3 223/3/3
f 212/4/3 213/4/3 224/4/3
f 223/3/3 212/3/3 224/3/3
f 213/4/3 214/4/3 224/4/3
f 214/3/3 215/3/3 225/3/3
f 224/4/3 214/4/3 225/4/3
f 215/3/3 216/3/3 225/3/3
f 216/4/3 217/4/3 226/4/3
f 225/3/3 216/3/3 226/3/3
f 217/4/3 218/4/3 226/4/3
f 219/3/3 220/3/3 227/3/3
f 226/4/3 218/4/3 227/4/3
f 218/3/3 219/3/3 227/3/3
f 220/4/3 221/4/3 228/4/3
f 227/3/3 220/3/3 228/3/3
f 221/3/3 222/3/3 229/3/3
f 228/4/3 221/4/3 229/4/3
f 229/3/3 222/3/3 230/3/3
f 233/3/4 232/3/4 231/3/4
f 234/3/4 232/3/4 233/3/4
f 243/3/4 236/3/4 235/3/4
f 244/4/4 237/4/4 236/4/4
f 244/3/4 236/3/4 243/3/4
f 244/4/4 238/4/4 237/4/4
f 244/4/4 239/4/4 238/4/4
f 245/3/4 242/3/4 241/3/4
f 245/4/4 239/4/4 244/4/4
f 245/3/4 241/3/4 240/3/4
f 245/3/4 240/3/4 239/3/4
f 246/3/4 242/3/4 245/3/4
f 249/3/4 248/3/4 247/3/4
f 250/3/4 248/3/4 249/3/4
f 251/3/4 248/3/4 250/3/4
f 252/3/4 248/3/4 251/3/4
f 264/3/4 254/3/4 253/3/4
f 264/3/4 255/3/4 254/3/4
f 264/3/4 256/3/4 255/3/4
f 265/4/4 257/4/4 256/4/4
f 265/3/4 256/3/4 264/3/4
f 266/3/4 258/3/4 257/3/4
f 266/4/4 257/4/4 265/4/4
f 266/3/4 259/3/4 258/3/4
f 267/4/4 261/4/4 260/4/4
f 267/3/4 259/3/4 266/3/4
f 267/4/4 260/4/4 259/4/4
f 268/3/4 263/3/4 262/3/4
f 268/4/4 261/4/4 267/4/4
f 268/3/4 262/3/4 261/3/4
f 269/3/4 263/3/4 268/3/4
f 274/3/4 271/3/4 270/3/4
f 275/4/4 272/4/4 271/4/4
f 275/3/4 271/3/4 274/3/4
f 276/3/4 273/3/4 272/3/4
f 276/4/4 272/4/4 275/4/4
f 277/3/4 273/3/4 276/3/4
f 278/4/4 275/4/4 274/4/4
f 278/4/4 276/4/4 275/4/4
f 278/4/4 277/4/4 276/4/4
f 279/4/4 277/4/4 278/4/4
f 280/3/4 274/3/4 270/3/4
f 281/4/4 278/4/4 274/4/4
f 281/3/4 274/3/4 280/3/4
f 282/4/4 278/4/4 281/4/4
f 283/3/4 279/3/4 278/3/4
f 283/4/4 278/4/4 282/4/4
f 284/3/4 273/3/4 277/3/4
f 284/4/4 277/4/4 279/4/4
f 285/3/4 273/3/4 284/3/4
f 286/3/4 273/3/4 285/3/4
f 287/3/4 273/3/4 286/3/4
f 288/4/4 282/4/4 281/4/4
f 288/4/4 281/4/4 280/4/4
f 289/3/4 283/3/4 282/3/4
f 289/4/4 282/4/4 288/4/4
f 290/3/4 279/3/4 283/3/4
f 290/3/4 283/3/4 289/3/4
f 290/4/4 284/4/4 279/4/4
f 290/4/4 285/4/4 284/4/4
f 291/3/4 286/3/4 285/3/4
f 291/4/4 285/4/4 290/4/4
f 292/4/4 287/4/4 286/4/4
f 292/3/4 286/3/4 291/3/4
f 293/3/4 273/3/4 287/3/4
f 293/4/4 287/4/4 292/4/4
f 294/3/4 273/3/4 293/3/4
f 295/3/5 296/3/5 298/3/5
f 298/3/5 296/3/5 299/3/5
f 299/3/5 296/3/5 300/3/5
f 297/3/5 298/3/5 303/3/5
f 298/2/5 299/2/5 304/2/5
f 303/3/5 298/3/5 304/3/5
f 304/2/5 299/2/5 305/2/5
f 299/1/5 300/1/5 306/1/5
f 305/2/5 299/2/5 306/2/5
f 300/3/5 301/3/5 307/3/5
f 306/1/5 300/1/5 307/1/5
f 307/3/5 301/3/5 308/3/5
f 304/2/5 305/2/5 310/2/5
f 303/2/5 304/2/5 310/2/5
f 305/1/5 306/1/5 311/1/5
f 310/2/5 305/2/5 311/2/5
f 307/1/5 308/1/5 311/1/5
f 306/1/5 307/1/5 311/1/5
f 310/1/5 311/1/5 312/1/5
f 311/1/5 308/1/5 312/1/5
f 308/3/5 309/3/5 313/3/5
f 312/1/5 308/1/5 313/1/5
f 303/2/5 310/2/5 314/2/5
f 310/1/5 312/1/5 314/1/5
f 314/1/5 312/1/5 315/1/5
f 315/1/5 312/1/5 316/1/5
f 312/2/5 313/2/5 317/2/5
f 316/1/5 312/1/5 317/1/5
f 315/1/5 316/1/5 318/1/5
f 314/2/5 315/2/5 318/2/5
f 316/2/5 317/2/5 319/2/5
f 318/1/5 316/1/5 319/1/5
f 302/3/5 303/3/5 320/3/5
f 303/2/5 314/2/5 321/2/5
f 320/3/5 303/3/5 321/3/5
f 314/2/5 318/2/5 321/2/5
f 318/2/5 319/2/5 321/2/5
f 321/2/5 319/2/5 322/2/5
f 319/2/5 317/2/5 323/2/5
f 322/2/5 319/2/5 323/2/5
f 317/2/5 313/2/5 323/2/5
f 313/3/5 309/3/5 324/3/5
f 323/2/5 313/2/5 324/2/5
f 324/3/5 309/3/5 325/3/5
f 321/3/5 322/3/5 326/3/5
f 322/2/5 323/2/5 327/2/5
f 326/3/5 322/3/5 327/3/5
f 327/2/5 323/2/5 328/2/5
f 323/3/5 324/3/5 329/3/5
f 328/2/5 323/2/5 329/2/5
f 329/3/5 324/3/5 330/3/5
f 327/3/5 328/3/5 331/3/5
f 328/4/5 329/4/5 332/4/5
f 331/3/5 328/3/5 332/3/5
f 332/4/5 329/4/5 333/4/5
f 337/3/6 335/3/6 334/3/6
f 338/3/6 335/3/6 337/3/6
f 341/4/6 337/4/6 336/4/6
f 342/1/6 338/1/6 337/1/6
f 342/4/6 337/4/6 341/4/6
f 343/3/6 339/3/6 338/3/6
f 343/1/6 338/1/6 342/1/6
f 344/3/6 339/3/6 343/3/6
f 346/3/6 341/3/6 340/3/6
f 347/1/6 342/1/6 341/1/6
f 347/3/6 341/3/6 346/3/6
f 347/1/6 343/1/6 342/1/6
f 347/1/6 344/1/6 343/1/6
f 348/1/6 344/1/6 347/1/6
f 349/1/6 344/1/6 348/1/6
f 350/3/6 345/3/6 344/3/6
f 350/1/6 344/1/6 349/1/6
f 351/3/6 345/3/6 350/3/6
f 352/3/6 348/3/6 347/3/6
f 353/1/6 349/1/6 348/1/6
f 353/3/6 348/3/6 352/3/6
f 354/3/6 350/3/6 349/3/6
f 354/1/6 349/1/6 353/1/6
f 355/3/6 350/3/6 354/3/6
f 356/3/6 354/3/6 353/3/6
f 357/3/6 354/3/6 356/3/6
