# MagicaVoxel @ Ephtracy

# group
o 

# material
mtllib untitled-89.mtl
usemtl palette

# normals
vn 0 0 1
vn 0 0 -1
vn 1 0 0
vn -1 0 0
vn 0 -1 0
vn 0 1 0

# texcoords
vt 0.974609 0.5
vt 0.978516 0.5

# verts
v -32.2 2.4 -10
v -32.6 2.4 -10
v -32.8 2.4 -10
v -32.4 2.5 -10
v -32.6 2.5 -10
v -32.3 2.7 -10
v -32.4 2.7 -10
v -32.2 2.9 -10
v -32.3 2.9 -10
v -32.3 8.7 -10
v -32.4 8.7 -10
v -32.2 8.9 -10
v -32.3 8.9 -10
v -32.4 9.2 -10
v -32.5 9.2 -10
v -32.4 9.3 -10
v -32.5 9.3 -10
v -32.2 9.4 -10
v -32.4 9.4 -10
v -32.8 9.4 -10
v -32.2 2.4 -10.6
v -32.8 2.4 -10.6
v -32.3 2.7 -10.6
v -32.5 2.7 -10.6
v -32.2 2.8 -10.6
v -32.3 2.8 -10.6
v -32.5 2.8 -10.6
v -32.6 2.8 -10.6
v -32.6 2.9 -10.6
v -32.7 2.9 -10.6
v -32.6 3 -10.6
v -32.7 3 -10.6
v -32.6 3.1 -10.6
v -32.8 3.1 -10.6
v -32.3 3.9 -10.6
v -32.4 3.9 -10.6
v -32.3 4.4 -10.6
v -32.4 4.4 -10.6
v -32.7 5.8 -10.6
v -32.8 5.8 -10.6
v -32.6 6 -10.6
v -32.7 6 -10.6
v -32.8 6 -10.6
v -32.5 6.1 -10.6
v -32.6 6.1 -10.6
v -32.7 6.1 -10.6
v -32.4 6.3 -10.6
v -32.5 6.3 -10.6
v -32.6 6.3 -10.6
v -32.3 6.4 -10.6
v -32.4 6.4 -10.6
v -32.5 6.4 -10.6
v -32.2 6.5 -10.6
v -32.3 6.5 -10.6
v -32.4 6.5 -10.6
v -32.2 8.7 -10.6
v -32.3 8.7 -10.6
v -32.2 8.9 -10.6
v -32.3 8.9 -10.6
v -32.7 8.9 -10.6
v -32.8 8.9 -10.6
v -32.5 9 -10.6
v -32.7 9 -10.6
v -32.3 9.1 -10.6
v -32.5 9.1 -10.6
v -32.2 9.4 -10.6
v -32.8 9.4 -10.6
v -32.2 2.4 -10
v -32.2 2.9 -10
v -32.2 8.9 -10
v -32.2 9.4 -10
v -32.2 2.8 -10.1
v -32.2 2.9 -10.1
v -32.2 5.1 -10.1
v -32.2 6.8 -10.1
v -32.2 8.9 -10.1
v -32.2 9.2 -10.1
v -32.2 2.7 -10.2
v -32.2 2.8 -10.2
v -32.2 3.4 -10.2
v -32.2 3.5 -10.2
v -32.2 5.1 -10.2
v -32.2 6.8 -10.2
v -32.2 7.7 -10.2
v -32.2 8.8 -10.2
v -32.2 2.6 -10.3
v -32.2 2.7 -10.3
v -32.2 3.4 -10.3
v -32.2 3.5 -10.3
v -32.2 5.4 -10.3
v -32.2 7.7 -10.3
v -32.2 8.8 -10.3
v -32.2 2.6 -10.4
v -32.2 2.7 -10.4
v -32.2 3.5 -10.4
v -32.2 5.4 -10.4
v -32.2 9.1 -10.4
v -32.2 9.2 -10.4
v -32.2 2.7 -10.5
v -32.2 2.8 -10.5
v -32.2 6.5 -10.5
v -32.2 8.7 -10.5
v -32.2 8.9 -10.5
v -32.2 9.1 -10.5
v -32.2 2.4 -10.6
v -32.2 2.8 -10.6
v -32.2 6.5 -10.6
v -32.2 8.7 -10.6
v -32.2 8.9 -10.6
v -32.2 9.4 -10.6
v -32.8 2.4 -10
v -32.8 9.4 -10
v -32.8 2.4 -10.5
v -32.8 3.1 -10.5
v -32.8 5.8 -10.5
v -32.8 6 -10.5
v -32.8 8.9 -10.5
v -32.8 9.4 -10.5
v -32.8 2.4 -10.6
v -32.8 3.1 -10.6
v -32.8 5.8 -10.6
v -32.8 6 -10.6
v -32.8 8.9 -10.6
v -32.8 9.4 -10.6
v -32.2 2.4 -10
v -32.2 2.4 -10.6
v -32.3 2.4 -10.1
v -32.3 2.4 -10.5
v -32.6 2.4 -10
v -32.6 2.4 -10.1
v -32.8 2.4 -10
v -32.8 2.4 -10.5
v -32.8 2.4 -10.6
v -32.2 9.4 -10
v -32.2 9.4 -10.6
v -32.3 9.4 -10.1
v -32.3 9.4 -10.5
v -32.4 9.4 -10
v -32.4 9.4 -10.1
v -32.8 9.4 -10
v -32.8 9.4 -10.5
v -32.8 9.4 -10.6

# faces
f 4/1/1 2/1/1 1/1/1
f 5/2/1 3/2/1 2/2/1
f 5/1/1 2/1/1 4/1/1
f 6/1/1 4/1/1 1/1/1
f 7/2/1 5/2/1 4/2/1
f 7/1/1 4/1/1 6/1/1
f 8/1/1 6/1/1 1/1/1
f 9/2/1 7/2/1 6/2/1
f 9/1/1 6/1/1 8/1/1
f 10/2/1 9/2/1 8/2/1
f 10/2/1 7/2/1 9/2/1
f 11/2/1 5/2/1 7/2/1
f 11/2/1 7/2/1 10/2/1
f 12/2/1 10/2/1 8/2/1
f 13/1/1 11/1/1 10/1/1
f 13/2/1 10/2/1 12/2/1
f 14/2/1 5/2/1 11/2/1
f 14/1/1 11/1/1 13/1/1
f 14/1/1 13/1/1 12/1/1
f 15/2/1 5/2/1 14/2/1
f 16/1/1 14/1/1 12/1/1
f 16/1/1 15/1/1 14/1/1
f 17/2/1 5/2/1 15/2/1
f 17/1/1 15/1/1 16/1/1
f 18/1/1 16/1/1 12/1/1
f 19/2/1 17/2/1 16/2/1
f 19/1/1 16/1/1 18/1/1
f 20/2/1 3/2/1 5/2/1
f 20/2/1 17/2/1 19/2/1
f 20/2/1 5/2/1 17/2/1
f 21/1/2 22/1/2 23/1/2
f 23/1/2 22/1/2 24/1/2
f 21/1/2 23/1/2 25/1/2
f 23/2/2 24/2/2 26/2/2
f 25/1/2 23/1/2 26/1/2
f 24/1/2 22/1/2 27/1/2
f 26/2/2 24/2/2 27/2/2
f 27/1/2 22/1/2 28/1/2
f 25/2/2 26/2/2 29/2/2
f 28/1/2 22/1/2 29/1/2
f 27/2/2 28/2/2 29/2/2
f 26/2/2 27/2/2 29/2/2
f 29/1/2 22/1/2 30/1/2
f 25/2/2 29/2/2 31/2/2
f 29/2/2 30/2/2 31/2/2
f 30/1/2 22/1/2 32/1/2
f 31/2/2 30/2/2 32/2/2
f 25/2/2 31/2/2 33/2/2
f 31/1/2 32/1/2 33/1/2
f 32/1/2 22/1/2 34/1/2
f 33/1/2 32/1/2 34/1/2
f 25/2/2 33/2/2 35/2/2
f 33/2/2 34/2/2 35/2/2
f 35/2/2 34/2/2 36/2/2
f 25/2/2 35/2/2 37/2/2
f 35/1/2 36/1/2 37/1/2
f 36/2/2 34/2/2 38/2/2
f 37/1/2 36/1/2 38/1/2
f 37/2/2 38/2/2 39/2/2
f 38/2/2 34/2/2 39/2/2
f 39/2/2 34/2/2 40/2/2
f 37/2/2 39/2/2 41/2/2
f 39/1/2 40/1/2 42/1/2
f 41/2/2 39/2/2 42/2/2
f 42/1/2 40/1/2 43/1/2
f 37/2/2 41/2/2 44/2/2
f 41/1/2 42/1/2 45/1/2
f 44/2/2 41/2/2 45/2/2
f 42/2/2 43/2/2 46/2/2
f 45/1/2 42/1/2 46/1/2
f 37/2/2 44/2/2 47/2/2
f 44/1/2 45/1/2 48/1/2
f 47/2/2 44/2/2 48/2/2
f 45/2/2 46/2/2 49/2/2
f 48/1/2 45/1/2 49/1/2
f 25/2/2 37/2/2 50/2/2
f 37/2/2 47/2/2 50/2/2
f 47/1/2 48/1/2 51/1/2
f 50/2/2 47/2/2 51/2/2
f 48/2/2 49/2/2 52/2/2
f 51/1/2 48/1/2 52/1/2
f 25/2/2 50/2/2 53/2/2
f 50/1/2 51/1/2 54/1/2
f 53/2/2 50/2/2 54/2/2
f 51/2/2 52/2/2 55/2/2
f 54/1/2 51/1/2 55/1/2
f 53/1/2 54/1/2 56/1/2
f 54/2/2 55/2/2 57/2/2
f 56/1/2 54/1/2 57/1/2
f 56/2/2 57/2/2 58/2/2
f 57/2/2 55/2/2 59/2/2
f 58/2/2 57/2/2 59/2/2
f 49/2/2 46/2/2 60/2/2
f 59/2/2 55/2/2 60/2/2
f 46/2/2 43/2/2 60/2/2
f 52/2/2 49/2/2 60/2/2
f 55/2/2 52/2/2 60/2/2
f 60/2/2 43/2/2 61/2/2
f 59/2/2 60/2/2 62/2/2
f 60/1/2 61/1/2 63/1/2
f 62/2/2 60/2/2 63/2/2
f 58/1/2 59/1/2 64/1/2
f 59/2/2 62/2/2 64/2/2
f 62/1/2 63/1/2 65/1/2
f 64/2/2 62/2/2 65/2/2
f 58/1/2 64/1/2 66/1/2
f 64/1/2 65/1/2 66/1/2
f 63/1/2 61/1/2 67/1/2
f 66/1/2 65/1/2 67/1/2
f 65/1/2 63/1/2 67/1/2
f 72/1/3 69/1/3 68/1/3
f 73/2/3 70/2/3 69/2/3
f 73/1/3 69/1/3 72/1/3
f 74/2/3 70/2/3 73/2/3
f 75/2/3 70/2/3 74/2/3
f 76/1/3 71/1/3 70/1/3
f 76/2/3 70/2/3 75/2/3
f 77/1/3 71/1/3 76/1/3
f 78/1/3 72/1/3 68/1/3
f 79/2/3 73/2/3 72/2/3
f 79/1/3 72/1/3 78/1/3
f 79/2/3 74/2/3 73/2/3
f 80/2/3 74/2/3 79/2/3
f 81/2/3 74/2/3 80/2/3
f 82/1/3 75/1/3 74/1/3
f 82/2/3 74/2/3 81/2/3
f 83/2/3 77/2/3 76/2/3
f 83/1/3 75/1/3 82/1/3
f 83/2/3 76/2/3 75/2/3
f 84/2/3 77/2/3 83/2/3
f 85/2/3 77/2/3 84/2/3
f 86/1/3 78/1/3 68/1/3
f 87/2/3 80/2/3 79/2/3
f 87/1/3 78/1/3 86/1/3
f 87/2/3 79/2/3 78/2/3
f 88/1/3 81/1/3 80/1/3
f 88/2/3 80/2/3 87/2/3
f 89/2/3 82/2/3 81/2/3
f 89/1/3 81/1/3 88/1/3
f 89/2/3 83/2/3 82/2/3
f 89/2/3 84/2/3 83/2/3
f 90/2/3 84/2/3 89/2/3
f 91/1/3 85/1/3 84/1/3
f 91/2/3 84/2/3 90/2/3
f 92/2/3 77/2/3 85/2/3
f 92/1/3 85/1/3 91/1/3
f 93/2/3 87/2/3 86/2/3
f 93/2/3 88/2/3 87/2/3
f 93/1/3 86/1/3 68/1/3
f 93/2/3 89/2/3 88/2/3
f 94/2/3 89/2/3 93/2/3
f 95/1/3 90/1/3 89/1/3
f 95/2/3 89/2/3 94/2/3
f 96/2/3 91/2/3 90/2/3
f 96/1/3 90/1/3 95/1/3
f 96/2/3 92/2/3 91/2/3
f 97/2/3 77/2/3 92/2/3
f 97/2/3 92/2/3 96/2/3
f 98/1/3 71/1/3 77/1/3
f 98/2/3 77/2/3 97/2/3
f 99/2/3 96/2/3 95/2/3
f 99/2/3 97/2/3 96/2/3
f 99/2/3 95/2/3 94/2/3
f 99/1/3 94/1/3 93/1/3
f 100/2/3 97/2/3 99/2/3
f 101/2/3 97/2/3 100/2/3
f 102/2/3 97/2/3 101/2/3
f 103/2/3 97/2/3 102/2/3
f 104/1/3 98/1/3 97/1/3
f 104/2/3 97/2/3 103/2/3
f 105/1/3 93/1/3 68/1/3
f 105/1/3 99/1/3 93/1/3
f 105/1/3 100/1/3 99/1/3
f 106/2/3 101/2/3 100/2/3
f 106/1/3 100/1/3 105/1/3
f 107/1/3 102/1/3 101/1/3
f 107/2/3 101/2/3 106/2/3
f 108/2/3 103/2/3 102/2/3
f 108/1/3 102/1/3 107/1/3
f 109/1/3 104/1/3 103/1/3
f 109/2/3 103/2/3 108/2/3
f 110/1/3 71/1/3 98/1/3
f 110/1/3 104/1/3 109/1/3
f 110/1/3 98/1/3 104/1/3
f 111/2/4 112/2/4 113/2/4
f 113/2/4 112/2/4 114/2/4
f 114/2/4 112/2/4 115/2/4
f 115/2/4 112/2/4 116/2/4
f 116/2/4 112/2/4 117/2/4
f 117/2/4 112/2/4 118/2/4
f 113/1/4 114/1/4 119/1/4
f 114/2/4 115/2/4 120/2/4
f 119/1/4 114/1/4 120/1/4
f 115/1/4 116/1/4 121/1/4
f 120/2/4 115/2/4 121/2/4
f 116/2/4 117/2/4 122/2/4
f 121/1/4 116/1/4 122/1/4
f 117/1/4 118/1/4 123/1/4
f 122/2/4 117/2/4 123/2/4
f 123/1/4 118/1/4 124/1/4
f 127/1/5 126/1/5 125/1/5
f 128/1/5 126/1/5 127/1/5
f 129/1/5 127/1/5 125/1/5
f 130/2/5 128/2/5 127/2/5
f 130/1/5 127/1/5 129/1/5
f 131/2/5 130/2/5 129/2/5
f 132/1/5 126/1/5 128/1/5
f 132/2/5 130/2/5 131/2/5
f 132/2/5 128/2/5 130/2/5
f 133/1/5 126/1/5 132/1/5
f 134/1/6 135/1/6 136/1/6
f 136/1/6 135/1/6 137/1/6
f 134/1/6 136/1/6 138/1/6
f 136/2/6 137/2/6 139/2/6
f 138/1/6 136/1/6 139/1/6
f 138/2/6 139/2/6 140/2/6
f 137/1/6 135/1/6 141/1/6
f 140/2/6 139/2/6 141/2/6
f 139/2/6 137/2/6 141/2/6
f 141/1/6 135/1/6 142/1/6
