# MagicaVoxel @ Ephtracy

# group
o 

# material
mtllib untitled-73.mtl
usemtl palette

# normals
vn -1 0 0
vn 1 0 0
vn 0 0 1
vn 0 0 -1
vn 0 -1 0
vn 0 1 0

# texcoords
vt 0.978516 0.5
vt 0.982422 0.5
vt 0.986328 0.5
vt 0.994141 0.5

# verts
v -16 0.4 -6.9
v -16 0.4 -8.4
v -16 0.7 -6.9
v -16 0.7 -8.4
v -16 0.8 -6.9
v -16 0.8 -8.4
v -12.8 0.4 -6.9
v -12.8 0.4 -8.4
v -12.8 0.7 -6.9
v -12.8 0.7 -7
v -12.8 0.7 -8.3
v -12.8 0.7 -8.4
v -12.8 0.8 -6.9
v -12.8 0.8 -7
v -12.8 0.8 -8.3
v -12.8 0.8 -8.4
v -16 0.4 -6.9
v -16 0.7 -6.9
v -16 0.8 -6.9
v -15.3 0.7 -6.9
v -15.3 0.8 -6.9
v -13.6 0.7 -6.9
v -13.6 0.8 -6.9
v -12.8 0.4 -6.9
v -12.8 0.7 -6.9
v -12.8 0.8 -6.9
v -16 0.4 -8.4
v -16 0.7 -8.4
v -16 0.8 -8.4
v -15.3 0.7 -8.4
v -15.3 0.8 -8.4
v -13.8 0.7 -8.4
v -13.8 0.8 -8.4
v -12.8 0.4 -8.4
v -12.8 0.7 -8.4
v -12.8 0.8 -8.4
v -16 0.4 -6.9
v -12.8 0.4 -6.9
v -16 0.4 -8.4
v -12.8 0.4 -8.4
v -16 0.8 -6.9
v -15.3 0.8 -6.9
v -13.6 0.8 -6.9
v -12.8 0.8 -6.9
v -15.7 0.8 -7
v -15.3 0.8 -7
v -15.2 0.8 -7
v -13.6 0.8 -7
v -12.8 0.8 -7
v -15.8 0.8 -7.1
v -15.7 0.8 -7.1
v -15.6 0.8 -7.1
v -15.2 0.8 -7.1
v -15.1 0.8 -7.1
v -14.8 0.8 -7.1
v -15.9 0.8 -7.2
v -15.8 0.8 -7.2
v -15.7 0.8 -7.2
v -15.6 0.8 -7.2
v -15.2 0.8 -7.2
v -15.1 0.8 -7.2
v -15 0.8 -7.2
v -14.8 0.8 -7.2
v -13.9 0.8 -7.2
v -15.8 0.8 -7.3
v -15.7 0.8 -7.3
v -15.3 0.8 -7.3
v -15.2 0.8 -7.3
v -15.1 0.8 -7.3
v -15 0.8 -7.3
v -14.8 0.8 -7.3
v -13.9 0.8 -7.3
v -15.8 0.8 -7.4
v -15.6 0.8 -7.4
v -15.9 0.8 -7.5
v -15.8 0.8 -7.5
v -15.6 0.8 -7.5
v -15.5 0.8 -7.5
v -15.3 0.8 -7.5
v -15.2 0.8 -7.5
v -15.1 0.8 -7.5
v -15 0.8 -7.5
v -15.8 0.8 -7.6
v -15.6 0.8 -7.6
v -15.5 0.8 -7.6
v -15.4 0.8 -7.6
v -15.2 0.8 -7.6
v -15 0.8 -7.6
v -15.7 0.8 -7.8
v -15.6 0.8 -7.8
v -15.5 0.8 -7.8
v -15.4 0.8 -7.8
v -14.9 0.8 -7.8
v -14.4 0.8 -7.8
v -15.8 0.8 -7.9
v -15.7 0.8 -7.9
v -14.9 0.8 -7.9
v -14.4 0.8 -7.9
v -13.5 0.8 -7.9
v -15.8 0.8 -8
v -15.7 0.8 -8
v -15.5 0.8 -8
v -15.4 0.8 -8
v -14.4 0.8 -8
v -13.5 0.8 -8
v -15.7 0.8 -8.1
v -15.6 0.8 -8.1
v -15.4 0.8 -8.1
v -15.3 0.8 -8.1
v -15.6 0.8 -8.2
v -15.5 0.8 -8.2
v -15.3 0.8 -8.2
v -15.2 0.8 -8.2
v -15.5 0.8 -8.3
v -15.3 0.8 -8.3
v -15.2 0.8 -8.3
v -13.8 0.8 -8.3
v -12.8 0.8 -8.3
v -16 0.8 -8.4
v -15.3 0.8 -8.4
v -13.8 0.8 -8.4
v -12.8 0.8 -8.4

# faces
f 3/4/1 2/4/1 1/4/1
f 4/4/1 2/4/1 3/4/1
f 5/1/1 4/1/1 3/1/1
f 6/1/1 4/1/1 5/1/1
f 7/4/2 8/4/2 9/4/2
f 9/4/2 8/4/2 10/4/2
f 10/4/2 8/4/2 11/4/2
f 11/4/2 8/4/2 12/4/2
f 9/3/2 10/3/2 13/3/2
f 10/4/2 11/4/2 14/4/2
f 13/3/2 10/3/2 14/3/2
f 11/3/2 12/3/2 15/3/2
f 14/4/2 11/4/2 15/4/2
f 15/3/2 12/3/2 16/3/2
f 20/4/3 18/4/3 17/4/3
f 20/1/3 19/1/3 18/1/3
f 21/1/3 19/1/3 20/1/3
f 22/4/3 20/4/3 17/4/3
f 22/2/3 21/2/3 20/2/3
f 23/2/3 21/2/3 22/2/3
f 24/4/3 22/4/3 17/4/3
f 25/3/3 23/3/3 22/3/3
f 25/4/3 22/4/3 24/4/3
f 26/3/3 23/3/3 25/3/3
f 27/4/4 28/4/4 30/4/4
f 28/1/4 29/1/4 30/1/4
f 30/1/4 29/1/4 31/1/4
f 27/4/4 30/4/4 32/4/4
f 30/2/4 31/2/4 32/2/4
f 32/2/4 31/2/4 33/2/4
f 27/4/4 32/4/4 34/4/4
f 32/3/4 33/3/4 35/3/4
f 34/4/4 32/4/4 35/4/4
f 35/3/4 33/3/4 36/3/4
f 39/4/5 38/4/5 37/4/5
f 40/4/5 38/4/5 39/4/5
f 41/1/6 42/1/6 45/1/6
f 42/2/6 43/2/6 46/2/6
f 45/1/6 42/1/6 46/1/6
f 46/2/6 43/2/6 47/2/6
f 43/3/6 44/3/6 48/3/6
f 47/2/6 43/2/6 48/2/6
f 48/3/6 44/3/6 49/3/6
f 41/1/6 45/1/6 50/1/6
f 46/2/6 47/2/6 51/2/6
f 50/1/6 45/1/6 51/1/6
f 45/2/6 46/2/6 51/2/6
f 51/2/6 47/2/6 52/2/6
f 48/4/6 49/4/6 53/4/6
f 52/2/6 47/2/6 53/2/6
f 47/4/6 48/4/6 53/4/6
f 53/4/6 49/4/6 54/4/6
f 54/4/6 49/4/6 55/4/6
f 41/1/6 50/1/6 56/1/6
f 51/2/6 52/2/6 57/2/6
f 56/1/6 50/1/6 57/1/6
f 50/2/6 51/2/6 57/2/6
f 57/2/6 52/2/6 58/2/6
f 52/4/6 53/4/6 59/4/6
f 58/2/6 52/2/6 59/2/6
f 53/4/6 54/4/6 59/4/6
f 59/4/6 54/4/6 60/4/6
f 54/2/6 55/2/6 61/2/6
f 60/4/6 54/4/6 61/4/6
f 61/2/6 55/2/6 62/2/6
f 55/4/6 49/4/6 63/4/6
f 62/2/6 55/2/6 63/2/6
f 63/4/6 49/4/6 64/4/6
f 57/2/6 58/2/6 65/2/6
f 56/2/6 57/2/6 65/2/6
f 59/4/6 60/4/6 66/4/6
f 65/2/6 58/2/6 66/2/6
f 58/4/6 59/4/6 66/4/6
f 66/4/6 60/4/6 67/4/6
f 61/2/6 62/2/6 68/2/6
f 67/4/6 60/4/6 68/4/6
f 60/2/6 61/2/6 68/2/6
f 68/2/6 62/2/6 69/2/6
f 62/4/6 63/4/6 70/4/6
f 69/2/6 62/2/6 70/2/6
f 63/2/6 64/2/6 71/2/6
f 70/4/6 63/4/6 71/4/6
f 64/4/6 49/4/6 72/4/6
f 71/2/6 64/2/6 72/2/6
f 66/4/6 67/4/6 73/4/6
f 56/2/6 65/2/6 73/2/6
f 65/4/6 66/4/6 73/4/6
f 73/4/6 67/4/6 74/4/6
f 41/1/6 56/1/6 75/1/6
f 56/2/6 73/2/6 75/2/6
f 73/2/6 74/2/6 75/2/6
f 75/2/6 74/2/6 76/2/6
f 74/4/6 67/4/6 77/4/6
f 76/2/6 74/2/6 77/2/6
f 77/4/6 67/4/6 78/4/6
f 68/2/6 69/2/6 79/2/6
f 78/4/6 67/4/6 79/4/6
f 67/2/6 68/2/6 79/2/6
f 79/2/6 69/2/6 80/2/6
f 71/4/6 72/4/6 81/4/6
f 80/2/6 69/2/6 81/2/6
f 70/4/6 71/4/6 81/4/6
f 69/4/6 70/4/6 81/4/6
f 81/4/6 72/4/6 82/4/6
f 75/1/6 76/1/6 83/1/6
f 77/2/6 78/2/6 83/2/6
f 76/2/6 77/2/6 83/2/6
f 83/2/6 78/2/6 84/2/6
f 79/4/6 80/4/6 85/4/6
f 84/2/6 78/2/6 85/2/6
f 78/4/6 79/4/6 85/4/6
f 85/4/6 80/4/6 86/4/6
f 81/2/6 82/2/6 87/2/6
f 86/4/6 80/4/6 87/4/6
f 80/2/6 81/2/6 87/2/6
f 82/4/6 72/4/6 88/4/6
f 87/2/6 82/2/6 88/2/6
f 83/1/6 84/1/6 89/1/6
f 85/2/6 86/2/6 90/2/6
f 89/1/6 84/1/6 90/1/6
f 84/2/6 85/2/6 90/2/6
f 90/2/6 86/2/6 91/2/6
f 86/4/6 87/4/6 92/4/6
f 91/2/6 86/2/6 92/2/6
f 87/4/6 88/4/6 92/4/6
f 88/4/6 72/4/6 93/4/6
f 92/4/6 88/4/6 93/4/6
f 93/4/6 72/4/6 94/4/6
f 75/1/6 83/1/6 95/1/6
f 83/1/6 89/1/6 95/1/6
f 90/2/6 91/2/6 96/2/6
f 95/1/6 89/1/6 96/1/6
f 89/2/6 90/2/6 96/2/6
f 91/4/6 92/4/6 97/4/6
f 93/2/6 94/2/6 97/2/6
f 92/4/6 93/4/6 97/4/6
f 94/4/6 72/4/6 98/4/6
f 97/2/6 94/2/6 98/2/6
f 72/4/6 49/4/6 99/4/6
f 98/4/6 72/4/6 99/4/6
f 75/1/6 95/1/6 100/1/6
f 95/2/6 96/2/6 100/2/6
f 96/2/6 91/2/6 101/2/6
f 100/2/6 96/2/6 101/2/6
f 97/4/6 98/4/6 102/4/6
f 101/2/6 91/2/6 102/2/6
f 91/4/6 97/4/6 102/4/6
f 102/4/6 98/4/6 103/4/6
f 98/2/6 99/2/6 104/2/6
f 103/4/6 98/4/6 104/4/6
f 99/4/6 49/4/6 105/4/6
f 104/2/6 99/2/6 105/2/6
f 100/1/6 101/1/6 106/1/6
f 102/2/6 103/2/6 106/2/6
f 101/2/6 102/2/6 106/2/6
f 106/2/6 103/2/6 107/2/6
f 103/4/6 104/4/6 108/4/6
f 107/2/6 103/2/6 108/2/6
f 104/4/6 105/4/6 108/4/6
f 108/4/6 105/4/6 109/4/6
f 106/1/6 107/1/6 110/1/6
f 107/2/6 108/2/6 110/2/6
f 108/2/6 109/2/6 110/2/6
f 110/2/6 109/2/6 111/2/6
f 109/4/6 105/4/6 112/4/6
f 111/2/6 109/2/6 112/2/6
f 112/4/6 105/4/6 113/4/6
f 110/1/6 111/1/6 114/1/6
f 111/2/6 112/2/6 114/2/6
f 112/2/6 113/2/6 114/2/6
f 114/2/6 113/2/6 115/2/6
f 113/4/6 105/4/6 116/4/6
f 115/2/6 113/2/6 116/2/6
f 116/4/6 105/4/6 117/4/6
f 105/4/6 49/4/6 118/4/6
f 117/4/6 105/4/6 118/4/6
f 114/1/6 115/1/6 119/1/6
f 75/1/6 100/1/6 119/1/6
f 100/1/6 106/1/6 119/1/6
f 41/1/6 75/1/6 119/1/6
f 110/1/6 114/1/6 119/1/6
f 106/1/6 110/1/6 119/1/6
f 116/2/6 117/2/6 120/2/6
f 119/1/6 115/1/6 120/1/6
f 115/2/6 116/2/6 120/2/6
f 117/3/6 118/3/6 121/3/6
f 120/2/6 117/2/6 121/2/6
f 121/3/6 118/3/6 122/3/6
