# MagicaVoxel @ Ephtracy

# group
o 

# material
mtllib untitled-20.mtl
usemtl palette

# normals
vn 1 0 0
vn -1 0 0
vn 0 0 -1
vn 0 0 1
vn 0 -1 0
vn 0 1 0

# texcoords
vt 0.927734 0.5
vt 0.939453 0.5
vt 0.962891 0.5

# verts
v -6.2 11.4 -20.3
v -6.2 11.4 -19.8
v -6.2 13.3 -20.3
v -6.2 13.3 -19.8
v -14.2 11.4 -20.3
v -14.2 11.4 -19.8
v -14.2 13.3 -20.3
v -14.2 13.3 -19.8
v -6.2 11.4 -20.3
v -6.2 13.3 -20.3
v -14.2 11.4 -20.3
v -14.2 13.3 -20.3
v -6.2 11.4 -19.8
v -6.2 13.3 -19.8
v -9.2 11.4 -19.8
v -9.2 12.6 -19.8
v -9.2 12.9 -19.8
v -9.2 13.1 -19.8
v -9.2 13.2 -19.8
v -9.3 12.6 -19.8
v -9.3 12.9 -19.8
v -9.3 13.1 -19.8
v -9.3 13.2 -19.8
v -9.4 11.4 -19.8
v -9.4 12.3 -19.8
v -9.4 12.9 -19.8
v -9.4 13.1 -19.8
v -9.4 13.2 -19.8
v -9.5 12.3 -19.8
v -9.5 12.4 -19.8
v -9.5 13.1 -19.8
v -9.5 13.2 -19.8
v -9.6 12.1 -19.8
v -9.6 12.4 -19.8
v -9.6 13.1 -19.8
v -9.6 13.2 -19.8
v -9.7 11.7 -19.8
v -9.7 12.1 -19.8
v -9.7 13.1 -19.8
v -9.7 13.2 -19.8
v -9.9 11.7 -19.8
v -9.9 11.8 -19.8
v -10 11.4 -19.8
v -10 11.8 -19.8
v -11.8 11.4 -19.8
v -11.8 13.2 -19.8
v -14.2 11.4 -19.8
v -14.2 13.3 -19.8
v -6.2 11.4 -20.3
v -14.2 11.4 -20.3
v -9.2 11.4 -19.9
v -9.4 11.4 -19.9
v -10 11.4 -19.9
v -11.8 11.4 -19.9
v -6.2 11.4 -19.8
v -9.2 11.4 -19.8
v -9.4 11.4 -19.8
v -10 11.4 -19.8
v -11.8 11.4 -19.8
v -14.2 11.4 -19.8
v -6.2 13.3 -20.3
v -14.2 13.3 -20.3
v -6.2 13.3 -19.8
v -14.2 13.3 -19.8

# faces
f 3/1/1 2/1/1 1/1/1
f 4/1/1 2/1/1 3/1/1
f 5/1/2 6/1/2 7/1/2
f 7/1/2 6/1/2 8/1/2
f 11/1/3 10/1/3 9/1/3
f 12/1/3 10/1/3 11/1/3
f 13/1/4 14/1/4 15/1/4
f 15/1/4 14/1/4 16/1/4
f 16/1/4 14/1/4 17/1/4
f 17/1/4 14/1/4 18/1/4
f 18/1/4 14/1/4 19/1/4
f 15/2/4 16/2/4 20/2/4
f 16/3/4 17/3/4 20/3/4
f 17/2/4 18/2/4 21/2/4
f 20/3/4 17/3/4 21/3/4
f 18/3/4 19/3/4 22/3/4
f 21/2/4 18/2/4 22/2/4
f 19/1/4 14/1/4 23/1/4
f 22/3/4 19/3/4 23/3/4
f 20/2/4 21/2/4 24/2/4
f 15/2/4 20/2/4 24/2/4
f 24/2/4 21/2/4 25/2/4
f 21/3/4 22/3/4 26/3/4
f 25/2/4 21/2/4 26/2/4
f 22/2/4 23/2/4 27/2/4
f 26/3/4 22/3/4 27/3/4
f 23/1/4 14/1/4 28/1/4
f 27/2/4 23/2/4 28/2/4
f 24/3/4 25/3/4 29/3/4
f 26/2/4 27/2/4 29/2/4
f 25/2/4 26/2/4 29/2/4
f 29/2/4 27/2/4 30/2/4
f 27/3/4 28/3/4 31/3/4
f 30/2/4 27/2/4 31/2/4
f 28/1/4 14/1/4 32/1/4
f 31/3/4 28/3/4 32/3/4
f 29/3/4 30/3/4 33/3/4
f 24/3/4 29/3/4 33/3/4
f 30/2/4 31/2/4 34/2/4
f 33/3/4 30/3/4 34/3/4
f 31/2/4 32/2/4 34/2/4
f 34/2/4 32/2/4 35/2/4
f 32/1/4 14/1/4 36/1/4
f 35/2/4 32/2/4 36/2/4
f 24/3/4 33/3/4 37/3/4
f 34/2/4 35/2/4 38/2/4
f 37/3/4 33/3/4 38/3/4
f 33/2/4 34/2/4 38/2/4
f 35/3/4 36/3/4 39/3/4
f 38/2/4 35/2/4 39/2/4
f 36/1/4 14/1/4 40/1/4
f 39/3/4 36/3/4 40/3/4
f 38/2/4 39/2/4 41/2/4
f 24/3/4 37/3/4 41/3/4
f 39/2/4 40/2/4 41/2/4
f 37/2/4 38/2/4 41/2/4
f 41/2/4 40/2/4 42/2/4
f 24/3/4 41/3/4 43/3/4
f 41/3/4 42/3/4 43/3/4
f 42/2/4 40/2/4 44/2/4
f 43/3/4 42/3/4 44/3/4
f 43/2/4 44/2/4 45/2/4
f 40/1/4 14/1/4 46/1/4
f 45/2/4 44/2/4 46/2/4
f 44/2/4 40/2/4 46/2/4
f 45/1/4 46/1/4 47/1/4
f 46/1/4 14/1/4 48/1/4
f 47/1/4 46/1/4 48/1/4
f 51/1/5 50/1/5 49/1/5
f 52/1/5 50/1/5 51/1/5
f 53/1/5 50/1/5 52/1/5
f 54/1/5 50/1/5 53/1/5
f 55/1/5 51/1/5 49/1/5
f 56/2/5 52/2/5 51/2/5
f 56/1/5 51/1/5 55/1/5
f 57/3/5 53/3/5 52/3/5
f 57/2/5 52/2/5 56/2/5
f 58/2/5 54/2/5 53/2/5
f 58/3/5 53/3/5 57/3/5
f 59/1/5 50/1/5 54/1/5
f 59/2/5 54/2/5 58/2/5
f 60/1/5 50/1/5 59/1/5
f 61/1/6 62/1/6 63/1/6
f 63/1/6 62/1/6 64/1/6
