# MagicaVoxel @ Ephtracy

# group
o 

# material
mtllib untitled-100.mtl
usemtl palette

# normals
vn -1 0 0
vn 1 0 0
vn 0 0 1
vn 0 0 -1
vn 0 -1 0
vn 0 1 0

# texcoords
vt 0.978516 0.5
vt 0.982422 0.5
vt 0.994141 0.5

# verts
v -16 0.4 -0.1
v -16 0.4 -1.6
v -16 0.7 -0.1
v -16 0.7 -1.6
v -16 0.8 -0.1
v -16 0.8 -1.6
v -12.8 0.4 -0.1
v -12.8 0.4 -1.6
v -12.8 0.7 -0.1
v -12.8 0.7 -0.2
v -12.8 0.7 -1.5
v -12.8 0.7 -1.6
v -12.8 0.8 -0.1
v -12.8 0.8 -0.2
v -12.8 0.8 -1.5
v -12.8 0.8 -1.6
v -16 0.4 -0.1
v -16 0.7 -0.1
v -16 0.8 -0.1
v -14.8 0.7 -0.1
v -14.8 0.8 -0.1
v -12.8 0.4 -0.1
v -12.8 0.7 -0.1
v -12.8 0.8 -0.1
v -16 0.4 -1.6
v -16 0.7 -1.6
v -16 0.8 -1.6
v -14.6 0.7 -1.6
v -14.6 0.8 -1.6
v -12.8 0.4 -1.6
v -12.8 0.7 -1.6
v -12.8 0.8 -1.6
v -16 0.4 -0.1
v -12.8 0.4 -0.1
v -16 0.4 -1.6
v -12.8 0.4 -1.6
v -16 0.8 -0.1
v -14.8 0.8 -0.1
v -12.8 0.8 -0.1
v -15.3 0.8 -0.2
v -14.8 0.8 -0.2
v -14.7 0.8 -0.2
v -12.8 0.8 -0.2
v -15.6 0.8 -0.3
v -15.3 0.8 -0.3
v -15.2 0.8 -0.3
v -14.7 0.8 -0.3
v -15.7 0.8 -0.4
v -15.6 0.8 -0.4
v -15.4 0.8 -0.4
v -15.2 0.8 -0.4
v -14 0.8 -0.4
v -13.1 0.8 -0.4
v -15.8 0.8 -0.5
v -15.7 0.8 -0.5
v -15.5 0.8 -0.5
v -15.4 0.8 -0.5
v -14 0.8 -0.5
v -13.4 0.8 -0.5
v -13.1 0.8 -0.5
v -13 0.8 -0.5
v -15.6 0.8 -0.6
v -15.5 0.8 -0.6
v -14.5 0.8 -0.6
v -14.2 0.8 -0.6
v -13.4 0.8 -0.6
v -13.3 0.8 -0.6
v -13 0.8 -0.6
v -12.9 0.8 -0.6
v -15.8 0.8 -0.7
v -15.7 0.8 -0.7
v -15.6 0.8 -0.7
v -15.5 0.8 -0.7
v -14.6 0.8 -0.7
v -14.5 0.8 -0.7
v -14.2 0.8 -0.7
v -13.3 0.8 -0.7
v -13.2 0.8 -0.7
v -15.7 0.8 -0.8
v -15.6 0.8 -0.8
v -15.5 0.8 -0.8
v -15.3 0.8 -0.8
v -14.6 0.8 -0.8
v -14.5 0.8 -0.8
v -15.6 0.8 -0.9
v -15.4 0.8 -0.9
v -15.3 0.8 -0.9
v -14.9 0.8 -0.9
v -15.7 0.8 -1
v -15.4 0.8 -1
v -15.3 0.8 -1
v -14.9 0.8 -1
v -13.4 0.8 -1
v -13.2 0.8 -1
v -13 0.8 -1
v -12.9 0.8 -1
v -15.8 0.8 -1.1
v -15.7 0.8 -1.1
v -15.6 0.8 -1.1
v -15.3 0.8 -1.1
v -13.9 0.8 -1.1
v -13.4 0.8 -1.1
v -13.1 0.8 -1.1
v -13 0.8 -1.1
v -13.9 0.8 -1.2
v -13.1 0.8 -1.2
v -15.8 0.8 -1.3
v -15.7 0.8 -1.3
v -15.6 0.8 -1.3
v -15.5 0.8 -1.3
v -15.7 0.8 -1.4
v -15.6 0.8 -1.4
v -15.5 0.8 -1.4
v -14.5 0.8 -1.4
v -15.6 0.8 -1.5
v -14.6 0.8 -1.5
v -14.5 0.8 -1.5
v -12.8 0.8 -1.5
v -16 0.8 -1.6
v -14.6 0.8 -1.6
v -12.8 0.8 -1.6

# faces
f 3/3/1 2/3/1 1/3/1
f 4/3/1 2/3/1 3/3/1
f 5/1/1 4/1/1 3/1/1
f 6/1/1 4/1/1 5/1/1
f 7/3/2 8/3/2 9/3/2
f 9/3/2 8/3/2 10/3/2
f 10/3/2 8/3/2 11/3/2
f 11/3/2 8/3/2 12/3/2
f 9/2/2 10/2/2 13/2/2
f 10/3/2 11/3/2 14/3/2
f 13/2/2 10/2/2 14/2/2
f 11/2/2 12/2/2 15/2/2
f 14/3/2 11/3/2 15/3/2
f 15/2/2 12/2/2 16/2/2
f 20/3/3 18/3/3 17/3/3
f 20/1/3 19/1/3 18/1/3
f 21/1/3 19/1/3 20/1/3
f 22/3/3 20/3/3 17/3/3
f 23/2/3 21/2/3 20/2/3
f 23/3/3 20/3/3 22/3/3
f 24/2/3 21/2/3 23/2/3
f 25/3/4 26/3/4 28/3/4
f 26/1/4 27/1/4 28/1/4
f 28/1/4 27/1/4 29/1/4
f 25/3/4 28/3/4 30/3/4
f 28/2/4 29/2/4 31/2/4
f 30/3/4 28/3/4 31/3/4
f 31/2/4 29/2/4 32/2/4
f 35/3/5 34/3/5 33/3/5
f 36/3/5 34/3/5 35/3/5
f 37/1/6 38/1/6 40/1/6
f 38/2/6 39/2/6 41/2/6
f 40/1/6 38/1/6 41/1/6
f 41/2/6 39/2/6 42/2/6
f 42/2/6 39/2/6 43/2/6
f 37/1/6 40/1/6 44/1/6
f 40/2/6 41/2/6 45/2/6
f 44/1/6 40/1/6 45/1/6
f 41/2/6 42/2/6 45/2/6
f 45/2/6 42/2/6 46/2/6
f 42/3/6 43/3/6 47/3/6
f 46/2/6 42/2/6 47/2/6
f 37/1/6 44/1/6 48/1/6
f 45/2/6 46/2/6 49/2/6
f 48/1/6 44/1/6 49/1/6
f 44/2/6 45/2/6 49/2/6
f 49/2/6 46/2/6 50/2/6
f 46/3/6 47/3/6 51/3/6
f 50/2/6 46/2/6 51/2/6
f 47/3/6 43/3/6 52/3/6
f 51/3/6 47/3/6 52/3/6
f 52/3/6 43/3/6 53/3/6
f 37/1/6 48/1/6 54/1/6
f 49/2/6 50/2/6 55/2/6
f 54/1/6 48/1/6 55/1/6
f 48/2/6 49/2/6 55/2/6
f 55/2/6 50/2/6 56/2/6
f 50/3/6 51/3/6 57/3/6
f 56/2/6 50/2/6 57/2/6
f 51/3/6 52/3/6 57/3/6
f 52/2/6 53/2/6 58/2/6
f 57/3/6 52/3/6 58/3/6
f 58/2/6 53/2/6 59/2/6
f 53/3/6 43/3/6 60/3/6
f 59/2/6 53/2/6 60/2/6
f 60/3/6 43/3/6 61/3/6
f 55/2/6 56/2/6 62/2/6
f 54/2/6 55/2/6 62/2/6
f 58/3/6 59/3/6 63/3/6
f 62/2/6 56/2/6 63/2/6
f 56/3/6 57/3/6 63/3/6
f 57/3/6 58/3/6 63/3/6
f 63/3/6 59/3/6 64/3/6
f 64/3/6 59/3/6 65/3/6
f 59/2/6 60/2/6 66/2/6
f 65/3/6 59/3/6 66/3/6
f 60/2/6 61/2/6 66/2/6
f 66/2/6 61/2/6 67/2/6
f 61/3/6 43/3/6 68/3/6
f 67/2/6 61/2/6 68/2/6
f 68/3/6 43/3/6 69/3/6
f 54/2/6 62/2/6 70/2/6
f 37/1/6 54/1/6 70/1/6
f 70/2/6 62/2/6 71/2/6
f 63/3/6 64/3/6 72/3/6
f 71/2/6 62/2/6 72/2/6
f 62/3/6 63/3/6 72/3/6
f 72/3/6 64/3/6 73/3/6
f 73/3/6 64/3/6 74/3/6
f 64/2/6 65/2/6 75/2/6
f 74/3/6 64/3/6 75/3/6
f 66/3/6 67/3/6 76/3/6
f 75/2/6 65/2/6 76/2/6
f 65/3/6 66/3/6 76/3/6
f 68/2/6 69/2/6 77/2/6
f 76/3/6 67/3/6 77/3/6
f 67/2/6 68/2/6 77/2/6
f 77/2/6 69/2/6 78/2/6
f 70/1/6 71/1/6 79/1/6
f 72/2/6 73/2/6 79/2/6
f 71/2/6 72/2/6 79/2/6
f 79/2/6 73/2/6 80/2/6
f 73/3/6 74/3/6 81/3/6
f 80/2/6 73/2/6 81/2/6
f 81/3/6 74/3/6 82/3/6
f 74/2/6 75/2/6 83/2/6
f 82/3/6 74/3/6 83/3/6
f 75/3/6 76/3/6 84/3/6
f 83/2/6 75/2/6 84/2/6
f 77/3/6 78/3/6 84/3/6
f 76/3/6 77/3/6 84/3/6
f 81/2/6 82/2/6 85/2/6
f 79/1/6 80/1/6 85/1/6
f 80/2/6 81/2/6 85/2/6
f 85/2/6 82/2/6 86/2/6
f 82/3/6 83/3/6 87/3/6
f 86/2/6 82/2/6 87/2/6
f 83/3/6 84/3/6 87/3/6
f 87/3/6 84/3/6 88/3/6
f 85/1/6 86/1/6 89/1/6
f 79/1/6 85/1/6 89/1/6
f 70/1/6 79/1/6 89/1/6
f 87/2/6 88/2/6 90/2/6
f 89/1/6 86/1/6 90/1/6
f 86/2/6 87/2/6 90/2/6
f 90/2/6 88/2/6 91/2/6
f 88/3/6 84/3/6 92/3/6
f 91/2/6 88/2/6 92/2/6
f 84/3/6 78/3/6 93/3/6
f 92/3/6 84/3/6 93/3/6
f 78/2/6 69/2/6 94/2/6
f 93/3/6 78/3/6 94/3/6
f 94/2/6 69/2/6 95/2/6
f 69/3/6 43/3/6 96/3/6
f 95/2/6 69/2/6 96/2/6
f 70/1/6 89/1/6 97/1/6
f 37/1/6 70/1/6 97/1/6
f 90/2/6 91/2/6 98/2/6
f 97/1/6 89/1/6 98/1/6
f 89/2/6 90/2/6 98/2/6
f 98/2/6 91/2/6 99/2/6
f 91/3/6 92/3/6 100/3/6
f 99/2/6 91/2/6 100/2/6
f 92/3/6 93/3/6 100/3/6
f 100/3/6 93/3/6 101/3/6
f 94/2/6 95/2/6 102/2/6
f 101/3/6 93/3/6 102/3/6
f 93/2/6 94/2/6 102/2/6
f 102/2/6 95/2/6 103/2/6
f 95/3/6 96/3/6 104/3/6
f 103/2/6 95/2/6 104/2/6
f 100/3/6 101/3/6 105/3/6
f 102/2/6 103/2/6 105/2/6
f 99/3/6 100/3/6 105/3/6
f 101/2/6 102/2/6 105/2/6
f 103/3/6 104/3/6 106/3/6
f 105/2/6 103/2/6 106/2/6
f 98/2/6 99/2/6 107/2/6
f 37/1/6 97/1/6 107/1/6
f 97/2/6 98/2/6 107/2/6
f 107/2/6 99/2/6 108/2/6
f 105/3/6 106/3/6 109/3/6
f 108/2/6 99/2/6 109/2/6
f 99/3/6 105/3/6 109/3/6
f 109/3/6 106/3/6 110/3/6
f 107/1/6 108/1/6 111/1/6
f 108/2/6 109/2/6 111/2/6
f 109/2/6 110/2/6 111/2/6
f 111/2/6 110/2/6 112/2/6
f 110/3/6 106/3/6 113/3/6
f 112/2/6 110/2/6 113/2/6
f 113/3/6 106/3/6 114/3/6
f 111/1/6 112/1/6 115/1/6
f 112/2/6 113/2/6 115/2/6
f 113/2/6 114/2/6 115/2/6
f 115/2/6 114/2/6 116/2/6
f 114/3/6 106/3/6 117/3/6
f 116/2/6 114/2/6 117/2/6
f 106/3/6 104/3/6 118/3/6
f 117/3/6 106/3/6 118/3/6
f 104/3/6 96/3/6 118/3/6
f 96/3/6 43/3/6 118/3/6
f 111/1/6 115/1/6 119/1/6
f 115/1/6 116/1/6 119/1/6
f 107/1/6 111/1/6 119/1/6
f 37/1/6 107/1/6 119/1/6
f 116/2/6 117/2/6 120/2/6
f 119/1/6 116/1/6 120/1/6
f 117/2/6 118/2/6 120/2/6
f 120/2/6 118/2/6 121/2/6
