# MagicaVoxel @ Ephtracy

# group
o 

# material
mtllib untitled2-165.mtl
usemtl palette

# normals
vn 0 0 1
vn 0 0 -1
vn 1 0 0
vn -1 0 0
vn 0 -1 0
vn 0 1 0

# texcoords
vt 0.970703 0.5
vt 0.974609 0.5
vt 0.978516 0.5

# verts
v -10.8 6.1 -1.7
v -11.8 6.1 -1.7
v -11.1 6.7 -1.7
v -11.3 6.7 -1.7
v -11 7.3 -1.7
v -11.1 7.3 -1.7
v -11.2 7.8 -1.7
v -11.3 7.8 -1.7
v -11 8 -1.7
v -11.2 8 -1.7
v -11 8.9 -1.7
v -11.3 8.9 -1.7
v -11.3 9.3 -1.7
v -11.4 9.3 -1.7
v -11 10 -1.7
v -11.1 10 -1.7
v -11.4 10.4 -1.7
v -11.5 10.4 -1.7
v -11.1 10.7 -1.7
v -11.5 10.7 -1.7
v -11.1 11.3 -1.7
v -11.3 11.3 -1.7
v -11 11.4 -1.7
v -11.1 11.4 -1.7
v -11.3 11.4 -1.7
v -11.4 11.4 -1.7
v -10.9 11.5 -1.7
v -11 11.5 -1.7
v -11.4 11.5 -1.7
v -11.6 11.5 -1.7
v -10.8 11.6 -1.7
v -10.9 11.6 -1.7
v -11 11.6 -1.7
v -11.5 11.6 -1.7
v -11.6 11.6 -1.7
v -11.7 11.6 -1.7
v -11 11.7 -1.7
v -11.1 11.7 -1.7
v -10.9 11.8 -1.7
v -11 11.8 -1.7
v -11.6 11.9 -1.7
v -11.7 11.9 -1.7
v -11 12 -1.7
v -11.1 12 -1.7
v -11.5 12 -1.7
v -11.6 12 -1.7
v -11 12.1 -1.7
v -11.5 12.1 -1.7
v -11.6 12.1 -1.7
v -11.7 12.1 -1.7
v -10.9 12.2 -1.7
v -11.5 12.2 -1.7
v -11.6 12.2 -1.7
v -10.8 12.3 -1.7
v -10.9 12.3 -1.7
v -11.1 12.3 -1.7
v -11.5 12.3 -1.7
v -11.6 12.3 -1.7
v -11.7 12.3 -1.7
v -10.8 12.4 -1.7
v -10.9 12.4 -1.7
v -11.1 12.4 -1.7
v -11.8 12.4 -1.7
v -10.9 6 -2
v -11.8 6 -2
v -10.9 6.1 -2
v -11.8 6.1 -2
v -10.9 6 -2.7
v -11.8 6 -2.7
v -10.8 6.1 -2.7
v -10.9 6.1 -2.7
v -11.2 11.2 -2.7
v -11.4 11.2 -2.7
v -11 11.3 -2.7
v -11.2 11.3 -2.7
v -11.4 11.3 -2.7
v -11.6 11.3 -2.7
v -10.8 11.4 -2.7
v -11 11.4 -2.7
v -11.2 11.4 -2.7
v -11.4 11.4 -2.7
v -11.6 11.4 -2.7
v -11.7 11.4 -2.7
v -10.9 11.5 -2.7
v -11.2 11.5 -2.7
v -11.4 11.5 -2.7
v -11.6 11.5 -2.7
v -11 11.6 -2.7
v -11.5 11.6 -2.7
v -11.6 11.8 -2.7
v -11.7 11.8 -2.7
v -10.8 12 -2.7
v -10.9 12 -2.7
v -11.7 12 -2.7
v -11.8 12 -2.7
v -11 12.1 -2.7
v -11.5 12.1 -2.7
v -10.9 12.3 -2.7
v -11 12.3 -2.7
v -11.3 12.3 -2.7
v -11.6 12.3 -2.7
v -10.8 12.4 -2.7
v -11 12.4 -2.7
v -11.3 12.4 -2.7
v -11.6 12.4 -2.7
v -11.8 12.4 -2.7
v -10.8 6.1 -1.7
v -10.8 11.6 -1.7
v -10.8 12.3 -1.7
v -10.8 12.4 -1.7
v -10.8 11.9 -1.8
v -10.8 12.2 -1.8
v -10.8 12.3 -1.8
v -10.8 11.4 -1.9
v -10.8 11.6 -1.9
v -10.8 11.7 -1.9
v -10.8 11.9 -1.9
v -10.8 9.7 -2
v -10.8 11.1 -2
v -10.8 11.3 -2
v -10.8 11.4 -2
v -10.8 11.5 -2
v -10.8 11.7 -2
v -10.8 12.1 -2
v -10.8 12.2 -2
v -10.8 12.3 -2
v -10.8 6.2 -2.1
v -10.8 7.2 -2.1
v -10.8 11.6 -2.1
v -10.8 11.7 -2.1
v -10.8 9.7 -2.2
v -10.8 10.5 -2.2
v -10.8 11.1 -2.2
v -10.8 11.2 -2.2
v -10.8 11.3 -2.2
v -10.8 11.4 -2.2
v -10.8 6.2 -2.3
v -10.8 7.2 -2.3
v -10.8 8.8 -2.3
v -10.8 9.8 -2.3
v -10.8 10.5 -2.3
v -10.8 10.6 -2.3
v -10.8 11.3 -2.3
v -10.8 11.4 -2.3
v -10.8 12.2 -2.3
v -10.8 12.3 -2.3
v -10.8 8.7 -2.4
v -10.8 8.8 -2.4
v -10.8 10.6 -2.4
v -10.8 10.7 -2.4
v -10.8 11.5 -2.4
v -10.8 11.6 -2.4
v -10.8 8.7 -2.5
v -10.8 9.8 -2.5
v -10.8 10.7 -2.5
v -10.8 11.2 -2.5
v -10.8 11.6 -2.5
v -10.8 12.1 -2.5
v -10.8 11.3 -2.6
v -10.8 11.4 -2.6
v -10.8 11.6 -2.6
v -10.8 12 -2.6
v -10.8 12.2 -2.6
v -10.8 6.1 -2.7
v -10.8 11.4 -2.7
v -10.8 12 -2.7
v -10.8 12.4 -2.7
v -10.9 6 -2
v -10.9 6.1 -2
v -10.9 6 -2.7
v -10.9 6.1 -2.7
v -11.8 6.1 -1.7
v -11.8 12.4 -1.7
v -11.8 11.4 -1.8
v -11.8 12.2 -1.8
v -11.8 11.1 -1.9
v -11.8 11.4 -1.9
v -11.8 12.2 -1.9
v -11.8 12.3 -1.9
v -11.8 6 -2
v -11.8 6.1 -2
v -11.8 11.1 -2
v -11.8 11.2 -2
v -11.8 12 -2
v -11.8 12.1 -2
v -11.8 11.2 -2.1
v -11.8 11.3 -2.1
v -11.8 11.6 -2.1
v -11.8 12 -2.1
v -11.8 11.3 -2.2
v -11.8 11.4 -2.2
v -11.8 12.2 -2.2
v -11.8 12.3 -2.2
v -11.8 11.4 -2.3
v -11.8 11.5 -2.3
v -11.8 11.5 -2.4
v -11.8 11.6 -2.4
v -11.8 12 -2.4
v -11.8 12.1 -2.4
v -11.8 11.7 -2.5
v -11.8 12 -2.5
v -11.8 11.7 -2.6
v -11.8 12 -2.6
v -11.8 12.2 -2.6
v -11.8 12.4 -2.6
v -11.8 6 -2.7
v -11.8 12 -2.7
v -11.8 12.4 -2.7
v -10.9 6 -2
v -10.9 6 -2.7
v -11.8 6 -2
v -11.8 6 -2.7
v -10.8 6.1 -1.7
v -10.8 6.1 -2.7
v -10.9 6.1 -2
v -10.9 6.1 -2.7
v -11.8 6.1 -1.7
v -11.8 6.1 -2
v -10.8 12.4 -1.7
v -10.8 12.4 -2.7
v -10.9 12.4 -1.7
v -10.9 12.4 -1.8
v -11 12.4 -2.6
v -11 12.4 -2.7
v -11.1 12.4 -1.7
v -11.1 12.4 -1.8
v -11.3 12.4 -2.6
v -11.3 12.4 -2.7
v -11.6 12.4 -2.6
v -11.6 12.4 -2.7
v -11.8 12.4 -1.7
v -11.8 12.4 -2.6
v -11.8 12.4 -2.7

# faces
f 3/3/1 2/3/1 1/3/1
f 4/3/1 2/3/1 3/3/1
f 5/3/1 3/3/1 1/3/1
f 6/2/1 4/2/1 3/2/1
f 6/3/1 3/3/1 5/3/1
f 7/2/1 6/2/1 5/2/1
f 7/2/1 4/2/1 6/2/1
f 8/3/1 2/3/1 4/3/1
f 8/2/1 4/2/1 7/2/1
f 9/2/1 7/2/1 5/2/1
f 9/3/1 5/3/1 1/3/1
f 10/3/1 8/3/1 7/3/1
f 10/2/1 7/2/1 9/2/1
f 11/3/1 9/3/1 1/3/1
f 11/3/1 10/3/1 9/3/1
f 12/3/1 2/3/1 8/3/1
f 12/3/1 10/3/1 11/3/1
f 12/3/1 8/3/1 10/3/1
f 13/2/1 12/2/1 11/2/1
f 13/3/1 2/3/1 12/3/1
f 14/3/1 2/3/1 13/3/1
f 15/3/1 11/3/1 1/3/1
f 15/2/1 13/2/1 11/2/1
f 15/2/1 14/2/1 13/2/1
f 16/2/1 14/2/1 15/2/1
f 17/3/1 2/3/1 14/3/1
f 17/2/1 14/2/1 16/2/1
f 18/3/1 2/3/1 17/3/1
f 19/3/1 16/3/1 15/3/1
f 19/2/1 17/2/1 16/2/1
f 19/2/1 18/2/1 17/2/1
f 20/3/1 2/3/1 18/3/1
f 20/2/1 18/2/1 19/2/1
f 21/3/1 19/3/1 15/3/1
f 21/3/1 20/3/1 19/3/1
f 22/3/1 20/3/1 21/3/1
f 23/3/1 15/3/1 1/3/1
f 23/3/1 21/3/1 15/3/1
f 24/2/1 22/2/1 21/2/1
f 24/3/1 21/3/1 23/3/1
f 25/3/1 20/3/1 22/3/1
f 25/2/1 22/2/1 24/2/1
f 26/3/1 20/3/1 25/3/1
f 27/3/1 23/3/1 1/3/1
f 28/2/1 24/2/1 23/2/1
f 28/3/1 23/3/1 27/3/1
f 28/2/1 25/2/1 24/2/1
f 28/2/1 26/2/1 25/2/1
f 29/3/1 20/3/1 26/3/1
f 29/2/1 26/2/1 28/2/1
f 30/3/1 2/3/1 20/3/1
f 30/3/1 20/3/1 29/3/1
f 31/3/1 27/3/1 1/3/1
f 32/2/1 29/2/1 28/2/1
f 32/3/1 27/3/1 31/3/1
f 32/2/1 28/2/1 27/2/1
f 32/2/1 30/2/1 29/2/1
f 33/2/1 30/2/1 32/2/1
f 34/2/1 30/2/1 33/2/1
f 35/3/1 2/3/1 30/3/1
f 35/2/1 30/2/1 34/2/1
f 36/3/1 2/3/1 35/3/1
f 37/3/1 34/3/1 33/3/1
f 37/2/1 32/2/1 31/2/1
f 37/2/1 33/2/1 32/2/1
f 38/3/1 34/3/1 37/3/1
f 39/2/1 37/2/1 31/2/1
f 40/1/1 38/1/1 37/1/1
f 40/2/1 37/2/1 39/2/1
f 41/2/1 36/2/1 35/2/1
f 41/2/1 35/2/1 34/2/1
f 42/3/1 2/3/1 36/3/1
f 42/2/1 36/2/1 41/2/1
f 43/1/1 38/1/1 40/1/1
f 43/1/1 40/1/1 39/1/1
f 44/3/1 34/3/1 38/3/1
f 44/1/1 38/1/1 43/1/1
f 45/2/1 41/2/1 34/2/1
f 45/3/1 34/3/1 44/3/1
f 46/3/1 42/3/1 41/3/1
f 46/2/1 41/2/1 45/2/1
f 47/3/1 44/3/1 43/3/1
f 47/3/1 45/3/1 44/3/1
f 47/1/1 43/1/1 39/1/1
f 48/1/1 46/1/1 45/1/1
f 48/3/1 45/3/1 47/3/1
f 49/3/1 42/3/1 46/3/1
f 49/1/1 46/1/1 48/1/1
f 50/3/1 2/3/1 42/3/1
f 50/3/1 42/3/1 49/3/1
f 51/1/1 48/1/1 47/1/1
f 51/1/1 49/1/1 48/1/1
f 51/1/1 50/1/1 49/1/1
f 51/2/1 39/2/1 31/2/1
f 51/1/1 47/1/1 39/1/1
f 52/1/1 50/1/1 51/1/1
f 53/1/1 50/1/1 52/1/1
f 54/2/1 51/2/1 31/2/1
f 54/2/1 52/2/1 51/2/1
f 55/2/1 52/2/1 54/2/1
f 56/2/1 52/2/1 55/2/1
f 57/3/1 53/3/1 52/3/1
f 57/2/1 52/2/1 56/2/1
f 58/1/1 50/1/1 53/1/1
f 58/3/1 53/3/1 57/3/1
f 59/3/1 2/3/1 50/3/1
f 59/1/1 50/1/1 58/1/1
f 60/3/1 55/3/1 54/3/1
f 61/2/1 56/2/1 55/2/1
f 61/3/1 55/3/1 60/3/1
f 62/3/1 58/3/1 57/3/1
f 62/2/1 56/2/1 61/2/1
f 62/3/1 57/3/1 56/3/1
f 62/3/1 59/3/1 58/3/1
f 63/3/1 2/3/1 59/3/1
f 63/3/1 59/3/1 62/3/1
f 66/3/1 65/3/1 64/3/1
f 67/3/1 65/3/1 66/3/1
f 68/3/2 69/3/2 71/3/2
f 71/3/2 69/3/2 72/3/2
f 70/3/2 71/3/2 72/3/2
f 72/3/2 69/3/2 73/3/2
f 70/3/2 72/3/2 74/3/2
f 72/2/2 73/2/2 75/2/2
f 74/3/2 72/3/2 75/3/2
f 73/3/2 69/3/2 76/3/2
f 75/2/2 73/2/2 76/2/2
f 76/3/2 69/3/2 77/3/2
f 70/3/2 74/3/2 78/3/2
f 74/2/2 75/2/2 79/2/2
f 78/3/2 74/3/2 79/3/2
f 75/2/2 76/2/2 79/2/2
f 76/2/2 77/2/2 79/2/2
f 79/2/2 77/2/2 80/2/2
f 80/2/2 77/2/2 81/2/2
f 77/3/2 69/3/2 82/3/2
f 81/2/2 77/2/2 82/2/2
f 82/3/2 69/3/2 83/3/2
f 78/2/2 79/2/2 84/2/2
f 79/2/2 80/2/2 84/2/2
f 80/1/2 81/1/2 85/1/2
f 84/2/2 80/2/2 85/2/2
f 82/2/2 83/2/2 86/2/2
f 85/1/2 81/1/2 86/1/2
f 81/2/2 82/2/2 86/2/2
f 86/2/2 83/2/2 87/2/2
f 84/1/2 85/1/2 88/1/2
f 85/1/2 86/1/2 88/1/2
f 86/1/2 87/1/2 88/1/2
f 88/1/2 87/1/2 89/1/2
f 87/2/2 83/2/2 90/2/2
f 89/1/2 87/1/2 90/1/2
f 83/3/2 69/3/2 91/3/2
f 90/2/2 83/2/2 91/2/2
f 78/2/2 84/2/2 92/2/2
f 84/1/2 88/1/2 93/1/2
f 92/2/2 84/2/2 93/2/2
f 91/3/2 69/3/2 94/3/2
f 90/1/2 91/1/2 94/1/2
f 94/3/2 69/3/2 95/3/2
f 93/1/2 88/1/2 96/1/2
f 88/3/2 89/3/2 96/3/2
f 89/1/2 90/1/2 97/1/2
f 96/3/2 89/3/2 97/3/2
f 94/1/2 95/1/2 97/1/2
f 90/1/2 94/1/2 97/1/2
f 93/1/2 96/1/2 98/1/2
f 92/3/2 93/3/2 98/3/2
f 96/1/2 97/1/2 98/1/2
f 98/1/2 97/1/2 99/1/2
f 99/1/2 97/1/2 100/1/2
f 97/1/2 95/1/2 101/1/2
f 100/1/2 97/1/2 101/1/2
f 92/3/2 98/3/2 102/3/2
f 98/3/2 99/3/2 102/3/2
f 99/1/2 100/1/2 103/1/2
f 102/3/2 99/3/2 103/3/2
f 100/3/2 101/3/2 104/3/2
f 103/1/2 100/1/2 104/1/2
f 101/1/2 95/1/2 105/1/2
f 104/3/2 101/3/2 105/3/2
f 105/1/2 95/1/2 106/1/2
f 111/2/3 109/2/3 108/2/3
f 112/2/3 109/2/3 111/2/3
f 113/3/3 110/3/3 109/3/3
f 113/2/3 109/2/3 112/2/3
f 114/3/3 108/3/3 107/3/3
f 115/2/3 111/2/3 108/2/3
f 115/3/3 108/3/3 114/3/3
f 116/2/3 111/2/3 115/2/3
f 117/1/3 112/1/3 111/1/3
f 117/2/3 111/2/3 116/2/3
f 118/3/3 114/3/3 107/3/3
f 119/3/3 114/3/3 118/3/3
f 120/3/3 114/3/3 119/3/3
f 121/2/3 116/2/3 115/2/3
f 121/3/3 114/3/3 120/3/3
f 121/2/3 115/2/3 114/2/3
f 122/2/3 116/2/3 121/2/3
f 123/1/3 117/1/3 116/1/3
f 123/2/3 116/2/3 122/2/3
f 124/1/3 112/1/3 117/1/3
f 124/1/3 117/1/3 123/1/3
f 125/3/3 113/3/3 112/3/3
f 125/1/3 112/1/3 124/1/3
f 126/3/3 110/3/3 113/3/3
f 126/3/3 113/3/3 125/3/3
f 127/3/3 118/3/3 107/3/3
f 128/3/3 118/3/3 127/3/3
f 129/1/3 123/1/3 122/1/3
f 130/3/3 124/3/3 123/3/3
f 130/1/3 123/1/3 129/1/3
f 131/3/3 118/3/3 128/3/3
f 131/2/3 119/2/3 118/2/3
f 132/2/3 119/2/3 131/2/3
f 133/3/3 120/3/3 119/3/3
f 133/2/3 119/2/3 132/2/3
f 134/3/3 120/3/3 133/3/3
f 135/2/3 122/2/3 121/2/3
f 135/3/3 120/3/3 134/3/3
f 135/2/3 121/2/3 120/2/3
f 136/2/3 122/2/3 135/2/3
f 137/3/3 127/3/3 107/3/3
f 137/2/3 128/2/3 127/2/3
f 138/3/3 132/3/3 131/3/3
f 138/2/3 128/2/3 137/2/3
f 138/3/3 131/3/3 128/3/3
f 139/3/3 132/3/3 138/3/3
f 140/3/3 132/3/3 139/3/3
f 141/2/3 134/2/3 133/2/3
f 141/3/3 132/3/3 140/3/3
f 141/2/3 133/2/3 132/2/3
f 142/2/3 134/2/3 141/2/3
f 143/3/3 136/3/3 135/3/3
f 143/3/3 135/3/3 134/3/3
f 144/2/3 122/2/3 136/2/3
f 144/3/3 136/3/3 143/3/3
f 145/1/3 125/1/3 124/1/3
f 145/1/3 126/1/3 125/1/3
f 146/3/3 110/3/3 126/3/3
f 146/1/3 126/1/3 145/1/3
f 147/3/3 139/3/3 138/3/3
f 147/3/3 138/3/3 137/3/3
f 148/2/3 140/2/3 139/2/3
f 148/3/3 139/3/3 147/3/3
f 149/2/3 134/2/3 142/2/3
f 149/3/3 142/3/3 141/3/3
f 149/3/3 141/3/3 140/3/3
f 150/2/3 134/2/3 149/2/3
f 151/2/3 122/2/3 144/2/3
f 151/1/3 129/1/3 122/1/3
f 151/2/3 144/2/3 143/2/3
f 152/3/3 130/3/3 129/3/3
f 152/1/3 129/1/3 151/1/3
f 153/3/3 147/3/3 137/3/3
f 153/2/3 148/2/3 147/2/3
f 154/3/3 150/3/3 149/3/3
f 154/2/3 148/2/3 153/2/3
f 154/3/3 149/3/3 140/3/3
f 154/2/3 140/2/3 148/2/3
f 155/2/3 134/2/3 150/2/3
f 155/3/3 150/3/3 154/3/3
f 156/3/3 143/3/3 134/3/3
f 156/2/3 134/2/3 155/2/3
f 157/3/3 130/3/3 152/3/3
f 157/2/3 152/2/3 151/2/3
f 158/3/3 124/3/3 130/3/3
f 158/3/3 130/3/3 157/3/3
f 158/1/3 145/1/3 124/1/3
f 159/3/3 154/3/3 153/3/3
f 159/2/3 157/2/3 151/2/3
f 159/2/3 151/2/3 143/2/3
f 159/3/3 155/3/3 154/3/3
f 159/3/3 143/3/3 156/3/3
f 159/3/3 156/3/3 155/3/3
f 160/2/3 157/2/3 159/2/3
f 161/1/3 158/1/3 157/1/3
f 161/2/3 157/2/3 160/2/3
f 162/1/3 158/1/3 161/1/3
f 163/1/3 145/1/3 158/1/3
f 163/1/3 158/1/3 162/1/3
f 163/3/3 146/3/3 145/3/3
f 164/3/3 137/3/3 107/3/3
f 164/3/3 160/3/3 159/3/3
f 164/3/3 153/3/3 137/3/3
f 164/3/3 159/3/3 153/3/3
f 165/2/3 162/2/3 161/2/3
f 165/3/3 160/3/3 164/3/3
f 165/2/3 161/2/3 160/2/3
f 166/3/3 163/3/3 162/3/3
f 166/2/3 162/2/3 165/2/3
f 167/3/3 146/3/3 163/3/3
f 167/3/3 163/3/3 166/3/3
f 167/3/3 110/3/3 146/3/3
f 170/3/3 169/3/3 168/3/3
f 171/3/3 169/3/3 170/3/3
f 172/3/4 173/3/4 174/3/4
f 174/3/4 173/3/4 175/3/4
f 172/3/4 174/3/4 176/3/4
f 174/1/4 175/1/4 177/1/4
f 176/3/4 174/3/4 177/3/4
f 175/3/4 173/3/4 178/3/4
f 177/1/4 175/1/4 178/1/4
f 178/3/4 173/3/4 179/3/4
f 172/3/4 176/3/4 181/3/4
f 176/1/4 177/1/4 182/1/4
f 177/1/4 178/1/4 182/1/4
f 181/3/4 176/3/4 182/3/4
f 178/1/4 179/1/4 182/1/4
f 182/1/4 179/1/4 183/1/4
f 183/1/4 179/1/4 184/1/4
f 184/1/4 179/1/4 185/1/4
f 180/3/4 181/3/4 186/3/4
f 181/3/4 182/3/4 186/3/4
f 182/3/4 183/3/4 186/3/4
f 183/1/4 184/1/4 186/1/4
f 186/1/4 184/1/4 187/1/4
f 187/1/4 184/1/4 188/1/4
f 184/3/4 185/3/4 189/3/4
f 188/1/4 184/1/4 189/1/4
f 187/1/4 188/1/4 190/1/4
f 186/3/4 187/3/4 190/3/4
f 190/1/4 188/1/4 191/1/4
f 185/1/4 179/1/4 192/1/4
f 179/3/4 173/3/4 193/3/4
f 192/1/4 179/1/4 193/1/4
f 191/1/4 188/1/4 194/1/4
f 190/3/4 191/3/4 194/3/4
f 194/1/4 188/1/4 195/1/4
f 194/3/4 195/3/4 196/3/4
f 195/1/4 188/1/4 196/1/4
f 188/3/4 189/3/4 197/3/4
f 196/1/4 188/1/4 197/1/4
f 189/3/4 185/3/4 198/3/4
f 197/3/4 189/3/4 198/3/4
f 185/1/4 192/1/4 199/1/4
f 198/3/4 185/3/4 199/3/4
f 197/3/4 198/3/4 200/3/4
f 196/3/4 197/3/4 200/3/4
f 198/1/4 199/1/4 201/1/4
f 200/3/4 198/3/4 201/3/4
f 196/3/4 200/3/4 202/3/4
f 200/1/4 201/1/4 202/1/4
f 201/1/4 199/1/4 203/1/4
f 202/1/4 201/1/4 203/1/4
f 199/1/4 192/1/4 204/1/4
f 203/1/4 199/1/4 204/1/4
f 192/3/4 193/3/4 204/3/4
f 193/3/4 173/3/4 205/3/4
f 204/3/4 193/3/4 205/3/4
f 202/3/4 203/3/4 206/3/4
f 196/3/4 202/3/4 206/3/4
f 180/3/4 186/3/4 206/3/4
f 190/3/4 194/3/4 206/3/4
f 186/3/4 190/3/4 206/3/4
f 194/3/4 196/3/4 206/3/4
f 203/1/4 204/1/4 207/1/4
f 206/3/4 203/3/4 207/3/4
f 204/1/4 205/1/4 207/1/4
f 207/1/4 205/1/4 208/1/4
f 211/3/5 210/3/5 209/3/5
f 212/3/5 210/3/5 211/3/5
f 215/3/5 214/3/5 213/3/5
f 216/3/5 214/3/5 215/3/5
f 217/3/5 215/3/5 213/3/5
f 218/3/5 215/3/5 217/3/5
f 219/3/6 220/3/6 221/3/6
f 221/3/6 220/3/6 222/3/6
f 222/3/6 220/3/6 223/3/6
f 223/3/6 220/3/6 224/3/6
f 221/2/6 222/2/6 225/2/6
f 222/3/6 223/3/6 226/3/6
f 225/2/6 222/2/6 226/2/6
f 223/1/6 224/1/6 227/1/6
f 226/3/6 223/3/6 227/3/6
f 225/3/6 226/3/6 227/3/6
f 227/1/6 224/1/6 228/1/6
f 225/3/6 227/3/6 229/3/6
f 227/3/6 228/3/6 229/3/6
f 229/3/6 228/3/6 230/3/6
f 225/3/6 229/3/6 231/3/6
f 229/1/6 230/1/6 232/1/6
f 231/3/6 229/3/6 232/3/6
f 232/1/6 230/1/6 233/1/6
