# MagicaVoxel @ Ephtracy

# group
o 

# material
mtllib untitled2-160.mtl
usemtl palette

# normals
vn 0 0 -1
vn 0 0 1
vn 1 0 0
vn -1 0 0
vn 0 1 0
vn 0 -1 0

# texcoords
vt 0.970703 0.5
vt 0.974609 0.5
vt 0.978516 0.5

# verts
v -11 12.1 -9.6
v -11.5 12.1 -9.6
v -11.1 12 -9.6
v -11.4 12 -9.6
v -11.1 11.7 -9.6
v -11.4 11.7 -9.6
v -11 11.6 -9.6
v -11.5 11.6 -9.6
v -11 12.1 -2.7
v -11.5 12.1 -2.7
v -11.1 12 -2.7
v -11.4 12 -2.7
v -11.1 11.7 -2.7
v -11.4 11.7 -2.7
v -11 11.6 -2.7
v -11.5 11.6 -2.7
v -11 12.1 -9.6
v -11 11.6 -9.6
v -11 11.9 -9.3
v -11 11.8 -9.3
v -11 12 -9.2
v -11 11.9 -9.2
v -11 12.1 -9.1
v -11 12 -9.1
v -11 11.8 -9.1
v -11 11.7 -9.1
v -11 11.8 -9
v -11 11.7 -9
v -11 11.9 -8.9
v -11 11.8 -8.9
v -11 12 -8.8
v -11 11.9 -8.8
v -11 12 -8.7
v -11 11.8 -8.7
v -11 12.1 -8.6
v -11 12 -8.6
v -11 11.8 -8.6
v -11 11.7 -8.6
v -11 11.9 -8.5
v -11 11.8 -8.5
v -11 12 -8.3
v -11 11.9 -8.3
v -11 11.8 -8.3
v -11 11.7 -8.3
v -11 11.6 -8.3
v -11 12.1 -8.1
v -11 12 -8.1
v -11 11.7 -8
v -11 11.6 -8
v -11 11.7 -7.8
v -11 11.6 -7.8
v -11 11.8 -7.7
v -11 11.7 -7.7
v -11 12.1 -7.6
v -11 12 -7.6
v -11 11.9 -7.5
v -11 11.8 -7.5
v -11 11.7 -7.4
v -11 11.6 -7.4
v -11 11.9 -6.9
v -11 11.8 -6.9
v -11 12 -6.6
v -11 11.9 -6.6
v -11 11.8 -6.6
v -11 11.7 -6.6
v -11 11.8 -6.2
v -11 11.7 -6.2
v -11 12.1 -6.1
v -11 12 -6.1
v -11 12.1 -5.4
v -11 11.9 -5.4
v -11 11.8 -5.4
v -11 11.9 -5.1
v -11 11.8 -5.1
v -11 11.9 -5
v -11 11.8 -5
v -11 12.1 -4.8
v -11 12 -4.8
v -11 11.8 -4.8
v -11 11.7 -4.8
v -11 12.1 -4.5
v -11 12 -4.5
v -11 11.9 -4.5
v -11 11.8 -4.5
v -11 11.7 -4.5
v -11 11.6 -4.5
v -11 12.1 -4.3
v -11 12 -4.3
v -11 11.8 -3.9
v -11 11.7 -3.9
v -11 11.9 -3.8
v -11 11.8 -3.8
v -11 11.7 -3.7
v -11 11.6 -3.7
v -11 11.9 -3.6
v -11 11.8 -3.6
v -11 12 -3.5
v -11 11.9 -3.5
v -11 11.9 -3.4
v -11 11.8 -3.4
v -11 12.1 -3.3
v -11 12 -3.3
v -11 11.8 -3.2
v -11 11.7 -3.2
v -11 11.9 -3.1
v -11 11.8 -3.1
v -11 12 -3
v -11 11.9 -3
v -11 12.1 -2.7
v -11 11.6 -2.7
v -11.5 12.1 -9.6
v -11.5 11.6 -9.6
v -11.5 12 -9.4
v -11.5 11.8 -9.4
v -11.5 12.1 -9.2
v -11.5 12 -9.2
v -11.5 11.8 -9.2
v -11.5 11.7 -9.2
v -11.5 11.9 -9.1
v -11.5 11.8 -9.1
v -11.5 12 -9
v -11.5 11.9 -9
v -11.5 12.1 -8.9
v -11.5 12 -8.9
v -11.5 11.9 -8.9
v -11.5 11.8 -8.9
v -11.5 11.7 -8.8
v -11.5 11.6 -8.8
v -11.5 11.9 -8.7
v -11.5 11.8 -8.7
v -11.5 11.8 -8.6
v -11.5 11.7 -8.6
v -11.5 11.8 -8.5
v -11.5 11.7 -8.5
v -11.5 11.9 -8.4
v -11.5 11.8 -8.4
v -11.5 11.9 -8.3
v -11.5 11.7 -8.3
v -11.5 11.7 -8
v -11.5 11.6 -8
v -11.5 11.7 -4.5
v -11.5 11.6 -4.5
v -11.5 11.8 -4.3
v -11.5 11.7 -4.3
v -11.5 12.1 -3.8
v -11.5 12 -3.8
v -11.5 11.9 -3.8
v -11.5 11.8 -3.8
v -11.5 12 -3.6
v -11.5 11.9 -3.6
v -11.5 11.7 -3.4
v -11.5 11.6 -3.4
v -11.5 12.1 -3.2
v -11.5 12 -3.2
v -11.5 12 -3
v -11.5 11.9 -3
v -11.5 11.9 -2.9
v -11.5 11.7 -2.9
v -11.5 12.1 -2.7
v -11.5 11.6 -2.7
v -11 12.1 -9.6
v -11 12.1 -9.1
v -11 12.1 -8.6
v -11 12.1 -8.1
v -11 12.1 -7.6
v -11 12.1 -6.1
v -11 12.1 -5.4
v -11 12.1 -4.8
v -11 12.1 -4.5
v -11 12.1 -4.3
v -11 12.1 -3.3
v -11 12.1 -2.7
v -11.1 12.1 -9.4
v -11.1 12.1 -9.1
v -11.1 12.1 -8.7
v -11.1 12.1 -8.6
v -11.1 12.1 -8.1
v -11.1 12.1 -7.9
v -11.1 12.1 -7.6
v -11.1 12.1 -6.5
v -11.1 12.1 -6.1
v -11.1 12.1 -5.4
v -11.1 12.1 -4.3
v -11.1 12.1 -3.6
v -11.1 12.1 -3.3
v -11.1 12.1 -3.1
v -11.2 12.1 -9.5
v -11.2 12.1 -9.4
v -11.2 12.1 -9.2
v -11.2 12.1 -8.8
v -11.2 12.1 -8.7
v -11.2 12.1 -8.6
v -11.2 12.1 -7.9
v -11.2 12.1 -7.8
v -11.2 12.1 -6.5
v -11.2 12.1 -6
v -11.2 12.1 -5.9
v -11.2 12.1 -5.1
v -11.2 12.1 -4.8
v -11.2 12.1 -4.5
v -11.2 12.1 -3.6
v -11.2 12.1 -3.4
v -11.2 12.1 -3.1
v -11.2 12.1 -3
v -11.3 12.1 -9.5
v -11.3 12.1 -9.2
v -11.3 12.1 -9
v -11.3 12.1 -8.8
v -11.3 12.1 -7.8
v -11.3 12.1 -7.6
v -11.3 12.1 -6.3
v -11.3 12.1 -6
v -11.3 12.1 -5.9
v -11.3 12.1 -5.1
v -11.3 12.1 -3.5
v -11.3 12.1 -3.4
v -11.3 12.1 -3
v -11.3 12.1 -2.9
v -11.4 12.1 -9.2
v -11.4 12.1 -9
v -11.4 12.1 -8.9
v -11.4 12.1 -8.6
v -11.4 12.1 -7.6
v -11.4 12.1 -6.3
v -11.4 12.1 -3.8
v -11.4 12.1 -3.5
v -11.4 12.1 -3.2
v -11.4 12.1 -2.9
v -11.5 12.1 -9.6
v -11.5 12.1 -9.2
v -11.5 12.1 -8.9
v -11.5 12.1 -3.8
v -11.5 12.1 -3.2
v -11.5 12.1 -2.7
v -11 11.6 -9.6
v -11 11.6 -8.3
v -11 11.6 -8
v -11 11.6 -7.8
v -11 11.6 -7.4
v -11 11.6 -4.5
v -11 11.6 -3.7
v -11 11.6 -2.7
v -11.1 11.6 -9.2
v -11.1 11.6 -8.3
v -11.1 11.6 -8
v -11.1 11.6 -7.8
v -11.1 11.6 -7.4
v -11.1 11.6 -4.5
v -11.1 11.6 -3.8
v -11.1 11.6 -3.7
v -11.1 11.6 -3.3
v -11.2 11.6 -3.8
v -11.2 11.6 -3.7
v -11.2 11.6 -3.3
v -11.2 11.6 -2.9
v -11.3 11.6 -9.3
v -11.3 11.6 -9.2
v -11.3 11.6 -3.7
v -11.3 11.6 -3.2
v -11.4 11.6 -9.3
v -11.4 11.6 -8.8
v -11.4 11.6 -8
v -11.4 11.6 -4.5
v -11.4 11.6 -3.4
v -11.4 11.6 -3.2
v -11.4 11.6 -2.9
v -11.5 11.6 -9.6
v -11.5 11.6 -8.8
v -11.5 11.6 -8
v -11.5 11.6 -4.5
v -11.5 11.6 -3.4
v -11.5 11.6 -2.7

# faces
f 3/1/1 2/1/1 1/1/1
f 4/1/1 2/1/1 3/1/1
f 5/1/1 3/1/1 1/1/1
f 5/3/1 4/3/1 3/3/1
f 6/1/1 2/1/1 4/1/1
f 6/3/1 4/3/1 5/3/1
f 7/1/1 5/1/1 1/1/1
f 7/1/1 6/1/1 5/1/1
f 8/1/1 2/1/1 6/1/1
f 8/1/1 6/1/1 7/1/1
f 9/1/2 10/1/2 11/1/2
f 11/1/2 10/1/2 12/1/2
f 9/1/2 11/1/2 13/1/2
f 11/3/2 12/3/2 13/3/2
f 12/1/2 10/1/2 14/1/2
f 13/3/2 12/3/2 14/3/2
f 9/1/2 13/1/2 15/1/2
f 13/1/2 14/1/2 15/1/2
f 14/1/2 10/1/2 16/1/2
f 15/1/2 14/1/2 16/1/2
f 19/1/3 18/1/3 17/1/3
f 20/1/3 18/1/3 19/1/3
f 21/1/3 19/1/3 17/1/3
f 22/2/3 20/2/3 19/2/3
f 22/1/3 19/1/3 21/1/3
f 23/1/3 21/1/3 17/1/3
f 24/2/3 22/2/3 21/2/3
f 24/1/3 21/1/3 23/1/3
f 25/1/3 18/1/3 20/1/3
f 25/2/3 22/2/3 24/2/3
f 25/2/3 20/2/3 22/2/3
f 26/1/3 18/1/3 25/1/3
f 27/2/3 24/2/3 23/2/3
f 27/2/3 25/2/3 24/2/3
f 27/2/3 26/2/3 25/2/3
f 28/1/3 18/1/3 26/1/3
f 28/2/3 26/2/3 27/2/3
f 29/2/3 27/2/3 23/2/3
f 30/1/3 28/1/3 27/1/3
f 30/2/3 27/2/3 29/2/3
f 31/2/3 29/2/3 23/2/3
f 32/1/3 30/1/3 29/1/3
f 32/2/3 29/2/3 31/2/3
f 33/2/3 31/2/3 23/2/3
f 33/1/3 32/1/3 31/1/3
f 34/1/3 28/1/3 30/1/3
f 34/1/3 32/1/3 33/1/3
f 34/1/3 30/1/3 32/1/3
f 35/2/3 33/2/3 23/2/3
f 35/2/3 34/2/3 33/2/3
f 36/2/3 34/2/3 35/2/3
f 37/1/3 28/1/3 34/1/3
f 37/2/3 34/2/3 36/2/3
f 38/1/3 18/1/3 28/1/3
f 38/1/3 28/1/3 37/1/3
f 39/2/3 37/2/3 36/2/3
f 39/2/3 38/2/3 37/2/3
f 40/2/3 38/2/3 39/2/3
f 41/3/3 36/3/3 35/3/3
f 41/2/3 39/2/3 36/2/3
f 42/3/3 40/3/3 39/3/3
f 42/2/3 39/2/3 41/2/3
f 43/2/3 38/2/3 40/2/3
f 43/3/3 40/3/3 42/3/3
f 44/1/3 18/1/3 38/1/3
f 44/2/3 38/2/3 43/2/3
f 45/1/3 18/1/3 44/1/3
f 46/3/3 43/3/3 42/3/3
f 46/3/3 42/3/3 41/3/3
f 46/3/3 41/3/3 35/3/3
f 46/3/3 44/3/3 43/3/3
f 47/3/3 44/3/3 46/3/3
f 48/2/3 45/2/3 44/2/3
f 48/3/3 44/3/3 47/3/3
f 49/2/3 45/2/3 48/2/3
f 50/3/3 48/3/3 47/3/3
f 50/3/3 49/3/3 48/3/3
f 51/3/3 49/3/3 50/3/3
f 52/3/3 50/3/3 47/3/3
f 53/2/3 51/2/3 50/2/3
f 53/3/3 50/3/3 52/3/3
f 54/2/3 47/2/3 46/2/3
f 55/3/3 52/3/3 47/3/3
f 55/2/3 47/2/3 54/2/3
f 56/3/3 55/3/3 54/3/3
f 56/3/3 52/3/3 55/3/3
f 57/2/3 53/2/3 52/2/3
f 57/3/3 52/3/3 56/3/3
f 58/2/3 51/2/3 53/2/3
f 58/2/3 53/2/3 57/2/3
f 58/2/3 57/2/3 56/2/3
f 59/2/3 51/2/3 58/2/3
f 60/3/3 56/3/3 54/3/3
f 60/2/3 58/2/3 56/2/3
f 61/2/3 58/2/3 60/2/3
f 62/3/3 60/3/3 54/3/3
f 62/3/3 61/3/3 60/3/3
f 63/3/3 61/3/3 62/3/3
f 64/2/3 58/2/3 61/2/3
f 64/3/3 61/3/3 63/3/3
f 65/3/3 59/3/3 58/3/3
f 65/2/3 58/2/3 64/2/3
f 66/3/3 64/3/3 63/3/3
f 66/3/3 65/3/3 64/3/3
f 67/3/3 59/3/3 65/3/3
f 67/3/3 65/3/3 66/3/3
f 68/3/3 62/3/3 54/3/3
f 69/2/3 63/2/3 62/2/3
f 69/3/3 62/3/3 68/3/3
f 70/2/3 69/2/3 68/2/3
f 71/3/3 66/3/3 63/3/3
f 71/2/3 69/2/3 70/2/3
f 71/2/3 63/2/3 69/2/3
f 72/2/3 67/2/3 66/2/3
f 72/3/3 66/3/3 71/3/3
f 73/3/3 71/3/3 70/3/3
f 73/2/3 72/2/3 71/2/3
f 74/2/3 67/2/3 72/2/3
f 74/2/3 72/2/3 73/2/3
f 75/3/3 73/3/3 70/3/3
f 75/3/3 74/3/3 73/3/3
f 76/2/3 67/2/3 74/2/3
f 76/3/3 74/3/3 75/3/3
f 77/3/3 75/3/3 70/3/3
f 78/3/3 75/3/3 77/3/3
f 79/2/3 67/2/3 76/2/3
f 79/2/3 76/2/3 75/2/3
f 80/3/3 59/3/3 67/3/3
f 80/2/3 67/2/3 79/2/3
f 81/2/3 78/2/3 77/2/3
f 82/3/3 75/3/3 78/3/3
f 82/2/3 78/2/3 81/2/3
f 83/2/3 79/2/3 75/2/3
f 83/3/3 75/3/3 82/3/3
f 84/3/3 80/3/3 79/3/3
f 84/2/3 79/2/3 83/2/3
f 85/3/3 59/3/3 80/3/3
f 85/3/3 80/3/3 84/3/3
f 86/3/3 59/3/3 85/3/3
f 87/3/3 82/3/3 81/3/3
f 87/3/3 84/3/3 83/3/3
f 87/3/3 83/3/3 82/3/3
f 87/3/3 85/3/3 84/3/3
f 88/3/3 85/3/3 87/3/3
f 89/3/3 85/3/3 88/3/3
f 90/2/3 86/2/3 85/2/3
f 90/3/3 85/3/3 89/3/3
f 91/3/3 89/3/3 88/3/3
f 92/2/3 90/2/3 89/2/3
f 92/3/3 89/3/3 91/3/3
f 93/2/3 86/2/3 90/2/3
f 93/2/3 90/2/3 92/2/3
f 93/2/3 92/2/3 91/2/3
f 94/2/3 86/2/3 93/2/3
f 95/3/3 91/3/3 88/3/3
f 95/2/3 93/2/3 91/2/3
f 96/2/3 93/2/3 95/2/3
f 97/2/3 88/2/3 87/2/3
f 97/3/3 95/3/3 88/3/3
f 97/3/3 96/3/3 95/3/3
f 98/3/3 96/3/3 97/3/3
f 99/2/3 98/2/3 97/2/3
f 99/3/3 96/3/3 98/3/3
f 100/2/3 93/2/3 96/2/3
f 100/3/3 96/3/3 99/3/3
f 101/2/3 99/2/3 97/2/3
f 101/2/3 97/2/3 87/2/3
f 101/2/3 100/2/3 99/2/3
f 102/2/3 100/2/3 101/2/3
f 103/2/3 93/2/3 100/2/3
f 103/2/3 100/2/3 102/2/3
f 104/1/3 94/1/3 93/1/3
f 104/2/3 93/2/3 103/2/3
f 105/2/3 103/2/3 102/2/3
f 106/1/3 104/1/3 103/1/3
f 106/2/3 103/2/3 105/2/3
f 107/1/3 102/1/3 101/1/3
f 107/2/3 105/2/3 102/2/3
f 108/1/3 106/1/3 105/1/3
f 108/2/3 105/2/3 107/2/3
f 109/1/3 107/1/3 101/1/3
f 109/1/3 108/1/3 107/1/3
f 110/1/3 104/1/3 106/1/3
f 110/1/3 108/1/3 109/1/3
f 110/1/3 94/1/3 104/1/3
f 110/1/3 106/1/3 108/1/3
f 111/1/4 112/1/4 113/1/4
f 113/1/4 112/1/4 114/1/4
f 111/1/4 113/1/4 115/1/4
f 113/2/4 114/2/4 116/2/4
f 115/1/4 113/1/4 116/1/4
f 114/1/4 112/1/4 117/1/4
f 116/2/4 114/2/4 117/2/4
f 117/1/4 112/1/4 118/1/4
f 115/2/4 116/2/4 119/2/4
f 116/2/4 117/2/4 119/2/4
f 117/2/4 118/2/4 119/2/4
f 119/2/4 118/2/4 120/2/4
f 115/2/4 119/2/4 121/2/4
f 119/3/4 120/3/4 122/3/4
f 121/2/4 119/2/4 122/2/4
f 115/2/4 121/2/4 123/2/4
f 121/3/4 122/3/4 124/3/4
f 123/2/4 121/2/4 124/2/4
f 122/3/4 120/3/4 125/3/4
f 124/3/4 122/3/4 125/3/4
f 120/2/4 118/2/4 126/2/4
f 125/3/4 120/3/4 126/3/4
f 118/1/4 112/1/4 127/1/4
f 126/2/4 118/2/4 127/2/4
f 125/2/4 126/2/4 127/2/4
f 127/1/4 112/1/4 128/1/4
f 124/3/4 125/3/4 129/3/4
f 123/3/4 124/3/4 129/3/4
f 127/2/4 128/2/4 129/2/4
f 125/2/4 127/2/4 129/2/4
f 129/2/4 128/2/4 130/2/4
f 129/3/4 130/3/4 131/3/4
f 130/2/4 128/2/4 131/2/4
f 131/2/4 128/2/4 132/2/4
f 129/3/4 131/3/4 133/3/4
f 131/3/4 132/3/4 133/3/4
f 132/2/4 128/2/4 134/2/4
f 133/3/4 132/3/4 134/3/4
f 123/3/4 129/3/4 135/3/4
f 129/3/4 133/3/4 135/3/4
f 133/2/4 134/2/4 136/2/4
f 135/3/4 133/3/4 136/3/4
f 123/3/4 135/3/4 137/3/4
f 135/2/4 136/2/4 137/2/4
f 134/2/4 128/2/4 138/2/4
f 137/2/4 136/2/4 138/2/4
f 136/2/4 134/2/4 138/2/4
f 137/3/4 138/3/4 139/3/4
f 138/2/4 128/2/4 139/2/4
f 139/2/4 128/2/4 140/2/4
f 137/3/4 139/3/4 141/3/4
f 139/3/4 140/3/4 141/3/4
f 141/3/4 140/3/4 142/3/4
f 137/3/4 141/3/4 143/3/4
f 141/2/4 142/2/4 144/2/4
f 143/3/4 141/3/4 144/3/4
f 123/3/4 137/3/4 145/3/4
f 137/3/4 143/3/4 145/3/4
f 145/3/4 143/3/4 146/3/4
f 146/3/4 143/3/4 147/3/4
f 143/2/4 144/2/4 148/2/4
f 147/3/4 143/3/4 148/3/4
f 146/3/4 147/3/4 149/3/4
f 145/2/4 146/2/4 149/2/4
f 147/2/4 148/2/4 150/2/4
f 149/3/4 147/3/4 150/3/4
f 144/2/4 142/2/4 151/2/4
f 150/2/4 148/2/4 151/2/4
f 149/2/4 150/2/4 151/2/4
f 148/2/4 144/2/4 151/2/4
f 151/2/4 142/2/4 152/2/4
f 145/2/4 149/2/4 153/2/4
f 149/2/4 151/2/4 153/2/4
f 153/2/4 151/2/4 154/2/4
f 153/1/4 154/1/4 155/1/4
f 154/2/4 151/2/4 155/2/4
f 155/2/4 151/2/4 156/2/4
f 155/1/4 156/1/4 157/1/4
f 156/2/4 151/2/4 157/2/4
f 151/1/4 152/1/4 158/1/4
f 157/2/4 151/2/4 158/2/4
f 155/1/4 157/1/4 159/1/4
f 153/1/4 155/1/4 159/1/4
f 157/1/4 158/1/4 159/1/4
f 158/1/4 152/1/4 160/1/4
f 159/1/4 158/1/4 160/1/4
f 173/1/5 162/1/5 161/1/5
f 174/2/5 163/2/5 162/2/5
f 174/1/5 162/1/5 173/1/5
f 175/2/5 163/2/5 174/2/5
f 176/3/5 164/3/5 163/3/5
f 176/2/5 163/2/5 175/2/5
f 177/2/5 165/2/5 164/2/5
f 177/3/5 164/3/5 176/3/5
f 178/2/5 165/2/5 177/2/5
f 179/3/5 166/3/5 165/3/5
f 179/2/5 165/2/5 178/2/5
f 180/3/5 166/3/5 179/3/5
f 181/2/5 167/2/5 166/2/5
f 181/3/5 166/3/5 180/3/5
f 182/3/5 168/3/5 167/3/5
f 182/2/5 167/2/5 181/2/5
f 183/3/5 170/3/5 169/3/5
f 183/2/5 171/2/5 170/2/5
f 184/2/5 171/2/5 183/2/5
f 185/1/5 172/1/5 171/1/5
f 185/2/5 171/2/5 184/2/5
f 186/1/5 172/1/5 185/1/5
f 187/1/5 173/1/5 161/1/5
f 188/2/5 175/2/5 174/2/5
f 188/1/5 173/1/5 187/1/5
f 188/2/5 174/2/5 173/2/5
f 189/2/5 175/2/5 188/2/5
f 190/2/5 175/2/5 189/2/5
f 191/3/5 176/3/5 175/3/5
f 191/2/5 175/2/5 190/2/5
f 191/3/5 178/3/5 177/3/5
f 191/3/5 177/3/5 176/3/5
f 192/3/5 178/3/5 191/3/5
f 193/2/5 180/2/5 179/2/5
f 193/3/5 178/3/5 192/3/5
f 193/2/5 179/2/5 178/2/5
f 194/2/5 180/2/5 193/2/5
f 195/3/5 181/3/5 180/3/5
f 195/2/5 180/2/5 194/2/5
f 195/3/5 182/3/5 181/3/5
f 196/3/5 182/3/5 195/3/5
f 197/3/5 182/3/5 196/3/5
f 198/3/5 168/3/5 182/3/5
f 198/3/5 182/3/5 197/3/5
f 199/2/5 169/2/5 168/2/5
f 199/3/5 168/3/5 198/3/5
f 200/3/5 184/3/5 183/3/5
f 200/2/5 169/2/5 199/2/5
f 200/3/5 183/3/5 169/3/5
f 201/2/5 186/2/5 185/2/5
f 201/3/5 184/3/5 200/3/5
f 201/2/5 185/2/5 184/2/5
f 202/2/5 186/2/5 201/2/5
f 203/1/5 172/1/5 186/1/5
f 203/2/5 186/2/5 202/2/5
f 204/1/5 172/1/5 203/1/5
f 205/1/5 187/1/5 161/1/5
f 205/2/5 189/2/5 188/2/5
f 205/2/5 188/2/5 187/2/5
f 206/1/5 190/1/5 189/1/5
f 206/2/5 189/2/5 205/2/5
f 207/1/5 190/1/5 206/1/5
f 208/2/5 192/2/5 191/2/5
f 208/1/5 190/1/5 207/1/5
f 208/2/5 191/2/5 190/2/5
f 209/3/5 194/3/5 193/3/5
f 209/3/5 193/3/5 192/3/5
f 209/2/5 196/2/5 195/2/5
f 209/2/5 195/2/5 194/2/5
f 210/2/5 196/2/5 209/2/5
f 211/2/5 196/2/5 210/2/5
f 212/3/5 197/3/5 196/3/5
f 212/2/5 196/2/5 211/2/5
f 213/2/5 198/2/5 197/2/5
f 213/3/5 197/3/5 212/3/5
f 214/3/5 199/3/5 198/3/5
f 214/2/5 198/2/5 213/2/5
f 214/3/5 202/3/5 201/3/5
f 214/3/5 200/3/5 199/3/5
f 214/3/5 201/3/5 200/3/5
f 215/3/5 202/3/5 214/3/5
f 216/2/5 204/2/5 203/2/5
f 216/3/5 202/3/5 215/3/5
f 216/2/5 203/2/5 202/2/5
f 217/1/5 172/1/5 204/1/5
f 217/2/5 204/2/5 216/2/5
f 218/1/5 172/1/5 217/1/5
f 219/1/5 207/1/5 206/1/5
f 219/1/5 206/1/5 205/1/5
f 220/2/5 208/2/5 207/2/5
f 220/1/5 207/1/5 219/1/5
f 221/2/5 208/2/5 220/2/5
f 222/3/5 210/3/5 209/3/5
f 222/2/5 208/2/5 221/2/5
f 222/2/5 192/2/5 208/2/5
f 222/3/5 209/3/5 192/3/5
f 223/2/5 211/2/5 210/2/5
f 223/3/5 210/3/5 222/3/5
f 224/3/5 213/3/5 212/3/5
f 224/2/5 211/2/5 223/2/5
f 224/3/5 215/3/5 214/3/5
f 224/3/5 212/3/5 211/3/5
f 224/3/5 214/3/5 213/3/5
f 225/3/5 215/3/5 224/3/5
f 226/2/5 216/2/5 215/2/5
f 226/3/5 215/3/5 225/3/5
f 226/2/5 218/2/5 217/2/5
f 226/2/5 217/2/5 216/2/5
f 227/2/5 218/2/5 226/2/5
f 228/1/5 172/1/5 218/1/5
f 228/2/5 218/2/5 227/2/5
f 229/1/5 205/1/5 161/1/5
f 229/1/5 219/1/5 205/1/5
f 230/2/5 221/2/5 220/2/5
f 230/1/5 219/1/5 229/1/5
f 230/2/5 220/2/5 219/2/5
f 231/3/5 223/3/5 222/3/5
f 231/2/5 221/2/5 230/2/5
f 231/3/5 225/3/5 224/3/5
f 231/3/5 222/3/5 221/3/5
f 231/3/5 224/3/5 223/3/5
f 232/2/5 226/2/5 225/2/5
f 232/3/5 225/3/5 231/3/5
f 232/2/5 227/2/5 226/2/5
f 233/1/5 228/1/5 227/1/5
f 233/2/5 227/2/5 232/2/5
f 234/1/5 172/1/5 228/1/5
f 234/1/5 228/1/5 233/1/5
f 235/1/6 236/1/6 243/1/6
f 236/2/6 237/2/6 244/2/6
f 243/1/6 236/1/6 244/1/6
f 237/3/6 238/3/6 245/3/6
f 244/2/6 237/2/6 245/2/6
f 238/2/6 239/2/6 246/2/6
f 245/3/6 238/3/6 246/3/6
f 239/3/6 240/3/6 247/3/6
f 246/2/6 239/2/6 247/2/6
f 240/2/6 241/2/6 248/2/6
f 247/3/6 240/3/6 248/3/6
f 248/2/6 241/2/6 249/2/6
f 241/1/6 242/1/6 250/1/6
f 249/2/6 241/2/6 250/2/6
f 250/1/6 242/1/6 251/1/6
f 248/3/6 249/3/6 252/3/6
f 243/3/6 244/3/6 252/3/6
f 250/2/6 251/2/6 252/2/6
f 249/2/6 250/2/6 252/2/6
f 247/3/6 248/3/6 252/3/6
f 246/3/6 247/3/6 252/3/6
f 245/3/6 246/3/6 252/3/6
f 244/3/6 245/3/6 252/3/6
f 252/2/6 251/2/6 253/2/6
f 251/1/6 242/1/6 254/1/6
f 253/2/6 251/2/6 254/2/6
f 254/1/6 242/1/6 255/1/6
f 235/1/6 243/1/6 256/1/6
f 252/3/6 253/3/6 257/3/6
f 256/1/6 243/1/6 257/1/6
f 243/3/6 252/3/6 257/3/6
f 254/2/6 255/2/6 258/2/6
f 257/3/6 253/3/6 258/3/6
f 253/2/6 254/2/6 258/2/6
f 258/2/6 255/2/6 259/2/6
f 235/1/6 256/1/6 260/1/6
f 256/3/6 257/3/6 260/3/6
f 258/3/6 259/3/6 260/3/6
f 257/3/6 258/3/6 260/3/6
f 260/3/6 259/3/6 261/3/6
f 261/3/6 259/3/6 262/3/6
f 262/3/6 259/3/6 263/3/6
f 263/3/6 259/3/6 264/3/6
f 259/2/6 255/2/6 265/2/6
f 264/3/6 259/3/6 265/3/6
f 255/1/6 242/1/6 266/1/6
f 265/2/6 255/2/6 266/2/6
f 235/1/6 260/1/6 267/1/6
f 260/1/6 261/1/6 267/1/6
f 261/2/6 262/2/6 268/2/6
f 267/1/6 261/1/6 268/1/6
f 262/3/6 263/3/6 269/3/6
f 268/2/6 262/2/6 269/2/6
f 263/2/6 264/2/6 270/2/6
f 269/3/6 263/3/6 270/3/6
f 264/1/6 265/1/6 271/1/6
f 270/2/6 264/2/6 271/2/6
f 265/1/6 266/1/6 271/1/6
f 266/1/6 242/1/6 272/1/6
f 271/1/6 266/1/6 272/1/6
