# MagicaVoxel @ Ephtracy

# group
o 

# material
mtllib untitled2-151.mtl
usemtl palette

# normals
vn 1 0 0
vn -1 0 0
vn 0 0 -1
vn 0 0 1
vn 0 -1 0
vn 0 1 0

# texcoords
vt 0.927734 0.5
vt 0.939453 0.5
vt 0.962891 0.5

# verts
v 23.7 0.8 -11.1
v 23.7 0.8 -10.7
v 23.7 0.8 -10.6
v 23.7 13.3 -11.1
v 23.7 13.3 -10.7
v 23.7 13.3 -10.6
v 19 0.8 -11.1
v 19 0.8 -10.7
v 19 0.8 -10.6
v 19 5.9 -10.7
v 19 5.9 -10.6
v 19 6.1 -11.1
v 19 6.1 -10.7
v 19 6.1 -10.6
v 18.5 6.1 -11.1
v 18.5 6.1 -10.7
v 18.5 6.1 -10.6
v 18.5 13.3 -11.1
v 18.5 13.3 -10.7
v 18.5 13.3 -10.6
v 23.7 0.8 -11.1
v 23.7 13.3 -11.1
v 19 0.8 -11.1
v 19 6.1 -11.1
v 18.5 6.1 -11.1
v 18.5 13.3 -11.1
v 23.7 0.8 -10.6
v 23.7 13.3 -10.6
v 21.7 0.8 -10.6
v 21.7 1.6 -10.6
v 21.7 7.8 -10.6
v 21.7 8.3 -10.6
v 21.7 9.6 -10.6
v 21.7 10.2 -10.6
v 21.7 10.8 -10.6
v 21.7 11.4 -10.6
v 21.6 1.1 -10.6
v 21.6 1.6 -10.6
v 21.6 2 -10.6
v 21.6 2.3 -10.6
v 21.6 2.5 -10.6
v 21.6 2.6 -10.6
v 21.6 8 -10.6
v 21.6 8.3 -10.6
v 21.6 9.2 -10.6
v 21.6 9.5 -10.6
v 21.6 9.8 -10.6
v 21.6 10.2 -10.6
v 21.6 10.8 -10.6
v 21.6 11 -10.6
v 21.5 1.1 -10.6
v 21.5 1.3 -10.6
v 21.5 2 -10.6
v 21.5 2.3 -10.6
v 21.5 2.5 -10.6
v 21.5 2.6 -10.6
v 21.5 2.7 -10.6
v 21.5 2.8 -10.6
v 21.5 3 -10.6
v 21.5 9.2 -10.6
v 21.5 9.3 -10.6
v 21.5 9.5 -10.6
v 21.5 9.6 -10.6
v 21.5 9.8 -10.6
v 21.5 9.9 -10.6
v 21.5 11 -10.6
v 21.5 11.1 -10.6
v 21.4 1.3 -10.6
v 21.4 1.7 -10.6
v 21.4 2.3 -10.6
v 21.4 2.5 -10.6
v 21.4 2.6 -10.6
v 21.4 2.7 -10.6
v 21.4 2.8 -10.6
v 21.4 2.9 -10.6
v 21.4 3 -10.6
v 21.4 7.6 -10.6
v 21.4 7.8 -10.6
v 21.4 8 -10.6
v 21.4 8.2 -10.6
v 21.4 9.3 -10.6
v 21.4 9.5 -10.6
v 21.4 9.9 -10.6
v 21.4 10.1 -10.6
v 21.4 10.9 -10.6
v 21.4 11.1 -10.6
v 21.4 11.4 -10.6
v 21.4 11.5 -10.6
v 21.3 1.7 -10.6
v 21.3 1.8 -10.6
v 21.3 2.5 -10.6
v 21.3 2.6 -10.6
v 21.3 2.9 -10.6
v 21.3 3 -10.6
v 21.3 7.6 -10.6
v 21.3 7.8 -10.6
v 21.3 8.1 -10.6
v 21.3 8.2 -10.6
v 21.3 9.3 -10.6
v 21.3 9.4 -10.6
v 21.3 9.9 -10.6
v 21.3 10.1 -10.6
v 21.3 10.9 -10.6
v 21.3 11 -10.6
v 21.2 1.5 -10.6
v 21.2 1.8 -10.6
v 21.2 2.5 -10.6
v 21.2 2.6 -10.6
v 21.2 7.7 -10.6
v 21.2 7.8 -10.6
v 21.2 8 -10.6
v 21.2 8.1 -10.6
v 21.2 9.3 -10.6
v 21.2 9.4 -10.6
v 21.2 9.5 -10.6
v 21.2 9.8 -10.6
v 21.2 9.9 -10.6
v 21.2 11.5 -10.6
v 21.2 11.6 -10.6
v 21.1 1.1 -10.6
v 21.1 1.5 -10.6
v 21.1 2.5 -10.6
v 21.1 2.6 -10.6
v 21.1 2.7 -10.6
v 21.1 3 -10.6
v 21.1 7.7 -10.6
v 21.1 7.8 -10.6
v 21.1 8 -10.6
v 21.1 8.3 -10.6
v 21.1 9.4 -10.6
v 21.1 9.5 -10.6
v 21.1 9.8 -10.6
v 21.1 9.9 -10.6
v 21.1 10.7 -10.6
v 21.1 11 -10.6
v 21.1 11.1 -10.6
v 21.1 11.3 -10.6
v 21 2.6 -10.6
v 21 2.7 -10.6
v 21 7.8 -10.6
v 21 7.9 -10.6
v 21 8 -10.6
v 21 8.3 -10.6
v 21 9.5 -10.6
v 21 9.8 -10.6
v 21 9.9 -10.6
v 21 10.1 -10.6
v 21 10.7 -10.6
v 21 11.1 -10.6
v 21 11.5 -10.6
v 21 11.6 -10.6
v 20.9 1.1 -10.6
v 20.9 1.2 -10.6
v 20.9 7.8 -10.6
v 20.9 7.9 -10.6
v 20.9 8 -10.6
v 20.9 8.2 -10.6
v 20.9 9.9 -10.6
v 20.9 10.1 -10.6
v 20.8 0.8 -10.6
v 20.8 1.2 -10.6
v 20.8 7.8 -10.6
v 20.8 8.2 -10.6
v 20.8 9.8 -10.6
v 20.8 9.9 -10.6
v 20.7 10.9 -10.6
v 20.7 11.2 -10.6
v 20.7 11.4 -10.6
v 20.7 11.5 -10.6
v 20.6 10.9 -10.6
v 20.6 11.1 -10.6
v 20.6 11.2 -10.6
v 20.6 11.3 -10.6
v 20.5 11.1 -10.6
v 20.5 11.3 -10.6
v 20.4 11.1 -10.6
v 20.4 11.3 -10.6
v 20.3 11.1 -10.6
v 20.3 11.4 -10.6
v 20.2 11 -10.6
v 20.2 11.4 -10.6
v 20.1 11 -10.6
v 20.1 11.4 -10.6
v 20 10.8 -10.6
v 20 10.9 -10.6
v 20 11.2 -10.6
v 20 11.3 -10.6
v 19.9 10.8 -10.6
v 19.9 10.9 -10.6
v 19.9 11.2 -10.6
v 19.9 11.3 -10.6
v 19.4 6 -10.6
v 19.4 6.6 -10.6
v 19.3 5.8 -10.6
v 19.3 6 -10.6
v 19.3 6.2 -10.6
v 19.3 6.6 -10.6
v 19.2 5.7 -10.6
v 19.2 5.8 -10.6
v 19.2 6.2 -10.6
v 19.2 6.4 -10.6
v 19.2 8.7 -10.6
v 19.2 9.2 -10.6
v 19.1 5.7 -10.6
v 19.1 5.9 -10.6
v 19.1 6.3 -10.6
v 19.1 6.4 -10.6
v 19.1 8.7 -10.6
v 19.1 8.8 -10.6
v 19.1 9 -10.6
v 19.1 9.2 -10.6
v 19 0.8 -10.6
v 19 5.9 -10.6
v 19 6.1 -10.6
v 19 6.3 -10.6
v 19 6.4 -10.6
v 19 6.5 -10.6
v 19 6.7 -10.6
v 19 9 -10.6
v 19 9.4 -10.6
v 18.9 6.4 -10.6
v 18.9 6.5 -10.6
v 18.9 6.6 -10.6
v 18.9 6.7 -10.6
v 18.9 8.5 -10.6
v 18.9 8.8 -10.6
v 18.9 9.1 -10.6
v 18.9 9.4 -10.6
v 18.8 6.3 -10.6
v 18.8 6.6 -10.6
v 18.8 8.5 -10.6
v 18.8 8.7 -10.6
v 18.7 6.1 -10.6
v 18.7 6.3 -10.6
v 18.7 8.7 -10.6
v 18.7 8.8 -10.6
v 18.7 9.1 -10.6
v 18.7 9.2 -10.6
v 18.6 8.8 -10.6
v 18.6 9.2 -10.6
v 18.5 6.1 -10.6
v 18.5 13.3 -10.6
v 23.7 0.8 -11.1
v 19 0.8 -11.1
v 23.7 0.8 -10.7
v 21.7 0.8 -10.7
v 20.8 0.8 -10.7
v 19 0.8 -10.7
v 23.7 0.8 -10.6
v 21.7 0.8 -10.6
v 20.8 0.8 -10.6
v 19 0.8 -10.6
v 19 6.1 -11.1
v 18.5 6.1 -11.1
v 19 6.1 -10.7
v 18.7 6.1 -10.7
v 18.5 6.1 -10.7
v 19 6.1 -10.6
v 18.7 6.1 -10.6
v 18.5 6.1 -10.6
v 23.7 13.3 -11.1
v 18.5 13.3 -11.1
v 23.7 13.3 -10.7
v 18.5 13.3 -10.7
v 23.7 13.3 -10.6
v 18.5 13.3 -10.6

# faces
f 4/1/1 2/1/1 1/1/1
f 5/2/1 3/2/1 2/2/1
f 5/1/1 2/1/1 4/1/1
f 6/2/1 3/2/1 5/2/1
f 7/1/2 8/1/2 10/1/2
f 8/2/2 9/2/2 10/2/2
f 10/2/2 9/2/2 11/2/2
f 7/1/2 10/1/2 12/1/2
f 10/3/2 11/3/2 13/3/2
f 12/1/2 10/1/2 13/1/2
f 13/3/2 11/3/2 14/3/2
f 15/1/2 16/1/2 18/1/2
f 16/2/2 17/2/2 19/2/2
f 18/1/2 16/1/2 19/1/2
f 19/2/2 17/2/2 20/2/2
f 23/1/3 22/1/3 21/1/3
f 24/1/3 22/1/3 23/1/3
f 25/1/3 22/1/3 24/1/3
f 26/1/3 22/1/3 25/1/3
f 27/2/4 28/2/4 29/2/4
f 29/2/4 28/2/4 30/2/4
f 30/2/4 28/2/4 31/2/4
f 31/2/4 28/2/4 32/2/4
f 32/2/4 28/2/4 33/2/4
f 33/2/4 28/2/4 34/2/4
f 34/2/4 28/2/4 35/2/4
f 35/2/4 28/2/4 36/2/4
f 29/3/4 30/3/4 37/3/4
f 30/2/4 31/2/4 38/2/4
f 37/3/4 30/3/4 38/3/4
f 38/2/4 31/2/4 39/2/4
f 39/2/4 31/2/4 40/2/4
f 40/2/4 31/2/4 41/2/4
f 41/2/4 31/2/4 42/2/4
f 31/3/4 32/3/4 43/3/4
f 32/2/4 33/2/4 44/2/4
f 43/3/4 32/3/4 44/3/4
f 44/2/4 33/2/4 45/2/4
f 45/2/4 33/2/4 46/2/4
f 33/3/4 34/3/4 47/3/4
f 34/2/4 35/2/4 48/2/4
f 47/3/4 34/3/4 48/3/4
f 35/3/4 36/3/4 49/3/4
f 48/2/4 35/2/4 49/2/4
f 49/3/4 36/3/4 50/3/4
f 29/3/4 37/3/4 51/3/4
f 37/2/4 38/2/4 51/2/4
f 38/2/4 39/2/4 51/2/4
f 51/2/4 39/2/4 52/2/4
f 39/3/4 40/3/4 53/3/4
f 52/2/4 39/2/4 53/2/4
f 40/2/4 41/2/4 54/2/4
f 53/3/4 40/3/4 54/3/4
f 41/3/4 42/3/4 55/3/4
f 54/2/4 41/2/4 55/2/4
f 42/2/4 31/2/4 56/2/4
f 55/3/4 42/3/4 56/3/4
f 56/2/4 31/2/4 57/2/4
f 57/2/4 31/2/4 58/2/4
f 58/2/4 31/2/4 59/2/4
f 43/2/4 44/2/4 60/2/4
f 44/2/4 45/2/4 60/2/4
f 45/3/4 46/3/4 60/3/4
f 60/3/4 46/3/4 61/3/4
f 46/2/4 33/2/4 62/2/4
f 61/3/4 46/3/4 62/3/4
f 33/3/4 47/3/4 63/3/4
f 62/2/4 33/2/4 63/2/4
f 47/2/4 48/2/4 64/2/4
f 63/3/4 47/3/4 64/3/4
f 49/2/4 50/2/4 64/2/4
f 48/2/4 49/2/4 64/2/4
f 64/2/4 50/2/4 65/2/4
f 50/3/4 36/3/4 66/3/4
f 65/2/4 50/2/4 66/2/4
f 66/3/4 36/3/4 67/3/4
f 51/3/4 52/3/4 68/3/4
f 52/2/4 53/2/4 68/2/4
f 53/2/4 54/2/4 68/2/4
f 68/2/4 54/2/4 69/2/4
f 54/3/4 55/3/4 70/3/4
f 69/2/4 54/2/4 70/2/4
f 55/2/4 56/2/4 71/2/4
f 70/3/4 55/3/4 71/3/4
f 56/3/4 57/3/4 72/3/4
f 71/2/4 56/2/4 72/2/4
f 57/2/4 58/2/4 73/2/4
f 72/3/4 57/3/4 73/3/4
f 58/3/4 59/3/4 74/3/4
f 73/2/4 58/2/4 74/2/4
f 74/3/4 59/3/4 75/3/4
f 59/2/4 31/2/4 76/2/4
f 75/3/4 59/3/4 76/3/4
f 76/2/4 31/2/4 77/2/4
f 31/3/4 43/3/4 78/3/4
f 77/2/4 31/2/4 78/2/4
f 60/2/4 61/2/4 79/2/4
f 78/3/4 43/3/4 79/3/4
f 43/2/4 60/2/4 79/2/4
f 79/2/4 61/2/4 80/2/4
f 64/3/4 65/3/4 81/3/4
f 80/2/4 61/2/4 81/2/4
f 61/3/4 62/3/4 81/3/4
f 62/3/4 63/3/4 81/3/4
f 63/3/4 64/3/4 81/3/4
f 81/3/4 65/3/4 82/3/4
f 66/2/4 67/2/4 83/2/4
f 82/3/4 65/3/4 83/3/4
f 65/2/4 66/2/4 83/2/4
f 83/2/4 67/2/4 84/2/4
f 84/2/4 67/2/4 85/2/4
f 67/3/4 36/3/4 86/3/4
f 85/2/4 67/2/4 86/2/4
f 36/2/4 28/2/4 87/2/4
f 86/3/4 36/3/4 87/3/4
f 87/2/4 28/2/4 88/2/4
f 68/3/4 69/3/4 89/3/4
f 70/2/4 71/2/4 89/2/4
f 69/2/4 70/2/4 89/2/4
f 89/2/4 71/2/4 90/2/4
f 73/3/4 74/3/4 91/3/4
f 90/2/4 71/2/4 91/2/4
f 74/3/4 75/3/4 91/3/4
f 72/3/4 73/3/4 91/3/4
f 71/3/4 72/3/4 91/3/4
f 91/3/4 75/3/4 92/3/4
f 76/2/4 77/2/4 93/2/4
f 92/3/4 75/3/4 93/3/4
f 75/2/4 76/2/4 93/2/4
f 93/2/4 77/2/4 94/2/4
f 79/3/4 80/3/4 95/3/4
f 94/2/4 77/2/4 95/2/4
f 77/3/4 78/3/4 95/3/4
f 78/3/4 79/3/4 95/3/4
f 95/3/4 80/3/4 96/3/4
f 96/3/4 80/3/4 97/3/4
f 81/2/4 82/2/4 98/2/4
f 97/3/4 80/3/4 98/3/4
f 80/2/4 81/2/4 98/2/4
f 98/2/4 82/2/4 99/2/4
f 99/2/4 82/2/4 100/2/4
f 83/3/4 84/3/4 101/3/4
f 82/3/4 83/3/4 101/3/4
f 84/2/4 85/2/4 102/2/4
f 101/3/4 84/3/4 102/3/4
f 85/3/4 86/3/4 103/3/4
f 102/2/4 85/2/4 103/2/4
f 87/3/4 88/3/4 103/3/4
f 86/3/4 87/3/4 103/3/4
f 103/3/4 88/3/4 104/3/4
f 89/3/4 90/3/4 105/3/4
f 68/3/4 89/3/4 105/3/4
f 91/2/4 92/2/4 106/2/4
f 105/3/4 90/3/4 106/3/4
f 90/2/4 91/2/4 106/2/4
f 106/2/4 92/2/4 107/2/4
f 93/3/4 94/3/4 108/3/4
f 107/2/4 92/2/4 108/2/4
f 92/3/4 93/3/4 108/3/4
f 95/2/4 96/2/4 109/2/4
f 94/2/4 95/2/4 109/2/4
f 96/3/4 97/3/4 110/3/4
f 109/2/4 96/2/4 110/2/4
f 110/3/4 97/3/4 111/3/4
f 98/2/4 99/2/4 112/2/4
f 111/3/4 97/3/4 112/3/4
f 97/2/4 98/2/4 112/2/4
f 99/3/4 100/3/4 113/3/4
f 112/2/4 99/2/4 113/2/4
f 100/2/4 82/2/4 114/2/4
f 113/3/4 100/3/4 114/3/4
f 82/3/4 101/3/4 115/3/4
f 114/2/4 82/2/4 115/2/4
f 115/3/4 101/3/4 116/3/4
f 101/2/4 102/2/4 117/2/4
f 116/3/4 101/3/4 117/3/4
f 102/2/4 103/2/4 117/2/4
f 103/2/4 104/2/4 117/2/4
f 88/2/4 28/2/4 118/2/4
f 104/3/4 88/3/4 118/3/4
f 118/2/4 28/2/4 119/2/4
f 68/3/4 105/3/4 120/3/4
f 51/3/4 68/3/4 120/3/4
f 29/3/4 51/3/4 120/3/4
f 106/2/4 107/2/4 121/2/4
f 120/3/4 105/3/4 121/3/4
f 105/2/4 106/2/4 121/2/4
f 107/3/4 108/3/4 122/3/4
f 121/2/4 107/2/4 122/2/4
f 108/3/4 94/3/4 123/3/4
f 122/3/4 108/3/4 123/3/4
f 123/3/4 94/3/4 124/3/4
f 94/2/4 109/2/4 125/2/4
f 124/3/4 94/3/4 125/3/4
f 109/3/4 110/3/4 126/3/4
f 125/2/4 109/2/4 126/2/4
f 110/3/4 111/3/4 126/3/4
f 126/3/4 111/3/4 127/3/4
f 113/2/4 114/2/4 128/2/4
f 127/3/4 111/3/4 128/3/4
f 112/2/4 113/2/4 128/2/4
f 111/2/4 112/2/4 128/2/4
f 128/2/4 114/2/4 129/2/4
f 115/3/4 116/3/4 130/3/4
f 129/2/4 114/2/4 130/2/4
f 114/3/4 115/3/4 130/3/4
f 130/3/4 116/3/4 131/3/4
f 116/2/4 117/2/4 132/2/4
f 131/3/4 116/3/4 132/3/4
f 117/2/4 104/2/4 133/2/4
f 132/2/4 117/2/4 133/2/4
f 133/2/4 104/2/4 134/2/4
f 118/3/4 119/3/4 135/3/4
f 134/2/4 104/2/4 135/2/4
f 104/3/4 118/3/4 135/3/4
f 135/3/4 119/3/4 136/3/4
f 136/3/4 119/3/4 137/3/4
f 122/2/4 123/2/4 138/2/4
f 123/3/4 124/3/4 138/3/4
f 121/2/4 122/2/4 138/2/4
f 120/2/4 121/2/4 138/2/4
f 124/2/4 125/2/4 139/2/4
f 138/3/4 124/3/4 139/3/4
f 126/2/4 127/2/4 139/2/4
f 125/2/4 126/2/4 139/2/4
f 128/3/4 129/3/4 140/3/4
f 139/2/4 127/2/4 140/2/4
f 127/3/4 128/3/4 140/3/4
f 140/3/4 129/3/4 141/3/4
f 141/3/4 129/3/4 142/3/4
f 130/2/4 131/2/4 143/2/4
f 142/3/4 129/3/4 143/3/4
f 129/2/4 130/2/4 143/2/4
f 131/3/4 132/3/4 144/3/4
f 143/2/4 131/2/4 144/2/4
f 132/3/4 133/3/4 144/3/4
f 144/3/4 133/3/4 145/3/4
f 133/2/4 134/2/4 146/2/4
f 145/3/4 133/3/4 146/3/4
f 146/2/4 134/2/4 147/2/4
f 135/3/4 136/3/4 148/3/4
f 147/2/4 134/2/4 148/2/4
f 134/3/4 135/3/4 148/3/4
f 136/2/4 137/2/4 149/2/4
f 148/3/4 136/3/4 149/3/4
f 137/3/4 119/3/4 150/3/4
f 119/2/4 28/2/4 151/2/4
f 150/3/4 119/3/4 151/3/4
f 138/2/4 139/2/4 152/2/4
f 29/3/4 120/3/4 152/3/4
f 120/2/4 138/2/4 152/2/4
f 139/2/4 140/2/4 152/2/4
f 140/2/4 141/2/4 152/2/4
f 152/2/4 141/2/4 153/2/4
f 153/2/4 141/2/4 154/2/4
f 141/3/4 142/3/4 155/3/4
f 154/2/4 141/2/4 155/2/4
f 142/2/4 143/2/4 156/2/4
f 155/3/4 142/3/4 156/3/4
f 144/2/4 145/2/4 156/2/4
f 143/2/4 144/2/4 156/2/4
f 156/2/4 145/2/4 157/2/4
f 145/3/4 146/3/4 158/3/4
f 146/3/4 147/3/4 158/3/4
f 148/2/4 149/2/4 159/2/4
f 158/3/4 147/3/4 159/3/4
f 147/2/4 148/2/4 159/2/4
f 152/3/4 153/3/4 160/3/4
f 29/3/4 152/3/4 160/3/4
f 153/2/4 154/2/4 161/2/4
f 160/3/4 153/3/4 161/3/4
f 154/3/4 155/3/4 162/3/4
f 161/2/4 154/2/4 162/2/4
f 155/3/4 156/3/4 162/3/4
f 156/3/4 157/3/4 162/3/4
f 157/2/4 145/2/4 163/2/4
f 162/3/4 157/3/4 163/3/4
f 145/3/4 158/3/4 164/3/4
f 163/2/4 145/2/4 164/2/4
f 158/2/4 159/2/4 165/2/4
f 164/3/4 158/3/4 165/3/4
f 160/2/4 161/2/4 166/2/4
f 165/2/4 159/2/4 166/2/4
f 164/2/4 165/2/4 166/2/4
f 161/2/4 162/2/4 166/2/4
f 162/2/4 163/2/4 166/2/4
f 163/2/4 164/2/4 166/2/4
f 159/2/4 149/2/4 166/2/4
f 149/2/4 137/2/4 167/2/4
f 166/2/4 149/2/4 167/2/4
f 137/3/4 150/3/4 168/3/4
f 150/2/4 151/2/4 169/2/4
f 168/3/4 150/3/4 169/3/4
f 160/2/4 166/2/4 170/2/4
f 166/3/4 167/3/4 170/3/4
f 170/3/4 167/3/4 171/3/4
f 167/2/4 137/2/4 172/2/4
f 171/3/4 167/3/4 172/3/4
f 137/3/4 168/3/4 173/3/4
f 172/2/4 137/2/4 173/2/4
f 171/3/4 172/3/4 174/3/4
f 170/2/4 171/2/4 174/2/4
f 172/3/4 173/3/4 174/3/4
f 173/3/4 168/3/4 175/3/4
f 174/3/4 173/3/4 175/3/4
f 170/2/4 174/2/4 176/2/4
f 174/2/4 175/2/4 176/2/4
f 175/3/4 168/3/4 177/3/4
f 176/2/4 175/2/4 177/2/4
f 170/2/4 176/2/4 178/2/4
f 176/3/4 177/3/4 178/3/4
f 177/3/4 168/3/4 179/3/4
f 178/3/4 177/3/4 179/3/4
f 168/2/4 169/2/4 179/2/4
f 170/2/4 178/2/4 180/2/4
f 178/2/4 179/2/4 180/2/4
f 179/2/4 169/2/4 181/2/4
f 180/2/4 179/2/4 181/2/4
f 170/2/4 180/2/4 182/2/4
f 180/3/4 181/3/4 182/3/4
f 181/2/4 169/2/4 183/2/4
f 182/3/4 181/3/4 183/3/4
f 170/2/4 182/2/4 184/2/4
f 160/2/4 170/2/4 184/2/4
f 182/2/4 183/2/4 184/2/4
f 184/2/4 183/2/4 185/2/4
f 185/2/4 183/2/4 186/2/4
f 186/2/4 183/2/4 187/2/4
f 160/2/4 184/2/4 188/2/4
f 184/3/4 185/3/4 188/3/4
f 185/2/4 186/2/4 189/2/4
f 188/3/4 185/3/4 189/3/4
f 186/3/4 187/3/4 190/3/4
f 189/2/4 186/2/4 190/2/4
f 187/2/4 183/2/4 191/2/4
f 190/3/4 187/3/4 191/3/4
f 189/2/4 190/2/4 192/2/4
f 188/2/4 189/2/4 192/2/4
f 190/2/4 191/2/4 192/2/4
f 160/2/4 188/2/4 192/2/4
f 192/2/4 191/2/4 193/2/4
f 160/2/4 192/2/4 194/2/4
f 192/3/4 193/3/4 195/3/4
f 194/2/4 192/2/4 195/2/4
f 195/3/4 193/3/4 196/3/4
f 193/2/4 191/2/4 197/2/4
f 196/3/4 193/3/4 197/3/4
f 160/2/4 194/2/4 198/2/4
f 195/3/4 196/3/4 199/3/4
f 198/2/4 194/2/4 199/2/4
f 194/3/4 195/3/4 199/3/4
f 196/2/4 197/2/4 200/2/4
f 199/3/4 196/3/4 200/3/4
f 200/2/4 197/2/4 201/2/4
f 197/2/4 191/2/4 202/2/4
f 201/2/4 197/2/4 202/2/4
f 202/2/4 191/2/4 203/2/4
f 160/2/4 198/2/4 204/2/4
f 200/3/4 201/3/4 204/3/4
f 198/3/4 199/3/4 204/3/4
f 199/3/4 200/3/4 204/3/4
f 204/3/4 201/3/4 205/3/4
f 205/3/4 201/3/4 206/3/4
f 201/2/4 202/2/4 207/2/4
f 206/3/4 201/3/4 207/3/4
f 202/3/4 203/3/4 208/3/4
f 207/2/4 202/2/4 208/2/4
f 208/3/4 203/3/4 209/3/4
f 209/3/4 203/3/4 210/3/4
f 203/2/4 191/2/4 211/2/4
f 210/3/4 203/3/4 211/3/4
f 160/2/4 204/2/4 212/2/4
f 204/2/4 205/2/4 212/2/4
f 205/3/4 206/3/4 213/3/4
f 212/2/4 205/2/4 213/2/4
f 213/3/4 206/3/4 214/3/4
f 206/2/4 207/2/4 215/2/4
f 214/3/4 206/3/4 215/3/4
f 207/2/4 208/2/4 215/2/4
f 208/2/4 209/2/4 215/2/4
f 215/2/4 209/2/4 216/2/4
f 216/2/4 209/2/4 217/2/4
f 217/2/4 209/2/4 218/2/4
f 209/3/4 210/3/4 219/3/4
f 210/2/4 211/2/4 219/2/4
f 211/2/4 191/2/4 220/2/4
f 219/2/4 211/2/4 220/2/4
f 214/3/4 215/3/4 221/3/4
f 216/2/4 217/2/4 221/2/4
f 215/3/4 216/3/4 221/3/4
f 217/3/4 218/3/4 222/3/4
f 221/2/4 217/2/4 222/2/4
f 222/3/4 218/3/4 223/3/4
f 218/2/4 209/2/4 224/2/4
f 223/3/4 218/3/4 224/3/4
f 224/2/4 209/2/4 225/2/4
f 209/3/4 219/3/4 226/3/4
f 225/2/4 209/2/4 226/2/4
f 219/3/4 220/3/4 226/3/4
f 226/3/4 220/3/4 227/3/4
f 220/2/4 191/2/4 228/2/4
f 227/3/4 220/3/4 228/3/4
f 222/3/4 223/3/4 229/3/4
f 214/3/4 221/3/4 229/3/4
f 221/3/4 222/3/4 229/3/4
f 224/2/4 225/2/4 230/2/4
f 229/3/4 223/3/4 230/3/4
f 223/2/4 224/2/4 230/2/4
f 226/3/4 227/3/4 231/3/4
f 230/2/4 225/2/4 231/2/4
f 225/3/4 226/3/4 231/3/4
f 231/3/4 227/3/4 232/3/4
f 214/3/4 229/3/4 233/3/4
f 229/2/4 230/2/4 234/2/4
f 233/3/4 229/3/4 234/3/4
f 230/2/4 231/2/4 234/2/4
f 231/2/4 232/2/4 234/2/4
f 232/3/4 227/3/4 235/3/4
f 234/2/4 232/2/4 235/2/4
f 235/3/4 227/3/4 236/3/4
f 227/2/4 228/2/4 237/2/4
f 236/3/4 227/3/4 237/3/4
f 237/2/4 228/2/4 238/2/4
f 233/2/4 234/2/4 239/2/4
f 235/2/4 236/2/4 239/2/4
f 237/3/4 238/3/4 239/3/4
f 236/3/4 237/3/4 239/3/4
f 234/2/4 235/2/4 239/2/4
f 238/2/4 228/2/4 240/2/4
f 239/3/4 238/3/4 240/3/4
f 233/2/4 239/2/4 241/2/4
f 239/2/4 240/2/4 241/2/4
f 151/2/4 28/2/4 242/2/4
f 241/2/4 240/2/4 242/2/4
f 183/2/4 169/2/4 242/2/4
f 240/2/4 228/2/4 242/2/4
f 169/2/4 151/2/4 242/2/4
f 191/2/4 183/2/4 242/2/4
f 228/2/4 191/2/4 242/2/4
f 245/1/5 244/1/5 243/1/5
f 246/1/5 244/1/5 245/1/5
f 247/1/5 244/1/5 246/1/5
f 248/1/5 244/1/5 247/1/5
f 249/2/5 246/2/5 245/2/5
f 250/3/5 247/3/5 246/3/5
f 250/2/5 246/2/5 249/2/5
f 251/2/5 248/2/5 247/2/5
f 251/3/5 247/3/5 250/3/5
f 252/2/5 248/2/5 251/2/5
f 255/1/5 254/1/5 253/1/5
f 256/1/5 254/1/5 255/1/5
f 257/1/5 254/1/5 256/1/5
f 258/3/5 256/3/5 255/3/5
f 259/2/5 257/2/5 256/2/5
f 259/3/5 256/3/5 258/3/5
f 260/2/5 257/2/5 259/2/5
f 261/1/6 262/1/6 263/1/6
f 263/1/6 262/1/6 264/1/6
f 263/2/6 264/2/6 265/2/6
f 265/2/6 264/2/6 266/2/6
