# MagicaVoxel @ Ephtracy

# group
o 

# material
mtllib untitled2-133.mtl
usemtl palette

# normals
vn 0 -1 0
vn 0 1 0
vn 1 0 0
vn -1 0 0
vn 0 0 1
vn 0 0 -1

# texcoords
vt 0.876953 0.5
vt 0.880859 0.5
vt 0.970703 0.5
vt 0.990234 0.5

# verts
v 22.8 0.8 -5.8
v 22.3 0.8 -5.8
v 22.8 0.8 -8.6
v 22.3 0.8 -8.6
v 22.9 0.9 -5.8
v 22.8 0.9 -5.8
v 22.3 0.9 -5.8
v 22.2 0.9 -5.8
v 22.9 0.9 -8.3
v 22.8 0.9 -8.3
v 22.9 0.9 -8.6
v 22.8 0.9 -8.6
v 22.3 0.9 -8.6
v 22.2 0.9 -8.6
v 23 1 -5.8
v 22.9 1 -5.8
v 22.2 1 -5.8
v 22.1 1 -5.8
v 22.2 1 -6
v 22.1 1 -6
v 23 1 -6.2
v 22.9 1 -6.2
v 22.2 1 -6.4
v 22.1 1 -6.4
v 23 1 -6.5
v 22.9 1 -6.5
v 23 1 -7.9
v 22.9 1 -7.9
v 23 1 -8.3
v 22.9 1 -8.3
v 23 1 -8.6
v 22.9 1 -8.6
v 22.2 1 -8.6
v 22.1 1 -8.6
v 23 1.5 -5.8
v 22.9 1.5 -5.8
v 22.2 1.5 -5.8
v 22.1 1.5 -5.8
v 22.9 1.5 -6
v 23 1.5 -6.2
v 22.9 1.5 -6.2
v 23 1.5 -6.8
v 22.9 1.5 -6.8
v 23 1.5 -6.9
v 22.9 1.5 -6.9
v 22.2 1.5 -7.3
v 22.9 1.5 -7.4
v 23 1.5 -7.5
v 22.9 1.5 -7.5
v 23 1.5 -7.7
v 22.9 1.5 -7.7
v 22.2 1.5 -8.1
v 22.1 1.5 -8.1
v 22.2 1.5 -8.2
v 22.2 1.5 -8.3
v 22.1 1.5 -8.3
v 23 1.5 -8.6
v 22.9 1.5 -8.6
v 22.2 1.5 -8.6
v 22.1 1.5 -8.6
v 22.9 1.6 -5.8
v 22.8 1.6 -5.8
v 22.3 1.6 -5.8
v 22.2 1.6 -5.8
v 22.8 1.6 -5.9
v 22.9 1.6 -6
v 22.8 1.6 -6
v 22.8 1.6 -6.3
v 22.8 1.6 -6.5
v 22.3 1.6 -6.7
v 22.3 1.6 -6.8
v 22.8 1.6 -7.2
v 22.3 1.6 -7.3
v 22.2 1.6 -7.3
v 22.9 1.6 -7.4
v 22.8 1.6 -7.4
v 22.9 1.6 -7.5
v 22.8 1.6 -7.5
v 22.3 1.6 -8.2
v 22.2 1.6 -8.2
v 22.9 1.6 -8.6
v 22.8 1.6 -8.6
v 22.3 1.6 -8.6
v 22.2 1.6 -8.6
v 22.8 1.7 -5.8
v 22.6 1.7 -5.8
v 22.3 1.7 -5.8
v 22.8 1.7 -5.9
v 22.7 1.7 -5.9
v 22.6 1.7 -6.1
v 22.5 1.7 -6.1
v 22.7 1.7 -6.2
v 22.6 1.7 -6.2
v 22.5 1.7 -6.2
v 22.4 1.7 -6.2
v 22.8 1.7 -6.3
v 22.7 1.7 -6.3
v 22.6 1.7 -6.3
v 22.5 1.7 -6.3
v 22.8 1.7 -6.5
v 22.7 1.7 -6.5
v 22.5 1.7 -6.5
v 22.4 1.7 -6.5
v 22.4 1.7 -6.7
v 22.3 1.7 -6.7
v 22.4 1.7 -6.8
v 22.3 1.7 -6.8
v 22.7 1.7 -7
v 22.6 1.7 -7
v 22.8 1.7 -7.2
v 22.7 1.7 -7.2
v 22.8 1.7 -7.4
v 22.7 1.7 -7.4
v 22.6 1.7 -7.4
v 22.5 1.7 -7.4
v 22.7 1.7 -7.5
v 22.6 1.7 -7.5
v 22.6 1.7 -7.7
v 22.5 1.7 -7.7
v 22.7 1.7 -8
v 22.5 1.7 -8
v 22.7 1.7 -8.2
v 22.6 1.7 -8.2
v 22.6 1.7 -8.3
v 22.5 1.7 -8.3
v 22.4 1.7 -8.3
v 22.5 1.7 -8.4
v 22.4 1.7 -8.4
v 22.8 1.7 -8.6
v 22.3 1.7 -8.6
v 23 1 -5.8
v 23 1 -6.2
v 23 1 -6.5
v 23 1 -7.9
v 23 1 -8.3
v 23 1 -8.6
v 23 1.1 -6.1
v 23 1.1 -6.2
v 23 1.1 -6.4
v 23 1.1 -6.5
v 23 1.1 -7.9
v 23 1.1 -8.3
v 23 1.2 -6
v 23 1.2 -6.1
v 23 1.2 -6.3
v 23 1.2 -6.4
v 23 1.2 -7.8
v 23 1.2 -7.9
v 23 1.3 -5.9
v 23 1.3 -6
v 23 1.3 -7.6
v 23 1.3 -7.8
v 23 1.3 -7.9
v 23 1.4 -5.8
v 23 1.4 -5.9
v 23 1.4 -6.2
v 23 1.4 -6.3
v 23 1.4 -6.8
v 23 1.4 -6.9
v 23 1.4 -7.5
v 23 1.4 -7.6
v 23 1.4 -7.7
v 23 1.4 -7.8
v 23 1.5 -5.8
v 23 1.5 -6.2
v 23 1.5 -6.8
v 23 1.5 -6.9
v 23 1.5 -7.5
v 23 1.5 -7.7
v 23 1.5 -8.6
v 22.9 0.9 -5.8
v 22.9 0.9 -8.3
v 22.9 0.9 -8.6
v 22.9 1 -5.8
v 22.9 1 -6.2
v 22.9 1 -6.5
v 22.9 1 -7.9
v 22.9 1 -8.3
v 22.9 1 -8.6
v 22.9 1.5 -5.8
v 22.9 1.5 -6
v 22.9 1.5 -6.2
v 22.9 1.5 -6.8
v 22.9 1.5 -6.9
v 22.9 1.5 -7.4
v 22.9 1.5 -7.5
v 22.9 1.5 -7.7
v 22.9 1.5 -8.6
v 22.9 1.6 -5.8
v 22.9 1.6 -6
v 22.9 1.6 -7.4
v 22.9 1.6 -7.5
v 22.9 1.6 -8.6
v 22.8 0.8 -5.8
v 22.8 0.8 -8.6
v 22.8 0.9 -5.8
v 22.8 0.9 -8.3
v 22.8 0.9 -8.6
v 22.8 1.6 -5.8
v 22.8 1.6 -5.9
v 22.8 1.6 -6
v 22.8 1.6 -6.3
v 22.8 1.6 -6.5
v 22.8 1.6 -7.2
v 22.8 1.6 -7.4
v 22.8 1.6 -7.5
v 22.8 1.6 -8.6
v 22.8 1.7 -5.8
v 22.8 1.7 -5.9
v 22.8 1.7 -6.3
v 22.8 1.7 -6.5
v 22.8 1.7 -7.2
v 22.8 1.7 -7.4
v 22.8 1.7 -8.6
v 22.3 0.8 -5.8
v 22.3 0.8 -8.6
v 22.3 0.9 -5.8
v 22.3 0.9 -8.6
v 22.3 1.6 -5.8
v 22.3 1.6 -6.7
v 22.3 1.6 -6.8
v 22.3 1.6 -7.3
v 22.3 1.6 -8.2
v 22.3 1.6 -8.6
v 22.3 1.7 -5.8
v 22.3 1.7 -6.7
v 22.3 1.7 -6.8
v 22.3 1.7 -8.6
v 22.2 0.9 -5.8
v 22.2 0.9 -8.6
v 22.2 1 -5.8
v 22.2 1 -6
v 22.2 1 -6.4
v 22.2 1 -8.6
v 22.2 1.5 -5.8
v 22.2 1.5 -7.3
v 22.2 1.5 -8.1
v 22.2 1.5 -8.2
v 22.2 1.5 -8.3
v 22.2 1.5 -8.6
v 22.2 1.6 -5.8
v 22.2 1.6 -7.3
v 22.2 1.6 -8.2
v 22.2 1.6 -8.6
v 22.1 1 -5.8
v 22.1 1 -6
v 22.1 1 -6.4
v 22.1 1 -8.6
v 22.1 1.2 -5.9
v 22.1 1.2 -6
v 22.1 1.2 -6.4
v 22.1 1.2 -6.5
v 22.1 1.3 -6.1
v 22.1 1.3 -6.2
v 22.1 1.4 -5.9
v 22.1 1.4 -6.1
v 22.1 1.4 -6.2
v 22.1 1.4 -6.5
v 22.1 1.4 -8.1
v 22.1 1.4 -8.3
v 22.1 1.5 -5.8
v 22.1 1.5 -8.1
v 22.1 1.5 -8.3
v 22.1 1.5 -8.6
v 23 1 -5.8
v 23 1.4 -5.8
v 23 1.5 -5.8
v 22.9 0.9 -5.8
v 22.9 1 -5.8
v 22.9 1.4 -5.8
v 22.9 1.5 -5.8
v 22.9 1.6 -5.8
v 22.8 0.8 -5.8
v 22.8 0.9 -5.8
v 22.8 1 -5.8
v 22.8 1.1 -5.8
v 22.8 1.3 -5.8
v 22.8 1.4 -5.8
v 22.8 1.5 -5.8
v 22.8 1.6 -5.8
v 22.8 1.7 -5.8
v 22.7 1 -5.8
v 22.7 1.1 -5.8
v 22.7 1.2 -5.8
v 22.7 1.3 -5.8
v 22.7 1.4 -5.8
v 22.6 1.6 -5.8
v 22.6 1.7 -5.8
v 22.5 1.1 -5.8
v 22.5 1.2 -5.8
v 22.5 1.3 -5.8
v 22.5 1.4 -5.8
v 22.5 1.5 -5.8
v 22.4 1.1 -5.8
v 22.4 1.2 -5.8
v 22.4 1.4 -5.8
v 22.3 0.8 -5.8
v 22.3 0.9 -5.8
v 22.3 1 -5.8
v 22.3 1.1 -5.8
v 22.3 1.2 -5.8
v 22.3 1.5 -5.8
v 22.3 1.6 -5.8
v 22.3 1.7 -5.8
v 22.2 0.9 -5.8
v 22.2 1 -5.8
v 22.2 1.1 -5.8
v 22.2 1.5 -5.8
v 22.2 1.6 -5.8
v 22.1 1 -5.8
v 22.1 1.5 -5.8
v 23 1 -8.6
v 23 1.5 -8.6
v 22.9 0.9 -8.6
v 22.9 1 -8.6
v 22.9 1.5 -8.6
v 22.9 1.6 -8.6
v 22.8 0.8 -8.6
v 22.8 0.9 -8.6
v 22.8 1 -8.6
v 22.8 1.5 -8.6
v 22.8 1.6 -8.6
v 22.8 1.7 -8.6
v 22.3 0.8 -8.6
v 22.3 0.9 -8.6
v 22.3 1 -8.6
v 22.3 1.5 -8.6
v 22.3 1.6 -8.6
v 22.3 1.7 -8.6
v 22.2 0.9 -8.6
v 22.2 1 -8.6
v 22.2 1.5 -8.6
v 22.2 1.6 -8.6
v 22.1 1 -8.6
v 22.1 1.5 -8.6

# faces
f 1/3/1 2/3/1 3/3/1
f 3/3/1 2/3/1 4/3/1
f 5/3/1 6/3/1 9/3/1
f 9/3/1 6/3/1 10/3/1
f 9/4/1 10/4/1 11/4/1
f 11/4/1 10/4/1 12/4/1
f 7/3/1 8/3/1 13/3/1
f 13/3/1 8/3/1 14/3/1
f 17/3/1 18/3/1 19/3/1
f 19/3/1 18/3/1 20/3/1
f 15/3/1 16/3/1 21/3/1
f 21/3/1 16/3/1 22/3/1
f 19/4/1 20/4/1 23/4/1
f 23/4/1 20/4/1 24/4/1
f 21/4/1 22/4/1 25/4/1
f 25/4/1 22/4/1 26/4/1
f 25/3/1 26/3/1 27/3/1
f 27/3/1 26/3/1 28/3/1
f 27/4/1 28/4/1 29/4/1
f 29/4/1 28/4/1 30/4/1
f 29/3/1 30/3/1 31/3/1
f 31/3/1 30/3/1 32/3/1
f 23/3/1 24/3/1 33/3/1
f 33/3/1 24/3/1 34/3/1
f 39/4/2 36/4/2 35/4/2
f 40/4/2 39/4/2 35/4/2
f 41/4/2 39/4/2 40/4/2
f 42/3/2 41/3/2 40/3/2
f 43/3/2 41/3/2 42/3/2
f 44/4/2 43/4/2 42/4/2
f 45/4/2 43/4/2 44/4/2
f 46/3/2 38/3/2 37/3/2
f 47/3/2 45/3/2 44/3/2
f 48/3/2 47/3/2 44/3/2
f 49/3/2 47/3/2 48/3/2
f 50/4/2 49/4/2 48/4/2
f 51/4/2 49/4/2 50/4/2
f 52/3/2 38/3/2 46/3/2
f 53/3/2 38/3/2 52/3/2
f 54/4/2 53/4/2 52/4/2
f 55/4/2 53/4/2 54/4/2
f 56/4/2 53/4/2 55/4/2
f 57/3/2 51/3/2 50/3/2
f 58/3/2 51/3/2 57/3/2
f 59/3/2 56/3/2 55/3/2
f 60/3/2 56/3/2 59/3/2
f 65/4/2 62/4/2 61/4/2
f 66/4/2 65/4/2 61/4/2
f 67/4/2 65/4/2 66/4/2
f 68/3/2 67/3/2 66/3/2
f 69/3/2 68/3/2 66/3/2
f 70/3/2 64/3/2 63/3/2
f 71/3/2 64/3/2 70/3/2
f 72/3/2 69/3/2 66/3/2
f 73/3/2 64/3/2 71/3/2
f 74/3/2 64/3/2 73/3/2
f 75/3/2 72/3/2 66/3/2
f 76/3/2 72/3/2 75/3/2
f 77/4/2 76/4/2 75/4/2
f 78/4/2 76/4/2 77/4/2
f 79/4/2 74/4/2 73/4/2
f 80/4/2 74/4/2 79/4/2
f 81/3/2 78/3/2 77/3/2
f 82/3/2 78/3/2 81/3/2
f 83/3/2 80/3/2 79/3/2
f 84/3/2 80/3/2 83/3/2
f 88/4/2 86/4/2 85/4/2
f 89/4/2 86/4/2 88/4/2
f 90/3/2 87/3/2 86/3/2
f 90/4/2 86/4/2 89/4/2
f 91/3/2 87/3/2 90/3/2
f 92/3/2 89/3/2 88/3/2
f 92/4/2 90/4/2 89/4/2
f 92/4/2 91/4/2 90/4/2
f 93/4/2 91/4/2 92/4/2
f 94/3/2 87/3/2 91/3/2
f 94/4/2 91/4/2 93/4/2
f 95/3/2 87/3/2 94/3/2
f 96/3/2 93/3/2 92/3/2
f 96/3/2 92/3/2 88/3/2
f 97/3/2 93/3/2 96/3/2
f 98/4/2 95/4/2 94/4/2
f 98/3/2 93/3/2 97/3/2
f 98/4/2 94/4/2 93/4/2
f 99/4/2 95/4/2 98/4/2
f 100/4/2 97/4/2 96/4/2
f 101/3/2 98/3/2 97/3/2
f 101/4/2 97/4/2 100/4/2
f 101/3/2 99/3/2 98/3/2
f 102/4/2 95/4/2 99/4/2
f 102/3/2 99/3/2 101/3/2
f 103/3/2 87/3/2 95/3/2
f 103/4/2 95/4/2 102/4/2
f 104/3/2 102/3/2 101/3/2
f 104/3/2 87/3/2 103/3/2
f 104/3/2 103/3/2 102/3/2
f 104/3/2 101/3/2 100/3/2
f 105/3/2 87/3/2 104/3/2
f 106/3/2 104/3/2 100/3/2
f 106/4/2 105/4/2 104/4/2
f 107/4/2 105/4/2 106/4/2
f 108/3/2 106/3/2 100/3/2
f 108/3/2 107/3/2 106/3/2
f 109/3/2 107/3/2 108/3/2
f 110/3/2 108/3/2 100/3/2
f 111/4/2 109/4/2 108/4/2
f 111/3/2 108/3/2 110/3/2
f 112/4/2 111/4/2 110/4/2
f 113/4/2 109/4/2 111/4/2
f 113/4/2 111/4/2 112/4/2
f 114/3/2 107/3/2 109/3/2
f 114/4/2 109/4/2 113/4/2
f 115/3/2 107/3/2 114/3/2
f 116/3/2 113/3/2 112/3/2
f 116/4/2 114/4/2 113/4/2
f 116/4/2 115/4/2 114/4/2
f 117/4/2 115/4/2 116/4/2
f 118/3/2 117/3/2 116/3/2
f 118/4/2 115/4/2 117/4/2
f 119/3/2 107/3/2 115/3/2
f 119/4/2 115/4/2 118/4/2
f 120/3/2 118/3/2 116/3/2
f 120/3/2 116/3/2 112/3/2
f 120/3/2 119/3/2 118/3/2
f 121/3/2 107/3/2 119/3/2
f 121/3/2 119/3/2 120/3/2
f 122/3/2 120/3/2 112/3/2
f 122/4/2 121/4/2 120/4/2
f 123/4/2 121/4/2 122/4/2
f 124/3/2 123/3/2 122/3/2
f 124/4/2 121/4/2 123/4/2
f 125/3/2 107/3/2 121/3/2
f 125/4/2 121/4/2 124/4/2
f 126/3/2 107/3/2 125/3/2
f 127/3/2 125/3/2 124/3/2
f 127/4/2 126/4/2 125/4/2
f 128/3/2 107/3/2 126/3/2
f 128/4/2 126/4/2 127/4/2
f 129/3/2 124/3/2 122/3/2
f 129/3/2 122/3/2 112/3/2
f 129/3/2 128/3/2 127/3/2
f 129/3/2 127/3/2 124/3/2
f 130/3/2 107/3/2 128/3/2
f 130/3/2 128/3/2 129/3/2
f 131/3/3 132/3/3 137/3/3
f 132/4/3 133/4/3 138/4/3
f 137/3/3 132/3/3 138/3/3
f 138/4/3 133/4/3 139/4/3
f 133/3/3 134/3/3 140/3/3
f 139/4/3 133/4/3 140/4/3
f 134/4/3 135/4/3 141/4/3
f 140/3/3 134/3/3 141/3/3
f 135/3/3 136/3/3 142/3/3
f 141/4/3 135/4/3 142/4/3
f 131/3/3 137/3/3 143/3/3
f 138/4/3 139/4/3 144/4/3
f 143/3/3 137/3/3 144/3/3
f 137/4/3 138/4/3 144/4/3
f 144/4/3 139/4/3 145/4/3
f 140/3/3 141/3/3 146/3/3
f 145/4/3 139/4/3 146/4/3
f 139/3/3 140/3/3 146/3/3
f 141/3/3 142/3/3 146/3/3
f 146/3/3 142/3/3 147/3/3
f 147/3/3 142/3/3 148/3/3
f 131/3/3 143/3/3 149/3/3
f 144/4/3 145/4/3 150/4/3
f 149/3/3 143/3/3 150/3/3
f 143/4/3 144/4/3 150/4/3
f 145/3/3 146/3/3 151/3/3
f 146/3/3 147/3/3 151/3/3
f 147/4/3 148/4/3 152/4/3
f 151/3/3 147/3/3 152/3/3
f 148/3/3 142/3/3 153/3/3
f 152/4/3 148/4/3 153/4/3
f 131/3/3 149/3/3 154/3/3
f 149/4/3 150/4/3 155/4/3
f 154/3/3 149/3/3 155/3/3
f 150/4/3 145/4/3 156/4/3
f 155/4/3 150/4/3 156/4/3
f 145/3/3 151/3/3 157/3/3
f 156/4/3 145/4/3 157/4/3
f 157/3/3 151/3/3 158/3/3
f 158/3/3 151/3/3 159/3/3
f 159/3/3 151/3/3 160/3/3
f 151/4/3 152/4/3 161/4/3
f 160/3/3 151/3/3 161/3/3
f 161/4/3 152/4/3 162/4/3
f 152/3/3 153/3/3 163/3/3
f 162/4/3 152/4/3 163/4/3
f 155/4/3 156/4/3 164/4/3
f 154/4/3 155/4/3 164/4/3
f 156/3/3 157/3/3 165/3/3
f 164/4/3 156/4/3 165/4/3
f 157/3/3 158/3/3 165/3/3
f 158/4/3 159/4/3 166/4/3
f 165/3/3 158/3/3 166/3/3
f 159/3/3 160/3/3 167/3/3
f 166/4/3 159/4/3 167/4/3
f 161/4/3 162/4/3 168/4/3
f 167/3/3 160/3/3 168/3/3
f 160/4/3 161/4/3 168/4/3
f 162/3/3 163/3/3 169/3/3
f 168/4/3 162/4/3 169/4/3
f 153/3/3 142/3/3 170/3/3
f 169/3/3 163/3/3 170/3/3
f 142/3/3 136/3/3 170/3/3
f 163/3/3 153/3/3 170/3/3
f 171/3/3 172/3/3 174/3/3
f 174/3/3 172/3/3 175/3/3
f 175/3/3 172/3/3 176/3/3
f 176/3/3 172/3/3 177/3/3
f 172/4/3 173/4/3 178/4/3
f 177/3/3 172/3/3 178/3/3
f 178/4/3 173/4/3 179/4/3
f 180/4/3 181/4/3 189/4/3
f 181/3/3 182/3/3 190/3/3
f 189/4/3 181/4/3 190/4/3
f 182/3/3 183/3/3 190/3/3
f 183/3/3 184/3/3 190/3/3
f 184/3/3 185/3/3 190/3/3
f 185/4/3 186/4/3 191/4/3
f 190/3/3 185/3/3 191/3/3
f 187/3/3 188/3/3 192/3/3
f 191/4/3 186/4/3 192/4/3
f 186/3/3 187/3/3 192/3/3
f 192/3/3 188/3/3 193/3/3
f 194/3/3 195/3/3 196/3/3
f 196/3/3 195/3/3 197/3/3
f 197/3/3 195/3/3 198/3/3
f 199/4/3 200/4/3 208/4/3
f 200/3/3 201/3/3 209/3/3
f 208/4/3 200/4/3 209/4/3
f 201/3/3 202/3/3 209/3/3
f 202/4/3 203/4/3 210/4/3
f 209/3/3 202/3/3 210/3/3
f 203/3/3 204/3/3 211/3/3
f 210/4/3 203/4/3 211/4/3
f 204/4/3 205/4/3 212/4/3
f 211/3/3 204/3/3 212/3/3
f 206/3/3 207/3/3 213/3/3
f 212/4/3 205/4/3 213/4/3
f 205/3/3 206/3/3 213/3/3
f 213/3/3 207/3/3 214/3/3
f 217/3/4 216/3/4 215/3/4
f 218/3/4 216/3/4 217/3/4
f 225/3/4 220/3/4 219/3/4
f 226/4/4 221/4/4 220/4/4
f 226/3/4 220/3/4 225/3/4
f 227/3/4 224/3/4 223/3/4
f 227/4/4 221/4/4 226/4/4
f 227/3/4 222/3/4 221/3/4
f 227/3/4 223/3/4 222/3/4
f 228/3/4 224/3/4 227/3/4
f 231/3/4 230/3/4 229/3/4
f 232/3/4 230/3/4 231/3/4
f 233/3/4 230/3/4 232/3/4
f 234/3/4 230/3/4 233/3/4
f 241/3/4 236/3/4 235/3/4
f 242/4/4 237/4/4 236/4/4
f 242/3/4 236/3/4 241/3/4
f 242/4/4 238/4/4 237/4/4
f 243/3/4 240/3/4 239/3/4
f 243/4/4 238/4/4 242/4/4
f 243/3/4 239/3/4 238/3/4
f 244/3/4 240/3/4 243/3/4
f 249/3/4 246/3/4 245/3/4
f 250/4/4 247/4/4 246/4/4
f 250/3/4 246/3/4 249/3/4
f 251/3/4 248/3/4 247/3/4
f 251/4/4 247/4/4 250/4/4
f 252/3/4 248/3/4 251/3/4
f 253/4/4 250/4/4 249/4/4
f 253/4/4 251/4/4 250/4/4
f 253/4/4 252/4/4 251/4/4
f 254/4/4 252/4/4 253/4/4
f 255/3/4 249/3/4 245/3/4
f 255/4/4 253/4/4 249/4/4
f 256/3/4 254/3/4 253/3/4
f 256/4/4 253/4/4 255/4/4
f 257/4/4 252/4/4 254/4/4
f 257/3/4 254/3/4 256/3/4
f 258/3/4 248/3/4 252/3/4
f 258/4/4 252/4/4 257/4/4
f 259/3/4 248/3/4 258/3/4
f 260/3/4 248/3/4 259/3/4
f 261/3/4 257/3/4 256/3/4
f 261/3/4 256/3/4 255/3/4
f 261/3/4 255/3/4 245/3/4
f 261/3/4 259/3/4 258/3/4
f 261/3/4 258/3/4 257/3/4
f 262/4/4 260/4/4 259/4/4
f 262/3/4 259/3/4 261/3/4
f 263/3/4 248/3/4 260/3/4
f 263/4/4 260/4/4 262/4/4
f 264/3/4 248/3/4 263/3/4
f 265/3/5 266/3/5 269/3/5
f 266/4/5 267/4/5 270/4/5
f 269/3/5 266/3/5 270/3/5
f 270/4/5 267/4/5 271/4/5
f 268/3/5 269/3/5 274/3/5
f 269/2/5 270/2/5 275/2/5
f 270/2/5 271/2/5 275/2/5
f 274/3/5 269/3/5 275/3/5
f 275/2/5 271/2/5 276/2/5
f 276/2/5 271/2/5 277/2/5
f 277/2/5 271/2/5 278/2/5
f 271/4/5 272/4/5 279/4/5
f 278/2/5 271/2/5 279/2/5
f 279/4/5 272/4/5 280/4/5
f 274/2/5 275/2/5 282/2/5
f 275/2/5 276/2/5 282/2/5
f 276/1/5 277/1/5 283/1/5
f 282/2/5 276/2/5 283/2/5
f 283/1/5 277/1/5 284/1/5
f 277/2/5 278/2/5 285/2/5
f 284/1/5 277/1/5 285/1/5
f 278/1/5 279/1/5 286/1/5
f 285/2/5 278/2/5 286/2/5
f 280/4/5 281/4/5 287/4/5
f 279/2/5 280/2/5 287/2/5
f 287/4/5 281/4/5 288/4/5
f 283/1/5 284/1/5 289/1/5
f 282/1/5 283/1/5 289/1/5
f 284/2/5 285/2/5 290/2/5
f 289/1/5 284/1/5 290/1/5
f 285/1/5 286/1/5 291/1/5
f 290/2/5 285/2/5 291/2/5
f 286/1/5 279/1/5 292/1/5
f 291/1/5 286/1/5 292/1/5
f 279/2/5 287/2/5 293/2/5
f 292/1/5 279/1/5 293/1/5
f 289/2/5 290/2/5 294/2/5
f 282/1/5 289/1/5 294/1/5
f 290/1/5 291/1/5 295/1/5
f 294/2/5 290/2/5 295/2/5
f 291/1/5 292/1/5 295/1/5
f 292/2/5 293/2/5 296/2/5
f 295/1/5 292/1/5 296/1/5
f 273/3/5 274/3/5 297/3/5
f 274/2/5 282/2/5 298/2/5
f 297/3/5 274/3/5 298/3/5
f 282/1/5 294/1/5 299/1/5
f 298/2/5 282/2/5 299/2/5
f 294/1/5 295/1/5 299/1/5
f 299/1/5 295/1/5 300/1/5
f 295/2/5 296/2/5 301/2/5
f 300/1/5 295/1/5 301/1/5
f 296/2/5 293/2/5 302/2/5
f 301/2/5 296/2/5 302/2/5
f 293/2/5 287/2/5 302/2/5
f 287/3/5 288/3/5 303/3/5
f 302/2/5 287/2/5 303/2/5
f 303/3/5 288/3/5 304/3/5
f 298/3/5 299/3/5 305/3/5
f 299/1/5 300/1/5 306/1/5
f 305/3/5 299/3/5 306/3/5
f 300/2/5 301/2/5 307/2/5
f 306/1/5 300/1/5 307/1/5
f 301/2/5 302/2/5 307/2/5
f 302/3/5 303/3/5 308/3/5
f 307/2/5 302/2/5 308/2/5
f 308/3/5 303/3/5 309/3/5
f 306/3/5 307/3/5 310/3/5
f 307/3/5 308/3/5 310/3/5
f 310/3/5 308/3/5 311/3/5
f 315/3/6 313/3/6 312/3/6
f 316/3/6 313/3/6 315/3/6
f 319/4/6 315/4/6 314/4/6
f 320/1/6 316/1/6 315/1/6
f 320/4/6 315/4/6 319/4/6
f 321/3/6 317/3/6 316/3/6
f 321/1/6 316/1/6 320/1/6
f 322/3/6 317/3/6 321/3/6
f 324/3/6 319/3/6 318/3/6
f 325/1/6 320/1/6 319/1/6
f 325/3/6 319/3/6 324/3/6
f 325/1/6 321/1/6 320/1/6
f 325/1/6 322/1/6 321/1/6
f 326/1/6 322/1/6 325/1/6
f 327/1/6 322/1/6 326/1/6
f 328/3/6 323/3/6 322/3/6
f 328/1/6 322/1/6 327/1/6
f 329/3/6 323/3/6 328/3/6
f 330/3/6 326/3/6 325/3/6
f 331/1/6 327/1/6 326/1/6
f 331/3/6 326/3/6 330/3/6
f 332/3/6 328/3/6 327/3/6
f 332/1/6 327/1/6 331/1/6
f 333/3/6 328/3/6 332/3/6
f 334/3/6 332/3/6 331/3/6
f 335/3/6 332/3/6 334/3/6
