# MagicaVoxel @ Ephtracy

# group
o 

# material
mtllib untitled2-96.mtl
usemtl palette

# normals
vn 0 0 -1
vn 0 0 1
vn -1 0 0
vn 1 0 0
vn 0 -1 0
vn 0 1 0

# texcoords
vt 0.306641 0.5
vt 0.978516 0.5
vt 0.994141 0.5

# verts
v -22.4 5.2 12.4
v -21.2 5.2 12.4
v -22.3 5.3 12.4
v -21.3 5.3 12.4
v -22.3 6.6 12.4
v -21.3 6.6 12.4
v -22.4 6.7 12.4
v -21.2 6.7 12.4
v -22.3 5.3 12.5
v -21.3 5.3 12.5
v -21.4 6.5 12.5
v -21.3 6.5 12.5
v -22.3 6.6 12.5
v -21.4 6.6 12.5
v -21.3 6.6 12.5
v -22.4 5.3 13.8
v -22.3 5.3 13.8
v -21.3 5.3 13.8
v -21.2 5.3 13.8
v -21.3 5.4 13.8
v -22.4 6.6 13.8
v -22.3 6.6 13.8
v -21.3 6.6 13.8
v -21.2 6.6 13.8
v -22.3 6.7 13.8
v -21.3 6.7 13.8
v -22.4 5.3 12.5
v -22.3 5.3 12.5
v -21.3 5.3 12.5
v -21.2 5.3 12.5
v -21.3 6.5 12.5
v -22.4 6.6 12.5
v -22.3 6.6 12.5
v -21.4 6.6 12.5
v -21.3 6.6 12.5
v -21.2 6.6 12.5
v -22.3 6.7 12.5
v -21.3 6.7 12.5
v -22.3 5.3 13.8
v -21.4 5.3 13.8
v -21.3 5.3 13.8
v -21.4 5.4 13.8
v -21.3 5.4 13.8
v -22.3 6.6 13.8
v -21.3 6.6 13.8
v -22.4 5.2 13.9
v -21.2 5.2 13.9
v -22.3 5.3 13.9
v -21.3 5.3 13.9
v -22.3 6.6 13.9
v -21.3 6.6 13.9
v -22.4 6.7 13.9
v -21.2 6.7 13.9
v -22.4 5.2 12.4
v -22.4 6.7 12.4
v -22.4 5.3 12.5
v -22.4 6.6 12.5
v -22.4 5.3 13.8
v -22.4 6.6 13.8
v -22.4 5.2 13.9
v -22.4 6.7 13.9
v -22.3 5.3 12.5
v -22.3 6.6 12.5
v -22.3 5.3 13.8
v -22.3 6.6 13.8
v -21.3 5.3 12.4
v -21.3 6.6 12.4
v -21.3 5.3 12.5
v -21.3 6.5 12.5
v -21.3 6.6 12.5
v -21.3 6.7 12.5
v -21.3 6.6 12.6
v -21.3 5.3 13.8
v -21.3 5.4 13.8
v -21.3 6.6 13.8
v -21.3 6.7 13.8
v -21.3 5.3 13.9
v -21.3 6.6 13.9
v -22.3 5.3 12.4
v -22.3 6.6 12.4
v -22.3 5.3 12.5
v -22.3 6.6 12.5
v -22.3 6.7 12.5
v -22.3 5.3 13.8
v -22.3 6.6 13.8
v -22.3 6.7 13.8
v -22.3 5.3 13.9
v -22.3 6.6 13.9
v -21.3 5.3 12.5
v -21.3 6.5 12.5
v -21.3 6.6 12.5
v -21.3 6.4 12.6
v -21.3 6.5 12.6
v -21.3 6.6 12.6
v -21.3 6.3 12.7
v -21.3 6.4 12.7
v -21.3 6.5 12.7
v -21.3 6.2 12.8
v -21.3 6.3 12.8
v -21.3 6.4 12.8
v -21.3 6.1 12.9
v -21.3 6.2 12.9
v -21.3 6.3 12.9
v -21.3 6 13
v -21.3 6.1 13
v -21.3 6.2 13
v -21.3 5.9 13.1
v -21.3 6 13.1
v -21.3 6.1 13.1
v -21.3 5.8 13.2
v -21.3 5.9 13.2
v -21.3 6 13.2
v -21.3 5.7 13.3
v -21.3 5.8 13.3
v -21.3 5.9 13.3
v -21.3 5.6 13.4
v -21.3 5.7 13.4
v -21.3 5.8 13.4
v -21.3 5.5 13.5
v -21.3 5.6 13.5
v -21.3 5.7 13.5
v -21.3 5.4 13.6
v -21.3 5.5 13.6
v -21.3 5.6 13.6
v -21.3 5.3 13.7
v -21.3 5.4 13.7
v -21.3 5.5 13.7
v -21.3 5.3 13.8
v -21.3 5.4 13.8
v -21.3 6.6 13.8
v -21.2 5.2 12.4
v -21.2 6.7 12.4
v -21.2 5.3 12.5
v -21.2 6.6 12.5
v -21.2 5.3 13.8
v -21.2 6.6 13.8
v -21.2 5.2 13.9
v -21.2 6.7 13.9
v -22.4 5.2 12.4
v -22.4 5.2 13.9
v -22.3 5.2 12.5
v -22.3 5.2 13.8
v -22.2 5.2 12.6
v -22.2 5.2 13.7
v -21.3 5.2 12.5
v -21.3 5.2 12.6
v -21.3 5.2 13.7
v -21.3 5.2 13.8
v -21.2 5.2 12.4
v -21.2 5.2 13.9
v -22.4 6.6 12.5
v -22.4 6.6 13.8
v -22.3 6.6 12.4
v -22.3 6.6 12.5
v -22.3 6.6 13.8
v -22.3 6.6 13.9
v -21.4 6.6 12.5
v -21.3 6.6 12.4
v -21.3 6.6 12.5
v -21.3 6.6 12.6
v -21.3 6.6 13.8
v -21.3 6.6 13.9
v -21.2 6.6 12.5
v -21.2 6.6 13.8
v -22.4 5.3 12.5
v -22.4 5.3 13.8
v -22.3 5.3 12.4
v -22.3 5.3 12.5
v -22.3 5.3 13.8
v -22.3 5.3 13.9
v -21.4 5.3 13.8
v -21.3 5.3 12.4
v -21.3 5.3 12.5
v -21.3 5.3 13.7
v -21.3 5.3 13.8
v -21.3 5.3 13.9
v -21.2 5.3 12.5
v -21.2 5.3 13.8
v -22.3 6.6 12.5
v -22.3 6.6 13.8
v -21.4 6.6 12.5
v -21.4 6.6 12.6
v -21.3 6.6 12.5
v -21.3 6.6 12.6
v -21.3 6.6 13.8
v -22.4 6.7 12.4
v -22.4 6.7 13.9
v -22.3 6.7 12.5
v -22.3 6.7 13.8
v -21.3 6.7 12.5
v -21.3 6.7 13.8
v -21.2 6.7 12.4
v -21.2 6.7 13.9

# faces
f 3/3/1 2/3/1 1/3/1
f 4/3/1 2/3/1 3/3/1
f 5/3/1 3/3/1 1/3/1
f 6/3/1 2/3/1 4/3/1
f 7/3/1 5/3/1 1/3/1
f 7/3/1 6/3/1 5/3/1
f 8/3/1 2/3/1 6/3/1
f 8/3/1 6/3/1 7/3/1
f 11/2/1 10/2/1 9/2/1
f 12/2/1 10/2/1 11/2/1
f 13/2/1 11/2/1 9/2/1
f 14/3/1 12/3/1 11/3/1
f 14/2/1 11/2/1 13/2/1
f 15/3/1 12/3/1 14/3/1
f 20/3/1 19/3/1 18/3/1
f 21/3/1 17/3/1 16/3/1
f 22/3/1 17/3/1 21/3/1
f 23/3/1 19/3/1 20/3/1
f 24/3/1 19/3/1 23/3/1
f 25/3/1 23/3/1 22/3/1
f 26/3/1 23/3/1 25/3/1
f 29/3/2 30/3/2 31/3/2
f 27/3/2 28/3/2 32/3/2
f 32/3/2 28/3/2 33/3/2
f 31/3/2 30/3/2 35/3/2
f 35/3/2 30/3/2 36/3/2
f 33/3/2 34/3/2 37/3/2
f 34/3/2 35/3/2 37/3/2
f 37/3/2 35/3/2 38/3/2
f 39/2/2 40/2/2 42/2/2
f 40/3/2 41/3/2 42/3/2
f 42/3/2 41/3/2 43/3/2
f 39/2/2 42/2/2 44/2/2
f 42/2/2 43/2/2 44/2/2
f 44/2/2 43/2/2 45/2/2
f 46/3/2 47/3/2 48/3/2
f 48/3/2 47/3/2 49/3/2
f 46/3/2 48/3/2 50/3/2
f 49/3/2 47/3/2 51/3/2
f 46/3/2 50/3/2 52/3/2
f 50/3/2 51/3/2 52/3/2
f 51/3/2 47/3/2 53/3/2
f 52/3/2 51/3/2 53/3/2
f 56/3/3 55/3/3 54/3/3
f 57/3/3 55/3/3 56/3/3
f 58/3/3 56/3/3 54/3/3
f 59/3/3 55/3/3 57/3/3
f 60/3/3 58/3/3 54/3/3
f 60/3/3 59/3/3 58/3/3
f 61/3/3 55/3/3 59/3/3
f 61/3/3 59/3/3 60/3/3
f 64/2/3 63/2/3 62/2/3
f 65/2/3 63/2/3 64/2/3
f 68/3/3 67/3/3 66/3/3
f 69/3/3 67/3/3 68/3/3
f 70/3/3 67/3/3 69/3/3
f 72/3/3 71/3/3 70/3/3
f 75/3/3 71/3/3 72/3/3
f 76/3/3 71/3/3 75/3/3
f 77/3/3 74/3/3 73/3/3
f 77/3/3 75/3/3 74/3/3
f 78/3/3 75/3/3 77/3/3
f 79/3/4 80/3/4 81/3/4
f 81/3/4 80/3/4 82/3/4
f 82/3/4 83/3/4 85/3/4
f 85/3/4 83/3/4 86/3/4
f 84/3/4 85/3/4 87/3/4
f 87/3/4 85/3/4 88/3/4
f 89/2/4 90/2/4 92/2/4
f 90/3/4 91/3/4 93/3/4
f 92/2/4 90/2/4 93/2/4
f 93/3/4 91/3/4 94/3/4
f 89/2/4 92/2/4 95/2/4
f 92/3/4 93/3/4 96/3/4
f 95/2/4 92/2/4 96/2/4
f 93/2/4 94/2/4 97/2/4
f 96/3/4 93/3/4 97/3/4
f 89/2/4 95/2/4 98/2/4
f 95/3/4 96/3/4 99/3/4
f 98/2/4 95/2/4 99/2/4
f 96/2/4 97/2/4 100/2/4
f 99/3/4 96/3/4 100/3/4
f 89/2/4 98/2/4 101/2/4
f 98/3/4 99/3/4 102/3/4
f 101/2/4 98/2/4 102/2/4
f 99/2/4 100/2/4 103/2/4
f 102/3/4 99/3/4 103/3/4
f 89/2/4 101/2/4 104/2/4
f 101/3/4 102/3/4 105/3/4
f 104/2/4 101/2/4 105/2/4
f 102/2/4 103/2/4 106/2/4
f 105/3/4 102/3/4 106/3/4
f 89/2/4 104/2/4 107/2/4
f 104/3/4 105/3/4 108/3/4
f 107/2/4 104/2/4 108/2/4
f 105/2/4 106/2/4 109/2/4
f 108/3/4 105/3/4 109/3/4
f 89/2/4 107/2/4 110/2/4
f 107/3/4 108/3/4 111/3/4
f 110/2/4 107/2/4 111/2/4
f 108/2/4 109/2/4 112/2/4
f 111/3/4 108/3/4 112/3/4
f 89/2/4 110/2/4 113/2/4
f 110/3/4 111/3/4 114/3/4
f 113/2/4 110/2/4 114/2/4
f 111/2/4 112/2/4 115/2/4
f 114/3/4 111/3/4 115/3/4
f 89/2/4 113/2/4 116/2/4
f 113/3/4 114/3/4 117/3/4
f 116/2/4 113/2/4 117/2/4
f 114/2/4 115/2/4 118/2/4
f 117/3/4 114/3/4 118/3/4
f 89/2/4 116/2/4 119/2/4
f 116/3/4 117/3/4 120/3/4
f 119/2/4 116/2/4 120/2/4
f 117/2/4 118/2/4 121/2/4
f 120/3/4 117/3/4 121/3/4
f 89/2/4 119/2/4 122/2/4
f 119/3/4 120/3/4 123/3/4
f 122/2/4 119/2/4 123/2/4
f 120/2/4 121/2/4 124/2/4
f 123/3/4 120/3/4 124/3/4
f 89/2/4 122/2/4 125/2/4
f 122/3/4 123/3/4 126/3/4
f 125/2/4 122/2/4 126/2/4
f 123/2/4 124/2/4 127/2/4
f 126/3/4 123/3/4 127/3/4
f 125/3/4 126/3/4 128/3/4
f 126/2/4 127/2/4 129/2/4
f 128/3/4 126/3/4 129/3/4
f 97/2/4 94/2/4 130/2/4
f 129/2/4 127/2/4 130/2/4
f 100/2/4 97/2/4 130/2/4
f 103/2/4 100/2/4 130/2/4
f 127/2/4 124/2/4 130/2/4
f 106/2/4 103/2/4 130/2/4
f 124/2/4 121/2/4 130/2/4
f 121/2/4 118/2/4 130/2/4
f 118/2/4 115/2/4 130/2/4
f 115/2/4 112/2/4 130/2/4
f 112/2/4 109/2/4 130/2/4
f 109/2/4 106/2/4 130/2/4
f 131/3/4 132/3/4 133/3/4
f 133/3/4 132/3/4 134/3/4
f 131/3/4 133/3/4 135/3/4
f 134/3/4 132/3/4 136/3/4
f 131/3/4 135/3/4 137/3/4
f 135/3/4 136/3/4 137/3/4
f 136/3/4 132/3/4 138/3/4
f 137/3/4 136/3/4 138/3/4
f 141/3/5 140/3/5 139/3/5
f 142/3/5 140/3/5 141/3/5
f 143/2/5 142/2/5 141/2/5
f 144/2/5 142/2/5 143/2/5
f 145/3/5 141/3/5 139/3/5
f 145/2/5 143/2/5 141/2/5
f 146/1/5 144/1/5 143/1/5
f 146/2/5 143/2/5 145/2/5
f 147/2/5 142/2/5 144/2/5
f 147/1/5 144/1/5 146/1/5
f 148/3/5 140/3/5 142/3/5
f 148/2/5 142/2/5 147/2/5
f 149/3/5 146/3/5 145/3/5
f 149/3/5 147/3/5 146/3/5
f 149/3/5 148/3/5 147/3/5
f 149/3/5 145/3/5 139/3/5
f 150/3/5 140/3/5 148/3/5
f 150/3/5 148/3/5 149/3/5
f 154/3/5 152/3/5 151/3/5
f 155/3/5 152/3/5 154/3/5
f 157/3/5 154/3/5 153/3/5
f 158/3/5 157/3/5 153/3/5
f 159/3/5 157/3/5 158/3/5
f 161/3/5 156/3/5 155/3/5
f 162/3/5 156/3/5 161/3/5
f 163/3/5 160/3/5 159/3/5
f 163/3/5 161/3/5 160/3/5
f 164/3/5 161/3/5 163/3/5
f 165/3/6 166/3/6 168/3/6
f 168/3/6 166/3/6 169/3/6
f 169/3/6 170/3/6 171/3/6
f 167/3/6 168/3/6 172/3/6
f 172/3/6 168/3/6 173/3/6
f 171/3/6 170/3/6 175/3/6
f 175/3/6 170/3/6 176/3/6
f 173/3/6 174/3/6 177/3/6
f 174/3/6 175/3/6 177/3/6
f 177/3/6 175/3/6 178/3/6
f 179/2/6 180/2/6 181/2/6
f 181/2/6 180/2/6 182/2/6
f 181/3/6 182/3/6 183/3/6
f 182/2/6 180/2/6 184/2/6
f 183/3/6 182/3/6 184/3/6
f 184/2/6 180/2/6 185/2/6
f 186/3/6 187/3/6 188/3/6
f 188/3/6 187/3/6 189/3/6
f 186/3/6 188/3/6 190/3/6
f 189/3/6 187/3/6 191/3/6
f 186/3/6 190/3/6 192/3/6
f 190/3/6 191/3/6 192/3/6
f 191/3/6 187/3/6 193/3/6
f 192/3/6 191/3/6 193/3/6
