# MagicaVoxel @ Ephtracy

# group
o 

# material
mtllib untitled2-91.mtl
usemtl palette

# normals
vn -1 0 0
vn 1 0 0
vn 0 0 -1
vn 0 0 1
vn 0 1 0
vn 0 -1 0

# texcoords
vt 0.888672 0.5
vt 0.892578 0.5
vt 0.896484 0.5

# verts
v -11.9 10.2 -1.7
v -11.9 10.2 -1.6
v -11.9 8.1 -1.7
v -11.9 8.1 -1.6
v -10.8 10.2 -1.7
v -10.8 10.2 -1.6
v -10.8 8.1 -1.7
v -10.8 8.1 -1.6
v -11.9 10.2 -1.7
v -11.9 8.1 -1.7
v -11.8 10.1 -1.7
v -11.8 9.1 -1.7
v -11.8 9 -1.7
v -11.8 8.8 -1.7
v -11.8 8.5 -1.7
v -11.8 8.4 -1.7
v -11.8 8.3 -1.7
v -11.8 8.2 -1.7
v -11.7 9.5 -1.7
v -11.7 9.1 -1.7
v -11.7 8.7 -1.7
v -11.7 8.6 -1.7
v -11.6 9.9 -1.7
v -11.6 9.8 -1.7
v -11.6 9.6 -1.7
v -11.6 9.5 -1.7
v -11.6 9 -1.7
v -11.6 8.8 -1.7
v -11.6 8.3 -1.7
v -11.6 8.2 -1.7
v -11.5 10 -1.7
v -11.5 9.9 -1.7
v -11.5 9.8 -1.7
v -11.5 9.6 -1.7
v -11.5 9 -1.7
v -11.5 8.8 -1.7
v -11.5 8.5 -1.7
v -11.5 8.4 -1.7
v -11.5 8.3 -1.7
v -11.5 8.2 -1.7
v -11.4 9 -1.7
v -11.4 8.8 -1.7
v -11.4 8.5 -1.7
v -11.4 8.4 -1.7
v -11.3 9 -1.7
v -11.3 8.8 -1.7
v -11.3 8.7 -1.7
v -11.3 8.6 -1.7
v -11.2 10 -1.7
v -11.2 9.9 -1.7
v -11.2 9.8 -1.7
v -11.2 9.6 -1.7
v -11.2 8.7 -1.7
v -11.2 8.6 -1.7
v -11.2 8.5 -1.7
v -11.2 8.4 -1.7
v -11.1 9.9 -1.7
v -11.1 9.8 -1.7
v -11.1 9.6 -1.7
v -11.1 9.5 -1.7
v -11.1 8.5 -1.7
v -11.1 8.4 -1.7
v -11.1 8.3 -1.7
v -11.1 8.2 -1.7
v -11 9.5 -1.7
v -11 9.1 -1.7
v -11 8.3 -1.7
v -11 8.2 -1.7
v -10.9 10.1 -1.7
v -10.9 9.1 -1.7
v -10.9 9 -1.7
v -10.9 8.8 -1.7
v -10.9 8.7 -1.7
v -10.9 8.6 -1.7
v -10.9 8.5 -1.7
v -10.9 8.4 -1.7
v -10.9 8.3 -1.7
v -10.9 8.2 -1.7
v -10.8 10.2 -1.7
v -10.8 8.1 -1.7
v -11.9 10.2 -1.6
v -11.9 8.1 -1.6
v -11.8 10.1 -1.6
v -11.8 9.1 -1.6
v -11.8 9 -1.6
v -11.8 8.8 -1.6
v -11.8 8.5 -1.6
v -11.8 8.4 -1.6
v -11.8 8.3 -1.6
v -11.8 8.2 -1.6
v -11.7 9.5 -1.6
v -11.7 9.1 -1.6
v -11.7 8.7 -1.6
v -11.7 8.6 -1.6
v -11.6 9.9 -1.6
v -11.6 9.8 -1.6
v -11.6 9.6 -1.6
v -11.6 9.5 -1.6
v -11.6 9 -1.6
v -11.6 8.8 -1.6
v -11.6 8.3 -1.6
v -11.6 8.2 -1.6
v -11.5 10 -1.6
v -11.5 9.9 -1.6
v -11.5 9.8 -1.6
v -11.5 9.6 -1.6
v -11.5 9 -1.6
v -11.5 8.8 -1.6
v -11.5 8.5 -1.6
v -11.5 8.4 -1.6
v -11.5 8.3 -1.6
v -11.5 8.2 -1.6
v -11.4 9 -1.6
v -11.4 8.8 -1.6
v -11.4 8.5 -1.6
v -11.4 8.4 -1.6
v -11.3 9 -1.6
v -11.3 8.8 -1.6
v -11.3 8.7 -1.6
v -11.3 8.6 -1.6
v -11.2 10 -1.6
v -11.2 9.9 -1.6
v -11.2 9.8 -1.6
v -11.2 9.6 -1.6
v -11.2 8.7 -1.6
v -11.2 8.6 -1.6
v -11.2 8.5 -1.6
v -11.2 8.4 -1.6
v -11.1 9.9 -1.6
v -11.1 9.8 -1.6
v -11.1 9.6 -1.6
v -11.1 9.5 -1.6
v -11.1 8.5 -1.6
v -11.1 8.4 -1.6
v -11.1 8.3 -1.6
v -11.1 8.2 -1.6
v -11 9.5 -1.6
v -11 9.1 -1.6
v -11 8.3 -1.6
v -11 8.2 -1.6
v -10.9 10.1 -1.6
v -10.9 9.1 -1.6
v -10.9 9 -1.6
v -10.9 8.8 -1.6
v -10.9 8.7 -1.6
v -10.9 8.6 -1.6
v -10.9 8.5 -1.6
v -10.9 8.4 -1.6
v -10.9 8.3 -1.6
v -10.9 8.2 -1.6
v -10.8 10.2 -1.6
v -10.8 8.1 -1.6
v -11.9 10.2 -1.7
v -10.8 10.2 -1.7
v -11.9 10.2 -1.6
v -10.8 10.2 -1.6
v -11.9 8.1 -1.7
v -10.8 8.1 -1.7
v -11.9 8.1 -1.6
v -10.8 8.1 -1.6

# faces
f 3/2/1 2/2/1 1/2/1
f 4/2/1 2/2/1 3/2/1
f 5/2/2 6/2/2 7/2/2
f 7/2/2 6/2/2 8/2/2
f 11/2/3 10/2/3 9/2/3
f 12/2/3 10/2/3 11/2/3
f 13/2/3 10/2/3 12/2/3
f 14/2/3 10/2/3 13/2/3
f 15/2/3 10/2/3 14/2/3
f 16/2/3 10/2/3 15/2/3
f 17/2/3 10/2/3 16/2/3
f 18/2/3 10/2/3 17/2/3
f 19/1/3 12/1/3 11/1/3
f 20/2/3 13/2/3 12/2/3
f 20/1/3 12/1/3 19/1/3
f 21/2/3 15/2/3 14/2/3
f 22/2/3 15/2/3 21/2/3
f 23/1/3 19/1/3 11/1/3
f 24/1/3 19/1/3 23/1/3
f 25/1/3 19/1/3 24/1/3
f 26/3/3 20/3/3 19/3/3
f 26/1/3 19/1/3 25/1/3
f 27/3/3 14/3/3 13/3/3
f 27/2/3 13/2/3 20/2/3
f 28/2/3 21/2/3 14/2/3
f 28/3/3 14/3/3 27/3/3
f 29/2/3 17/2/3 16/2/3
f 29/3/3 18/3/3 17/3/3
f 30/2/3 10/2/3 18/2/3
f 30/3/3 18/3/3 29/3/3
f 31/1/3 23/1/3 11/1/3
f 32/3/3 24/3/3 23/3/3
f 32/1/3 23/1/3 31/1/3
f 33/1/3 25/1/3 24/1/3
f 33/3/3 24/3/3 32/3/3
f 34/3/3 26/3/3 25/3/3
f 34/1/3 25/1/3 33/1/3
f 35/2/3 28/2/3 27/2/3
f 35/2/3 27/2/3 20/2/3
f 36/2/3 21/2/3 28/2/3
f 36/2/3 28/2/3 35/2/3
f 37/2/3 15/2/3 22/2/3
f 37/3/3 16/3/3 15/3/3
f 38/2/3 29/2/3 16/2/3
f 38/3/3 16/3/3 37/3/3
f 38/2/3 30/2/3 29/2/3
f 39/2/3 30/2/3 38/2/3
f 40/2/3 10/2/3 30/2/3
f 40/2/3 30/2/3 39/2/3
f 41/3/3 36/3/3 35/3/3
f 41/2/3 35/2/3 20/2/3
f 42/2/3 21/2/3 36/2/3
f 42/3/3 36/3/3 41/3/3
f 43/2/3 37/2/3 22/2/3
f 43/2/3 39/2/3 38/2/3
f 43/2/3 38/2/3 37/2/3
f 44/2/3 39/2/3 43/2/3
f 45/2/3 41/2/3 20/2/3
f 45/2/3 42/2/3 41/2/3
f 46/2/3 21/2/3 42/2/3
f 46/2/3 42/2/3 45/2/3
f 47/3/3 22/3/3 21/3/3
f 47/2/3 21/2/3 46/2/3
f 48/2/3 43/2/3 22/2/3
f 48/3/3 22/3/3 47/3/3
f 49/3/3 33/3/3 32/3/3
f 49/3/3 32/3/3 31/3/3
f 49/3/3 34/3/3 33/3/3
f 49/1/3 31/1/3 11/1/3
f 50/3/3 34/3/3 49/3/3
f 51/3/3 34/3/3 50/3/3
f 52/3/3 26/3/3 34/3/3
f 52/3/3 34/3/3 51/3/3
f 53/2/3 48/2/3 47/2/3
f 53/2/3 47/2/3 46/2/3
f 54/2/3 43/2/3 48/2/3
f 54/2/3 48/2/3 53/2/3
f 55/3/3 44/3/3 43/3/3
f 55/2/3 43/2/3 54/2/3
f 56/2/3 39/2/3 44/2/3
f 56/3/3 44/3/3 55/3/3
f 57/3/3 51/3/3 50/3/3
f 57/1/3 50/1/3 49/1/3
f 58/1/3 52/1/3 51/1/3
f 58/3/3 51/3/3 57/3/3
f 59/3/3 26/3/3 52/3/3
f 59/1/3 52/1/3 58/1/3
f 60/3/3 20/3/3 26/3/3
f 60/3/3 26/3/3 59/3/3
f 61/2/3 55/2/3 54/2/3
f 61/2/3 56/2/3 55/2/3
f 62/2/3 39/2/3 56/2/3
f 62/2/3 56/2/3 61/2/3
f 63/3/3 40/3/3 39/3/3
f 63/2/3 39/2/3 62/2/3
f 64/2/3 10/2/3 40/2/3
f 64/3/3 40/3/3 63/3/3
f 65/3/3 20/3/3 60/3/3
f 65/1/3 59/1/3 58/1/3
f 65/1/3 58/1/3 57/1/3
f 65/1/3 60/1/3 59/1/3
f 66/2/3 45/2/3 20/2/3
f 66/3/3 20/3/3 65/3/3
f 67/2/3 64/2/3 63/2/3
f 67/2/3 63/2/3 62/2/3
f 68/2/3 10/2/3 64/2/3
f 68/2/3 64/2/3 67/2/3
f 69/2/3 11/2/3 9/2/3
f 69/1/3 65/1/3 57/1/3
f 69/1/3 66/1/3 65/1/3
f 69/1/3 49/1/3 11/1/3
f 69/1/3 57/1/3 49/1/3
f 70/2/3 45/2/3 66/2/3
f 70/1/3 66/1/3 69/1/3
f 71/3/3 46/3/3 45/3/3
f 71/2/3 45/2/3 70/2/3
f 72/2/3 53/2/3 46/2/3
f 72/3/3 46/3/3 71/3/3
f 73/3/3 54/3/3 53/3/3
f 73/2/3 53/2/3 72/2/3
f 74/2/3 61/2/3 54/2/3
f 74/3/3 54/3/3 73/3/3
f 75/3/3 62/3/3 61/3/3
f 75/2/3 61/2/3 74/2/3
f 76/2/3 67/2/3 62/2/3
f 76/3/3 62/3/3 75/3/3
f 77/3/3 68/3/3 67/3/3
f 77/2/3 67/2/3 76/2/3
f 78/2/3 10/2/3 68/2/3
f 78/3/3 68/3/3 77/3/3
f 79/2/3 77/2/3 76/2/3
f 79/2/3 76/2/3 75/2/3
f 79/2/3 78/2/3 77/2/3
f 79/2/3 70/2/3 69/2/3
f 79/2/3 73/2/3 72/2/3
f 79/2/3 74/2/3 73/2/3
f 79/2/3 72/2/3 71/2/3
f 79/2/3 71/2/3 70/2/3
f 79/2/3 69/2/3 9/2/3
f 79/2/3 75/2/3 74/2/3
f 80/2/3 10/2/3 78/2/3
f 80/2/3 78/2/3 79/2/3
f 81/2/4 82/2/4 83/2/4
f 83/2/4 82/2/4 84/2/4
f 84/2/4 82/2/4 85/2/4
f 85/2/4 82/2/4 86/2/4
f 86/2/4 82/2/4 87/2/4
f 87/2/4 82/2/4 88/2/4
f 88/2/4 82/2/4 89/2/4
f 89/2/4 82/2/4 90/2/4
f 83/1/4 84/1/4 91/1/4
f 84/2/4 85/2/4 92/2/4
f 91/1/4 84/1/4 92/1/4
f 86/2/4 87/2/4 93/2/4
f 93/2/4 87/2/4 94/2/4
f 83/1/4 91/1/4 95/1/4
f 95/1/4 91/1/4 96/1/4
f 96/1/4 91/1/4 97/1/4
f 91/3/4 92/3/4 98/3/4
f 97/1/4 91/1/4 98/1/4
f 85/3/4 86/3/4 99/3/4
f 92/2/4 85/2/4 99/2/4
f 86/2/4 93/2/4 100/2/4
f 99/3/4 86/3/4 100/3/4
f 88/2/4 89/2/4 101/2/4
f 89/3/4 90/3/4 101/3/4
f 90/2/4 82/2/4 102/2/4
f 101/3/4 90/3/4 102/3/4
f 83/1/4 95/1/4 103/1/4
f 95/3/4 96/3/4 104/3/4
f 103/1/4 95/1/4 104/1/4
f 96/1/4 97/1/4 105/1/4
f 104/3/4 96/3/4 105/3/4
f 97/3/4 98/3/4 106/3/4
f 105/1/4 97/1/4 106/1/4
f 99/2/4 100/2/4 107/2/4
f 92/2/4 99/2/4 107/2/4
f 100/2/4 93/2/4 108/2/4
f 107/2/4 100/2/4 108/2/4
f 94/2/4 87/2/4 109/2/4
f 87/3/4 88/3/4 109/3/4
f 88/2/4 101/2/4 110/2/4
f 109/3/4 88/3/4 110/3/4
f 101/2/4 102/2/4 110/2/4
f 110/2/4 102/2/4 111/2/4
f 102/2/4 82/2/4 112/2/4
f 111/2/4 102/2/4 112/2/4
f 107/3/4 108/3/4 113/3/4
f 92/2/4 107/2/4 113/2/4
f 108/2/4 93/2/4 114/2/4
f 113/3/4 108/3/4 114/3/4
f 94/2/4 109/2/4 115/2/4
f 110/2/4 111/2/4 115/2/4
f 109/2/4 110/2/4 115/2/4
f 115/2/4 111/2/4 116/2/4
f 92/2/4 113/2/4 117/2/4
f 113/2/4 114/2/4 117/2/4
f 114/2/4 93/2/4 118/2/4
f 117/2/4 114/2/4 118/2/4
f 93/3/4 94/3/4 119/3/4
f 118/2/4 93/2/4 119/2/4
f 94/2/4 115/2/4 120/2/4
f 119/3/4 94/3/4 120/3/4
f 104/3/4 105/3/4 121/3/4
f 103/3/4 104/3/4 121/3/4
f 105/3/4 106/3/4 121/3/4
f 83/1/4 103/1/4 121/1/4
f 121/3/4 106/3/4 122/3/4
f 122/3/4 106/3/4 123/3/4
f 106/3/4 98/3/4 124/3/4
f 123/3/4 106/3/4 124/3/4
f 119/2/4 120/2/4 125/2/4
f 118/2/4 119/2/4 125/2/4
f 120/2/4 115/2/4 126/2/4
f 125/2/4 120/2/4 126/2/4
f 115/3/4 116/3/4 127/3/4
f 126/2/4 115/2/4 127/2/4
f 116/2/4 111/2/4 128/2/4
f 127/3/4 116/3/4 128/3/4
f 122/3/4 123/3/4 129/3/4
f 121/1/4 122/1/4 129/1/4
f 123/1/4 124/1/4 130/1/4
f 129/3/4 123/3/4 130/3/4
f 124/3/4 98/3/4 131/3/4
f 130/1/4 124/1/4 131/1/4
f 98/3/4 92/3/4 132/3/4
f 131/3/4 98/3/4 132/3/4
f 126/2/4 127/2/4 133/2/4
f 127/2/4 128/2/4 133/2/4
f 128/2/4 111/2/4 134/2/4
f 133/2/4 128/2/4 134/2/4
f 111/3/4 112/3/4 135/3/4
f 134/2/4 111/2/4 135/2/4
f 112/2/4 82/2/4 136/2/4
f 135/3/4 112/3/4 136/3/4
f 132/3/4 92/3/4 137/3/4
f 130/1/4 131/1/4 137/1/4
f 129/1/4 130/1/4 137/1/4
f 131/1/4 132/1/4 137/1/4
f 92/2/4 117/2/4 138/2/4
f 137/3/4 92/3/4 138/3/4
f 135/2/4 136/2/4 139/2/4
f 134/2/4 135/2/4 139/2/4
f 136/2/4 82/2/4 140/2/4
f 139/2/4 136/2/4 140/2/4
f 81/2/4 83/2/4 141/2/4
f 129/1/4 137/1/4 141/1/4
f 137/1/4 138/1/4 141/1/4
f 83/1/4 121/1/4 141/1/4
f 121/1/4 129/1/4 141/1/4
f 138/2/4 117/2/4 142/2/4
f 141/1/4 138/1/4 142/1/4
f 117/3/4 118/3/4 143/3/4
f 142/2/4 117/2/4 143/2/4
f 118/2/4 125/2/4 144/2/4
f 143/3/4 118/3/4 144/3/4
f 125/3/4 126/3/4 145/3/4
f 144/2/4 125/2/4 145/2/4
f 126/2/4 133/2/4 146/2/4
f 145/3/4 126/3/4 146/3/4
f 133/3/4 134/3/4 147/3/4
f 146/2/4 133/2/4 147/2/4
f 134/2/4 139/2/4 148/2/4
f 147/3/4 134/3/4 148/3/4
f 139/3/4 140/3/4 149/3/4
f 148/2/4 139/2/4 149/2/4
f 140/2/4 82/2/4 150/2/4
f 149/3/4 140/3/4 150/3/4
f 148/2/4 149/2/4 151/2/4
f 147/2/4 148/2/4 151/2/4
f 149/2/4 150/2/4 151/2/4
f 141/2/4 142/2/4 151/2/4
f 144/2/4 145/2/4 151/2/4
f 145/2/4 146/2/4 151/2/4
f 143/2/4 144/2/4 151/2/4
f 142/2/4 143/2/4 151/2/4
f 81/2/4 141/2/4 151/2/4
f 146/2/4 147/2/4 151/2/4
f 150/2/4 82/2/4 152/2/4
f 151/2/4 150/2/4 152/2/4
f 155/2/5 154/2/5 153/2/5
f 156/2/5 154/2/5 155/2/5
f 157/2/6 158/2/6 159/2/6
f 159/2/6 158/2/6 160/2/6
