# MagicaVoxel @ Ephtracy

# group
o 

# material
mtllib untitled2-139.mtl
usemtl palette

# normals
vn 0 0 -1
vn 0 0 1
vn -1 0 0
vn 1 0 0
vn 0 -1 0
vn 0 1 0

# texcoords
vt 0.306641 0.5
vt 0.978516 0.5
vt 0.990234 0.5
vt 0.994141 0.5

# verts
v -11.7 6.3 -6.1
v -10.7 6.3 -6.1
v -11.6 6.4 -6.1
v -11.5 6.4 -6.1
v -10.9 6.4 -6.1
v -10.8 6.4 -6.1
v -11.6 6.5 -6.1
v -11.5 6.5 -6.1
v -11.4 6.5 -6.1
v -11 6.5 -6.1
v -10.9 6.5 -6.1
v -10.8 6.5 -6.1
v -11.5 6.6 -6.1
v -11.4 6.6 -6.1
v -11.3 6.6 -6.1
v -11.1 6.6 -6.1
v -11 6.6 -6.1
v -10.9 6.6 -6.1
v -11.4 6.7 -6.1
v -11.3 6.7 -6.1
v -11.1 6.7 -6.1
v -11 6.7 -6.1
v -11.4 6.9 -6.1
v -11.3 6.9 -6.1
v -11.1 6.9 -6.1
v -11 6.9 -6.1
v -11.5 7 -6.1
v -11.4 7 -6.1
v -11.3 7 -6.1
v -11.1 7 -6.1
v -11 7 -6.1
v -10.9 7 -6.1
v -11.6 7.1 -6.1
v -11.5 7.1 -6.1
v -11.4 7.1 -6.1
v -11 7.1 -6.1
v -10.9 7.1 -6.1
v -10.8 7.1 -6.1
v -11.6 7.2 -6.1
v -11.5 7.2 -6.1
v -10.9 7.2 -6.1
v -10.8 7.2 -6.1
v -11.7 7.3 -6.1
v -10.7 7.3 -6.1
v -11.7 6.3 -5.1
v -10.7 6.3 -5.1
v -11.6 6.4 -5.1
v -11.5 6.4 -5.1
v -10.9 6.4 -5.1
v -10.8 6.4 -5.1
v -11.6 6.5 -5.1
v -11.5 6.5 -5.1
v -11.4 6.5 -5.1
v -11 6.5 -5.1
v -10.9 6.5 -5.1
v -10.8 6.5 -5.1
v -11.5 6.6 -5.1
v -11.4 6.6 -5.1
v -11.3 6.6 -5.1
v -11.1 6.6 -5.1
v -11 6.6 -5.1
v -10.9 6.6 -5.1
v -11.4 6.7 -5.1
v -11.3 6.7 -5.1
v -11.1 6.7 -5.1
v -11 6.7 -5.1
v -11.4 6.9 -5.1
v -11.3 6.9 -5.1
v -11.1 6.9 -5.1
v -11 6.9 -5.1
v -11.5 7 -5.1
v -11.4 7 -5.1
v -11.3 7 -5.1
v -11.1 7 -5.1
v -11 7 -5.1
v -10.9 7 -5.1
v -11.6 7.1 -5.1
v -11.5 7.1 -5.1
v -11.4 7.1 -5.1
v -11 7.1 -5.1
v -10.9 7.1 -5.1
v -10.8 7.1 -5.1
v -11.6 7.2 -5.1
v -11.5 7.2 -5.1
v -10.9 7.2 -5.1
v -10.8 7.2 -5.1
v -11.7 7.3 -5.1
v -10.7 7.3 -5.1
v -11.7 6.3 -6.1
v -11.7 7.3 -6.1
v -11.7 6.4 -6
v -11.7 6.5 -6
v -11.7 7.1 -6
v -11.7 7.2 -6
v -11.7 6.4 -5.9
v -11.7 6.5 -5.9
v -11.7 6.6 -5.9
v -11.7 7 -5.9
v -11.7 7.1 -5.9
v -11.7 7.2 -5.9
v -11.7 6.5 -5.8
v -11.7 6.6 -5.8
v -11.7 6.7 -5.8
v -11.7 6.9 -5.8
v -11.7 7 -5.8
v -11.7 7.1 -5.8
v -11.7 6.6 -5.7
v -11.7 6.7 -5.7
v -11.7 6.9 -5.7
v -11.7 7 -5.7
v -11.7 6.6 -5.5
v -11.7 6.7 -5.5
v -11.7 6.9 -5.5
v -11.7 7 -5.5
v -11.7 6.5 -5.4
v -11.7 6.6 -5.4
v -11.7 6.7 -5.4
v -11.7 6.9 -5.4
v -11.7 7 -5.4
v -11.7 7.1 -5.4
v -11.7 6.4 -5.3
v -11.7 6.5 -5.3
v -11.7 6.6 -5.3
v -11.7 7 -5.3
v -11.7 7.1 -5.3
v -11.7 7.2 -5.3
v -11.7 6.4 -5.2
v -11.7 6.5 -5.2
v -11.7 7.1 -5.2
v -11.7 7.2 -5.2
v -11.7 6.3 -5.1
v -11.7 7.3 -5.1
v -10.7 6.3 -6.1
v -10.7 7.3 -6.1
v -10.7 6.4 -6
v -10.7 6.5 -6
v -10.7 7.1 -6
v -10.7 7.2 -6
v -10.7 6.4 -5.9
v -10.7 6.5 -5.9
v -10.7 6.6 -5.9
v -10.7 7 -5.9
v -10.7 7.1 -5.9
v -10.7 7.2 -5.9
v -10.7 6.5 -5.8
v -10.7 6.6 -5.8
v -10.7 6.7 -5.8
v -10.7 6.9 -5.8
v -10.7 7 -5.8
v -10.7 7.1 -5.8
v -10.7 6.6 -5.7
v -10.7 6.7 -5.7
v -10.7 6.9 -5.7
v -10.7 7 -5.7
v -10.7 6.6 -5.5
v -10.7 6.7 -5.5
v -10.7 6.9 -5.5
v -10.7 7 -5.5
v -10.7 6.5 -5.4
v -10.7 6.6 -5.4
v -10.7 6.7 -5.4
v -10.7 6.9 -5.4
v -10.7 7 -5.4
v -10.7 7.1 -5.4
v -10.7 6.4 -5.3
v -10.7 6.5 -5.3
v -10.7 6.6 -5.3
v -10.7 7 -5.3
v -10.7 7.1 -5.3
v -10.7 7.2 -5.3
v -10.7 6.4 -5.2
v -10.7 6.5 -5.2
v -10.7 7.1 -5.2
v -10.7 7.2 -5.2
v -10.7 6.3 -5.1
v -10.7 7.3 -5.1
v -11.7 6.3 -6.1
v -11.7 6.3 -5.1
v -11.6 6.3 -6
v -11.6 6.3 -5.2
v -10.8 6.3 -6
v -10.8 6.3 -5.2
v -10.7 6.3 -6.1
v -10.7 6.3 -5.1
v -11.7 7.3 -6.1
v -11.7 7.3 -5.1
v -11.6 7.3 -6
v -11.6 7.3 -5.9
v -11.6 7.3 -5.3
v -11.6 7.3 -5.2
v -11.5 7.3 -6
v -11.5 7.3 -5.9
v -11.5 7.3 -5.8
v -11.5 7.3 -5.4
v -11.5 7.3 -5.3
v -11.5 7.3 -5.2
v -11.4 7.3 -5.9
v -11.4 7.3 -5.8
v -11.4 7.3 -5.7
v -11.4 7.3 -5.5
v -11.4 7.3 -5.4
v -11.4 7.3 -5.3
v -11.3 7.3 -5.8
v -11.3 7.3 -5.7
v -11.3 7.3 -5.5
v -11.3 7.3 -5.4
v -11.1 7.3 -5.8
v -11.1 7.3 -5.7
v -11.1 7.3 -5.5
v -11.1 7.3 -5.4
v -11 7.3 -5.9
v -11 7.3 -5.8
v -11 7.3 -5.7
v -11 7.3 -5.5
v -11 7.3 -5.4
v -11 7.3 -5.3
v -10.9 7.3 -6
v -10.9 7.3 -5.9
v -10.9 7.3 -5.8
v -10.9 7.3 -5.4
v -10.9 7.3 -5.3
v -10.9 7.3 -5.2
v -10.8 7.3 -6
v -10.8 7.3 -5.9
v -10.8 7.3 -5.3
v -10.8 7.3 -5.2
v -10.7 7.3 -6.1
v -10.7 7.3 -5.1

# faces
f 3/3/1 2/3/1 1/3/1
f 4/3/1 2/3/1 3/3/1
f 5/3/1 2/3/1 4/3/1
f 6/3/1 2/3/1 5/3/1
f 7/3/1 3/3/1 1/3/1
f 7/4/1 4/4/1 3/4/1
f 8/2/1 5/2/1 4/2/1
f 8/4/1 4/4/1 7/4/1
f 9/2/1 5/2/1 8/2/1
f 10/2/1 5/2/1 9/2/1
f 11/4/1 6/4/1 5/4/1
f 11/2/1 5/2/1 10/2/1
f 12/3/1 2/3/1 6/3/1
f 12/4/1 6/4/1 11/4/1
f 13/2/1 8/2/1 7/2/1
f 13/4/1 9/4/1 8/4/1
f 14/2/1 10/2/1 9/2/1
f 14/4/1 9/4/1 13/4/1
f 15/2/1 10/2/1 14/2/1
f 16/2/1 10/2/1 15/2/1
f 17/4/1 11/4/1 10/4/1
f 17/2/1 10/2/1 16/2/1
f 18/2/1 12/2/1 11/2/1
f 18/4/1 11/4/1 17/4/1
f 19/2/1 14/2/1 13/2/1
f 19/4/1 15/4/1 14/4/1
f 20/2/1 16/2/1 15/2/1
f 20/4/1 15/4/1 19/4/1
f 21/4/1 17/4/1 16/4/1
f 21/2/1 16/2/1 20/2/1
f 22/2/1 18/2/1 17/2/1
f 22/4/1 17/4/1 21/4/1
f 23/2/1 19/2/1 13/2/1
f 23/2/1 20/2/1 19/2/1
f 24/4/1 21/4/1 20/4/1
f 24/2/1 20/2/1 23/2/1
f 25/2/1 22/2/1 21/2/1
f 25/4/1 21/4/1 24/4/1
f 26/2/1 18/2/1 22/2/1
f 26/2/1 22/2/1 25/2/1
f 27/2/1 13/2/1 7/2/1
f 27/2/1 23/2/1 13/2/1
f 28/4/1 24/4/1 23/4/1
f 28/2/1 23/2/1 27/2/1
f 29/2/1 25/2/1 24/2/1
f 29/4/1 24/4/1 28/4/1
f 30/4/1 26/4/1 25/4/1
f 30/2/1 25/2/1 29/2/1
f 31/2/1 18/2/1 26/2/1
f 31/4/1 26/4/1 30/4/1
f 32/2/1 12/2/1 18/2/1
f 32/2/1 18/2/1 31/2/1
f 33/3/1 7/3/1 1/3/1
f 33/2/1 27/2/1 7/2/1
f 34/4/1 28/4/1 27/4/1
f 34/2/1 27/2/1 33/2/1
f 35/2/1 30/2/1 29/2/1
f 35/4/1 28/4/1 34/4/1
f 35/2/1 31/2/1 30/2/1
f 35/2/1 29/2/1 28/2/1
f 36/4/1 32/4/1 31/4/1
f 36/2/1 31/2/1 35/2/1
f 37/2/1 12/2/1 32/2/1
f 37/4/1 32/4/1 36/4/1
f 38/3/1 2/3/1 12/3/1
f 38/2/1 12/2/1 37/2/1
f 39/3/1 33/3/1 1/3/1
f 39/4/1 34/4/1 33/4/1
f 40/2/1 36/2/1 35/2/1
f 40/4/1 34/4/1 39/4/1
f 40/2/1 37/2/1 36/2/1
f 40/2/1 35/2/1 34/2/1
f 41/4/1 38/4/1 37/4/1
f 41/2/1 37/2/1 40/2/1
f 42/3/1 2/3/1 38/3/1
f 42/4/1 38/4/1 41/4/1
f 43/3/1 41/3/1 40/3/1
f 43/3/1 40/3/1 39/3/1
f 43/3/1 42/3/1 41/3/1
f 43/3/1 39/3/1 1/3/1
f 44/3/1 2/3/1 42/3/1
f 44/3/1 42/3/1 43/3/1
f 45/3/2 46/3/2 47/3/2
f 47/3/2 46/3/2 48/3/2
f 48/3/2 46/3/2 49/3/2
f 49/3/2 46/3/2 50/3/2
f 45/3/2 47/3/2 51/3/2
f 47/4/2 48/4/2 51/4/2
f 48/2/2 49/2/2 52/2/2
f 51/4/2 48/4/2 52/4/2
f 52/2/2 49/2/2 53/2/2
f 53/2/2 49/2/2 54/2/2
f 49/4/2 50/4/2 55/4/2
f 54/2/2 49/2/2 55/2/2
f 50/3/2 46/3/2 56/3/2
f 55/4/2 50/4/2 56/4/2
f 51/2/2 52/2/2 57/2/2
f 52/4/2 53/4/2 57/4/2
f 53/2/2 54/2/2 58/2/2
f 57/4/2 53/4/2 58/4/2
f 58/2/2 54/2/2 59/2/2
f 59/2/2 54/2/2 60/2/2
f 54/4/2 55/4/2 61/4/2
f 60/2/2 54/2/2 61/2/2
f 55/2/2 56/2/2 62/2/2
f 61/4/2 55/4/2 62/4/2
f 57/2/2 58/2/2 63/2/2
f 58/4/2 59/4/2 63/4/2
f 59/2/2 60/2/2 64/2/2
f 63/4/2 59/4/2 64/4/2
f 60/4/2 61/4/2 65/4/2
f 64/2/2 60/2/2 65/2/2
f 61/2/2 62/2/2 66/2/2
f 65/4/2 61/4/2 66/4/2
f 57/2/2 63/2/2 67/2/2
f 63/2/2 64/2/2 67/2/2
f 64/4/2 65/4/2 68/4/2
f 67/2/2 64/2/2 68/2/2
f 65/2/2 66/2/2 69/2/2
f 68/4/2 65/4/2 69/4/2
f 66/2/2 62/2/2 70/2/2
f 69/2/2 66/2/2 70/2/2
f 51/2/2 57/2/2 71/2/2
f 57/2/2 67/2/2 71/2/2
f 67/4/2 68/4/2 72/4/2
f 71/2/2 67/2/2 72/2/2
f 68/2/2 69/2/2 73/2/2
f 72/4/2 68/4/2 73/4/2
f 69/4/2 70/4/2 74/4/2
f 73/2/2 69/2/2 74/2/2
f 70/2/2 62/2/2 75/2/2
f 74/4/2 70/4/2 75/4/2
f 62/2/2 56/2/2 76/2/2
f 75/2/2 62/2/2 76/2/2
f 45/3/2 51/3/2 77/3/2
f 51/2/2 71/2/2 77/2/2
f 71/4/2 72/4/2 78/4/2
f 77/2/2 71/2/2 78/2/2
f 73/2/2 74/2/2 79/2/2
f 78/4/2 72/4/2 79/4/2
f 74/2/2 75/2/2 79/2/2
f 72/2/2 73/2/2 79/2/2
f 75/4/2 76/4/2 80/4/2
f 79/2/2 75/2/2 80/2/2
f 76/2/2 56/2/2 81/2/2
f 80/4/2 76/4/2 81/4/2
f 56/3/2 46/3/2 82/3/2
f 81/2/2 56/2/2 82/2/2
f 45/3/2 77/3/2 83/3/2
f 77/4/2 78/4/2 83/4/2
f 79/2/2 80/2/2 84/2/2
f 83/4/2 78/4/2 84/4/2
f 80/2/2 81/2/2 84/2/2
f 78/2/2 79/2/2 84/2/2
f 81/4/2 82/4/2 85/4/2
f 84/2/2 81/2/2 85/2/2
f 82/3/2 46/3/2 86/3/2
f 85/4/2 82/4/2 86/4/2
f 84/3/2 85/3/2 87/3/2
f 83/3/2 84/3/2 87/3/2
f 85/3/2 86/3/2 87/3/2
f 45/3/2 83/3/2 87/3/2
f 86/3/2 46/3/2 88/3/2
f 87/3/2 86/3/2 88/3/2
f 91/3/3 90/3/3 89/3/3
f 92/3/3 90/3/3 91/3/3
f 93/3/3 90/3/3 92/3/3
f 94/3/3 90/3/3 93/3/3
f 95/3/3 91/3/3 89/3/3
f 95/4/3 92/4/3 91/4/3
f 96/2/3 93/2/3 92/2/3
f 96/4/3 92/4/3 95/4/3
f 97/2/3 93/2/3 96/2/3
f 98/2/3 93/2/3 97/2/3
f 99/4/3 94/4/3 93/4/3
f 99/2/3 93/2/3 98/2/3
f 100/3/3 90/3/3 94/3/3
f 100/4/3 94/4/3 99/4/3
f 101/2/3 96/2/3 95/2/3
f 101/4/3 97/4/3 96/4/3
f 102/2/3 98/2/3 97/2/3
f 102/4/3 97/4/3 101/4/3
f 103/2/3 98/2/3 102/2/3
f 104/2/3 98/2/3 103/2/3
f 105/4/3 99/4/3 98/4/3
f 105/2/3 98/2/3 104/2/3
f 106/2/3 100/2/3 99/2/3
f 106/4/3 99/4/3 105/4/3
f 107/2/3 102/2/3 101/2/3
f 107/4/3 103/4/3 102/4/3
f 108/2/3 104/2/3 103/2/3
f 108/4/3 103/4/3 107/4/3
f 109/4/3 105/4/3 104/4/3
f 109/2/3 104/2/3 108/2/3
f 110/2/3 106/2/3 105/2/3
f 110/4/3 105/4/3 109/4/3
f 111/2/3 107/2/3 101/2/3
f 111/2/3 108/2/3 107/2/3
f 112/4/3 109/4/3 108/4/3
f 112/2/3 108/2/3 111/2/3
f 113/2/3 110/2/3 109/2/3
f 113/4/3 109/4/3 112/4/3
f 114/2/3 106/2/3 110/2/3
f 114/2/3 110/2/3 113/2/3
f 115/2/3 101/2/3 95/2/3
f 115/2/3 111/2/3 101/2/3
f 116/4/3 112/4/3 111/4/3
f 116/2/3 111/2/3 115/2/3
f 117/2/3 113/2/3 112/2/3
f 117/4/3 112/4/3 116/4/3
f 118/4/3 114/4/3 113/4/3
f 118/2/3 113/2/3 117/2/3
f 119/2/3 106/2/3 114/2/3
f 119/4/3 114/4/3 118/4/3
f 120/2/3 100/2/3 106/2/3
f 120/2/3 106/2/3 119/2/3
f 121/3/3 95/3/3 89/3/3
f 121/2/3 115/2/3 95/2/3
f 122/4/3 116/4/3 115/4/3
f 122/2/3 115/2/3 121/2/3
f 123/2/3 118/2/3 117/2/3
f 123/4/3 116/4/3 122/4/3
f 123/2/3 119/2/3 118/2/3
f 123/2/3 117/2/3 116/2/3
f 124/4/3 120/4/3 119/4/3
f 124/2/3 119/2/3 123/2/3
f 125/2/3 100/2/3 120/2/3
f 125/4/3 120/4/3 124/4/3
f 126/3/3 90/3/3 100/3/3
f 126/2/3 100/2/3 125/2/3
f 127/3/3 121/3/3 89/3/3
f 127/4/3 122/4/3 121/4/3
f 128/2/3 124/2/3 123/2/3
f 128/4/3 122/4/3 127/4/3
f 128/2/3 125/2/3 124/2/3
f 128/2/3 123/2/3 122/2/3
f 129/4/3 126/4/3 125/4/3
f 129/2/3 125/2/3 128/2/3
f 130/3/3 90/3/3 126/3/3
f 130/4/3 126/4/3 129/4/3
f 131/3/3 129/3/3 128/3/3
f 131/3/3 128/3/3 127/3/3
f 131/3/3 130/3/3 129/3/3
f 131/3/3 127/3/3 89/3/3
f 132/3/3 90/3/3 130/3/3
f 132/3/3 130/3/3 131/3/3
f 133/3/4 134/3/4 135/3/4
f 135/3/4 134/3/4 136/3/4
f 136/3/4 134/3/4 137/3/4
f 137/3/4 134/3/4 138/3/4
f 133/3/4 135/3/4 139/3/4
f 135/4/4 136/4/4 139/4/4
f 136/2/4 137/2/4 140/2/4
f 139/4/4 136/4/4 140/4/4
f 140/2/4 137/2/4 141/2/4
f 141/2/4 137/2/4 142/2/4
f 137/4/4 138/4/4 143/4/4
f 142/2/4 137/2/4 143/2/4
f 138/3/4 134/3/4 144/3/4
f 143/4/4 138/4/4 144/4/4
f 139/2/4 140/2/4 145/2/4
f 140/4/4 141/4/4 145/4/4
f 141/2/4 142/2/4 146/2/4
f 145/4/4 141/4/4 146/4/4
f 146/2/4 142/2/4 147/2/4
f 147/2/4 142/2/4 148/2/4
f 142/4/4 143/4/4 149/4/4
f 148/2/4 142/2/4 149/2/4
f 143/2/4 144/2/4 150/2/4
f 149/4/4 143/4/4 150/4/4
f 145/2/4 146/2/4 151/2/4
f 146/4/4 147/4/4 151/4/4
f 147/2/4 148/2/4 152/2/4
f 151/4/4 147/4/4 152/4/4
f 148/4/4 149/4/4 153/4/4
f 152/2/4 148/2/4 153/2/4
f 149/2/4 150/2/4 154/2/4
f 153/4/4 149/4/4 154/4/4
f 145/2/4 151/2/4 155/2/4
f 151/2/4 152/2/4 155/2/4
f 152/4/4 153/4/4 156/4/4
f 155/2/4 152/2/4 156/2/4
f 153/2/4 154/2/4 157/2/4
f 156/4/4 153/4/4 157/4/4
f 154/2/4 150/2/4 158/2/4
f 157/2/4 154/2/4 158/2/4
f 139/2/4 145/2/4 159/2/4
f 145/2/4 155/2/4 159/2/4
f 155/4/4 156/4/4 160/4/4
f 159/2/4 155/2/4 160/2/4
f 156/2/4 157/2/4 161/2/4
f 160/4/4 156/4/4 161/4/4
f 157/4/4 158/4/4 162/4/4
f 161/2/4 157/2/4 162/2/4
f 158/2/4 150/2/4 163/2/4
f 162/4/4 158/4/4 163/4/4
f 150/2/4 144/2/4 164/2/4
f 163/2/4 150/2/4 164/2/4
f 133/3/4 139/3/4 165/3/4
f 139/2/4 159/2/4 165/2/4
f 159/4/4 160/4/4 166/4/4
f 165/2/4 159/2/4 166/2/4
f 161/2/4 162/2/4 167/2/4
f 166/4/4 160/4/4 167/4/4
f 162/2/4 163/2/4 167/2/4
f 160/2/4 161/2/4 167/2/4
f 163/4/4 164/4/4 168/4/4
f 167/2/4 163/2/4 168/2/4
f 164/2/4 144/2/4 169/2/4
f 168/4/4 164/4/4 169/4/4
f 144/3/4 134/3/4 170/3/4
f 169/2/4 144/2/4 170/2/4
f 133/3/4 165/3/4 171/3/4
f 165/4/4 166/4/4 171/4/4
f 167/2/4 168/2/4 172/2/4
f 171/4/4 166/4/4 172/4/4
f 168/2/4 169/2/4 172/2/4
f 166/2/4 167/2/4 172/2/4
f 169/4/4 170/4/4 173/4/4
f 172/2/4 169/2/4 173/2/4
f 170/3/4 134/3/4 174/3/4
f 173/4/4 170/4/4 174/4/4
f 172/3/4 173/3/4 175/3/4
f 171/3/4 172/3/4 175/3/4
f 173/3/4 174/3/4 175/3/4
f 133/3/4 171/3/4 175/3/4
f 174/3/4 134/3/4 176/3/4
f 175/3/4 174/3/4 176/3/4
f 179/3/5 178/3/5 177/3/5
f 180/3/5 178/3/5 179/3/5
f 181/3/5 179/3/5 177/3/5
f 181/1/5 180/1/5 179/1/5
f 182/3/5 178/3/5 180/3/5
f 182/1/5 180/1/5 181/1/5
f 183/3/5 181/3/5 177/3/5
f 183/3/5 182/3/5 181/3/5
f 184/3/5 178/3/5 182/3/5
f 184/3/5 182/3/5 183/3/5
f 185/3/6 186/3/6 187/3/6
f 187/3/6 186/3/6 188/3/6
f 188/3/6 186/3/6 189/3/6
f 189/3/6 186/3/6 190/3/6
f 185/3/6 187/3/6 191/3/6
f 187/4/6 188/4/6 191/4/6
f 188/2/6 189/2/6 192/2/6
f 191/4/6 188/4/6 192/4/6
f 192/2/6 189/2/6 193/2/6
f 193/2/6 189/2/6 194/2/6
f 189/4/6 190/4/6 195/4/6
f 194/2/6 189/2/6 195/2/6
f 190/3/6 186/3/6 196/3/6
f 195/4/6 190/4/6 196/4/6
f 191/2/6 192/2/6 197/2/6
f 192/4/6 193/4/6 197/4/6
f 193/2/6 194/2/6 198/2/6
f 197/4/6 193/4/6 198/4/6
f 198/2/6 194/2/6 199/2/6
f 199/2/6 194/2/6 200/2/6
f 194/4/6 195/4/6 201/4/6
f 200/2/6 194/2/6 201/2/6
f 195/2/6 196/2/6 202/2/6
f 201/4/6 195/4/6 202/4/6
f 197/2/6 198/2/6 203/2/6
f 198/4/6 199/4/6 203/4/6
f 199/2/6 200/2/6 204/2/6
f 203/4/6 199/4/6 204/4/6
f 200/4/6 201/4/6 205/4/6
f 204/2/6 200/2/6 205/2/6
f 201/2/6 202/2/6 206/2/6
f 205/4/6 201/4/6 206/4/6
f 197/2/6 203/2/6 207/2/6
f 203/2/6 204/2/6 207/2/6
f 204/4/6 205/4/6 208/4/6
f 207/2/6 204/2/6 208/2/6
f 205/2/6 206/2/6 209/2/6
f 208/4/6 205/4/6 209/4/6
f 206/2/6 202/2/6 210/2/6
f 209/2/6 206/2/6 210/2/6
f 191/2/6 197/2/6 211/2/6
f 197/2/6 207/2/6 211/2/6
f 207/4/6 208/4/6 212/4/6
f 211/2/6 207/2/6 212/2/6
f 208/2/6 209/2/6 213/2/6
f 212/4/6 208/4/6 213/4/6
f 209/4/6 210/4/6 214/4/6
f 213/2/6 209/2/6 214/2/6
f 210/2/6 202/2/6 215/2/6
f 214/4/6 210/4/6 215/4/6
f 202/2/6 196/2/6 216/2/6
f 215/2/6 202/2/6 216/2/6
f 185/3/6 191/3/6 217/3/6
f 191/2/6 211/2/6 217/2/6
f 211/4/6 212/4/6 218/4/6
f 217/2/6 211/2/6 218/2/6
f 213/2/6 214/2/6 219/2/6
f 218/4/6 212/4/6 219/4/6
f 214/2/6 215/2/6 219/2/6
f 212/2/6 213/2/6 219/2/6
f 215/4/6 216/4/6 220/4/6
f 219/2/6 215/2/6 220/2/6
f 216/2/6 196/2/6 221/2/6
f 220/4/6 216/4/6 221/4/6
f 196/3/6 186/3/6 222/3/6
f 221/2/6 196/2/6 222/2/6
f 185/3/6 217/3/6 223/3/6
f 217/4/6 218/4/6 223/4/6
f 219/2/6 220/2/6 224/2/6
f 223/4/6 218/4/6 224/4/6
f 220/2/6 221/2/6 224/2/6
f 218/2/6 219/2/6 224/2/6
f 221/4/6 222/4/6 225/4/6
f 224/2/6 221/2/6 225/2/6
f 222/3/6 186/3/6 226/3/6
f 225/4/6 222/4/6 226/4/6
f 224/3/6 225/3/6 227/3/6
f 223/3/6 224/3/6 227/3/6
f 225/3/6 226/3/6 227/3/6
f 185/3/6 223/3/6 227/3/6
f 226/3/6 186/3/6 228/3/6
f 227/3/6 226/3/6 228/3/6
