# MagicaVoxel @ Ephtracy

# group
o 

# material
mtllib untitled2-149.mtl
usemtl palette

# normals
vn 0 0 -1
vn 0 0 1
vn -1 0 0
vn 1 0 0
vn 0 -1 0
vn 0 1 0

# texcoords
vt 0.306641 0.5
vt 0.986328 0.5
vt 0.994141 0.5

# verts
v -5.5 0.8 -0.4
v -2.6 0.8 -0.4
v -5.3 1 -0.4
v -2.8 1 -0.4
v -5.3 2.9 -0.4
v -2.8 2.9 -0.4
v -5.5 3.1 -0.4
v -2.6 3.1 -0.4
v -5.3 1 -0.3
v -2.8 1 -0.3
v -5.3 2.9 -0.3
v -2.8 2.9 -0.3
v -2.7 1 2.3
v -2.6 1 2.3
v -2.7 2.9 2.3
v -2.6 2.9 2.3
v -5.3 3 2.3
v -2.8 3 2.3
v -5.3 3.1 2.3
v -2.8 3.1 2.3
v -2.7 1 -0.2
v -2.6 1 -0.2
v -2.7 2.9 -0.2
v -2.6 2.9 -0.2
v -5.3 3 -0.2
v -2.8 3 -0.2
v -5.3 3.1 -0.2
v -2.8 3.1 -0.2
v -5.2 1 2.4
v -2.8 1 2.4
v -5.2 2.9 2.4
v -2.8 2.9 2.4
v -5.5 0.8 2.5
v -2.6 0.8 2.5
v -5.2 1 2.5
v -2.8 1 2.5
v -5.2 2.9 2.5
v -2.8 2.9 2.5
v -5.5 3.1 2.5
v -2.6 3.1 2.5
v -5.5 0.8 -0.4
v -5.5 3.1 -0.4
v -5.5 0.8 2.5
v -5.5 3.1 2.5
v -2.8 1 -0.4
v -2.8 2.9 -0.4
v -2.8 1 -0.3
v -2.8 2.9 -0.3
v -2.8 3 -0.2
v -2.8 3.1 -0.2
v -2.8 3 2.3
v -2.8 3.1 2.3
v -2.8 1 2.4
v -2.8 2.9 2.4
v -2.8 1 2.5
v -2.8 2.9 2.5
v -5.3 1 -0.4
v -5.3 2.9 -0.4
v -5.3 1 -0.3
v -5.3 2.9 -0.3
v -5.3 3 -0.2
v -5.3 3.1 -0.2
v -5.3 3 2.3
v -5.3 3.1 2.3
v -5.2 1 2.4
v -5.2 2.9 2.4
v -5.2 1 2.5
v -5.2 2.9 2.5
v -2.7 1 -0.2
v -2.7 2.9 -0.2
v -2.7 1 2.3
v -2.7 2.9 2.3
v -2.6 0.8 -0.4
v -2.6 3.1 -0.4
v -2.6 1 -0.2
v -2.6 2.9 -0.2
v -2.6 1 2.3
v -2.6 2.9 2.3
v -2.6 0.8 2.5
v -2.6 3.1 2.5
v -5.5 0.8 -0.4
v -5.5 0.8 2.5
v -5.4 0.8 -0.3
v -5.4 0.8 2.4
v -5.3 0.8 -0.3
v -5.3 0.8 -0.2
v -5.2 0.8 2.3
v -5.2 0.8 2.4
v -2.8 0.8 -0.3
v -2.8 0.8 -0.2
v -2.8 0.8 2.3
v -2.8 0.8 2.4
v -2.7 0.8 -0.3
v -2.7 0.8 -0.2
v -2.7 0.8 2.3
v -2.7 0.8 2.4
v -2.6 0.8 -0.4
v -2.6 0.8 2.5
v -5.3 2.9 -0.4
v -5.3 2.9 -0.3
v -5.2 2.9 2.4
v -5.2 2.9 2.5
v -2.8 2.9 -0.4
v -2.8 2.9 -0.3
v -2.8 2.9 2.4
v -2.8 2.9 2.5
v -2.7 2.9 -0.2
v -2.7 2.9 2.3
v -2.6 2.9 -0.2
v -2.6 2.9 2.3
v -5.3 1 -0.4
v -5.3 1 -0.3
v -5.2 1 2.4
v -5.2 1 2.5
v -2.8 1 -0.4
v -2.8 1 -0.3
v -2.8 1 2.4
v -2.8 1 2.5
v -2.7 1 -0.2
v -2.7 1 2.3
v -2.6 1 -0.2
v -2.6 1 2.3
v -5.3 3 -0.2
v -5.3 3 2.3
v -2.8 3 -0.2
v -2.8 3 2.3
v -5.5 3.1 -0.4
v -5.5 3.1 2.5
v -5.3 3.1 -0.2
v -5.3 3.1 2.3
v -2.8 3.1 -0.2
v -2.8 3.1 2.3
v -2.6 3.1 -0.4
v -2.6 3.1 2.5

# faces
f 3/3/1 2/3/1 1/3/1
f 4/3/1 2/3/1 3/3/1
f 5/3/1 3/3/1 1/3/1
f 6/3/1 2/3/1 4/3/1
f 7/3/1 5/3/1 1/3/1
f 7/3/1 6/3/1 5/3/1
f 8/3/1 2/3/1 6/3/1
f 8/3/1 6/3/1 7/3/1
f 11/2/1 10/2/1 9/2/1
f 12/2/1 10/2/1 11/2/1
f 15/3/1 14/3/1 13/3/1
f 16/3/1 14/3/1 15/3/1
f 19/3/1 18/3/1 17/3/1
f 20/3/1 18/3/1 19/3/1
f 21/3/2 22/3/2 23/3/2
f 23/3/2 22/3/2 24/3/2
f 25/3/2 26/3/2 27/3/2
f 27/3/2 26/3/2 28/3/2
f 29/2/2 30/2/2 31/2/2
f 31/2/2 30/2/2 32/2/2
f 33/3/2 34/3/2 35/3/2
f 35/3/2 34/3/2 36/3/2
f 33/3/2 35/3/2 37/3/2
f 36/3/2 34/3/2 38/3/2
f 33/3/2 37/3/2 39/3/2
f 37/3/2 38/3/2 39/3/2
f 38/3/2 34/3/2 40/3/2
f 39/3/2 38/3/2 40/3/2
f 43/3/3 42/3/3 41/3/3
f 44/3/3 42/3/3 43/3/3
f 47/3/3 46/3/3 45/3/3
f 48/3/3 46/3/3 47/3/3
f 51/3/3 50/3/3 49/3/3
f 52/3/3 50/3/3 51/3/3
f 55/3/3 54/3/3 53/3/3
f 56/3/3 54/3/3 55/3/3
f 57/3/4 58/3/4 59/3/4
f 59/3/4 58/3/4 60/3/4
f 61/3/4 62/3/4 63/3/4
f 63/3/4 62/3/4 64/3/4
f 65/3/4 66/3/4 67/3/4
f 67/3/4 66/3/4 68/3/4
f 69/2/4 70/2/4 71/2/4
f 71/2/4 70/2/4 72/2/4
f 73/3/4 74/3/4 75/3/4
f 75/3/4 74/3/4 76/3/4
f 73/3/4 75/3/4 77/3/4
f 76/3/4 74/3/4 78/3/4
f 73/3/4 77/3/4 79/3/4
f 77/3/4 78/3/4 79/3/4
f 78/3/4 74/3/4 80/3/4
f 79/3/4 78/3/4 80/3/4
f 83/3/5 82/3/5 81/3/5
f 84/3/5 82/3/5 83/3/5
f 85/3/5 83/3/5 81/3/5
f 85/1/5 84/1/5 83/1/5
f 86/1/5 84/1/5 85/1/5
f 87/1/5 84/1/5 86/1/5
f 88/3/5 82/3/5 84/3/5
f 88/1/5 84/1/5 87/1/5
f 89/3/5 85/3/5 81/3/5
f 89/2/5 86/2/5 85/2/5
f 90/1/5 87/1/5 86/1/5
f 90/2/5 86/2/5 89/2/5
f 91/2/5 88/2/5 87/2/5
f 91/1/5 87/1/5 90/1/5
f 92/3/5 82/3/5 88/3/5
f 92/2/5 88/2/5 91/2/5
f 93/3/5 89/3/5 81/3/5
f 93/1/5 90/1/5 89/1/5
f 94/2/5 91/2/5 90/2/5
f 94/1/5 90/1/5 93/1/5
f 95/1/5 92/1/5 91/1/5
f 95/2/5 91/2/5 94/2/5
f 96/3/5 82/3/5 92/3/5
f 96/1/5 92/1/5 95/1/5
f 97/3/5 95/3/5 94/3/5
f 97/3/5 93/3/5 81/3/5
f 97/3/5 96/3/5 95/3/5
f 97/3/5 94/3/5 93/3/5
f 98/3/5 82/3/5 96/3/5
f 98/3/5 96/3/5 97/3/5
f 103/3/5 100/3/5 99/3/5
f 104/3/5 100/3/5 103/3/5
f 105/3/5 102/3/5 101/3/5
f 106/3/5 102/3/5 105/3/5
f 109/3/5 108/3/5 107/3/5
f 110/3/5 108/3/5 109/3/5
f 111/3/6 112/3/6 115/3/6
f 115/3/6 112/3/6 116/3/6
f 113/3/6 114/3/6 117/3/6
f 117/3/6 114/3/6 118/3/6
f 119/3/6 120/3/6 121/3/6
f 121/3/6 120/3/6 122/3/6
f 123/2/6 124/2/6 125/2/6
f 125/2/6 124/2/6 126/2/6
f 127/3/6 128/3/6 129/3/6
f 129/3/6 128/3/6 130/3/6
f 127/3/6 129/3/6 131/3/6
f 130/3/6 128/3/6 132/3/6
f 127/3/6 131/3/6 133/3/6
f 131/3/6 132/3/6 133/3/6
f 132/3/6 128/3/6 134/3/6
f 133/3/6 132/3/6 134/3/6
