# MagicaVoxel @ Ephtracy

# group
o 

# material
mtllib untitled2-74.mtl
usemtl palette

# normals
vn 0 0 -1
vn 0 0 1
vn -1 0 0
vn 1 0 0
vn 0 -1 0
vn 0 1 0

# texcoords
vt 0.970703 0.5
vt 0.982422 0.5

# verts
v -16.8 4.3 17
v -16.6 4.3 17
v -16.5 4.3 17
v -16.2 4.3 17
v -16.1 4.3 17
v -15.8 4.3 17
v -15.7 4.3 17
v -15.4 4.3 17
v -16.8 4.5 17
v -16.6 4.5 17
v -16.5 4.5 17
v -16.2 4.5 17
v -16.1 4.5 17
v -15.8 4.5 17
v -15.7 4.5 17
v -15.4 4.5 17
v -16.9 4.3 17.1
v -16.8 4.3 17.1
v -15.4 4.3 17.1
v -15.3 4.3 17.1
v -16.9 4.5 17.1
v -16.8 4.5 17.1
v -15.4 4.5 17.1
v -15.3 4.5 17.1
v -17 2.4 17.2
v -16.8 2.4 17.2
v -15.4 2.4 17.2
v -15.2 2.4 17.2
v -16.8 2.7 17.2
v -15.4 2.7 17.2
v -16.8 2.9 17.2
v -15.4 2.9 17.2
v -17 4.3 17.2
v -16.9 4.3 17.2
v -16.8 4.3 17.2
v -15.4 4.3 17.2
v -15.3 4.3 17.2
v -17 4.5 17.2
v -16.9 4.5 17.2
v -15.3 4.5 17.2
v -15.2 4.5 17.2
v -17.1 4.3 17.3
v -17 4.3 17.3
v -15.2 4.3 17.3
v -15.1 4.3 17.3
v -17.1 4.5 17.3
v -17 4.5 17.3
v -15.2 4.5 17.3
v -15.1 4.5 17.3
v -17.2 4.3 17.4
v -17.1 4.3 17.4
v -15.1 4.3 17.4
v -15 4.3 17.4
v -17.2 4.5 17.4
v -17.1 4.5 17.4
v -15.1 4.5 17.4
v -15 4.5 17.4
v -17 2.4 18.6
v -16.8 2.4 18.6
v -15.4 2.4 18.6
v -15.2 2.4 18.6
v -17 2.7 18.6
v -16.8 2.7 18.6
v -15.4 2.7 18.6
v -15.2 2.7 18.6
v -17 2.9 18.6
v -16.8 2.9 18.6
v -15.4 2.9 18.6
v -15.2 2.9 18.6
v -17 4.3 18.6
v -16.8 4.3 18.6
v -15.4 4.3 18.6
v -15.2 4.3 18.6
v -17 2.4 17.4
v -16.8 2.4 17.4
v -15.4 2.4 17.4
v -15.2 2.4 17.4
v -17 2.7 17.4
v -16.8 2.7 17.4
v -15.4 2.7 17.4
v -15.2 2.7 17.4
v -17 2.9 17.4
v -16.8 2.9 17.4
v -15.4 2.9 17.4
v -15.2 2.9 17.4
v -17 4.3 17.4
v -16.8 4.3 17.4
v -15.4 4.3 17.4
v -15.2 4.3 17.4
v -17.2 4.3 18.6
v -17.1 4.3 18.6
v -15.1 4.3 18.6
v -15 4.3 18.6
v -17.2 4.5 18.6
v -17.1 4.5 18.6
v -15.1 4.5 18.6
v -15 4.5 18.6
v -17.1 4.3 18.7
v -17 4.3 18.7
v -15.2 4.3 18.7
v -15.1 4.3 18.7
v -17.1 4.5 18.7
v -17 4.5 18.7
v -15.2 4.5 18.7
v -15.1 4.5 18.7
v -17 2.4 18.8
v -16.8 2.4 18.8
v -15.4 2.4 18.8
v -15.2 2.4 18.8
v -16.8 2.7 18.8
v -15.4 2.7 18.8
v -16.8 2.9 18.8
v -15.4 2.9 18.8
v -17 4.3 18.8
v -16.9 4.3 18.8
v -16.8 4.3 18.8
v -15.4 4.3 18.8
v -15.3 4.3 18.8
v -17 4.5 18.8
v -16.9 4.5 18.8
v -15.3 4.5 18.8
v -15.2 4.5 18.8
v -16.9 4.3 18.9
v -16.8 4.3 18.9
v -15.4 4.3 18.9
v -15.3 4.3 18.9
v -16.9 4.5 18.9
v -16.8 4.5 18.9
v -15.4 4.5 18.9
v -15.3 4.5 18.9
v -16.8 4.3 19
v -16.6 4.3 19
v -16.5 4.3 19
v -16.2 4.3 19
v -16.1 4.3 19
v -15.8 4.3 19
v -15.7 4.3 19
v -15.4 4.3 19
v -16.6 4.4 19
v -16.5 4.4 19
v -16.8 4.5 19
v -16.2 4.5 19
v -16.1 4.5 19
v -15.8 4.5 19
v -15.7 4.5 19
v -15.4 4.5 19
v -17.2 4.3 17.4
v -17.2 4.5 17.4
v -17.2 4.3 18.6
v -17.2 4.5 18.6
v -17.1 4.3 17.3
v -17.1 4.5 17.3
v -17.1 4.3 17.4
v -17.1 4.5 17.4
v -17.1 4.3 18.6
v -17.1 4.5 18.6
v -17.1 4.3 18.7
v -17.1 4.5 18.7
v -17 2.4 17.2
v -17 4.3 17.2
v -17 4.5 17.2
v -17 4.3 17.3
v -17 4.5 17.3
v -17 2.4 17.4
v -17 2.7 17.4
v -17 2.9 17.4
v -17 4.3 17.4
v -17 2.4 18.6
v -17 2.7 18.6
v -17 2.9 18.6
v -17 4.3 18.6
v -17 4.3 18.7
v -17 4.5 18.7
v -17 2.4 18.8
v -17 4.3 18.8
v -17 4.5 18.8
v -16.9 4.3 17.1
v -16.9 4.5 17.1
v -16.9 4.3 17.2
v -16.9 4.5 17.2
v -16.9 4.3 18.8
v -16.9 4.5 18.8
v -16.9 4.3 18.9
v -16.9 4.5 18.9
v -16.8 4.3 17
v -16.8 4.5 17
v -16.8 4.3 17.1
v -16.8 4.5 17.1
v -16.8 4.3 18.9
v -16.8 4.5 18.9
v -16.8 4.3 19
v -16.8 4.5 19
v -15.4 2.4 17.2
v -15.4 2.7 17.2
v -15.4 2.9 17.2
v -15.4 4.3 17.2
v -15.4 2.4 17.4
v -15.4 2.7 17.4
v -15.4 2.9 17.4
v -15.4 4.3 17.4
v -15.4 2.4 18.6
v -15.4 2.7 18.6
v -15.4 2.9 18.6
v -15.4 4.3 18.6
v -15.4 2.4 18.8
v -15.4 2.7 18.8
v -15.4 2.9 18.8
v -15.4 4.3 18.8
v -16.8 2.4 17.2
v -16.8 2.7 17.2
v -16.8 2.9 17.2
v -16.8 4.3 17.2
v -16.8 2.4 17.4
v -16.8 2.7 17.4
v -16.8 2.9 17.4
v -16.8 4.3 17.4
v -16.8 2.4 18.6
v -16.8 2.7 18.6
v -16.8 2.9 18.6
v -16.8 4.3 18.6
v -16.8 2.4 18.8
v -16.8 2.7 18.8
v -16.8 2.9 18.8
v -16.8 4.3 18.8
v -15.4 4.3 17
v -15.4 4.5 17
v -15.4 4.3 17.1
v -15.4 4.5 17.1
v -15.4 4.3 18.9
v -15.4 4.5 18.9
v -15.4 4.3 19
v -15.4 4.5 19
v -15.3 4.3 17.1
v -15.3 4.5 17.1
v -15.3 4.3 17.2
v -15.3 4.5 17.2
v -15.3 4.3 18.8
v -15.3 4.5 18.8
v -15.3 4.3 18.9
v -15.3 4.5 18.9
v -15.2 2.4 17.2
v -15.2 4.5 17.2
v -15.2 4.3 17.3
v -15.2 4.5 17.3
v -15.2 2.4 17.4
v -15.2 2.7 17.4
v -15.2 2.9 17.4
v -15.2 4.3 17.4
v -15.2 2.4 18.6
v -15.2 2.7 18.6
v -15.2 2.9 18.6
v -15.2 4.3 18.6
v -15.2 4.3 18.7
v -15.2 4.5 18.7
v -15.2 2.4 18.8
v -15.2 4.5 18.8
v -15.1 4.3 17.3
v -15.1 4.5 17.3
v -15.1 4.3 17.4
v -15.1 4.5 17.4
v -15.1 4.3 18.6
v -15.1 4.5 18.6
v -15.1 4.3 18.7
v -15.1 4.5 18.7
v -15 4.3 17.4
v -15 4.5 17.4
v -15 4.3 18.6
v -15 4.5 18.6
v -17 2.4 17.2
v -17 2.4 17.4
v -17 2.4 18.6
v -17 2.4 18.8
v -16.8 2.4 17.2
v -16.8 2.4 17.4
v -16.8 2.4 18.6
v -16.8 2.4 18.8
v -15.4 2.4 17.2
v -15.4 2.4 17.4
v -15.4 2.4 18.6
v -15.4 2.4 18.8
v -15.2 2.4 17.2
v -15.2 2.4 17.4
v -15.2 2.4 18.6
v -15.2 2.4 18.8
v -17 2.7 17.4
v -17 2.7 18.6
v -16.8 2.7 17.2
v -16.8 2.7 17.4
v -16.8 2.7 18.6
v -16.8 2.7 18.8
v -15.4 2.7 17.2
v -15.4 2.7 17.4
v -15.4 2.7 18.6
v -15.4 2.7 18.8
v -15.2 2.7 17.4
v -15.2 2.7 18.6
v -17.2 4.3 17.4
v -17.2 4.3 18.6
v -17.1 4.3 17.3
v -17.1 4.3 17.4
v -17.1 4.3 18.6
v -17.1 4.3 18.7
v -17 4.3 17.3
v -17 4.3 17.4
v -17 4.3 18.6
v -17 4.3 18.7
v -16.9 4.3 17.1
v -16.9 4.3 17.2
v -16.9 4.3 18.8
v -16.9 4.3 18.9
v -16.8 4.3 17
v -16.8 4.3 17.1
v -16.8 4.3 17.2
v -16.8 4.3 17.4
v -16.8 4.3 18.6
v -16.8 4.3 18.8
v -16.8 4.3 18.9
v -16.8 4.3 19
v -16.6 4.3 17
v -16.6 4.3 17.1
v -16.6 4.3 18.9
v -16.6 4.3 19
v -16.5 4.3 17
v -16.5 4.3 17.1
v -16.5 4.3 18.9
v -16.5 4.3 19
v -16.2 4.3 17
v -16.2 4.3 17.1
v -16.2 4.3 18.9
v -16.2 4.3 19
v -16.1 4.3 17
v -16.1 4.3 17.1
v -16.1 4.3 18.9
v -16.1 4.3 19
v -15.8 4.3 17
v -15.8 4.3 17.1
v -15.8 4.3 18.9
v -15.8 4.3 19
v -15.7 4.3 17
v -15.7 4.3 17.1
v -15.7 4.3 18.9
v -15.7 4.3 19
v -15.4 4.3 17
v -15.4 4.3 17.1
v -15.4 4.3 17.2
v -15.4 4.3 17.4
v -15.4 4.3 18.6
v -15.4 4.3 18.8
v -15.4 4.3 18.9
v -15.4 4.3 19
v -15.3 4.3 17.1
v -15.3 4.3 17.2
v -15.3 4.3 18.8
v -15.3 4.3 18.9
v -15.2 4.3 17.3
v -15.2 4.3 17.4
v -15.2 4.3 18.6
v -15.2 4.3 18.7
v -15.1 4.3 17.3
v -15.1 4.3 17.4
v -15.1 4.3 18.6
v -15.1 4.3 18.7
v -15 4.3 17.4
v -15 4.3 18.6
v -17 2.9 17.4
v -17 2.9 18.6
v -16.8 2.9 17.2
v -16.8 2.9 17.4
v -16.8 2.9 18.6
v -16.8 2.9 18.8
v -15.4 2.9 17.2
v -15.4 2.9 17.4
v -15.4 2.9 18.6
v -15.4 2.9 18.8
v -15.2 2.9 17.4
v -15.2 2.9 18.6
v -17.2 4.5 17.4
v -17.2 4.5 18.6
v -17.1 4.5 17.3
v -17.1 4.5 17.4
v -17.1 4.5 18.6
v -17.1 4.5 18.7
v -17 4.5 17.2
v -17 4.5 17.3
v -17 4.5 18
v -17 4.5 18.2
v -17 4.5 18.7
v -17 4.5 18.8
v -16.9 4.5 17.1
v -16.9 4.5 17.2
v -16.9 4.5 18
v -16.9 4.5 18.2
v -16.9 4.5 18.8
v -16.9 4.5 18.9
v -16.8 4.5 17
v -16.8 4.5 17.1
v -16.8 4.5 18.9
v -16.8 4.5 19
v -16.6 4.5 17
v -16.6 4.5 17.6
v -16.6 4.5 17.7
v -16.6 4.5 18.4
v -16.6 4.5 18.5
v -16.6 4.5 18.9
v -16.5 4.5 17
v -16.5 4.5 17.6
v -16.5 4.5 17.7
v -16.5 4.5 18.4
v -16.5 4.5 18.5
v -16.5 4.5 18.9
v -16.2 4.5 17
v -16.2 4.5 17.2
v -16.2 4.5 17.3
v -16.2 4.5 17.9
v -16.2 4.5 18.1
v -16.2 4.5 18.7
v -16.2 4.5 18.8
v -16.2 4.5 19
v -16.1 4.5 17
v -16.1 4.5 17.2
v -16.1 4.5 17.3
v -16.1 4.5 17.9
v -16.1 4.5 18.1
v -16.1 4.5 18.7
v -16.1 4.5 18.8
v -16.1 4.5 19
v -15.8 4.5 17
v -15.8 4.5 17.4
v -15.8 4.5 17.6
v -15.8 4.5 18.7
v -15.8 4.5 18.8
v -15.8 4.5 19
v -15.7 4.5 17
v -15.7 4.5 17.4
v -15.7 4.5 17.6
v -15.7 4.5 18.7
v -15.7 4.5 18.8
v -15.7 4.5 19
v -15.4 4.5 17
v -15.4 4.5 17.1
v -15.4 4.5 17.5
v -15.4 4.5 18.1
v -15.4 4.5 18.9
v -15.4 4.5 19
v -15.3 4.5 17.1
v -15.3 4.5 17.2
v -15.3 4.5 17.5
v -15.3 4.5 18.1
v -15.3 4.5 18.8
v -15.3 4.5 18.9
v -15.2 4.5 17.2
v -15.2 4.5 17.3
v -15.2 4.5 18.7
v -15.2 4.5 18.8
v -15.1 4.5 17.3
v -15.1 4.5 17.4
v -15.1 4.5 18.6
v -15.1 4.5 18.7
v -15 4.5 17.4
v -15 4.5 18.6

# faces
f 9/2/1 2/2/1 1/2/1
f 10/1/1 3/1/1 2/1/1
f 10/2/1 2/2/1 9/2/1
f 11/2/1 4/2/1 3/2/1
f 11/1/1 3/1/1 10/1/1
f 12/1/1 5/1/1 4/1/1
f 12/2/1 4/2/1 11/2/1
f 13/2/1 6/2/1 5/2/1
f 13/1/1 5/1/1 12/1/1
f 14/1/1 7/1/1 6/1/1
f 14/2/1 6/2/1 13/2/1
f 15/2/1 8/2/1 7/2/1
f 15/1/1 7/1/1 14/1/1
f 16/2/1 8/2/1 15/2/1
f 21/2/1 18/2/1 17/2/1
f 22/2/1 18/2/1 21/2/1
f 23/1/1 20/1/1 19/1/1
f 24/1/1 20/1/1 23/1/1
f 29/2/1 26/2/1 25/2/1
f 30/2/1 28/2/1 27/2/1
f 31/2/1 29/2/1 25/2/1
f 31/2/1 30/2/1 29/2/1
f 32/2/1 28/2/1 30/2/1
f 32/2/1 30/2/1 31/2/1
f 33/2/1 31/2/1 25/2/1
f 34/2/1 31/2/1 33/2/1
f 35/2/1 31/2/1 34/2/1
f 36/2/1 28/2/1 32/2/1
f 37/2/1 28/2/1 36/2/1
f 38/1/1 34/1/1 33/1/1
f 39/1/1 34/1/1 38/1/1
f 40/2/1 28/2/1 37/2/1
f 41/2/1 28/2/1 40/2/1
f 46/2/1 43/2/1 42/2/1
f 47/2/1 43/2/1 46/2/1
f 48/2/1 45/2/1 44/2/1
f 49/2/1 45/2/1 48/2/1
f 54/2/1 51/2/1 50/2/1
f 55/2/1 51/2/1 54/2/1
f 56/2/1 53/2/1 52/2/1
f 57/2/1 53/2/1 56/2/1
f 62/2/1 59/2/1 58/2/1
f 63/2/1 59/2/1 62/2/1
f 64/2/1 61/2/1 60/2/1
f 65/2/1 61/2/1 64/2/1
f 67/2/1 64/2/1 63/2/1
f 68/2/1 64/2/1 67/2/1
f 70/2/1 67/2/1 66/2/1
f 71/2/1 67/2/1 70/2/1
f 72/2/1 69/2/1 68/2/1
f 73/2/1 69/2/1 72/2/1
f 74/2/2 75/2/2 78/2/2
f 78/2/2 75/2/2 79/2/2
f 76/2/2 77/2/2 80/2/2
f 80/2/2 77/2/2 81/2/2
f 79/2/2 80/2/2 83/2/2
f 83/2/2 80/2/2 84/2/2
f 82/2/2 83/2/2 86/2/2
f 86/2/2 83/2/2 87/2/2
f 84/2/2 85/2/2 88/2/2
f 88/2/2 85/2/2 89/2/2
f 90/2/2 91/2/2 94/2/2
f 94/2/2 91/2/2 95/2/2
f 92/2/2 93/2/2 96/2/2
f 96/2/2 93/2/2 97/2/2
f 98/2/2 99/2/2 102/2/2
f 102/2/2 99/2/2 103/2/2
f 100/2/2 101/2/2 104/2/2
f 104/2/2 101/2/2 105/2/2
f 106/2/2 107/2/2 110/2/2
f 108/2/2 109/2/2 111/2/2
f 106/2/2 110/2/2 112/2/2
f 110/2/2 111/2/2 112/2/2
f 111/2/2 109/2/2 113/2/2
f 112/2/2 111/2/2 113/2/2
f 106/2/2 112/2/2 114/2/2
f 114/2/2 112/2/2 115/2/2
f 115/2/2 112/2/2 116/2/2
f 113/2/2 109/2/2 117/2/2
f 117/2/2 109/2/2 118/2/2
f 114/1/2 115/1/2 119/1/2
f 119/1/2 115/1/2 120/1/2
f 118/2/2 109/2/2 121/2/2
f 121/2/2 109/2/2 122/2/2
f 123/2/2 124/2/2 127/2/2
f 127/2/2 124/2/2 128/2/2
f 125/1/2 126/1/2 129/1/2
f 129/1/2 126/1/2 130/1/2
f 131/2/2 132/2/2 139/2/2
f 132/1/2 133/1/2 139/1/2
f 133/2/2 134/2/2 140/2/2
f 139/1/2 133/1/2 140/1/2
f 131/2/2 139/2/2 141/2/2
f 139/2/2 140/2/2 141/2/2
f 140/2/2 134/2/2 142/2/2
f 141/2/2 140/2/2 142/2/2
f 134/1/2 135/1/2 142/1/2
f 135/2/2 136/2/2 143/2/2
f 142/1/2 135/1/2 143/1/2
f 136/1/2 137/1/2 144/1/2
f 143/2/2 136/2/2 144/2/2
f 137/2/2 138/2/2 145/2/2
f 144/1/2 137/1/2 145/1/2
f 145/2/2 138/2/2 146/2/2
f 149/2/3 148/2/3 147/2/3
f 150/2/3 148/2/3 149/2/3
f 153/2/3 152/2/3 151/2/3
f 154/2/3 152/2/3 153/2/3
f 157/2/3 156/2/3 155/2/3
f 158/2/3 156/2/3 157/2/3
f 162/2/3 160/2/3 159/2/3
f 162/1/3 161/1/3 160/1/3
f 163/1/3 161/1/3 162/1/3
f 164/2/3 162/2/3 159/2/3
f 165/2/3 162/2/3 164/2/3
f 166/2/3 162/2/3 165/2/3
f 167/2/3 162/2/3 166/2/3
f 169/2/3 166/2/3 165/2/3
f 170/2/3 166/2/3 169/2/3
f 172/2/3 169/2/3 168/2/3
f 172/2/3 171/2/3 170/2/3
f 172/2/3 170/2/3 169/2/3
f 174/2/3 172/2/3 168/2/3
f 175/1/3 173/1/3 172/1/3
f 175/2/3 172/2/3 174/2/3
f 176/1/3 173/1/3 175/1/3
f 179/2/3 178/2/3 177/2/3
f 180/2/3 178/2/3 179/2/3
f 183/2/3 182/2/3 181/2/3
f 184/2/3 182/2/3 183/2/3
f 187/2/3 186/2/3 185/2/3
f 188/2/3 186/2/3 187/2/3
f 191/2/3 190/2/3 189/2/3
f 192/2/3 190/2/3 191/2/3
f 197/2/3 194/2/3 193/2/3
f 198/2/3 194/2/3 197/2/3
f 199/2/3 196/2/3 195/2/3
f 200/2/3 196/2/3 199/2/3
f 202/2/3 199/2/3 198/2/3
f 203/2/3 199/2/3 202/2/3
f 205/2/3 202/2/3 201/2/3
f 206/2/3 202/2/3 205/2/3
f 207/2/3 204/2/3 203/2/3
f 208/2/3 204/2/3 207/2/3
f 209/2/4 210/2/4 213/2/4
f 213/2/4 210/2/4 214/2/4
f 211/2/4 212/2/4 215/2/4
f 215/2/4 212/2/4 216/2/4
f 214/2/4 215/2/4 218/2/4
f 218/2/4 215/2/4 219/2/4
f 217/2/4 218/2/4 221/2/4
f 221/2/4 218/2/4 222/2/4
f 219/2/4 220/2/4 223/2/4
f 223/2/4 220/2/4 224/2/4
f 225/2/4 226/2/4 227/2/4
f 227/2/4 226/2/4 228/2/4
f 229/2/4 230/2/4 231/2/4
f 231/2/4 230/2/4 232/2/4
f 233/1/4 234/1/4 235/1/4
f 235/1/4 234/1/4 236/1/4
f 237/1/4 238/1/4 239/1/4
f 239/1/4 238/1/4 240/1/4
f 241/2/4 242/2/4 243/2/4
f 243/2/4 242/2/4 244/2/4
f 241/2/4 243/2/4 245/2/4
f 245/2/4 243/2/4 246/2/4
f 246/2/4 243/2/4 247/2/4
f 247/2/4 243/2/4 248/2/4
f 246/2/4 247/2/4 250/2/4
f 250/2/4 247/2/4 251/2/4
f 249/2/4 250/2/4 253/2/4
f 251/2/4 252/2/4 253/2/4
f 250/2/4 251/2/4 253/2/4
f 249/2/4 253/2/4 255/2/4
f 253/2/4 254/2/4 255/2/4
f 255/2/4 254/2/4 256/2/4
f 257/2/4 258/2/4 259/2/4
f 259/2/4 258/2/4 260/2/4
f 261/2/4 262/2/4 263/2/4
f 263/2/4 262/2/4 264/2/4
f 265/2/4 266/2/4 267/2/4
f 267/2/4 266/2/4 268/2/4
f 273/2/5 270/2/5 269/2/5
f 274/2/5 270/2/5 273/2/5
f 275/2/5 272/2/5 271/2/5
f 276/2/5 272/2/5 275/2/5
f 281/2/5 278/2/5 277/2/5
f 282/2/5 278/2/5 281/2/5
f 283/2/5 280/2/5 279/2/5
f 284/2/5 280/2/5 283/2/5
f 288/2/5 286/2/5 285/2/5
f 289/2/5 286/2/5 288/2/5
f 291/2/5 288/2/5 287/2/5
f 292/2/5 288/2/5 291/2/5
f 293/2/5 290/2/5 289/2/5
f 294/2/5 290/2/5 293/2/5
f 295/2/5 293/2/5 292/2/5
f 296/2/5 293/2/5 295/2/5
f 300/2/5 298/2/5 297/2/5
f 301/2/5 298/2/5 300/2/5
f 303/2/5 300/2/5 299/2/5
f 303/2/5 302/2/5 301/2/5
f 303/2/5 301/2/5 300/2/5
f 304/2/5 302/2/5 303/2/5
f 305/2/5 302/2/5 304/2/5
f 306/2/5 302/2/5 305/2/5
f 312/2/5 308/2/5 307/2/5
f 313/2/5 308/2/5 312/2/5
f 314/2/5 305/2/5 304/2/5
f 315/2/5 305/2/5 314/2/5
f 316/2/5 310/2/5 309/2/5
f 317/2/5 310/2/5 316/2/5
f 319/2/5 315/2/5 314/2/5
f 319/2/5 318/2/5 317/2/5
f 319/2/5 317/2/5 316/2/5
f 319/2/5 316/2/5 315/2/5
f 319/2/5 313/2/5 312/2/5
f 319/2/5 314/2/5 313/2/5
f 319/2/5 312/2/5 311/2/5
f 320/2/5 318/2/5 319/2/5
f 321/2/5 318/2/5 320/2/5
f 322/2/5 318/2/5 321/2/5
f 323/1/5 320/1/5 319/1/5
f 324/2/5 321/2/5 320/2/5
f 324/1/5 320/1/5 323/1/5
f 325/1/5 322/1/5 321/1/5
f 325/2/5 321/2/5 324/2/5
f 326/1/5 322/1/5 325/1/5
f 327/2/5 324/2/5 323/2/5
f 327/2/5 325/2/5 324/2/5
f 327/2/5 326/2/5 325/2/5
f 328/2/5 326/2/5 327/2/5
f 329/2/5 326/2/5 328/2/5
f 330/2/5 326/2/5 329/2/5
f 331/1/5 328/1/5 327/1/5
f 332/2/5 329/2/5 328/2/5
f 332/1/5 328/1/5 331/1/5
f 333/1/5 330/1/5 329/1/5
f 333/2/5 329/2/5 332/2/5
f 334/1/5 330/1/5 333/1/5
f 335/2/5 332/2/5 331/2/5
f 335/2/5 333/2/5 332/2/5
f 335/2/5 334/2/5 333/2/5
f 336/2/5 334/2/5 335/2/5
f 337/2/5 334/2/5 336/2/5
f 338/2/5 334/2/5 337/2/5
f 339/1/5 336/1/5 335/1/5
f 340/2/5 337/2/5 336/2/5
f 340/1/5 336/1/5 339/1/5
f 341/1/5 338/1/5 337/1/5
f 341/2/5 337/2/5 340/2/5
f 342/1/5 338/1/5 341/1/5
f 343/2/5 340/2/5 339/2/5
f 343/2/5 341/2/5 340/2/5
f 343/2/5 342/2/5 341/2/5
f 344/2/5 342/2/5 343/2/5
f 345/2/5 342/2/5 344/2/5
f 346/2/5 342/2/5 345/2/5
f 347/2/5 342/2/5 346/2/5
f 348/2/5 342/2/5 347/2/5
f 349/2/5 342/2/5 348/2/5
f 350/2/5 342/2/5 349/2/5
f 351/1/5 345/1/5 344/1/5
f 352/1/5 345/1/5 351/1/5
f 353/1/5 349/1/5 348/1/5
f 354/1/5 349/1/5 353/1/5
f 356/2/5 347/2/5 346/2/5
f 357/2/5 347/2/5 356/2/5
f 359/2/5 356/2/5 355/2/5
f 359/2/5 358/2/5 357/2/5
f 359/2/5 357/2/5 356/2/5
f 360/2/5 358/2/5 359/2/5
f 361/2/5 358/2/5 360/2/5
f 362/2/5 358/2/5 361/2/5
f 363/2/5 361/2/5 360/2/5
f 364/2/5 361/2/5 363/2/5
f 365/2/6 366/2/6 368/2/6
f 368/2/6 366/2/6 369/2/6
f 367/2/6 368/2/6 371/2/6
f 371/2/6 368/2/6 372/2/6
f 369/2/6 370/2/6 373/2/6
f 373/2/6 370/2/6 374/2/6
f 372/2/6 373/2/6 375/2/6
f 375/2/6 373/2/6 376/2/6
f 377/2/6 378/2/6 380/2/6
f 380/2/6 378/2/6 381/2/6
f 379/2/6 380/2/6 384/2/6
f 381/2/6 382/2/6 384/2/6
f 380/2/6 381/2/6 384/2/6
f 384/2/6 382/2/6 385/2/6
f 385/2/6 382/2/6 386/2/6
f 386/2/6 382/2/6 387/2/6
f 383/1/6 384/1/6 390/1/6
f 384/1/6 385/1/6 390/1/6
f 385/2/6 386/2/6 391/2/6
f 390/1/6 385/1/6 391/1/6
f 387/1/6 388/1/6 392/1/6
f 391/2/6 386/2/6 392/2/6
f 386/1/6 387/1/6 392/1/6
f 392/1/6 388/1/6 393/1/6
f 390/2/6 391/2/6 396/2/6
f 393/2/6 394/2/6 396/2/6
f 392/2/6 393/2/6 396/2/6
f 391/2/6 392/2/6 396/2/6
f 389/2/6 390/2/6 396/2/6
f 396/2/6 394/2/6 397/2/6
f 395/2/6 396/2/6 399/2/6
f 397/2/6 398/2/6 399/2/6
f 396/2/6 397/2/6 399/2/6
f 399/2/6 398/2/6 400/2/6
f 400/2/6 398/2/6 401/2/6
f 401/2/6 398/2/6 402/2/6
f 402/2/6 398/2/6 403/2/6
f 403/2/6 398/2/6 404/2/6
f 399/1/6 400/1/6 405/1/6
f 400/2/6 401/2/6 406/2/6
f 405/1/6 400/1/6 406/1/6
f 401/1/6 402/1/6 407/1/6
f 406/2/6 401/2/6 407/2/6
f 402/2/6 403/2/6 408/2/6
f 407/1/6 402/1/6 408/1/6
f 403/1/6 404/1/6 409/1/6
f 408/2/6 403/2/6 409/2/6
f 404/2/6 398/2/6 410/2/6
f 409/1/6 404/1/6 410/1/6
f 408/2/6 409/2/6 411/2/6
f 405/2/6 406/2/6 411/2/6
f 409/2/6 410/2/6 411/2/6
f 407/2/6 408/2/6 411/2/6
f 406/2/6 407/2/6 411/2/6
f 411/2/6 410/2/6 412/2/6
f 412/2/6 410/2/6 413/2/6
f 413/2/6 410/2/6 414/2/6
f 414/2/6 410/2/6 415/2/6
f 415/2/6 410/2/6 416/2/6
f 416/2/6 410/2/6 417/2/6
f 410/2/6 398/2/6 418/2/6
f 417/2/6 410/2/6 418/2/6
f 411/1/6 412/1/6 419/1/6
f 412/2/6 413/2/6 420/2/6
f 419/1/6 412/1/6 420/1/6
f 413/1/6 414/1/6 421/1/6
f 420/2/6 413/2/6 421/2/6
f 414/2/6 415/2/6 422/2/6
f 421/1/6 414/1/6 422/1/6
f 415/1/6 416/1/6 423/1/6
f 422/2/6 415/2/6 423/2/6
f 416/2/6 417/2/6 424/2/6
f 423/1/6 416/1/6 424/1/6
f 417/1/6 418/1/6 425/1/6
f 424/2/6 417/2/6 425/2/6
f 425/1/6 418/1/6 426/1/6
f 422/2/6 423/2/6 427/2/6
f 419/2/6 420/2/6 427/2/6
f 425/2/6 426/2/6 427/2/6
f 424/2/6 425/2/6 427/2/6
f 423/2/6 424/2/6 427/2/6
f 421/2/6 422/2/6 427/2/6
f 420/2/6 421/2/6 427/2/6
f 427/2/6 426/2/6 428/2/6
f 428/2/6 426/2/6 429/2/6
f 429/2/6 426/2/6 430/2/6
f 430/2/6 426/2/6 431/2/6
f 431/2/6 426/2/6 432/2/6
f 427/1/6 428/1/6 433/1/6
f 428/2/6 429/2/6 434/2/6
f 433/1/6 428/1/6 434/1/6
f 429/1/6 430/1/6 435/1/6
f 434/2/6 429/2/6 435/2/6
f 430/2/6 431/2/6 436/2/6
f 435/1/6 430/1/6 436/1/6
f 431/1/6 432/1/6 437/1/6
f 436/2/6 431/2/6 437/2/6
f 437/1/6 432/1/6 438/1/6
f 433/2/6 434/2/6 439/2/6
f 434/2/6 435/2/6 439/2/6
f 437/2/6 438/2/6 439/2/6
f 436/2/6 437/2/6 439/2/6
f 435/2/6 436/2/6 439/2/6
f 439/2/6 438/2/6 440/2/6
f 440/2/6 438/2/6 441/2/6
f 441/2/6 438/2/6 442/2/6
f 442/2/6 438/2/6 443/2/6
f 443/2/6 438/2/6 444/2/6
f 440/1/6 441/1/6 445/1/6
f 445/1/6 441/1/6 446/1/6
f 441/2/6 442/2/6 447/2/6
f 446/1/6 441/1/6 447/1/6
f 442/1/6 443/1/6 448/1/6
f 447/2/6 442/2/6 448/2/6
f 448/1/6 443/1/6 449/1/6
f 449/1/6 443/1/6 450/1/6
f 446/2/6 447/2/6 451/2/6
f 448/2/6 449/2/6 451/2/6
f 447/2/6 448/2/6 451/2/6
f 451/2/6 449/2/6 452/2/6
f 452/2/6 449/2/6 453/2/6
f 453/2/6 449/2/6 454/2/6
f 452/2/6 453/2/6 455/2/6
f 455/2/6 453/2/6 456/2/6
f 456/2/6 453/2/6 457/2/6
f 457/2/6 453/2/6 458/2/6
f 456/2/6 457/2/6 459/2/6
f 459/2/6 457/2/6 460/2/6
