# MagicaVoxel @ Ephtracy

# group
o 

# material
mtllib untitled2-85.mtl
usemtl palette

# normals
vn 0 0 -1
vn 0 0 1
vn -1 0 0
vn 1 0 0
vn 0 1 0
vn 0 -1 0

# texcoords
vt 0.970703 0.5
vt 0.974609 0.5
vt 0.978516 0.5

# verts
v 22.2 12.4 14.2
v 22.4 12.4 14.2
v 22.6 12.4 14.2
v 22.8 12.4 14.2
v 22.9 12.4 14.2
v 23.2 12.4 14.2
v 22.4 12.3 14.2
v 22.6 12.3 14.2
v 22.8 12.3 14.2
v 22.9 12.3 14.2
v 23.2 12.3 14.2
v 22.2 11.6 14.2
v 22.3 11.6 14.2
v 22.2 11.4 14.2
v 22.3 11.4 14.2
v 23.2 11.4 14.2
v 22.1 11.6 14.9
v 22.2 11.6 14.9
v 22.1 11.4 14.9
v 22.2 11.4 14.9
v 22.6 12.5 15.2
v 22.9 12.5 15.2
v 22.6 12.4 15.2
v 22.9 12.4 15.2
v 22.9 12.5 15.9
v 23.1 12.5 15.9
v 22.9 12.4 15.9
v 23.1 12.4 15.9
v 23 12.5 17
v 23.2 12.5 17
v 23 12.4 17
v 23.2 12.4 17
v 23.3 12.4 17
v 23.2 12.3 17
v 23.3 12.3 17
v 22.1 11.7 17.2
v 22.2 11.7 17.2
v 22.1 11.5 17.2
v 22.2 11.5 17.2
v 22.4 12.5 17.4
v 22.6 12.5 17.4
v 22.4 12.4 17.4
v 22.6 12.4 17.4
v 22.1 11.8 17.4
v 22.2 11.8 17.4
v 22.1 11.7 17.4
v 22.2 11.7 17.4
v 22.1 11.5 17.4
v 22.2 11.5 17.4
v 22.1 11.4 17.4
v 22.2 11.4 17.4
v 22.3 12.5 17.5
v 22.4 12.5 17.5
v 22.2 12.4 17.5
v 22.3 12.4 17.5
v 22.4 12.4 17.5
v 22.2 12.3 17.5
v 22.3 12.3 17.5
v 22.1 12.2 17.5
v 22.2 12.2 17.5
v 22.1 11.9 17.5
v 22.2 11.9 17.5
v 22.2 12.5 17.6
v 22.3 12.5 17.6
v 22.2 12.4 17.6
v 22.3 12.4 17.6
v 22.1 11.9 17.6
v 22.2 11.9 17.6
v 22.1 11.8 17.6
v 22.2 11.8 17.6
v 22.1 12.5 17.7
v 22.2 12.5 17.7
v 22.6 12.5 17.7
v 23 12.5 17.7
v 22.6 12.4 17.7
v 23 12.4 17.7
v 22.1 12.2 17.7
v 22.2 12.2 17.7
v 22.1 11.6 15.5
v 22.2 11.6 15.5
v 22.1 11.4 15.5
v 22.2 11.4 15.5
v 22.6 12.5 15.6
v 22.9 12.5 15.6
v 22.6 12.4 15.6
v 22.9 12.4 15.6
v 22.9 12.5 16.2
v 23.1 12.5 16.2
v 22.9 12.4 16.2
v 23.1 12.4 16.2
v 22.2 12.4 16.6
v 22.3 12.4 16.6
v 22.2 12.3 16.6
v 22.3 12.3 16.6
v 23.2 12.4 17.7
v 23.3 12.4 17.7
v 23.2 12.3 17.7
v 23.3 12.3 17.7
v 22.1 12.5 17.8
v 23.2 12.5 17.8
v 22.5 12.3 17.8
v 23.2 12.3 17.8
v 22.1 11.4 17.8
v 22.5 11.4 17.8
v 23.2 11.4 17.8
v 22.1 11.6 14.9
v 22.1 11.4 14.9
v 22.1 11.6 15.5
v 22.1 11.4 15.5
v 22.1 11.7 17.2
v 22.1 11.5 17.2
v 22.1 11.8 17.4
v 22.1 11.7 17.4
v 22.1 11.5 17.4
v 22.1 11.4 17.4
v 22.1 12.2 17.5
v 22.1 11.9 17.5
v 22.1 11.9 17.6
v 22.1 11.8 17.6
v 22.1 12.5 17.7
v 22.1 12.2 17.7
v 22.1 12.5 17.8
v 22.1 11.4 17.8
v 22.2 12.4 14.2
v 22.2 11.6 14.2
v 22.2 11.4 14.2
v 22.2 12 14.3
v 22.2 11.8 14.3
v 22.2 11.8 14.7
v 22.2 11.7 14.7
v 22.2 12.4 14.9
v 22.2 12.3 14.9
v 22.2 12 14.9
v 22.2 11.9 14.9
v 22.2 11.7 14.9
v 22.2 11.6 14.9
v 22.2 11.4 14.9
v 22.2 11.9 15
v 22.2 11.8 15
v 22.2 11.8 15.2
v 22.2 11.7 15.2
v 22.2 12.1 15.4
v 22.2 11.9 15.4
v 22.2 11.6 15.5
v 22.2 11.4 15.5
v 22.2 11.7 15.6
v 22.2 11.6 15.6
v 22.2 11.6 15.8
v 22.2 11.5 15.8
v 22.2 12.3 15.9
v 22.2 12.2 15.9
v 22.2 11.7 16
v 22.2 11.5 16
v 22.2 12.1 16.2
v 22.2 11.9 16.2
v 22.2 12.4 16.4
v 22.2 12.3 16.4
v 22.2 11.6 16.4
v 22.2 11.5 16.4
v 22.2 11.5 16.5
v 22.2 11.4 16.5
v 22.2 12.4 16.6
v 22.2 12.3 16.6
v 22.2 11.6 16.7
v 22.2 11.5 16.7
v 22.2 12.2 16.8
v 22.2 12.1 16.8
v 22.2 11.9 16.8
v 22.2 11.7 16.8
v 22.2 12.3 16.9
v 22.2 12.2 16.9
v 22.2 11.6 16.9
v 22.2 11.5 16.9
v 22.2 11.8 17
v 22.2 11.6 17
v 22.2 12.1 17.1
v 22.2 11.9 17.1
v 22.2 11.7 17.2
v 22.2 11.5 17.2
v 22.2 12 17.3
v 22.2 11.8 17.3
v 22.2 12.2 17.4
v 22.2 12 17.4
v 22.2 11.8 17.4
v 22.2 11.7 17.4
v 22.2 11.5 17.4
v 22.2 11.4 17.4
v 22.2 12.4 17.5
v 22.2 12.3 17.5
v 22.2 12.2 17.5
v 22.2 11.9 17.5
v 22.2 12.5 17.6
v 22.2 12.4 17.6
v 22.2 11.9 17.6
v 22.2 11.8 17.6
v 22.2 12.5 17.7
v 22.2 12.2 17.7
v 22.3 12.4 16.6
v 22.3 12.3 16.6
v 22.3 12.3 16.9
v 22.3 12.5 17.5
v 22.3 12.4 17.5
v 22.3 12.3 17.5
v 22.3 12.5 17.6
v 22.3 12.4 17.6
v 22.4 12.5 17.4
v 22.4 12.4 17.4
v 22.4 12.5 17.5
v 22.4 12.4 17.5
v 22.6 12.5 15.2
v 22.6 12.4 15.2
v 22.6 12.4 15.5
v 22.6 12.5 15.6
v 22.6 12.4 15.6
v 22.9 12.5 15.9
v 22.9 12.4 15.9
v 22.9 12.5 16.2
v 22.9 12.4 16.2
v 23 12.5 17
v 23 12.4 17
v 23 12.5 17.7
v 23 12.4 17.7
v 22.6 12.5 17.4
v 22.6 12.4 17.4
v 22.6 12.4 17.5
v 22.6 12.5 17.7
v 22.6 12.4 17.7
v 22.9 12.5 15.2
v 22.9 12.4 15.2
v 22.9 12.5 15.6
v 22.9 12.4 15.6
v 23.1 12.5 15.9
v 23.1 12.4 15.9
v 23.1 12.5 16.2
v 23.1 12.4 16.2
v 23.2 12.4 14.2
v 23.2 12.3 14.2
v 23.2 11.4 14.2
v 23.2 12.5 17
v 23.2 12.4 17
v 23.2 12.3 17
v 23.2 12.4 17.7
v 23.2 12.3 17.7
v 23.2 12.5 17.8
v 23.2 12.3 17.8
v 23.2 11.4 17.8
v 23.3 12.4 17
v 23.3 12.3 17
v 23.3 12.4 17.7
v 23.3 12.3 17.7
v 22.1 12.5 17.7
v 22.1 12.5 17.8
v 22.2 12.5 17.6
v 22.2 12.5 17.7
v 22.3 12.5 17.5
v 22.3 12.5 17.6
v 22.4 12.5 17.4
v 22.4 12.5 17.5
v 22.6 12.5 15.2
v 22.6 12.5 15.6
v 22.6 12.5 17.4
v 22.6 12.5 17.7
v 22.9 12.5 15.2
v 22.9 12.5 15.6
v 22.9 12.5 15.9
v 22.9 12.5 16.2
v 23 12.5 17
v 23 12.5 17.7
v 23.1 12.5 15.9
v 23.1 12.5 16.2
v 23.2 12.5 17
v 23.2 12.5 17.8
v 22.2 12.4 14.2
v 22.2 12.4 14.9
v 22.2 12.4 16.4
v 22.2 12.4 16.6
v 22.2 12.4 17.5
v 22.2 12.4 17.6
v 22.3 12.4 14.9
v 22.3 12.4 15.6
v 22.3 12.4 16.6
v 22.3 12.4 17.5
v 22.3 12.4 17.6
v 22.4 12.4 14.2
v 22.4 12.4 14.7
v 22.4 12.4 15.6
v 22.4 12.4 16
v 22.4 12.4 16.4
v 22.4 12.4 17.2
v 22.4 12.4 17.4
v 22.4 12.4 17.5
v 22.5 12.4 14.6
v 22.5 12.4 14.7
v 22.5 12.4 15.5
v 22.5 12.4 15.6
v 22.5 12.4 15.9
v 22.5 12.4 16
v 22.5 12.4 16.1
v 22.5 12.4 16.3
v 22.6 12.4 14.2
v 22.6 12.4 14.3
v 22.6 12.4 14.6
v 22.6 12.4 14.9
v 22.6 12.4 15.2
v 22.6 12.4 15.5
v 22.6 12.4 15.6
v 22.6 12.4 15.9
v 22.6 12.4 16.5
v 22.6 12.4 16.8
v 22.6 12.4 17.2
v 22.6 12.4 17.4
v 22.6 12.4 17.5
v 22.6 12.4 17.7
v 22.7 12.4 14.5
v 22.7 12.4 14.7
v 22.7 12.4 16
v 22.7 12.4 16.1
v 22.7 12.4 16.5
v 22.7 12.4 16.6
v 22.8 12.4 14.2
v 22.8 12.4 14.3
v 22.8 12.4 14.9
v 22.8 12.4 15
v 22.8 12.4 15.7
v 22.8 12.4 16
v 22.8 12.4 16.6
v 22.8 12.4 16.8
v 22.8 12.4 17.2
v 22.8 12.4 17.5
v 22.9 12.4 14.2
v 22.9 12.4 14.3
v 22.9 12.4 14.7
v 22.9 12.4 14.8
v 22.9 12.4 15.1
v 22.9 12.4 15.2
v 22.9 12.4 15.6
v 22.9 12.4 15.9
v 22.9 12.4 16.2
v 22.9 12.4 16.6
v 22.9 12.4 17.2
v 23 12.4 14.3
v 23 12.4 14.4
v 23 12.4 14.8
v 23 12.4 15
v 23 12.4 15.1
v 23 12.4 15.5
v 23 12.4 15.7
v 23 12.4 16.3
v 23 12.4 16.6
v 23 12.4 17
v 23 12.4 17.7
v 23.1 12.4 14.4
v 23.1 12.4 14.5
v 23.1 12.4 15
v 23.1 12.4 15.5
v 23.1 12.4 15.9
v 23.1 12.4 16.2
v 23.2 12.4 14.2
v 23.2 12.4 17
v 23.2 12.4 17.7
v 23.3 12.4 17
v 23.3 12.4 17.7
v 22.2 12.3 16.6
v 22.2 12.3 16.9
v 22.2 12.3 17.5
v 22.3 12.3 16.6
v 22.3 12.3 16.9
v 22.3 12.3 17.5
v 22.1 12.2 17.5
v 22.1 12.2 17.7
v 22.2 12.2 17.5
v 22.2 12.2 17.7
v 22.1 11.8 17.4
v 22.1 11.8 17.6
v 22.2 11.8 17.4
v 22.2 11.8 17.6
v 22.1 11.7 17.2
v 22.1 11.7 17.4
v 22.2 11.7 17.2
v 22.2 11.7 17.4
v 22.1 11.6 14.9
v 22.1 11.6 15.5
v 22.2 11.6 14.9
v 22.2 11.6 15.5
v 23.2 12.3 17
v 23.2 12.3 17.7
v 23.3 12.3 17
v 23.3 12.3 17.7
v 22.1 11.9 17.5
v 22.1 11.9 17.6
v 22.2 11.9 17.5
v 22.2 11.9 17.6
v 22.1 11.5 17.2
v 22.1 11.5 17.4
v 22.2 11.5 17.2
v 22.2 11.5 17.4
v 22.1 11.4 14.9
v 22.1 11.4 15.5
v 22.1 11.4 17.4
v 22.1 11.4 17.8
v 22.2 11.4 14.2
v 22.2 11.4 14.9
v 22.2 11.4 15.5
v 22.2 11.4 16.5
v 22.2 11.4 17.4
v 22.3 11.4 14.2
v 22.3 11.4 16.5
v 22.3 11.4 17.7
v 22.5 11.4 17.7
v 22.5 11.4 17.8
v 23.2 11.4 14.2
v 23.2 11.4 17.8

# faces
f 1/3/1 2/3/1 7/3/1
f 2/2/1 3/2/1 7/2/1
f 3/3/1 4/3/1 8/3/1
f 7/2/1 3/2/1 8/2/1
f 4/2/1 5/2/1 9/2/1
f 8/3/1 4/3/1 9/3/1
f 5/1/1 6/1/1 10/1/1
f 9/2/1 5/2/1 10/2/1
f 10/1/1 6/1/1 11/1/1
f 8/3/1 9/3/1 12/3/1
f 7/3/1 8/3/1 12/3/1
f 10/3/1 11/3/1 12/3/1
f 9/3/1 10/3/1 12/3/1
f 1/3/1 7/3/1 12/3/1
f 12/3/1 11/3/1 13/3/1
f 12/2/1 13/2/1 14/2/1
f 13/3/1 11/3/1 15/3/1
f 14/2/1 13/2/1 15/2/1
f 15/3/1 11/3/1 16/3/1
f 17/2/1 18/2/1 19/2/1
f 19/2/1 18/2/1 20/2/1
f 21/2/1 22/2/1 23/2/1
f 23/2/1 22/2/1 24/2/1
f 25/1/1 26/1/1 27/1/1
f 27/1/1 26/1/1 28/1/1
f 29/1/1 30/1/1 31/1/1
f 31/1/1 30/1/1 32/1/1
f 32/1/1 33/1/1 34/1/1
f 34/1/1 33/1/1 35/1/1
f 36/1/1 37/1/1 38/1/1
f 38/1/1 37/1/1 39/1/1
f 40/1/1 41/1/1 42/1/1
f 42/1/1 41/1/1 43/1/1
f 44/1/1 45/1/1 46/1/1
f 46/1/1 45/1/1 47/1/1
f 48/1/1 49/1/1 50/1/1
f 50/1/1 49/1/1 51/1/1
f 52/1/1 53/1/1 55/1/1
f 55/1/1 53/1/1 56/1/1
f 54/1/1 55/1/1 57/1/1
f 57/1/1 55/1/1 58/1/1
f 59/1/1 60/1/1 61/1/1
f 61/1/1 60/1/1 62/1/1
f 63/1/1 64/1/1 65/1/1
f 65/1/1 64/1/1 66/1/1
f 67/1/1 68/1/1 69/1/1
f 69/1/1 68/1/1 70/1/1
f 73/1/1 74/1/1 75/1/1
f 75/1/1 74/1/1 76/1/1
f 71/1/1 72/1/1 77/1/1
f 77/1/1 72/1/1 78/1/1
f 81/2/2 80/2/2 79/2/2
f 82/2/2 80/2/2 81/2/2
f 85/2/2 84/2/2 83/2/2
f 86/2/2 84/2/2 85/2/2
f 89/1/2 88/1/2 87/1/2
f 90/1/2 88/1/2 89/1/2
f 93/1/2 92/1/2 91/1/2
f 94/1/2 92/1/2 93/1/2
f 97/1/2 96/1/2 95/1/2
f 98/1/2 96/1/2 97/1/2
f 101/1/2 100/1/2 99/1/2
f 102/1/2 100/1/2 101/1/2
f 103/1/2 101/1/2 99/1/2
f 104/3/2 102/3/2 101/3/2
f 104/1/2 101/1/2 103/1/2
f 105/3/2 102/3/2 104/3/2
f 106/2/3 107/2/3 108/2/3
f 108/2/3 107/2/3 109/2/3
f 110/1/3 111/1/3 113/1/3
f 113/1/3 111/1/3 114/1/3
f 116/1/3 117/1/3 118/1/3
f 112/1/3 113/1/3 119/1/3
f 113/1/3 114/1/3 119/1/3
f 114/1/3 115/1/3 119/1/3
f 116/1/3 118/1/3 121/1/3
f 118/1/3 119/1/3 121/1/3
f 120/1/3 121/1/3 122/1/3
f 119/1/3 115/1/3 123/1/3
f 122/1/3 121/1/3 123/1/3
f 121/1/3 119/1/3 123/1/3
f 124/3/3 125/3/3 127/3/3
f 127/3/3 125/3/3 128/3/3
f 127/2/3 128/2/3 129/2/3
f 128/3/3 125/3/3 129/3/3
f 129/3/3 125/3/3 130/3/3
f 124/3/3 127/3/3 131/3/3
f 131/3/3 127/3/3 132/3/3
f 127/2/3 129/2/3 133/2/3
f 132/3/3 127/3/3 133/3/3
f 129/2/3 130/2/3 133/2/3
f 133/2/3 130/2/3 134/2/3
f 130/3/3 125/3/3 135/3/3
f 134/2/3 130/2/3 135/2/3
f 125/2/3 126/2/3 136/2/3
f 135/3/3 125/3/3 136/3/3
f 136/2/3 126/2/3 137/2/3
f 134/2/3 135/2/3 138/2/3
f 133/3/3 134/3/3 138/3/3
f 135/2/3 136/2/3 138/2/3
f 132/3/3 133/3/3 138/3/3
f 138/2/3 136/2/3 139/2/3
f 138/3/3 139/3/3 140/3/3
f 139/2/3 136/2/3 140/2/3
f 140/2/3 136/2/3 141/2/3
f 132/3/3 138/3/3 142/3/3
f 138/3/3 140/3/3 142/3/3
f 140/3/3 141/3/3 142/3/3
f 142/3/3 141/3/3 143/3/3
f 141/2/3 136/2/3 144/2/3
f 143/3/3 141/3/3 146/3/3
f 144/2/3 145/2/3 146/2/3
f 141/2/3 144/2/3 146/2/3
f 146/2/3 145/2/3 147/2/3
f 146/3/3 147/3/3 148/3/3
f 147/2/3 145/2/3 148/2/3
f 148/2/3 145/2/3 149/2/3
f 131/2/3 132/2/3 150/2/3
f 132/3/3 142/3/3 150/3/3
f 150/3/3 142/3/3 151/3/3
f 148/3/3 149/3/3 152/3/3
f 143/3/3 146/3/3 152/3/3
f 146/3/3 148/3/3 152/3/3
f 149/2/3 145/2/3 153/2/3
f 152/3/3 149/3/3 153/3/3
f 142/2/3 143/2/3 154/2/3
f 151/3/3 142/3/3 154/3/3
f 143/3/3 152/3/3 155/3/3
f 154/2/3 143/2/3 155/2/3
f 150/2/3 151/2/3 156/2/3
f 131/2/3 150/2/3 156/2/3
f 156/2/3 151/2/3 157/2/3
f 152/2/3 153/2/3 158/2/3
f 153/2/3 145/2/3 159/2/3
f 158/2/3 153/2/3 159/2/3
f 158/1/3 159/1/3 160/1/3
f 159/2/3 145/2/3 160/2/3
f 160/2/3 145/2/3 161/2/3
f 156/1/3 157/1/3 162/1/3
f 157/2/3 151/2/3 163/2/3
f 162/1/3 157/1/3 163/1/3
f 152/2/3 158/2/3 164/2/3
f 158/1/3 160/1/3 164/1/3
f 160/1/3 161/1/3 164/1/3
f 164/1/3 161/1/3 165/1/3
f 151/3/3 154/3/3 166/3/3
f 163/2/3 151/2/3 166/2/3
f 154/3/3 155/3/3 166/3/3
f 166/3/3 155/3/3 167/3/3
f 155/3/3 152/3/3 168/3/3
f 167/3/3 155/3/3 168/3/3
f 164/2/3 165/2/3 169/2/3
f 168/3/3 152/3/3 169/3/3
f 152/2/3 164/2/3 169/2/3
f 166/2/3 167/2/3 170/2/3
f 163/2/3 166/2/3 170/2/3
f 170/2/3 167/2/3 171/2/3
f 169/2/3 165/2/3 172/2/3
f 168/2/3 169/2/3 172/2/3
f 165/1/3 161/1/3 173/1/3
f 172/2/3 165/2/3 173/2/3
f 168/2/3 172/2/3 174/2/3
f 172/1/3 173/1/3 175/1/3
f 174/2/3 172/2/3 175/2/3
f 167/3/3 168/3/3 176/3/3
f 171/2/3 167/2/3 176/2/3
f 168/2/3 174/2/3 177/2/3
f 176/3/3 168/3/3 177/3/3
f 174/1/3 175/1/3 178/1/3
f 173/1/3 161/1/3 179/1/3
f 178/1/3 175/1/3 179/1/3
f 175/1/3 173/1/3 179/1/3
f 176/2/3 177/2/3 180/2/3
f 174/1/3 178/1/3 181/1/3
f 180/2/3 177/2/3 181/2/3
f 177/2/3 174/2/3 181/2/3
f 176/2/3 180/2/3 182/2/3
f 171/2/3 176/2/3 182/2/3
f 170/1/3 171/1/3 182/1/3
f 180/1/3 181/1/3 183/1/3
f 182/2/3 180/2/3 183/2/3
f 181/1/3 178/1/3 184/1/3
f 183/1/3 181/1/3 184/1/3
f 184/1/3 178/1/3 185/1/3
f 179/1/3 161/1/3 186/1/3
f 186/1/3 161/1/3 187/1/3
f 182/1/3 183/1/3 189/1/3
f 170/1/3 182/1/3 189/1/3
f 183/1/3 184/1/3 189/1/3
f 189/1/3 184/1/3 190/1/3
f 190/1/3 184/1/3 191/1/3
f 188/1/3 189/1/3 193/1/3
f 189/1/3 190/1/3 193/1/3
f 191/1/3 184/1/3 194/1/3
f 194/1/3 184/1/3 195/1/3
f 192/1/3 193/1/3 196/1/3
f 193/1/3 190/1/3 197/1/3
f 196/1/3 193/1/3 197/1/3
f 198/1/3 199/1/3 200/1/3
f 198/1/3 200/1/3 202/1/3
f 202/1/3 200/1/3 203/1/3
f 201/1/3 202/1/3 204/1/3
f 204/1/3 202/1/3 205/1/3
f 206/1/3 207/1/3 208/1/3
f 208/1/3 207/1/3 209/1/3
f 210/2/3 211/2/3 212/2/3
f 210/2/3 212/2/3 213/2/3
f 213/2/3 212/2/3 214/2/3
f 215/1/3 216/1/3 217/1/3
f 217/1/3 216/1/3 218/1/3
f 219/1/3 220/1/3 221/1/3
f 221/1/3 220/1/3 222/1/3
f 225/1/4 224/1/4 223/1/4
f 226/1/4 225/1/4 223/1/4
f 227/1/4 225/1/4 226/1/4
f 230/2/4 229/2/4 228/2/4
f 231/2/4 229/2/4 230/2/4
f 234/1/4 233/1/4 232/1/4
f 235/1/4 233/1/4 234/1/4
f 240/1/4 237/1/4 236/1/4
f 241/3/4 238/3/4 237/3/4
f 241/1/4 237/1/4 240/1/4
f 242/1/4 240/1/4 239/1/4
f 243/3/4 238/3/4 241/3/4
f 244/1/4 242/1/4 239/1/4
f 244/1/4 243/1/4 242/1/4
f 245/3/4 238/3/4 243/3/4
f 245/1/4 243/1/4 244/1/4
f 246/3/4 238/3/4 245/3/4
f 249/1/4 248/1/4 247/1/4
f 250/1/4 248/1/4 249/1/4
f 251/1/5 252/1/5 254/1/5
f 253/1/5 254/1/5 256/1/5
f 255/1/5 256/1/5 258/1/5
f 257/1/5 258/1/5 261/1/5
f 254/1/5 252/1/5 262/1/5
f 261/1/5 258/1/5 262/1/5
f 256/1/5 254/1/5 262/1/5
f 258/1/5 256/1/5 262/1/5
f 259/2/5 260/2/5 263/2/5
f 263/2/5 260/2/5 264/2/5
f 262/1/5 252/1/5 268/1/5
f 265/1/5 266/1/5 269/1/5
f 269/1/5 266/1/5 270/1/5
f 267/1/5 268/1/5 271/1/5
f 268/1/5 252/1/5 272/1/5
f 271/1/5 268/1/5 272/1/5
f 273/3/5 274/3/5 279/3/5
f 274/2/5 275/2/5 279/2/5
f 279/2/5 275/2/5 280/2/5
f 275/1/5 276/1/5 281/1/5
f 277/1/5 278/1/5 282/1/5
f 282/1/5 278/1/5 283/1/5
f 273/3/5 279/3/5 284/3/5
f 279/3/5 280/3/5 284/3/5
f 284/3/5 280/3/5 285/3/5
f 280/2/5 275/2/5 286/2/5
f 285/3/5 280/3/5 286/3/5
f 286/2/5 275/2/5 287/2/5
f 275/1/5 281/1/5 288/1/5
f 287/2/5 275/2/5 288/2/5
f 281/1/5 282/1/5 288/1/5
f 288/1/5 282/1/5 289/1/5
f 289/1/5 282/1/5 290/1/5
f 290/1/5 282/1/5 291/1/5
f 284/2/5 285/2/5 292/2/5
f 286/3/5 287/3/5 293/3/5
f 292/2/5 285/2/5 293/2/5
f 285/3/5 286/3/5 293/3/5
f 293/3/5 287/3/5 294/3/5
f 294/3/5 287/3/5 295/3/5
f 295/3/5 287/3/5 296/3/5
f 287/2/5 288/2/5 297/2/5
f 296/3/5 287/3/5 297/3/5
f 288/2/5 289/2/5 297/2/5
f 297/2/5 289/2/5 298/2/5
f 298/2/5 289/2/5 299/2/5
f 284/2/5 292/2/5 300/2/5
f 300/2/5 292/2/5 301/2/5
f 292/3/5 293/3/5 302/3/5
f 301/2/5 292/2/5 302/2/5
f 293/3/5 294/3/5 302/3/5
f 302/3/5 294/3/5 303/3/5
f 303/3/5 294/3/5 304/3/5
f 294/2/5 295/2/5 305/2/5
f 304/3/5 294/3/5 305/3/5
f 295/3/5 296/3/5 306/3/5
f 305/2/5 295/2/5 306/2/5
f 296/2/5 297/2/5 307/2/5
f 306/3/5 296/3/5 307/3/5
f 297/2/5 298/2/5 307/2/5
f 299/2/5 289/2/5 308/2/5
f 308/2/5 289/2/5 309/2/5
f 289/1/5 290/1/5 310/1/5
f 309/2/5 289/2/5 310/2/5
f 310/1/5 290/1/5 311/1/5
f 302/2/5 303/2/5 314/2/5
f 301/2/5 302/2/5 314/2/5
f 314/2/5 303/2/5 315/2/5
f 307/2/5 298/2/5 316/2/5
f 306/2/5 307/2/5 316/2/5
f 298/1/5 299/1/5 317/1/5
f 316/2/5 298/2/5 317/2/5
f 308/3/5 309/3/5 318/3/5
f 299/2/5 308/2/5 318/2/5
f 318/3/5 309/3/5 319/3/5
f 300/3/5 301/3/5 320/3/5
f 301/2/5 314/2/5 321/2/5
f 320/3/5 301/3/5 321/3/5
f 315/2/5 303/2/5 322/2/5
f 303/3/5 304/3/5 322/3/5
f 322/3/5 304/3/5 323/3/5
f 306/2/5 316/2/5 324/2/5
f 316/1/5 317/1/5 325/1/5
f 324/2/5 316/2/5 325/2/5
f 319/3/5 309/3/5 326/3/5
f 318/2/5 319/2/5 326/2/5
f 311/2/5 312/2/5 327/2/5
f 326/3/5 309/3/5 327/3/5
f 310/2/5 311/2/5 327/2/5
f 309/2/5 310/2/5 327/2/5
f 327/2/5 312/2/5 328/2/5
f 312/1/5 313/1/5 329/1/5
f 328/2/5 312/2/5 329/2/5
f 320/2/5 321/2/5 330/2/5
f 321/2/5 314/2/5 331/2/5
f 330/2/5 321/2/5 331/2/5
f 322/2/5 323/2/5 332/2/5
f 315/2/5 322/2/5 332/2/5
f 314/1/5 315/1/5 332/1/5
f 332/2/5 323/2/5 333/2/5
f 323/3/5 304/3/5 334/3/5
f 334/3/5 304/3/5 335/3/5
f 306/2/5 324/2/5 336/2/5
f 324/1/5 325/1/5 337/1/5
f 317/1/5 299/1/5 338/1/5
f 337/1/5 325/1/5 338/1/5
f 325/1/5 317/1/5 338/1/5
f 318/2/5 326/2/5 339/2/5
f 327/2/5 328/2/5 339/2/5
f 326/2/5 327/2/5 339/2/5
f 328/1/5 329/1/5 340/1/5
f 339/2/5 328/2/5 340/2/5
f 331/2/5 314/2/5 341/2/5
f 330/1/5 331/1/5 341/1/5
f 341/2/5 314/2/5 342/2/5
f 333/2/5 323/2/5 343/2/5
f 332/1/5 333/1/5 343/1/5
f 323/3/5 334/3/5 344/3/5
f 343/2/5 323/2/5 344/2/5
f 334/2/5 335/2/5 345/2/5
f 344/3/5 334/3/5 345/3/5
f 335/2/5 336/2/5 345/2/5
f 345/2/5 336/2/5 346/2/5
f 324/1/5 337/1/5 347/1/5
f 346/2/5 336/2/5 347/2/5
f 336/2/5 324/2/5 347/2/5
f 338/1/5 299/1/5 348/1/5
f 318/2/5 339/2/5 348/2/5
f 299/2/5 318/2/5 348/2/5
f 339/1/5 340/1/5 349/1/5
f 348/2/5 339/2/5 349/2/5
f 349/1/5 340/1/5 350/1/5
f 340/1/5 329/1/5 351/1/5
f 350/1/5 340/1/5 351/1/5
f 329/1/5 313/1/5 351/1/5
f 342/2/5 314/2/5 352/2/5
f 341/1/5 342/1/5 352/1/5
f 332/1/5 343/1/5 353/1/5
f 352/2/5 314/2/5 353/2/5
f 343/1/5 344/1/5 353/1/5
f 314/1/5 332/1/5 353/1/5
f 345/2/5 346/2/5 354/2/5
f 353/1/5 344/1/5 354/1/5
f 344/2/5 345/2/5 354/2/5
f 346/1/5 347/1/5 355/1/5
f 354/2/5 346/2/5 355/2/5
f 347/1/5 337/1/5 356/1/5
f 355/1/5 347/1/5 356/1/5
f 349/1/5 350/1/5 357/1/5
f 338/1/5 348/1/5 357/1/5
f 348/1/5 349/1/5 357/1/5
f 354/1/5 355/1/5 358/1/5
f 356/1/5 357/1/5 358/1/5
f 355/1/5 356/1/5 358/1/5
f 352/1/5 353/1/5 358/1/5
f 353/1/5 354/1/5 358/1/5
f 330/1/5 341/1/5 358/1/5
f 341/1/5 352/1/5 358/1/5
f 357/1/5 350/1/5 359/1/5
f 358/1/5 357/1/5 359/1/5
f 359/1/5 360/1/5 361/1/5
f 361/1/5 360/1/5 362/1/5
f 363/2/5 364/2/5 366/2/5
f 364/1/5 365/1/5 367/1/5
f 366/2/5 364/2/5 367/2/5
f 367/1/5 365/1/5 368/1/5
f 369/1/5 370/1/5 371/1/5
f 371/1/5 370/1/5 372/1/5
f 373/1/5 374/1/5 375/1/5
f 375/1/5 374/1/5 376/1/5
f 377/1/5 378/1/5 379/1/5
f 379/1/5 378/1/5 380/1/5
f 381/2/5 382/2/5 383/2/5
f 383/2/5 382/2/5 384/2/5
f 387/1/6 386/1/6 385/1/6
f 388/1/6 386/1/6 387/1/6
f 391/1/6 390/1/6 389/1/6
f 392/1/6 390/1/6 391/1/6
f 395/1/6 394/1/6 393/1/6
f 396/1/6 394/1/6 395/1/6
f 402/2/6 398/2/6 397/2/6
f 403/2/6 398/2/6 402/2/6
f 405/1/6 400/1/6 399/1/6
f 406/2/6 404/2/6 403/2/6
f 406/2/6 402/2/6 401/2/6
f 406/2/6 403/2/6 402/2/6
f 407/1/6 405/1/6 404/1/6
f 407/2/6 404/2/6 406/2/6
f 408/1/6 400/1/6 405/1/6
f 408/1/6 405/1/6 407/1/6
f 409/3/6 407/3/6 406/3/6
f 409/1/6 400/1/6 408/1/6
f 409/3/6 408/3/6 407/3/6
f 410/1/6 400/1/6 409/1/6
f 411/3/6 409/3/6 406/3/6
f 411/3/6 410/3/6 409/3/6
f 412/3/6 410/3/6 411/3/6
