# MagicaVoxel @ Ephtracy

# group
o 

# material
mtllib untitled2-101.mtl
usemtl palette

# normals
vn 0 0 -1
vn 0 0 1
vn -1 0 0
vn 1 0 0
vn 0 -1 0
vn 0 1 0

# texcoords
vt 0.939453 0.5
vt 0.962891 0.5

# verts
v -22.9 2.4 14.2
v -22.4 2.4 14.2
v -22.9 13.3 14.2
v -22.4 13.3 14.2
v -22.9 2.4 19.3
v -22.4 2.4 19.3
v -22.9 13.3 19.3
v -22.4 13.3 19.3
v -22.9 2.4 14.2
v -22.9 13.3 14.2
v -22.9 2.4 19.3
v -22.9 13.3 19.3
v -22.4 2.4 14.2
v -22.4 13.3 14.2
v -22.4 10.9 15
v -22.4 11 15
v -22.4 6.3 15.1
v -22.4 6.9 15.1
v -22.4 10.7 15.1
v -22.4 10.8 15.1
v -22.4 11 15.1
v -22.4 11.2 15.1
v -22.4 6.9 15.2
v -22.4 7.2 15.2
v -22.4 10.1 15.2
v -22.4 10.7 15.2
v -22.4 10.8 15.2
v -22.4 10.9 15.2
v -22.4 11.2 15.2
v -22.4 11.4 15.2
v -22.4 12.4 15.2
v -22.4 13 15.2
v -22.4 6.3 15.3
v -22.4 6.4 15.3
v -22.4 7 15.3
v -22.4 7.2 15.3
v -22.4 10.1 15.3
v -22.4 11.1 15.3
v -22.4 11.4 15.3
v -22.4 11.5 15.3
v -22.4 12.7 15.3
v -22.4 13 15.3
v -22.4 6.9 15.4
v -22.4 7 15.4
v -22.4 11.1 15.4
v -22.4 11.3 15.4
v -22.4 12.6 15.4
v -22.4 12.7 15.4
v -22.4 6.4 15.5
v -22.4 6.5 15.5
v -22.4 6.8 15.5
v -22.4 6.9 15.5
v -22.4 11.3 15.5
v -22.4 11.5 15.5
v -22.4 12.3 15.5
v -22.4 12.4 15.5
v -22.4 12.6 15.5
v -22.4 13.1 15.5
v -22.4 6.5 15.6
v -22.4 6.6 15.6
v -22.4 6.8 15.6
v -22.4 7 15.6
v -22.4 10.4 15.6
v -22.4 10.7 15.6
v -22.4 11.3 15.6
v -22.4 11.4 15.6
v -22.4 12.3 15.6
v -22.4 12.4 15.6
v -22.4 12.6 15.6
v -22.4 12.7 15.6
v -22.4 12.8 15.6
v -22.4 12.9 15.6
v -22.4 13 15.6
v -22.4 13.1 15.6
v -22.4 7 15.7
v -22.4 7.1 15.7
v -22.4 10.7 15.7
v -22.4 10.8 15.7
v -22.4 11.4 15.7
v -22.4 11.5 15.7
v -22.4 12.5 15.7
v -22.4 12.6 15.7
v -22.4 12.7 15.7
v -22.4 12.8 15.7
v -22.4 12.9 15.7
v -22.4 13 15.7
v -22.4 6.8 15.8
v -22.4 7.1 15.8
v -22.4 10.3 15.8
v -22.4 10.4 15.8
v -22.4 10.6 15.8
v -22.4 10.8 15.8
v -22.4 11.4 15.8
v -22.4 11.5 15.8
v -22.4 12.5 15.8
v -22.4 12.6 15.8
v -22.4 6.6 15.9
v -22.4 6.7 15.9
v -22.4 6.8 15.9
v -22.4 7 15.9
v -22.4 11.4 15.9
v -22.4 11.5 15.9
v -22.4 12.3 15.9
v -22.4 12.4 15.9
v -22.4 12.5 15.9
v -22.4 12.6 15.9
v -22.4 10.5 16
v -22.4 10.6 16
v -22.4 11 16
v -22.4 11.3 16
v -22.4 12.3 16
v -22.4 12.4 16
v -22.4 12.5 16
v -22.4 12.6 16
v -22.4 7 16.1
v -22.4 7.2 16.1
v -22.4 10.4 16.1
v -22.4 10.5 16.1
v -22.4 11 16.1
v -22.4 11.1 16.1
v -22.4 12.4 16.1
v -22.4 12.6 16.1
v -22.4 6.7 16.2
v -22.4 6.8 16.2
v -22.4 7 16.2
v -22.4 7.2 16.2
v -22.4 10.3 16.2
v -22.4 10.4 16.2
v -22.4 11 16.2
v -22.4 11.1 16.2
v -22.4 11.4 16.2
v -22.4 11.5 16.2
v -22.4 12.4 16.2
v -22.4 12.5 16.2
v -22.4 6.8 16.3
v -22.4 7 16.3
v -22.4 11 16.3
v -22.4 11.1 16.3
v -22.4 11.4 16.3
v -22.4 11.5 16.3
v -22.4 12.4 16.3
v -22.4 12.5 16.3
v -22.4 12.7 16.3
v -22.4 12.9 16.3
v -22.4 11.1 16.4
v -22.4 11.4 16.4
v -22.4 12.7 16.4
v -22.4 12.8 16.4
v -22.4 12.9 16.4
v -22.4 13.1 16.4
v -22.4 11.4 16.5
v -22.4 11.5 16.5
v -22.4 12.8 16.5
v -22.4 13.1 16.5
v -22.4 11 18.7
v -22.4 11.2 18.7
v -22.4 11.2 18.8
v -22.4 11.4 18.8
v -22.4 11 18.9
v -22.4 11.1 18.9
v -22.4 11.4 18.9
v -22.4 11.5 18.9
v -22.4 2.4 19
v -22.4 2.5 19
v -22.4 11.1 19
v -22.4 11.2 19
v -22.4 2.5 19.1
v -22.4 2.8 19.1
v -22.4 10.1 19.1
v -22.4 10.4 19.1
v -22.4 11.2 19.1
v -22.4 11.3 19.1
v -22.4 11.4 19.1
v -22.4 11.5 19.1
v -22.4 12.3 19.1
v -22.4 12.7 19.1
v -22.4 2.4 19.2
v -22.4 2.8 19.2
v -22.4 10.1 19.2
v -22.4 10.4 19.2
v -22.4 11.3 19.2
v -22.4 11.4 19.2
v -22.4 12.3 19.2
v -22.4 12.7 19.2
v -22.4 2.4 19.3
v -22.4 13.3 19.3
v -22.9 2.4 14.2
v -22.9 2.4 19.3
v -22.5 2.4 19
v -22.5 2.4 19.2
v -22.4 2.4 14.2
v -22.4 2.4 19
v -22.4 2.4 19.2
v -22.4 2.4 19.3
v -22.9 13.3 14.2
v -22.9 13.3 19.3
v -22.4 13.3 14.2
v -22.4 13.3 19.3

# faces
f 3/1/1 2/1/1 1/1/1
f 4/1/1 2/1/1 3/1/1
f 5/1/2 6/1/2 7/1/2
f 7/1/2 6/1/2 8/1/2
f 11/1/3 10/1/3 9/1/3
f 12/1/3 10/1/3 11/1/3
f 13/1/4 14/1/4 15/1/4
f 15/1/4 14/1/4 16/1/4
f 13/1/4 15/1/4 17/1/4
f 17/1/4 15/1/4 18/1/4
f 18/1/4 15/1/4 19/1/4
f 19/1/4 15/1/4 20/1/4
f 16/1/4 14/1/4 21/1/4
f 15/2/4 16/2/4 21/2/4
f 21/1/4 14/1/4 22/1/4
f 17/2/4 18/2/4 23/2/4
f 18/1/4 19/1/4 23/1/4
f 23/1/4 19/1/4 24/1/4
f 24/1/4 19/1/4 25/1/4
f 19/2/4 20/2/4 26/2/4
f 25/1/4 19/1/4 26/1/4
f 20/1/4 15/1/4 27/1/4
f 26/2/4 20/2/4 27/2/4
f 21/2/4 22/2/4 28/2/4
f 27/1/4 15/1/4 28/1/4
f 15/2/4 21/2/4 28/2/4
f 22/1/4 14/1/4 29/1/4
f 28/2/4 22/2/4 29/2/4
f 29/1/4 14/1/4 30/1/4
f 30/1/4 14/1/4 31/1/4
f 31/1/4 14/1/4 32/1/4
f 13/1/4 17/1/4 33/1/4
f 23/2/4 24/2/4 33/2/4
f 17/2/4 23/2/4 33/2/4
f 33/2/4 24/2/4 34/2/4
f 34/2/4 24/2/4 35/2/4
f 24/1/4 25/1/4 36/1/4
f 35/2/4 24/2/4 36/2/4
f 25/2/4 26/2/4 37/2/4
f 36/1/4 25/1/4 37/1/4
f 27/2/4 28/2/4 37/2/4
f 26/2/4 27/2/4 37/2/4
f 28/2/4 29/2/4 37/2/4
f 29/2/4 30/2/4 37/2/4
f 37/2/4 30/2/4 38/2/4
f 30/1/4 31/1/4 39/1/4
f 38/2/4 30/2/4 39/2/4
f 39/1/4 31/1/4 40/1/4
f 31/2/4 32/2/4 41/2/4
f 32/1/4 14/1/4 42/1/4
f 41/2/4 32/2/4 42/2/4
f 34/2/4 35/2/4 43/2/4
f 35/1/4 36/1/4 44/1/4
f 43/2/4 35/2/4 44/2/4
f 37/1/4 38/1/4 44/1/4
f 36/1/4 37/1/4 44/1/4
f 39/2/4 40/2/4 45/2/4
f 44/1/4 38/1/4 45/1/4
f 38/2/4 39/2/4 45/2/4
f 45/2/4 40/2/4 46/2/4
f 31/2/4 41/2/4 47/2/4
f 41/1/4 42/1/4 48/1/4
f 47/2/4 41/2/4 48/2/4
f 34/2/4 43/2/4 49/2/4
f 33/1/4 34/1/4 49/1/4
f 49/2/4 43/2/4 50/2/4
f 50/2/4 43/2/4 51/2/4
f 43/1/4 44/1/4 52/1/4
f 51/2/4 43/2/4 52/2/4
f 44/1/4 45/1/4 52/1/4
f 45/1/4 46/1/4 52/1/4
f 46/2/4 40/2/4 53/2/4
f 52/1/4 46/1/4 53/1/4
f 40/1/4 31/1/4 54/1/4
f 53/2/4 40/2/4 54/2/4
f 54/1/4 31/1/4 55/1/4
f 31/2/4 47/2/4 56/2/4
f 55/1/4 31/1/4 56/1/4
f 47/1/4 48/1/4 57/1/4
f 56/2/4 47/2/4 57/2/4
f 48/1/4 42/1/4 58/1/4
f 57/1/4 48/1/4 58/1/4
f 42/1/4 14/1/4 58/1/4
f 50/2/4 51/2/4 59/2/4
f 49/1/4 50/1/4 59/1/4
f 59/2/4 51/2/4 60/2/4
f 53/1/4 54/1/4 61/1/4
f 60/2/4 51/2/4 61/2/4
f 51/1/4 52/1/4 61/1/4
f 52/1/4 53/1/4 61/1/4
f 54/1/4 55/1/4 61/1/4
f 61/1/4 55/1/4 62/1/4
f 62/1/4 55/1/4 63/1/4
f 63/1/4 55/1/4 64/1/4
f 64/1/4 55/1/4 65/1/4
f 65/1/4 55/1/4 66/1/4
f 56/2/4 57/2/4 67/2/4
f 66/1/4 55/1/4 67/1/4
f 55/2/4 56/2/4 67/2/4
f 57/2/4 58/2/4 67/2/4
f 67/2/4 58/2/4 68/2/4
f 68/2/4 58/2/4 69/2/4
f 69/2/4 58/2/4 70/2/4
f 70/2/4 58/2/4 71/2/4
f 71/2/4 58/2/4 72/2/4
f 72/2/4 58/2/4 73/2/4
f 58/1/4 14/1/4 74/1/4
f 73/2/4 58/2/4 74/2/4
f 60/2/4 61/2/4 75/2/4
f 61/2/4 62/2/4 75/2/4
f 62/1/4 63/1/4 75/1/4
f 75/1/4 63/1/4 76/1/4
f 64/1/4 65/1/4 77/1/4
f 63/2/4 64/2/4 77/2/4
f 77/1/4 65/1/4 78/1/4
f 65/2/4 66/2/4 79/2/4
f 66/1/4 67/1/4 79/1/4
f 67/1/4 68/1/4 79/1/4
f 79/1/4 68/1/4 80/1/4
f 68/2/4 69/2/4 81/2/4
f 69/1/4 70/1/4 82/1/4
f 81/2/4 69/2/4 82/2/4
f 70/2/4 71/2/4 83/2/4
f 82/1/4 70/1/4 83/1/4
f 71/1/4 72/1/4 84/1/4
f 83/2/4 71/2/4 84/2/4
f 72/2/4 73/2/4 85/2/4
f 84/1/4 72/1/4 85/1/4
f 73/1/4 74/1/4 86/1/4
f 85/2/4 73/2/4 86/2/4
f 75/2/4 76/2/4 87/2/4
f 60/2/4 75/2/4 87/2/4
f 76/1/4 63/1/4 88/1/4
f 87/2/4 76/2/4 88/2/4
f 88/1/4 63/1/4 89/1/4
f 77/2/4 78/2/4 90/2/4
f 89/1/4 63/1/4 90/1/4
f 63/2/4 77/2/4 90/2/4
f 90/2/4 78/2/4 91/2/4
f 78/1/4 65/1/4 92/1/4
f 91/2/4 78/2/4 92/2/4
f 65/2/4 79/2/4 93/2/4
f 79/2/4 80/2/4 93/2/4
f 80/1/4 68/1/4 94/1/4
f 93/2/4 80/2/4 94/2/4
f 83/1/4 84/1/4 95/1/4
f 84/1/4 85/1/4 95/1/4
f 82/1/4 83/1/4 95/1/4
f 68/2/4 81/2/4 95/2/4
f 81/1/4 82/1/4 95/1/4
f 85/1/4 86/1/4 95/1/4
f 95/1/4 86/1/4 96/1/4
f 59/1/4 60/1/4 97/1/4
f 60/2/4 87/2/4 97/2/4
f 97/2/4 87/2/4 98/2/4
f 88/1/4 89/1/4 99/1/4
f 98/2/4 87/2/4 99/2/4
f 87/1/4 88/1/4 99/1/4
f 99/1/4 89/1/4 100/1/4
f 93/1/4 94/1/4 101/1/4
f 65/2/4 93/2/4 101/2/4
f 94/1/4 68/1/4 102/1/4
f 101/1/4 94/1/4 102/1/4
f 102/1/4 68/1/4 103/1/4
f 95/2/4 96/2/4 104/2/4
f 103/1/4 68/1/4 104/1/4
f 68/2/4 95/2/4 104/2/4
f 104/2/4 96/2/4 105/2/4
f 96/1/4 86/1/4 106/1/4
f 105/2/4 96/2/4 106/2/4
f 90/2/4 91/2/4 107/2/4
f 89/2/4 90/2/4 107/2/4
f 91/1/4 92/1/4 108/1/4
f 107/2/4 91/2/4 108/2/4
f 92/1/4 65/1/4 109/1/4
f 108/1/4 92/1/4 109/1/4
f 65/2/4 101/2/4 110/2/4
f 109/1/4 65/1/4 110/1/4
f 101/2/4 102/2/4 110/2/4
f 104/2/4 105/2/4 111/2/4
f 102/1/4 103/1/4 111/1/4
f 103/2/4 104/2/4 111/2/4
f 111/2/4 105/2/4 112/2/4
f 105/1/4 106/1/4 113/1/4
f 112/2/4 105/2/4 113/2/4
f 106/1/4 86/1/4 114/1/4
f 113/1/4 106/1/4 114/1/4
f 100/1/4 89/1/4 115/1/4
f 99/2/4 100/2/4 115/2/4
f 98/2/4 99/2/4 115/2/4
f 115/1/4 89/1/4 116/1/4
f 89/2/4 107/2/4 117/2/4
f 108/1/4 109/1/4 118/1/4
f 117/2/4 107/2/4 118/2/4
f 107/1/4 108/1/4 118/1/4
f 109/2/4 110/2/4 119/2/4
f 118/1/4 109/1/4 119/1/4
f 119/2/4 110/2/4 120/2/4
f 112/2/4 113/2/4 121/2/4
f 111/1/4 112/1/4 121/1/4
f 113/2/4 114/2/4 121/2/4
f 114/1/4 86/1/4 122/1/4
f 121/2/4 114/2/4 122/2/4
f 97/1/4 98/1/4 123/1/4
f 115/2/4 116/2/4 123/2/4
f 98/2/4 115/2/4 123/2/4
f 123/2/4 116/2/4 124/2/4
f 124/2/4 116/2/4 125/2/4
f 116/1/4 89/1/4 126/1/4
f 125/2/4 116/2/4 126/2/4
f 89/2/4 117/2/4 127/2/4
f 126/1/4 89/1/4 127/1/4
f 117/1/4 118/1/4 128/1/4
f 127/2/4 117/2/4 128/2/4
f 119/1/4 120/1/4 128/1/4
f 118/1/4 119/1/4 128/1/4
f 128/1/4 120/1/4 129/1/4
f 120/2/4 110/2/4 130/2/4
f 129/1/4 120/1/4 130/1/4
f 110/2/4 102/2/4 131/2/4
f 130/2/4 110/2/4 131/2/4
f 111/1/4 121/1/4 132/1/4
f 131/2/4 102/2/4 132/2/4
f 121/1/4 122/1/4 132/1/4
f 102/1/4 111/1/4 132/1/4
f 132/1/4 122/1/4 133/1/4
f 133/1/4 122/1/4 134/1/4
f 123/1/4 124/1/4 135/1/4
f 124/2/4 125/2/4 135/2/4
f 128/1/4 129/1/4 136/1/4
f 135/2/4 125/2/4 136/2/4
f 126/1/4 127/1/4 136/1/4
f 125/1/4 126/1/4 136/1/4
f 127/1/4 128/1/4 136/1/4
f 129/2/4 130/2/4 137/2/4
f 136/1/4 129/1/4 137/1/4
f 130/2/4 131/2/4 137/2/4
f 137/2/4 131/2/4 138/2/4
f 132/1/4 133/1/4 139/1/4
f 138/2/4 131/2/4 139/2/4
f 131/1/4 132/1/4 139/1/4
f 139/1/4 133/1/4 140/1/4
f 133/2/4 134/2/4 141/2/4
f 140/1/4 133/1/4 141/1/4
f 134/1/4 122/1/4 142/1/4
f 141/2/4 134/2/4 142/2/4
f 122/1/4 86/1/4 143/1/4
f 142/1/4 122/1/4 143/1/4
f 143/1/4 86/1/4 144/1/4
f 135/1/4 136/1/4 145/1/4
f 137/1/4 138/1/4 145/1/4
f 136/1/4 137/1/4 145/1/4
f 139/2/4 140/2/4 145/2/4
f 138/2/4 139/2/4 145/2/4
f 145/2/4 140/2/4 146/2/4
f 143/2/4 144/2/4 147/2/4
f 142/1/4 143/1/4 147/1/4
f 140/1/4 141/1/4 147/1/4
f 141/1/4 142/1/4 147/1/4
f 147/2/4 144/2/4 148/2/4
f 144/1/4 86/1/4 149/1/4
f 148/2/4 144/2/4 149/2/4
f 86/1/4 74/1/4 150/1/4
f 149/1/4 86/1/4 150/1/4
f 74/1/4 14/1/4 150/1/4
f 146/2/4 140/2/4 151/2/4
f 145/1/4 146/1/4 151/1/4
f 147/1/4 148/1/4 152/1/4
f 151/2/4 140/2/4 152/2/4
f 140/1/4 147/1/4 152/1/4
f 148/2/4 149/2/4 153/2/4
f 152/1/4 148/1/4 153/1/4
f 149/2/4 150/2/4 153/2/4
f 150/1/4 14/1/4 154/1/4
f 153/2/4 150/2/4 154/2/4
f 145/1/4 151/1/4 155/1/4
f 152/1/4 153/1/4 155/1/4
f 153/1/4 154/1/4 155/1/4
f 151/1/4 152/1/4 155/1/4
f 135/1/4 145/1/4 155/1/4
f 155/1/4 154/1/4 156/1/4
f 155/2/4 156/2/4 157/2/4
f 156/1/4 154/1/4 157/1/4
f 157/1/4 154/1/4 158/1/4
f 135/1/4 155/1/4 159/1/4
f 155/2/4 157/2/4 159/2/4
f 157/2/4 158/2/4 159/2/4
f 159/2/4 158/2/4 160/2/4
f 158/1/4 154/1/4 161/1/4
f 160/2/4 158/2/4 161/2/4
f 161/1/4 154/1/4 162/1/4
f 123/1/4 135/1/4 163/1/4
f 49/1/4 59/1/4 163/1/4
f 97/1/4 123/1/4 163/1/4
f 13/1/4 33/1/4 163/1/4
f 135/1/4 159/1/4 163/1/4
f 159/1/4 160/1/4 163/1/4
f 59/1/4 97/1/4 163/1/4
f 33/1/4 49/1/4 163/1/4
f 163/1/4 160/1/4 164/1/4
f 161/2/4 162/2/4 165/2/4
f 164/1/4 160/1/4 165/1/4
f 160/2/4 161/2/4 165/2/4
f 165/2/4 162/2/4 166/2/4
f 163/2/4 164/2/4 167/2/4
f 164/1/4 165/1/4 167/1/4
f 165/1/4 166/1/4 167/1/4
f 167/1/4 166/1/4 168/1/4
f 168/1/4 166/1/4 169/1/4
f 169/1/4 166/1/4 170/1/4
f 166/2/4 162/2/4 171/2/4
f 170/1/4 166/1/4 171/1/4
f 171/2/4 162/2/4 172/2/4
f 172/2/4 162/2/4 173/2/4
f 162/1/4 154/1/4 174/1/4
f 173/2/4 162/2/4 174/2/4
f 174/1/4 154/1/4 175/1/4
f 175/1/4 154/1/4 176/1/4
f 163/2/4 167/2/4 177/2/4
f 167/2/4 168/2/4 177/2/4
f 168/1/4 169/1/4 178/1/4
f 177/2/4 168/2/4 178/2/4
f 169/2/4 170/2/4 179/2/4
f 178/1/4 169/1/4 179/1/4
f 170/1/4 171/1/4 180/1/4
f 179/2/4 170/2/4 180/2/4
f 171/1/4 172/1/4 180/1/4
f 172/2/4 173/2/4 181/2/4
f 180/1/4 172/1/4 181/1/4
f 174/1/4 175/1/4 182/1/4
f 181/2/4 173/2/4 182/2/4
f 173/1/4 174/1/4 182/1/4
f 175/2/4 176/2/4 183/2/4
f 182/1/4 175/1/4 183/1/4
f 176/1/4 154/1/4 184/1/4
f 183/2/4 176/2/4 184/2/4
f 179/1/4 180/1/4 185/1/4
f 177/1/4 178/1/4 185/1/4
f 183/1/4 184/1/4 185/1/4
f 180/1/4 181/1/4 185/1/4
f 178/1/4 179/1/4 185/1/4
f 182/1/4 183/1/4 185/1/4
f 181/1/4 182/1/4 185/1/4
f 184/1/4 154/1/4 186/1/4
f 185/1/4 184/1/4 186/1/4
f 154/1/4 14/1/4 186/1/4
f 189/1/5 188/1/5 187/1/5
f 190/1/5 188/1/5 189/1/5
f 191/1/5 189/1/5 187/1/5
f 192/2/5 190/2/5 189/2/5
f 192/1/5 189/1/5 191/1/5
f 193/1/5 188/1/5 190/1/5
f 193/2/5 190/2/5 192/2/5
f 194/1/5 188/1/5 193/1/5
f 195/1/6 196/1/6 197/1/6
f 197/1/6 196/1/6 198/1/6
